<?xml version="1.0" encoding="UTF-8" standalone="no"?>
<svg
   xmlns:dc="http://purl.org/dc/elements/1.1/"
   xmlns:cc="http://creativecommons.org/ns#"
   xmlns:rdf="http://www.w3.org/1999/02/22-rdf-syntax-ns#"
   xmlns:svg="http://www.w3.org/2000/svg"
   xmlns="http://www.w3.org/2000/svg"
   xmlns:xlink="http://www.w3.org/1999/xlink"
   xmlns:sodipodi="http://sodipodi.sourceforge.net/DTD/sodipodi-0.dtd"
   xmlns:inkscape="http://www.inkscape.org/namespaces/inkscape"
   id="svg4306"
   width="22"
   height="22"
   version="1.1"
   style="enable-background:new"
   sodipodi:docname="minimize.svg"
   inkscape:version="1.0.1 (3bc2e813f5, 2020-09-07)">
  <metadata
     id="metadata26">
    <rdf:RDF>
      <cc:Work
         rdf:about="">
        <dc:format>image/svg+xml</dc:format>
        <dc:type
           rdf:resource="http://purl.org/dc/dcmitype/StillImage" />
        <dc:title />
      </cc:Work>
    </rdf:RDF>
  </metadata>
  <defs
     id="defs24">
    <filter
       color-interpolation-filters="sRGB"
       height="1.048"
       width="1.048"
       y="-.024"
       x="-.024"
       id="filter11290">
      <feGaussianBlur
         id="feGaussianBlur879"
         stdDeviation="0.15875313" />
    </filter>
    <linearGradient
       gradientUnits="userSpaceOnUse"
       gradientTransform="translate(-0.0078552,-5.0139e-5)"
       y2=".89803"
       y1="16.296"
       x2="16.137"
       x1=".73911"
       id="linearGradient1005">
      <stop
         id="stop882"
         offset="0"
         stop-color="#ff963c" />
      <stop
         id="stop884"
         offset="1"
         stop-color="#ffdc55" />
    </linearGradient>
    <filter
       color-interpolation-filters="sRGB"
       height="1.1658"
       width="1.1702"
       y="-.082922"
       x="-.085107"
       id="filter1223">
      <feGaussianBlur
         id="feGaussianBlur887"
         stdDeviation="0.33551144" />
    </filter>
  </defs>
  <sodipodi:namedview
     pagecolor="#c8c8c8"
     bordercolor="#666666"
     borderopacity="1"
     objecttolerance="10"
     gridtolerance="10"
     guidetolerance="10"
     inkscape:pageopacity="0"
     inkscape:pageshadow="2"
     inkscape:window-width="1920"
     inkscape:window-height="985"
     id="namedview22"
     showgrid="true"
     inkscape:zoom="8"
     inkscape:cx="-12.793744"
     inkscape:cy="43.371843"
     inkscape:window-x="0"
     inkscape:window-y="0"
     inkscape:window-maximized="1"
     inkscape:current-layer="svg4306"
     inkscape:document-rotation="0"
     inkscape:snap-bbox="true"
     inkscape:bbox-nodes="true"
     inkscape:snap-bbox-edge-midpoints="true">
    <inkscape:grid
       type="xygrid"
       id="grid949" />
  </sodipodi:namedview>
  <use
     x="0"
     y="0"
     xlink:href="#g1051"
     id="use1053"
     transform="translate(27.966102)"
     width="100%"
     height="100%" />
  <g
     id="active-center">
    <rect
       ry="0"
       rx="0"
       y="9.6172789e-07"
       x="1.2357177e-06"
       height="21.999998"
       width="21.999998"
       id="rect962"
       style="opacity:0;fill:#000000;fill-opacity:1;fill-rule:evenodd;stroke:none;stroke-width:2.99999976;stroke-linecap:round;stroke-linejoin:round;stroke-miterlimit:4;stroke-dasharray:none;stroke-opacity:1;paint-order:fill markers stroke" />
    <rect
       ry="0"
       y="11"
       x="6.0000005"
       height="1"
       width="10"
       id="rect842"
       style="opacity:1;fill:#323232;fill-opacity:1;stroke:none;stroke-width:0.816496;stroke-linecap:round;stroke-miterlimit:4;stroke-dasharray:none;stroke-opacity:1" />
  </g>
  <g
     id="inactive-center"
     transform="translate(-0.65556335)">
    <rect
       style="opacity:0;fill:#000000;fill-opacity:1;fill-rule:evenodd;stroke:none;stroke-width:2.99999976;stroke-linecap:round;stroke-linejoin:round;stroke-miterlimit:4;stroke-dasharray:none;stroke-opacity:1;paint-order:fill markers stroke"
       id="rect1015"
       width="21.999998"
       height="21.999998"
       x="28.655563"
       y="0.0605249"
       rx="0"
       ry="0" />
    <rect
       style="opacity:0.5;fill:#323232;fill-opacity:1;stroke:none;stroke-width:0.816496;stroke-linecap:round;stroke-miterlimit:4;stroke-dasharray:none;stroke-opacity:1"
       id="rect844"
       width="10"
       height="1"
       x="34.655563"
       y="11"
       ry="0" />
  </g>
  <g
     id="deactivated-center"
     transform="translate(0.14104843)">
    <rect
       ry="0"
       rx="0"
       y="0.80628788"
       x="58.858952"
       height="21.999998"
       width="21.999998"
       id="rect1020"
       style="opacity:0;fill:#000000;fill-opacity:1;fill-rule:evenodd;stroke:none;stroke-width:2.99999976;stroke-linecap:round;stroke-linejoin:round;stroke-miterlimit:4;stroke-dasharray:none;stroke-opacity:1;paint-order:fill markers stroke" />
    <rect
       ry="0"
       y="11"
       x="64.858948"
       height="1"
       width="9.999999"
       id="rect893"
       style="opacity:0.5;fill:#323232;fill-opacity:1;stroke:none;stroke-width:0.816496;stroke-linecap:round;stroke-miterlimit:4;stroke-dasharray:none;stroke-opacity:1" />
  </g>
  <g
     id="hover-center">
    <rect
       style="display:inline;opacity:1;fill:none;fill-opacity:1;stroke:none;stroke-width:1.375;stroke-linecap:butt;stroke-linejoin:miter;stroke-miterlimit:4;stroke-dasharray:none;stroke-dashoffset:0;stroke-opacity:0"
       id="rect6316"
       width="22"
       height="22"
       x="6.2584604e-07"
       y="32" />
    <g
       transform="translate(25.000001)"
       id="g921">
      <rect
         style="opacity:0.15;fill:#323232;fill-opacity:1;stroke:none;stroke-width:1.22222;stroke-linecap:round;stroke-miterlimit:4;stroke-dasharray:none;stroke-opacity:1"
         id="rect913"
         width="22"
         height="22"
         x="-25"
         y="32"
         ry="3" />
      <rect
         style="opacity:1;fill:#323232;fill-opacity:1;stroke:none;stroke-width:0.816496;stroke-linecap:round;stroke-miterlimit:4;stroke-dasharray:none;stroke-opacity:1"
         id="rect846"
         width="10"
         height="1"
         x="-19"
         y="43"
         ry="0" />
      <path
         id="rect857"
         style="opacity:0.6;fill:#323232;fill-opacity:1;stroke:none;stroke-width:1.22222;stroke-linecap:round;stroke-miterlimit:4;stroke-dasharray:none;stroke-opacity:1"
         d="M 3 32 C 1.338 32 0 33.338 0 35 L 0 51 C 0 52.662 1.338 54 3 54 L 19 54 C 20.662 54 22 52.662 22 51 L 22 35 C 22 33.338 20.662 32 19 32 L 3 32 z M 3 33 L 19 33 C 20.108 33 21 33.892 21 35 L 21 51 C 21 52.108 20.108 53 19 53 L 3 53 C 1.892 53 1 52.108 1 51 L 1 35 C 1 33.892 1.892 33 3 33 z "
         transform="translate(-25.000001)" />
    </g>
  </g>
  <g
     id="pressed-center"
     transform="translate(0,-0.5)">
    <rect
       y="57.5"
       x="6.2316286e-07"
       height="22"
       width="22"
       id="rect6412"
       style="display:inline;opacity:1;fill:none;fill-opacity:1;stroke:none;stroke-width:1.375;stroke-linecap:butt;stroke-linejoin:miter;stroke-miterlimit:4;stroke-dasharray:none;stroke-dashoffset:0;stroke-opacity:0" />
    <g
       transform="translate(25.000001,-0.5)"
       id="g946">
      <rect
         ry="3"
         y="58"
         x="-25"
         height="22"
         width="22"
         id="rect915"
         style="opacity:0.25;fill:#323232;fill-opacity:1;stroke:none;stroke-width:1.22222;stroke-linecap:round;stroke-miterlimit:4;stroke-dasharray:none;stroke-opacity:1" />
      <rect
         ry="0"
         y="69"
         x="-19"
         height="1"
         width="10"
         id="rect917"
         style="opacity:1;fill:#323232;fill-opacity:1;stroke:none;stroke-width:0.816496;stroke-linecap:round;stroke-miterlimit:4;stroke-dasharray:none;stroke-opacity:1" />
      <path
         id="rect864"
         style="opacity:0.6;fill:#323232;fill-opacity:1;stroke:none;stroke-width:1.22222;stroke-linecap:round;stroke-miterlimit:4;stroke-dasharray:none;stroke-opacity:1"
         d="M 3 57 C 1.338 57 0 58.338 0 60 L 0 76 C 0 77.662 1.338 79 3 79 L 19 79 C 20.662 79 22 77.662 22 76 L 22 60 C 22 58.338 20.662 57 19 57 L 3 57 z M 3 58 L 19 58 C 20.108 58 21 58.892 21 60 L 21 76 C 21 77.108 20.108 78 19 78 L 3 78 C 1.892 78 1 77.108 1 76 L 1 60 C 1 58.892 1.892 58 3 58 z "
         transform="translate(-25.000001,1)" />
    </g>
  </g>
</svg>
