<?xml version="1.0" encoding="UTF-8" standalone="no"?>
<svg
   width="32"
   height="32"
   viewBox="0 0 8.4666665 8.4666669"
   version="1.1"
   id="svg847"
   inkscape:version="1.1.1 (3bf5ae0d25, 2021-09-20, custom)"
   sodipodi:docname="activities.svg"
   xmlns:inkscape="http://www.inkscape.org/namespaces/inkscape"
   xmlns:sodipodi="http://sodipodi.sourceforge.net/DTD/sodipodi-0.dtd"
   xmlns="http://www.w3.org/2000/svg"
   xmlns:svg="http://www.w3.org/2000/svg"
   xmlns:rdf="http://www.w3.org/1999/02/22-rdf-syntax-ns#"
   xmlns:cc="http://creativecommons.org/ns#"
   xmlns:dc="http://purl.org/dc/elements/1.1/">
  <defs
     id="defs841" />
  <sodipodi:namedview
     id="base"
     pagecolor="#c8c8c8"
     bordercolor="#000000"
     borderopacity="1"
     inkscape:pageopacity="0"
     inkscape:pageshadow="2"
     inkscape:zoom="7.919596"
     inkscape:cx="6.1240498"
     inkscape:cy="29.041885"
     inkscape:document-units="px"
     inkscape:current-layer="layer1"
     inkscape:document-rotation="0"
     showgrid="true"
     units="px"
     inkscape:window-width="1920"
     inkscape:window-height="1005"
     inkscape:window-x="0"
     inkscape:window-y="0"
     inkscape:window-maximized="1"
     inkscape:snap-bbox="true"
     inkscape:bbox-nodes="true"
     inkscape:showpageshadow="false"
     inkscape:lockguides="false"
     inkscape:pagecheckerboard="0"
     inkscape:snap-smooth-nodes="true">
    <inkscape:grid
       type="xygrid"
       id="grid1410"
       originx="-8.4666677"
       originy="-2.6458333" />
  </sodipodi:namedview>
  <metadata
     id="metadata844">
    <rdf:RDF>
      <cc:Work
         rdf:about="">
        <dc:format>image/svg+xml</dc:format>
        <dc:type
           rdf:resource="http://purl.org/dc/dcmitype/StillImage" />
      </cc:Work>
    </rdf:RDF>
    <style
       id="current-color-scheme" />
  </metadata>
  <g
     inkscape:label="Layer 1"
     inkscape:groupmode="layer"
     id="layer1"
     transform="translate(-8.4666681,-2.6458333)">
    <g
       id="activities">
      <rect
         y="2.6458335"
         x="8.4666681"
         height="8.4666662"
         width="8.4666662"
         id="rect1430"
         style="opacity:0.003;fill:#000000;stroke-width:0.529167" />
      <g
         id="g3789"
         transform="translate(7.672918)">
        <path
           id="rect993"
           style="opacity:1;fill:#fefefe;fill-opacity:1;fill-rule:evenodd;stroke-width:0.999999;stroke-linecap:round;stroke-linejoin:round"
           d="M 11 4 C 9.8919975 4 9 4.8919998 9 6 L 9 7 L 10 7 L 10 6 C 10 5.4459991 10.445997 5 11 5 L 26 5 C 26.553999 5 27 5.4459991 27 6 L 27 21 C 27 21.554001 26.553999 22 26 22 L 25 22 L 25 23 L 26 23 C 27.107999 23 28 22.108 28 21 L 28 6 C 28 4.8919998 27.107999 4 26 4 L 11 4 z "
           transform="matrix(0.26458333,0,0,0.26458333,0.7937501,2.6458333)" />
        <path
           id="path3781"
           style="opacity:1;fill:#fefefe;fill-opacity:1;fill-rule:evenodd;stroke-width:0.264583;stroke-linecap:round;stroke-linejoin:round"
           d="m 2.3812504,5.0270833 c -0.2931589,0 -0.5291669,0.2360083 -0.5291669,0.5291667 v 3.9687499 c 0,0.2931584 0.236008,0.5291671 0.5291669,0.5291671 h 3.96875 c 0.293158,0 0.529166,-0.2360087 0.529166,-0.5291671 V 5.55625 c 0,-0.2931584 -0.236008,-0.5291667 -0.529166,-0.5291667 z m 0,0.2645834 h 3.96875 c 0.146579,0 0.264583,0.1180039 0.264583,0.2645833 v 3.9687499 c 0,0.1465795 -0.118004,0.2645834 -0.264583,0.2645834 h -3.96875 c -0.1465799,0 -0.2645839,-0.1180039 -0.2645839,-0.2645834 V 5.55625 c 0,-0.1465794 0.118004,-0.2645833 0.2645839,-0.2645833 z" />
      </g>
    </g>
    <g
       id="22-22-activities">
      <rect
         style="opacity:0.003;fill:#000000;stroke-width:0.363802"
         id="rect1430-3-7-5"
         width="5.8208323"
         height="5.8208323"
         x="17.462502"
         y="2.6458333" />
      <g
         id="g4178"
         transform="translate(-7.1437499)">
        <path
           id="path3783"
           style="opacity:1;fill:#fefefe;fill-opacity:1;fill-rule:evenodd;stroke-width:0.999999;stroke-linecap:round;stroke-linejoin:round"
           d="M 42 3 C 40.891997 3 40 3.8919998 40 5 L 41 5 C 41 4.4459991 41.445997 4 42 4 L 51 4 C 51.553999 4 52 4.4459991 52 5 L 52 14 C 52 14.554001 51.553999 15 51 15 L 51 16 C 52.107999 16 53 15.108 53 14 L 53 5 C 53 3.8919998 52.107999 3 51 3 L 42 3 z "
           transform="matrix(0.26458333,0,0,0.26458333,15.610418,2.6458333)" />
        <path
           id="path4174"
           style="opacity:1;fill:#fefefe;fill-opacity:1;fill-rule:evenodd;stroke-width:0.264583;stroke-linecap:round;stroke-linejoin:round"
           d="M 25.929167,4.2333333 C 25.636008,4.2333333 25.4,4.4693416 25.4,4.7625 v 2.38125 c 0,0.2931584 0.236008,0.5291667 0.529167,0.5291667 h 2.38125 c 0.293158,0 0.529166,-0.2360083 0.529166,-0.5291667 V 4.7625 c 0,-0.2931584 -0.236008,-0.5291667 -0.529166,-0.5291667 z m 0,0.2645834 h 2.38125 c 0.146579,0 0.264583,0.1180039 0.264583,0.2645833 v 2.38125 c 0,0.1465795 -0.118004,0.2645834 -0.264583,0.2645834 h -2.38125 c -0.14658,0 -0.264584,-0.1180039 -0.264584,-0.2645834 V 4.7625 c 0,-0.1465794 0.118004,-0.2645833 0.264584,-0.2645833 z"
           sodipodi:nodetypes="ssssssssssssssssss" />
      </g>
    </g>
  </g>
</svg>
