<?xml version="1.0" encoding="UTF-8" standalone="no"?>
<svg
   width="32"
   height="32"
   version="1"
   id="svg14"
   sodipodi:docname="antimicro.svg"
   inkscape:version="1.3 (0e150ed6c4, 2023-07-21)"
   xmlns:inkscape="http://www.inkscape.org/namespaces/inkscape"
   xmlns:sodipodi="http://sodipodi.sourceforge.net/DTD/sodipodi-0.dtd"
   xmlns="http://www.w3.org/2000/svg"
   xmlns:svg="http://www.w3.org/2000/svg">
  <style
     id="current-color-scheme"
     type="text/css">.ColorScheme-Text { color:#eceff4; }&#10;</style>
  <sodipodi:namedview
     id="namedview16"
     pagecolor="#c8c8c8"
     bordercolor="#000000"
     borderopacity="1"
     inkscape:showpageshadow="2"
     inkscape:pageopacity="0.0"
     inkscape:pagecheckerboard="0"
     inkscape:deskcolor="#e6e6e6"
     showgrid="true"
     inkscape:zoom="4"
     inkscape:cx="-37"
     inkscape:cy="34.5"
     inkscape:window-width="1920"
     inkscape:window-height="941"
     inkscape:window-x="0"
     inkscape:window-y="34"
     inkscape:window-maximized="1"
     inkscape:current-layer="svg14">
    <inkscape:grid
       type="xygrid"
       id="grid1266"
       originx="1.0058058e-06"
       originy="0"
       spacingy="1"
       spacingx="1"
       units="px"
       visible="true" />
  </sodipodi:namedview>
  <defs
     id="defs5">
    <style
       type="text/css"
       id="style646" />
  </defs>
  <g
     id="antimicro">
    <rect
       style="opacity:0.00100002"
       width="32"
       height="32"
       x="0"
       y="0"
       id="rect4" />
    <g
       id="g11"
       transform="translate(44.999935,-34.001938)">
      <path
         id="path7"
         style="fill:#ffffff;fill-opacity:1"
         d="m -35.484375,42.001953 c -0.180841,0.0051 -0.361883,0.01827 -0.541016,0.03906 -0.179131,0.0208 -0.356859,0.04955 -0.533203,0.08594 -0.176344,0.03638 -0.350963,0.08097 -0.523437,0.132813 -0.172475,0.05185 -0.342242,0.110551 -0.509766,0.177734 -0.167524,0.06718 -0.332648,0.142215 -0.494141,0.224609 -0.164588,0.08394 -0.323918,0.174713 -0.476562,0.271485 -0.152644,0.09677 -0.297482,0.199781 -0.4375,0.308594 -0.140018,0.108811 -0.27368,0.223684 -0.400391,0.34375 -0.126709,0.120064 -0.246653,0.244469 -0.359375,0.375 -0.112721,0.130529 -0.218355,0.267995 -0.316406,0.408203 -0.09805,0.140206 -0.188785,0.284498 -0.271484,0.433593 -0.0827,0.149097 -0.157943,0.301788 -0.22461,0.458985 -0.06667,0.157197 -0.125828,0.317911 -0.175781,0.482422 l -2.050781,6.75 c -0.04701,0.154701 -0.08469,0.310359 -0.115234,0.466797 -0.03054,0.156436 -0.05223,0.313469 -0.06641,0.470703 -0.01418,0.157232 -0.0216,0.315564 -0.01953,0.472656 0.0021,0.157092 0.01304,0.312737 0.03125,0.46875 0.01821,0.156013 0.04389,0.312802 0.07813,0.466797 0.03423,0.153995 0.07681,0.305992 0.126953,0.457031 0.05015,0.151039 0.107879,0.30012 0.173828,0.447266 0.06595,0.147144 0.139064,0.293233 0.220703,0.435547 0.09133,0.159188 0.192276,0.312621 0.300782,0.460937 0.108506,0.148316 0.225229,0.291234 0.349609,0.427734 0.12438,0.136502 0.257533,0.266879 0.396484,0.390625 0.138952,0.123747 0.283327,0.239559 0.435547,0.34961 0.152221,0.11005 0.312376,0.213179 0.476563,0.308594 0.164186,0.09541 0.332963,0.183833 0.507812,0.263671 0.17485,0.07984 0.354854,0.151524 0.539063,0.214844 0.184209,0.06332 0.372187,0.1182 0.564453,0.164063 0.118727,0.02827 0.237052,0.0531 0.353516,0.07422 0.116462,0.02112 0.231582,0.03872 0.345703,0.05273 0.11412,0.01402 0.226192,0.02427 0.33789,0.03125 0.111699,0.007 0.222835,0.0098 0.332031,0.0098 0.133558,0 0.26496,-0.0053 0.394532,-0.01563 0.129571,-0.01033 0.257427,-0.02438 0.382812,-0.04492 0.125386,-0.02054 0.248141,-0.04749 0.369141,-0.07813 0.121,-0.03063 0.241008,-0.06487 0.357422,-0.105468 0.116414,-0.0406 0.230168,-0.08627 0.341797,-0.136719 0.111628,-0.05045 0.219528,-0.105843 0.326172,-0.166016 0.106642,-0.06017 0.211041,-0.125536 0.3125,-0.195312 0.101457,-0.06978 0.200802,-0.145353 0.296874,-0.224609 0.09607,-0.07926 0.188808,-0.161384 0.279297,-0.25 0.09049,-0.08862 0.178968,-0.183396 0.263672,-0.28125 0.0847,-0.09786 0.16542,-0.199669 0.244141,-0.306641 0.07872,-0.106972 0.155979,-0.218017 0.228516,-0.333985 0.07254,-0.115966 0.140878,-0.236487 0.207031,-0.361328 0.06615,-0.12484 0.129883,-0.255079 0.189453,-0.388672 0.05957,-0.133591 0.115182,-0.271839 0.167969,-0.414062 0.05279,-0.142223 0.102634,-0.288721 0.148437,-0.439453 l 0.0039,-0.01367 h 7.839844 l 0.0059,0.01367 c 0.0515,0.169513 0.107079,0.334408 0.167968,0.494141 0.06089,0.159731 0.12534,0.315335 0.195313,0.464843 0.06997,0.149508 0.145856,0.2928 0.224609,0.431641 0.07875,0.138841 0.160818,0.272661 0.248047,0.40039 0.08723,0.127731 0.17999,0.25101 0.275391,0.367188 0.0954,0.116178 0.193607,0.225897 0.296875,0.330078 0.103268,0.104182 0.211433,0.201226 0.322265,0.292969 0.110832,0.09174 0.223705,0.176999 0.341797,0.255859 0.130044,0.08684 0.266023,0.167401 0.404297,0.238282 0.138274,0.07088 0.279832,0.132655 0.425781,0.1875 0.14595,0.05484 0.296149,0.101894 0.449219,0.140624 0.15307,0.03873 0.309114,0.06925 0.46875,0.0918 0.159636,0.02254 0.322634,0.03669 0.488281,0.04297 0.165648,0.0063 0.334755,0.0042 0.50586,-0.0059 0.171103,-0.01006 0.343524,-0.02821 0.519531,-0.05469 0.176006,-0.02647 0.354802,-0.06055 0.535156,-0.103515 0.192266,-0.04582 0.380244,-0.100764 0.564453,-0.164063 0.184209,-0.0633 0.364213,-0.135013 0.539063,-0.214844 0.174849,-0.07983 0.34558,-0.168255 0.509765,-0.263671 0.164187,-0.09542 0.322389,-0.198533 0.47461,-0.308594 0.15222,-0.110061 0.298548,-0.22585 0.4375,-0.34961 0.138952,-0.123759 0.270151,-0.254111 0.394531,-0.390625 0.12438,-0.136512 0.241103,-0.27941 0.349609,-0.427734 0.108506,-0.148324 0.209453,-0.301749 0.300782,-0.460937 0.0816,-0.142314 0.154784,-0.288395 0.220703,-0.435547 0.06592,-0.147154 0.123704,-0.296214 0.173828,-0.447266 0.05012,-0.151052 0.09274,-0.303023 0.126953,-0.457031 0.03422,-0.154008 0.05993,-0.310774 0.07813,-0.466797 0.0182,-0.156023 0.02919,-0.311655 0.03125,-0.46875 0.0021,-0.157096 -0.0034,-0.315431 -0.01758,-0.472656 -0.01418,-0.157227 -0.03782,-0.314289 -0.06836,-0.470703 -0.03054,-0.156416 -0.06822,-0.312136 -0.115234,-0.466797 l -2.050781,-6.75 c -0.04999,-0.164471 -0.109093,-0.325255 -0.175781,-0.482422 -0.06669,-0.157168 -0.141903,-0.309908 -0.22461,-0.458985 -0.08271,-0.149075 -0.173436,-0.293397 -0.271484,-0.433593 -0.09805,-0.140198 -0.203695,-0.275721 -0.316406,-0.40625 -0.112712,-0.130531 -0.232679,-0.256879 -0.359375,-0.376953 -0.126697,-0.120076 -0.258432,-0.234919 -0.398438,-0.34375 -0.140005,-0.108833 -0.286817,-0.211793 -0.439453,-0.308594 -0.152636,-0.0968 -0.311974,-0.187502 -0.476562,-0.271485 -0.161493,-0.08239 -0.326625,-0.157434 -0.494141,-0.224609 -0.167516,-0.06717 -0.337304,-0.1259 -0.509766,-0.177734 -0.172462,-0.05183 -0.347106,-0.09644 -0.523437,-0.132813 -0.176331,-0.03637 -0.354081,-0.06515 -0.533203,-0.08594 -0.179123,-0.02079 -0.360178,-0.03398 -0.541016,-0.03906 -0.180838,-0.0051 -0.361493,-9.8e-4 -0.542969,0.0098 -0.181475,0.01075 -0.363885,0.02799 -0.544922,0.05469 -0.181035,0.02669 -0.361495,0.0627 -0.541015,0.105469 -0.193061,0.04598 -0.382206,0.101006 -0.566407,0.164063 -0.184199,0.06305 -0.362255,0.132998 -0.537109,0.21289 -0.174854,0.07989 -0.344745,0.169135 -0.509765,0.265625 -0.165022,0.09649 -0.325767,0.201603 -0.480469,0.314453 h -5.523438 c -0.154782,-0.11285 -0.315407,-0.217987 -0.480469,-0.314453 -0.16506,-0.09647 -0.334911,-0.185752 -0.509765,-0.265625 -0.174854,-0.07987 -0.35295,-0.14982 -0.537109,-0.21289 -0.184161,-0.06307 -0.373426,-0.118002 -0.566407,-0.164063 -0.17948,-0.04281 -0.360002,-0.07875 -0.541015,-0.105469 -0.181015,-0.02672 -0.363454,-0.04393 -0.544922,-0.05469 -0.181468,-0.01075 -0.362128,-0.01485 -0.542969,-0.0098 z m 0.175781,1.021485 c 0.199553,-10e-7 0.401476,0.01136 0.605469,0.03516 0.103019,0.01202 0.206054,0.02715 0.306641,0.04492 0.09996,0.01766 0.199624,0.0379 0.302734,0.0625 0.178248,0.04254 0.353048,0.09458 0.521484,0.154296 0.169987,0.06027 0.334959,0.129882 0.494141,0.207032 0.159922,0.07751 0.313744,0.163362 0.462891,0.257812 0.14898,0.09434 0.293349,0.197051 0.43164,0.308594 l 0.07227,0.05859 h 6.222656 l 0.07227,-0.05859 c 0.138079,-0.111283 0.282496,-0.214164 0.43164,-0.308594 0.149133,-0.09442 0.303013,-0.180302 0.462891,-0.257812 0.159291,-0.07722 0.324285,-0.146782 0.494141,-0.207032 0.168526,-0.05978 0.343283,-0.111776 0.521484,-0.154296 0.156735,-0.03736 0.30964,-0.06415 0.458984,-0.08594 0.150698,-0.02199 0.30228,-0.04003 0.457032,-0.04883 0.15172,-0.0087 0.305642,-0.01036 0.457031,-0.0059 0.149781,0.0045 0.298758,0.01587 0.447265,0.0332 0.150011,0.01751 0.295252,0.04117 0.4375,0.07031 0.143194,0.02933 0.286851,0.06569 0.427735,0.107422 0.138366,0.04098 0.276162,0.08716 0.412109,0.140625 0.136614,0.05372 0.266448,0.112871 0.392578,0.175781 0.125867,0.06278 0.251466,0.130842 0.375,0.207032 0.124256,0.07663 0.241456,0.157364 0.351563,0.240234 0.113644,0.08553 0.222641,0.176774 0.326172,0.271484 0.10305,0.09428 0.202275,0.19321 0.296875,0.298828 0.09521,0.106303 0.182042,0.217436 0.263672,0.330079 0.08208,0.113274 0.159558,0.23155 0.230468,0.355468 0.07081,0.123734 0.134907,0.250454 0.191407,0.38086 0.05513,0.127262 0.10697,0.263363 0.15039,0.40625 l 2.048828,6.75 c 0.03674,0.120815 0.06614,0.241601 0.08984,0.363281 0.02372,0.121791 0.04174,0.244004 0.05273,0.367188 0.01097,0.123091 0.01547,0.246609 0.01367,0.36914 -0.0017,0.118607 -0.0085,0.240711 -0.02344,0.367188 -0.01483,0.125593 -0.03623,0.247793 -0.0625,0.365234 -0.02707,0.121011 -0.06051,0.240071 -0.09961,0.357422 -0.03845,0.115373 -0.0822,0.232537 -0.134765,0.349609 -0.05245,0.116817 -0.111698,0.227676 -0.173828,0.335938 -0.07435,0.129586 -0.156364,0.256969 -0.246094,0.378906 -0.08817,0.119811 -0.183886,0.235434 -0.287109,0.347656 -0.101516,0.110364 -0.209461,0.217337 -0.324219,0.31836 -0.114688,0.100959 -0.233701,0.194883 -0.357422,0.283203 -0.122799,0.08766 -0.252816,0.17205 -0.388672,0.25 -0.136155,0.07812 -0.275382,0.147457 -0.416015,0.210937 -0.141683,0.06396 -0.286432,0.122318 -0.4375,0.173828 -0.152355,0.05194 -0.308271,0.09595 -0.462891,0.132813 -0.199845,0.04768 -0.392071,0.08382 -0.582031,0.107422 -0.188267,0.02339 -0.372055,0.03516 -0.548828,0.03516 -0.128681,0 -0.25494,-0.0053 -0.378907,-0.01758 -0.124951,-0.01235 -0.243734,-0.03141 -0.357422,-0.05469 -0.115847,-0.02372 -0.229143,-0.05324 -0.33789,-0.08789 -0.112234,-0.03575 -0.216243,-0.07776 -0.314453,-0.121094 -0.09724,-0.04291 -0.195389,-0.0905 -0.292969,-0.146484 -0.09554,-0.05481 -0.185491,-0.113549 -0.269531,-0.173828 -0.08525,-0.06114 -0.166081,-0.12519 -0.244141,-0.19336 -0.0753,-0.06576 -0.151559,-0.136651 -0.224609,-0.21289 -0.07077,-0.07386 -0.137992,-0.150786 -0.201172,-0.228516 -0.068,-0.08365 -0.125195,-0.164795 -0.177735,-0.240234 -0.05476,-0.07862 -0.108036,-0.159434 -0.160156,-0.246094 -0.04908,-0.08161 -0.09843,-0.16756 -0.144531,-0.25586 -0.08941,-0.17126 -0.168851,-0.344847 -0.238281,-0.519531 -0.06971,-0.175379 -0.128188,-0.350107 -0.179688,-0.519531 l -0.224609,-0.738281 h -9.357422 l -0.22461,0.738281 c -0.06131,0.201742 -0.13451,0.405051 -0.21875,0.607422 -0.0423,0.101609 -0.08724,0.203343 -0.136718,0.304687 -0.05024,0.102895 -0.104027,0.205125 -0.160156,0.302735 -0.0562,0.09773 -0.115521,0.194055 -0.181641,0.291015 -0.06542,0.09593 -0.136588,0.1902 -0.210938,0.28125 -0.07447,0.0912 -0.153541,0.180175 -0.238281,0.265625 -0.08488,0.08559 -0.173778,0.167791 -0.267578,0.244141 -0.09174,0.07467 -0.190604,0.147727 -0.298828,0.216797 -0.107594,0.06867 -0.218319,0.129174 -0.332031,0.183594 -0.113075,0.05412 -0.235315,0.105177 -0.365235,0.148437 -0.127449,0.04244 -0.259252,0.07653 -0.394531,0.103516 -0.139366,0.0278 -0.280507,0.04563 -0.423828,0.05664 -0.144254,0.0111 -0.293517,0.01547 -0.449219,0.0098 -0.15629,-0.0057 -0.317578,-0.02193 -0.480469,-0.04492 -0.16438,-0.0232 -0.331224,-0.05454 -0.503906,-0.0957 -0.15462,-0.03686 -0.310537,-0.08086 -0.462891,-0.132813 -0.151069,-0.05151 -0.295818,-0.109868 -0.4375,-0.173828 -0.140634,-0.06348 -0.27986,-0.132817 -0.416015,-0.210937 -0.135859,-0.07795 -0.265874,-0.16234 -0.388672,-0.25 -0.123721,-0.08832 -0.242734,-0.182244 -0.357422,-0.283203 -0.114758,-0.101023 -0.222703,-0.207996 -0.324219,-0.31836 -0.10098,-0.109783 -0.197209,-0.223534 -0.287109,-0.345703 -0.09146,-0.124294 -0.172974,-0.253414 -0.246094,-0.380859 -0.06213,-0.108264 -0.121378,-0.219126 -0.173828,-0.335938 -0.05257,-0.117077 -0.09633,-0.234241 -0.134765,-0.349609 -0.03911,-0.117372 -0.07254,-0.236441 -0.09961,-0.357422 -0.02599,-0.116186 -0.04758,-0.237026 -0.0625,-0.363281 -0.01504,-0.127299 -0.02174,-0.25074 -0.02344,-0.369141 -0.0018,-0.122715 0.0027,-0.246239 0.01367,-0.36914 0.01099,-0.123454 0.02911,-0.245663 0.05273,-0.367188 0.0226,-0.116217 0.04965,-0.237341 0.08789,-0.363281 l 2.050781,-6.75 c 0.0354,-0.116493 0.07593,-0.23002 0.121093,-0.339844 0.04493,-0.109259 0.09469,-0.218092 0.150391,-0.324219 0.05632,-0.107308 0.117288,-0.208197 0.179688,-0.304687 0.06466,-0.09997 0.133458,-0.19525 0.205078,-0.28711 0.07235,-0.09279 0.148635,-0.183371 0.228515,-0.269531 0.08027,-0.08659 0.16374,-0.169187 0.25,-0.248047 0.08603,-0.07864 0.175822,-0.153762 0.269532,-0.226562 0.09524,-0.07399 0.192142,-0.143162 0.289062,-0.207031 0.09528,-0.06279 0.196781,-0.125647 0.304688,-0.185547 0.106881,-0.05933 0.214245,-0.111197 0.320312,-0.160157 0.108453,-0.05007 0.218703,-0.09804 0.332031,-0.140625 0.114345,-0.04296 0.22844,-0.08117 0.34375,-0.115234 0.111715,-0.033 0.230519,-0.06446 0.355469,-0.0918 0.122583,-0.02682 0.243677,-0.04713 0.363281,-0.06445 0.119667,-0.01734 0.243923,-0.03182 0.371094,-0.04102 0.126524,-0.0092 0.252355,-0.01367 0.376953,-0.01367 z" />
      <path
         id="path9"
         style="fill:#ffffff;fill-opacity:1;stroke:none;stroke-width:2.02841;stroke-dasharray:none;stroke-opacity:1"
         d="M -35,45 A 3.5006726,3.5000002 0 0 0 -38.501953,48.5 3.5006726,3.5000002 0 0 0 -35,52 3.5006726,3.5000002 0 0 0 -31.5,48.5 3.5006726,3.5000002 0 0 0 -35,45 Z m 0,1 a 2.5004802,2.5 0 0 1 2.5,2.5 A 2.5004802,2.5 0 0 1 -35,51 2.5004802,2.5 0 0 1 -37.501953,48.5 2.5004802,2.5 0 0 1 -35,46 Z" />
      <circle
         style="fill:#ffffff;fill-opacity:1;stroke:none;stroke-width:1;stroke-dasharray:none;stroke-opacity:1"
         id="path10"
         cx="-21.999998"
         cy="47"
         r="1" />
      <circle
         style="fill:#ffffff;fill-opacity:1;stroke:none;stroke-width:1;stroke-dasharray:none;stroke-opacity:1"
         id="circle10"
         cx="-23.999998"
         cy="50"
         r="1" />
      <circle
         style="fill:#ffffff;fill-opacity:1;stroke:none;stroke-width:1;stroke-dasharray:none;stroke-opacity:1"
         id="circle11"
         cx="-19.999998"
         cy="50"
         r="1" />
    </g>
  </g>
  <g
     id="22-22-antimicro">
    <rect
       style="opacity:0.00100002"
       width="22"
       height="22"
       x="34.99995"
       y="9.9731226"
       id="rect9" />
    <g
       id="g18"
       transform="translate(-29.000086,-0.903834)">
      <path
         d="m 83.948692,23.709935 -1.329847,-4.377474 c -0.259377,-0.853326 -0.872281,-1.563265 -1.726227,-1.998994 -0.837875,-0.427487 -1.811929,-0.540386 -2.743337,-0.318503 -0.50083,0.119284 -0.956954,0.327775 -1.358278,0.620526 h -3.581831 c -0.40153,-0.292751 -0.857654,-0.501036 -1.358278,-0.620526 -0.931202,-0.222088 -1.905462,-0.108984 -2.743338,0.318503 -0.853944,0.435522 -1.467055,1.145462 -1.726226,1.998994 l -1.329847,4.377474 c -0.243925,0.802647 -0.144831,1.65103 0.278743,2.389399 0.473842,0.825926 1.317692,1.435945 2.315232,1.673897 0.307997,0.07334 0.604456,0.109397 0.887732,0.109397 1.385884,0 2.449143,-0.862806 2.924427,-2.426895 l 0.0026,-0.0089 h 5.085146 l 0.0026,0.0089 c 0.267206,0.879492 0.732394,1.560588 1.345092,1.969742 0.67471,0.450561 1.525977,0.570668 2.461712,0.347756 0.99754,-0.237743 1.84139,-0.847971 2.315233,-1.673897 0.423366,-0.738369 0.522461,-1.586958 0.278535,-2.389399 z m -1.135367,1.897633 c -0.338899,0.590655 -0.953863,1.029679 -1.687494,1.20459 -0.239187,0.05706 -0.457977,0.08303 -0.65864,0.08303 -1.178836,0 -1.722929,-0.901124 -1.973859,-1.726639 L 78.277837,24.45902 h -6.549935 l -0.215496,0.709526 c -0.293781,0.966637 -0.989917,2.036696 -2.638062,1.643819 -0.733631,-0.17491 -1.348595,-0.613934 -1.687495,-1.204588 -0.286571,-0.499388 -0.354145,-1.071295 -0.190361,-1.61065 l 1.329848,-4.377473 c 0.316649,-1.041835 1.39742,-1.727669 2.581819,-1.727669 0.235479,0 0.475283,0.0272 0.713646,0.08406 0.416982,0.09951 0.790492,0.280391 1.110027,0.538119 l 0.135765,0.109397 h 4.264988 l 0.135767,-0.109397 c 0.319534,-0.257522 0.693045,-0.438612 1.110026,-0.538119 1.437388,-0.342608 2.915775,0.39473 3.29526,1.643614 l 1.329847,4.377473 c 0.16399,0.53915 0.09642,1.111056 -0.190156,1.610443 z"
         p-id="2822"
         id="path15"
         style="fill:#ffffff;fill-opacity:1;stroke-width:0.0206018" />
      <path
         id="path16"
         style="fill:#ffffff;fill-opacity:1;stroke:none;stroke-width:1;stroke-dasharray:none;stroke-opacity:1"
         d="m 71,18.903834 a 2,2 0 0 0 -2,2 2,2 0 0 0 2,2 2,2 0 0 0 2,-2 2,2 0 0 0 -2,-2 z m 0,1 a 1,1 0 0 1 1,1 1,1 0 0 1 -1,1 1,1 0 0 1 -1,-1 1,1 0 0 1 1,-1 z" />
      <circle
         style="fill:#ffffff;fill-opacity:1;stroke:none;stroke-width:1;stroke-dasharray:none;stroke-opacity:1"
         id="path17"
         cx="79.5"
         cy="20.403833"
         r="0.5" />
      <circle
         style="fill:#ffffff;fill-opacity:1;stroke:none;stroke-width:1;stroke-dasharray:none;stroke-opacity:1"
         id="circle17"
         cx="78.5"
         cy="22.403833"
         r="0.5" />
      <circle
         style="fill:#ffffff;fill-opacity:1;stroke:none;stroke-width:1;stroke-dasharray:none;stroke-opacity:1"
         id="circle18"
         cx="80.5"
         cy="22.403833"
         r="0.5" />
    </g>
  </g>
</svg>
