<?xml version="1.0" encoding="UTF-8" standalone="no"?>
<svg
   id="svg4353"
   width="22"
   height="22"
   version="1.1"
   viewBox="0 0 22 22"
   sodipodi:docname="apport.svg"
   inkscape:version="1.1.1 (3bf5ae0d25, 2021-09-20, custom)"
   xmlns:inkscape="http://www.inkscape.org/namespaces/inkscape"
   xmlns:sodipodi="http://sodipodi.sourceforge.net/DTD/sodipodi-0.dtd"
   xmlns="http://www.w3.org/2000/svg"
   xmlns:svg="http://www.w3.org/2000/svg"
   xmlns:rdf="http://www.w3.org/1999/02/22-rdf-syntax-ns#"
   xmlns:cc="http://creativecommons.org/ns#"
   xmlns:dc="http://purl.org/dc/elements/1.1/">
  <metadata
     id="metadata10">
    <rdf:RDF>
      <cc:Work
         rdf:about="">
        <dc:format>image/svg+xml</dc:format>
        <dc:type
           rdf:resource="http://purl.org/dc/dcmitype/StillImage" />
      </cc:Work>
    </rdf:RDF>
  </metadata>
  <sodipodi:namedview
     pagecolor="#ffffff"
     bordercolor="#666666"
     borderopacity="1"
     objecttolerance="10"
     gridtolerance="10"
     guidetolerance="10"
     inkscape:pageopacity="0"
     inkscape:pageshadow="2"
     inkscape:window-width="1920"
     inkscape:window-height="1005"
     id="namedview8"
     showgrid="true"
     inkscape:zoom="21.077414"
     inkscape:cx="-0.26094283"
     inkscape:cy="9.2041652"
     inkscape:window-x="0"
     inkscape:window-y="0"
     inkscape:window-maximized="1"
     inkscape:current-layer="svg4353"
     inkscape:pagecheckerboard="0"
     inkscape:snap-bbox="true"
     inkscape:bbox-nodes="true"
     inkscape:snap-bbox-edge-midpoints="true"
     inkscape:snap-nodes="false">
    <inkscape:grid
       type="xygrid"
       id="grid827" />
  </sodipodi:namedview>
  <defs
     id="defs8">
    <style
       id="current-color-scheme"
       type="text/css">
   .ColorScheme-Text { color:#dedede; } .ColorScheme-Highlight { color:#5294e2; } .ColorScheme-ButtonBackground { color:#dedede; }
  </style>
  </defs>
  <path
     id="rect2018"
     style="opacity:1;fill:#ff3232;fill-opacity:1;fill-rule:evenodd;stroke:none;stroke-linecap:round;stroke-linejoin:round"
     d="M 11 3 C 10.489198 3.0000012 9.9781056 3.2605653 9.6953125 3.78125 L 3.1855469 15.765625 C 2.6398787 16.770351 3.3579396 18 4.4902344 18 L 17.509766 18 C 18.642051 18 19.360201 16.770351 18.814453 15.765625 L 12.304688 3.78125 C 12.021889 3.2605603 11.510802 2.9999988 11 3 z M 11 4.0058594 C 11.170267 4.0058594 11.341264 4.0920618 11.435547 4.265625 L 17.943359 16.25 C 18.125275 16.584875 17.887194 16.994141 17.509766 16.994141 L 4.4902344 16.994141 C 4.1127967 16.994141 3.8747445 16.584875 4.0566406 16.25 L 10.564453 4.265625 C 10.658716 4.0920618 10.829733 4.0058594 11 4.0058594 z M 11 7.9492188 C 10.725905 7.9492187 10.503906 8.1755967 10.503906 8.453125 L 10.503906 12.472656 C 10.503906 12.750144 10.725905 12.974609 11 12.974609 C 11.274015 12.974609 11.496094 12.750144 11.496094 12.472656 L 11.496094 8.453125 C 11.496094 8.1755967 11.274015 7.9492188 11 7.9492188 z M 11 13.980469 C 10.588878 13.980469 10.255859 14.317993 10.255859 14.734375 C 10.255859 15.150658 10.588878 15.488281 11 15.488281 C 11.411072 15.488281 11.744141 15.150658 11.744141 14.734375 C 11.744141 14.317993 11.411072 13.980469 11 13.980469 z " />
  <g
     id="apport">
    <rect
       id="rect5178"
       width="22"
       height="22"
       x="0"
       y="-0.0022146485"
       style="opacity:0.00100002;fill:currentColor" />
  </g>
</svg>
