<?xml version="1.0" encoding="UTF-8" standalone="no"?>
<svg
   width="22"
   height="22"
   version="1.1"
   id="svg7"
   sodipodi:docname="caffeine.svg"
   inkscape:version="1.4 (e7c3feb100, 2024-10-09)"
   xmlns:inkscape="http://www.inkscape.org/namespaces/inkscape"
   xmlns:sodipodi="http://sodipodi.sourceforge.net/DTD/sodipodi-0.dtd"
   xmlns="http://www.w3.org/2000/svg"
   xmlns:svg="http://www.w3.org/2000/svg">
  <sodipodi:namedview
     id="namedview9"
     pagecolor="#c8c8c8"
     bordercolor="#666666"
     borderopacity="1.0"
     inkscape:pageshadow="2"
     inkscape:pageopacity="0.0"
     inkscape:pagecheckerboard="0"
     showgrid="true"
     inkscape:zoom="4.4595939"
     inkscape:cx="1.5696496"
     inkscape:cy="29.823343"
     inkscape:window-width="1920"
     inkscape:window-height="952"
     inkscape:window-x="0"
     inkscape:window-y="34"
     inkscape:window-maximized="1"
     inkscape:current-layer="svg7"
     inkscape:showpageshadow="2"
     inkscape:deskcolor="#d1d1d1">
    <inkscape:grid
       type="xygrid"
       id="grid848"
       originx="0"
       originy="0"
       spacingy="1"
       spacingx="1"
       units="px" />
  </sodipodi:namedview>
  <defs
     id="defs3">
    <style
       id="current-color-scheme"
       type="text/css">
   .ColorScheme-Text { color:#333333; } .ColorScheme-Highlight { color:#4285f4; } .ColorScheme-NeutralText { color:#ff9800; } .ColorScheme-PositiveText { color:#4caf50; } .ColorScheme-NegativeText { color:#f44336; }
  </style>
  </defs>
  <g
     id="caffeine-plus-off">
    <rect
       id="rect850"
       width="22"
       height="22"
       x="0"
       y="0"
       rx="0"
       ry="0"
       style="fill:none" />
    <g
       id="g8"
       transform="translate(19.971683)">
      <path
         d="m -5.0897454,10.051373 v 2.79494 c 0,0 0,0.564748 -0.1537999,1.282168 -0.1537999,0.666591 -0.487201,1.589766 -1.2307783,2.358954 -0.9224286,0.948777 -2.2821536,1.435967 -4.0259084,1.435967 -1.717962,0 -3.051332,-0.48719 -4.000109,-1.435967 -0.769187,-0.769188 -1.102577,-1.743567 -1.256376,-2.409594 -0.17959,-0.743585 -0.153801,-1.307769 -0.153801,-1.333371 v -2.718699 c 2.28196,0.0256 10.8207726,0.0256 10.8207726,0.0256 m 0,-1.0513731 H -15.910518 c -0.589785,0 -1.051373,0.4615876 -1.051373,1.0513731 v 2.691967 c 0,0.077 0,0.743586 0.179402,1.589767 0.17959,0.794978 0.615386,1.97455 1.538563,2.923326 C -14.115747,18.410215 -12.525785,19 -10.500042,19 c 2.0257511,0 3.6409299,-0.589409 4.7685543,-1.74319 0.9224285,-0.948777 1.3333719,-2.077145 1.5127749,-2.846333 0.2051872,-0.820579 0.179584,-1.435966 0.179584,-1.538562 v -2.794564 c 0,-0.5897854 -0.4615892,-1.0769752 -1.0513752,-1.0769752 z"
         p-id="2584"
         id="path1"
         style="fill:#fbfbfb;fill-opacity:1;stroke-width:0.0155777;opacity:0.35" />
      <path
         id="path2"
         style="opacity:0.35;fill:#fbfbfb;fill-opacity:1;stroke-width:0.0169319"
         d="m -13.671855,2.0005545 c -0.107933,-0.00492 -0.220019,0.022775 -0.324041,0.085878 -0.08243,0.055954 -0.914774,0.5881365 -0.997811,1.5138414 -0.05495,0.6445648 0.249994,1.261026 0.914825,1.8493632 0.360428,0.3081568 0.555227,0.6167804 0.527555,0.840801 -0.02768,0.2240208 -0.333871,0.4193686 -0.416907,0.4753222 -0.276663,0.1383601 -0.388159,0.4784469 -0.248959,0.7569208 0.08304,0.1964553 0.278061,0.3095585 0.499894,0.3095585 0.08304,0 0.16456,-0.029552 0.246981,-0.029957 0.08325,-0.028388 0.916533,-0.4755666 1.027454,-1.3440835 0.08331,-0.6165881 -0.221644,-1.2330492 -0.914825,-1.849363 -0.249519,-0.2242264 -0.555239,-0.5603818 -0.527558,-0.8967213 0.02768,-0.3643162 0.472238,-0.6450802 0.472238,-0.6450802 0.277197,-0.1674497 0.35929,-0.5047008 0.193629,-0.7848809 -0.103542,-0.1751125 -0.272583,-0.2734062 -0.452475,-0.2815992 z m 3.219381,0.169758 c -0.107938,-0.00492 -0.220092,0.020855 -0.324039,0.08388 -0.08243,0.055954 -0.912593,0.5881364 -0.995833,1.5138413 -0.05495,0.6444279 0.250005,1.2610263 0.914825,1.8493631 0.360444,0.3083627 0.553261,0.6165748 0.52558,0.8408011 -0.02768,0.2242263 -0.331694,0.4193685 -0.414935,0.4753222 -0.276565,0.1384417 -0.390012,0.4784375 -0.250936,0.7569209 C -10.914572,7.8871022 -10.719755,8 -10.497922,8 c 0.08365,0 0.166136,-0.027555 0.248971,-0.02796 0.08304,-0.028389 0.9145497,-0.4773581 1.0254708,-1.3460807 C -9.1411278,6.0101941 -9.4454,5.3937329 -10.138314,4.7765962 -10.387828,4.55237 -10.693747,4.2162143 -10.665868,3.8798748 -10.638187,3.5157642 -10.193632,3.2347947 -10.193632,3.2347947 -9.9164374,3.0675506 -9.8343263,2.7322968 -9.9999967,2.451911 -10.103539,2.2766698 -10.272571,2.1785129 -10.452474,2.1703125 Z m 3.2120561,0 c -0.1079383,-0.00492 -0.2200921,0.020855 -0.3240392,0.08388 -0.082421,0.055954 -0.9145752,0.5881364 -0.9978155,1.5138413 -0.054948,0.6444279 0.2499969,1.2610263 0.9148338,1.8493631 0.3604267,0.3083627 0.5552347,0.6165748 0.527554,0.8408011 -0.027672,0.2242263 -0.3336684,0.4193685 -0.4169088,0.4753222 C -7.8133592,7.0719623 -7.924832,7.4119581 -7.7857561,7.6904415 -7.7025157,7.8871022 -7.5076991,8 -7.2858656,8 -7.2028236,8 -7.1213072,7.972445 -7.0388772,7.97204 -6.9558442,7.943651 -6.1241209,7.4946819 -6.0134067,6.6259593 -5.9300974,6.0101941 -6.235042,5.3937329 -6.9282233,4.7765962 -7.1775393,4.55237 -7.4814925,4.2162143 -7.4538118,3.8798748 -7.4259329,3.5157642 -6.9835502,3.2347947 -6.9835502,3.2347947 -6.7063553,3.0675506 -6.6222787,2.7322968 -6.7879405,2.451911 -6.8914824,2.2766698 -7.0605148,2.1785129 -7.2404179,2.1703125 Z"
         sodipodi:nodetypes="sccccccsccccccsscccsccscccccsssccccccsccccccs" />
      <path
         id="path3"
         style="fill:#fbfbfb;fill-opacity:1;stroke-width:0.0165314;opacity:0.35"
         d="m -4.2649278,10.253655 v 1.115205 h 0.6264494 c 0.8434381,0 1.5515934,-0.08142 1.5515934,0.762219 v 1.495345 c 0,0.84364 -0.7081553,1.551591 -1.5515934,1.551591 h -0.9251268 c -0.1086797,0.353797 -0.245816,0.734239 -0.4363913,1.115206 h 1.3615181 c 1.4693358,0 2.66679552,-1.197269 2.66679552,-2.666797 v -1.495345 c 0,-1.469528 -0.46270132,-1.877424 -2.66679552,-1.877424 z" />
    </g>
  </g>
  <g
     id="caffeine-plus-on">
    <rect
       id="rect1013"
       width="22"
       height="22"
       x="23.992189"
       y="0"
       rx="0"
       ry="0"
       style="fill:none" />
    <g
       id="g7"
       transform="translate(-12.676587)">
      <path
         d="m 51.548733,10.051373 v 2.79494 c 0,0 0,0.564748 -0.1538,1.282168 -0.1538,0.666591 -0.487201,1.589766 -1.230778,2.358954 -0.922429,0.948777 -2.282154,1.435967 -4.025909,1.435967 -1.717962,0 -3.051332,-0.48719 -4.000109,-1.435967 C 41.36895,15.718247 41.03556,14.743868 40.881761,14.077841 40.702171,13.334256 40.72796,12.770072 40.72796,12.74447 v -2.718699 c 2.28196,0.0256 10.820773,0.0256 10.820773,0.0256 m 0,-1.0513731 H 40.72796 c -0.589785,0 -1.051373,0.4615876 -1.051373,1.0513731 v 2.691967 c 0,0.077 0,0.743586 0.179402,1.589767 0.17959,0.794978 0.615386,1.97455 1.538563,2.923326 C 42.522731,18.410215 44.112693,19 46.138436,19 c 2.025751,0 3.64093,-0.589409 4.768555,-1.74319 0.922428,-0.948777 1.333372,-2.077145 1.512775,-2.846333 0.205187,-0.820579 0.179584,-1.435966 0.179584,-1.538562 v -2.794564 c 0,-0.5897854 -0.46159,-1.0769752 -1.051376,-1.0769752 z"
         p-id="2584"
         id="path4"
         style="fill:#fbfbfb;fill-opacity:1;stroke-width:0.0155777" />
      <path
         id="path6"
         style="fill:#fbfbfb;fill-opacity:1;stroke-width:0.0169319"
         d="m 42.966623,2.0005545 c -0.107933,-0.00492 -0.220019,0.022775 -0.324041,0.085878 -0.08243,0.055954 -0.914774,0.5881365 -0.997811,1.5138414 -0.05495,0.6445648 0.249994,1.261026 0.914825,1.8493632 0.360428,0.3081568 0.555227,0.6167804 0.527555,0.840801 -0.02768,0.2240208 -0.333871,0.4193686 -0.416907,0.4753222 -0.276663,0.1383601 -0.388159,0.4784469 -0.248959,0.7569208 0.08304,0.1964553 0.278061,0.3095585 0.499894,0.3095585 0.08304,0 0.16456,-0.029552 0.246981,-0.029957 C 43.25141,7.7738946 44.084693,7.326716 44.195614,6.4581991 44.278924,5.841611 43.97397,5.2251499 43.280789,4.6088361 43.03127,4.3846097 42.72555,4.0484543 42.753231,3.7121148 42.780911,3.3477986 43.225469,3.0670346 43.225469,3.0670346 43.502666,2.8995849 43.584759,2.5623338 43.419098,2.2821537 43.315556,2.1070412 43.146515,2.0087475 42.966623,2.0005545 Z m 3.219381,0.169758 c -0.107938,-0.00492 -0.220092,0.020855 -0.324039,0.08388 -0.08243,0.055954 -0.912593,0.5881364 -0.995833,1.5138413 -0.05495,0.6444279 0.250005,1.2610263 0.914825,1.8493631 0.360444,0.3083627 0.553261,0.6165748 0.52558,0.8408011 -0.02768,0.2242263 -0.331694,0.4193685 -0.414935,0.4753222 C 45.615037,7.0719619 45.50159,7.4119577 45.640666,7.6904411 45.723906,7.8871022 45.918723,8 46.140556,8 46.224206,8 46.306692,7.972445 46.389527,7.97204 46.472567,7.943651 47.304077,7.4946819 47.414998,6.6259593 47.497351,6.0101941 47.193078,5.3937329 46.500164,4.7765962 46.25065,4.55237 45.944731,4.2162143 45.97261,3.8798748 46.000291,3.5157642 46.444846,3.2347947 46.444846,3.2347947 46.722041,3.0675506 46.804152,2.7322968 46.638482,2.451911 46.534939,2.2766698 46.365907,2.1785129 46.186004,2.1703125 Z m 3.212056,0 c -0.107938,-0.00492 -0.220092,0.020855 -0.324039,0.08388 -0.08242,0.055954 -0.914575,0.5881364 -0.997815,1.5138413 -0.05495,0.6444279 0.249997,1.2610263 0.914834,1.8493631 0.360426,0.3083627 0.555234,0.6165748 0.527554,0.8408011 -0.02767,0.2242263 -0.333669,0.4193685 -0.416909,0.4753222 C 48.825119,7.0719623 48.713646,7.4119581 48.852722,7.6904415 48.935963,7.8871022 49.130779,8 49.352613,8 49.435655,8 49.517171,7.972445 49.599601,7.97204 49.682634,7.943651 50.514357,7.4946819 50.625072,6.6259593 50.708381,6.0101941 50.403436,5.3937329 49.710255,4.7765962 49.460939,4.55237 49.156986,4.2162143 49.184667,3.8798748 49.212545,3.5157642 49.654928,3.2347947 49.654928,3.2347947 49.932123,3.0675506 50.0162,2.7322968 49.850538,2.451911 49.746996,2.2766698 49.577964,2.1785129 49.39806,2.1703125 Z"
         sodipodi:nodetypes="sccccccsccccccsscccsccscccccsssccccccsccccccs" />
      <path
         id="path7"
         style="fill:#fbfbfb;fill-opacity:1;stroke-width:0.0165314"
         d="M 52.373551,10.253655 V 11.36886 H 53 c 0.843438,0 1.551593,-0.08142 1.551593,0.762219 v 1.495345 c 0,0.84364 -0.708155,1.551591 -1.551593,1.551591 h -0.925127 c -0.10868,0.353797 -0.245816,0.734239 -0.436391,1.115206 H 53 c 1.469336,0 2.666796,-1.197269 2.666796,-2.666797 v -1.495345 c 0,-1.469528 -0.462702,-1.877424 -2.666796,-1.877424 z" />
    </g>
  </g>
  <g
     id="user-caffeine-plus-off"
     transform="translate(0,25)">
    <rect
       id="rect9"
       width="22"
       height="22"
       x="0"
       y="0"
       rx="0"
       ry="0"
       style="fill:none" />
    <g
       id="g11"
       transform="translate(19.971683)">
      <path
         d="m -5.0897454,10.051373 v 2.79494 c 0,0 0,0.564748 -0.1537999,1.282168 -0.1537999,0.666591 -0.487201,1.589766 -1.2307783,2.358954 -0.9224286,0.948777 -2.2821536,1.435967 -4.0259084,1.435967 -1.717962,0 -3.051332,-0.48719 -4.000109,-1.435967 -0.769187,-0.769188 -1.102577,-1.743567 -1.256376,-2.409594 -0.17959,-0.743585 -0.153801,-1.307769 -0.153801,-1.333371 v -2.718699 c 2.28196,0.0256 10.8207726,0.0256 10.8207726,0.0256 m 0,-1.0513731 H -15.910518 c -0.589785,0 -1.051373,0.4615876 -1.051373,1.0513731 v 2.691967 c 0,0.077 0,0.743586 0.179402,1.589767 0.17959,0.794978 0.615386,1.97455 1.538563,2.923326 C -14.115747,18.410215 -12.525785,19 -10.500042,19 c 2.0257511,0 3.6409299,-0.589409 4.7685543,-1.74319 0.9224285,-0.948777 1.3333719,-2.077145 1.5127749,-2.846333 0.2051872,-0.820579 0.179584,-1.435966 0.179584,-1.538562 v -2.794564 c 0,-0.5897854 -0.4615892,-1.0769752 -1.0513752,-1.0769752 z"
         p-id="2584"
         id="path9"
         style="opacity:0.35;fill:#fbfbfb;fill-opacity:1;stroke-width:0.0155777" />
      <path
         id="path10"
         style="opacity:0.35;fill:#fbfbfb;fill-opacity:1;stroke-width:0.0169319"
         d="m -13.671855,2.0005545 c -0.107933,-0.00492 -0.220019,0.022775 -0.324041,0.085878 -0.08243,0.055954 -0.914774,0.5881365 -0.997811,1.5138414 -0.05495,0.6445648 0.249994,1.261026 0.914825,1.8493632 0.360428,0.3081568 0.555227,0.6167804 0.527555,0.840801 -0.02768,0.2240208 -0.333871,0.4193686 -0.416907,0.4753222 -0.276663,0.1383601 -0.388159,0.4784469 -0.248959,0.7569208 0.08304,0.1964553 0.278061,0.3095585 0.499894,0.3095585 0.08304,0 0.16456,-0.029552 0.246981,-0.029957 0.08325,-0.028388 0.916533,-0.4755666 1.027454,-1.3440835 0.08331,-0.6165881 -0.221644,-1.2330492 -0.914825,-1.849363 -0.249519,-0.2242264 -0.555239,-0.5603818 -0.527558,-0.8967213 0.02768,-0.3643162 0.472238,-0.6450802 0.472238,-0.6450802 0.277197,-0.1674497 0.35929,-0.5047008 0.193629,-0.7848809 -0.103542,-0.1751125 -0.272583,-0.2734062 -0.452475,-0.2815992 z m 3.219381,0.169758 c -0.107938,-0.00492 -0.220092,0.020855 -0.324039,0.08388 -0.08243,0.055954 -0.912593,0.5881364 -0.995833,1.5138413 -0.05495,0.6444279 0.250005,1.2610263 0.914825,1.8493631 0.360444,0.3083627 0.553261,0.6165748 0.52558,0.8408011 -0.02768,0.2242263 -0.331694,0.4193685 -0.414935,0.4753222 -0.276565,0.1384417 -0.390012,0.4784375 -0.250936,0.7569209 C -10.914572,7.8871022 -10.719755,8 -10.497922,8 c 0.08365,0 0.166136,-0.027555 0.248971,-0.02796 0.08304,-0.028389 0.9145497,-0.4773581 1.0254708,-1.3460807 C -9.1411278,6.0101941 -9.4454,5.3937329 -10.138314,4.7765962 -10.387828,4.55237 -10.693747,4.2162143 -10.665868,3.8798748 -10.638187,3.5157642 -10.193632,3.2347947 -10.193632,3.2347947 -9.9164374,3.0675506 -9.8343263,2.7322968 -9.9999967,2.451911 -10.103539,2.2766698 -10.272571,2.1785129 -10.452474,2.1703125 Z m 3.2120561,0 c -0.1079383,-0.00492 -0.2200921,0.020855 -0.3240392,0.08388 -0.082421,0.055954 -0.9145752,0.5881364 -0.9978155,1.5138413 -0.054948,0.6444279 0.2499969,1.2610263 0.9148338,1.8493631 0.3604267,0.3083627 0.5552347,0.6165748 0.527554,0.8408011 -0.027672,0.2242263 -0.3336684,0.4193685 -0.4169088,0.4753222 C -7.8133592,7.0719623 -7.924832,7.4119581 -7.7857561,7.6904415 -7.7025157,7.8871022 -7.5076991,8 -7.2858656,8 -7.2028236,8 -7.1213072,7.972445 -7.0388772,7.97204 -6.9558442,7.943651 -6.1241209,7.4946819 -6.0134067,6.6259593 -5.9300974,6.0101941 -6.235042,5.3937329 -6.9282233,4.7765962 -7.1775393,4.55237 -7.4814925,4.2162143 -7.4538118,3.8798748 -7.4259329,3.5157642 -6.9835502,3.2347947 -6.9835502,3.2347947 -6.7063553,3.0675506 -6.6222787,2.7322968 -6.7879405,2.451911 -6.8914824,2.2766698 -7.0605148,2.1785129 -7.2404179,2.1703125 Z"
         sodipodi:nodetypes="sccccccsccccccsscccsccscccccsssccccccsccccccs" />
      <path
         id="path11"
         style="opacity:0.35;fill:#fbfbfb;fill-opacity:1;stroke-width:0.0165314"
         d="m -4.2649278,10.253655 v 1.115205 h 0.6264494 c 0.8434381,0 1.5515934,-0.08142 1.5515934,0.762219 v 1.495345 c 0,0.84364 -0.7081553,1.551591 -1.5515934,1.551591 h -0.9251268 c -0.1086797,0.353797 -0.245816,0.734239 -0.4363913,1.115206 h 1.3615181 c 1.4693358,0 2.66679552,-1.197269 2.66679552,-2.666797 v -1.495345 c 0,-1.469528 -0.46270132,-1.877424 -2.66679552,-1.877424 z" />
    </g>
  </g>
  <g
     id="user-caffeine-plus-on"
     transform="translate(0,25)">
    <rect
       id="rect12"
       width="22"
       height="22"
       x="23.992189"
       y="0"
       rx="0"
       ry="0"
       style="fill:none" />
    <g
       id="g14"
       transform="translate(-12.676587)">
      <path
         d="m 51.548733,10.051373 v 2.79494 c 0,0 0,0.564748 -0.1538,1.282168 -0.1538,0.666591 -0.487201,1.589766 -1.230778,2.358954 -0.922429,0.948777 -2.282154,1.435967 -4.025909,1.435967 -1.717962,0 -3.051332,-0.48719 -4.000109,-1.435967 C 41.36895,15.718247 41.03556,14.743868 40.881761,14.077841 40.702171,13.334256 40.72796,12.770072 40.72796,12.74447 v -2.718699 c 2.28196,0.0256 10.820773,0.0256 10.820773,0.0256 m 0,-1.0513731 H 40.72796 c -0.589785,0 -1.051373,0.4615876 -1.051373,1.0513731 v 2.691967 c 0,0.077 0,0.743586 0.179402,1.589767 0.17959,0.794978 0.615386,1.97455 1.538563,2.923326 C 42.522731,18.410215 44.112693,19 46.138436,19 c 2.025751,0 3.64093,-0.589409 4.768555,-1.74319 0.922428,-0.948777 1.333372,-2.077145 1.512775,-2.846333 0.205187,-0.820579 0.179584,-1.435966 0.179584,-1.538562 v -2.794564 c 0,-0.5897854 -0.46159,-1.0769752 -1.051376,-1.0769752 z"
         p-id="2584"
         id="path12"
         style="fill:#fbfbfb;fill-opacity:1;stroke-width:0.0155777" />
      <path
         id="path13"
         style="fill:#fbfbfb;fill-opacity:1;stroke-width:0.0169319"
         d="m 42.966623,2.0005545 c -0.107933,-0.00492 -0.220019,0.022775 -0.324041,0.085878 -0.08243,0.055954 -0.914774,0.5881365 -0.997811,1.5138414 -0.05495,0.6445648 0.249994,1.261026 0.914825,1.8493632 0.360428,0.3081568 0.555227,0.6167804 0.527555,0.840801 -0.02768,0.2240208 -0.333871,0.4193686 -0.416907,0.4753222 -0.276663,0.1383601 -0.388159,0.4784469 -0.248959,0.7569208 0.08304,0.1964553 0.278061,0.3095585 0.499894,0.3095585 0.08304,0 0.16456,-0.029552 0.246981,-0.029957 C 43.25141,7.7738946 44.084693,7.326716 44.195614,6.4581991 44.278924,5.841611 43.97397,5.2251499 43.280789,4.6088361 43.03127,4.3846097 42.72555,4.0484543 42.753231,3.7121148 42.780911,3.3477986 43.225469,3.0670346 43.225469,3.0670346 43.502666,2.8995849 43.584759,2.5623338 43.419098,2.2821537 43.315556,2.1070412 43.146515,2.0087475 42.966623,2.0005545 Z m 3.219381,0.169758 c -0.107938,-0.00492 -0.220092,0.020855 -0.324039,0.08388 -0.08243,0.055954 -0.912593,0.5881364 -0.995833,1.5138413 -0.05495,0.6444279 0.250005,1.2610263 0.914825,1.8493631 0.360444,0.3083627 0.553261,0.6165748 0.52558,0.8408011 -0.02768,0.2242263 -0.331694,0.4193685 -0.414935,0.4753222 C 45.615037,7.0719619 45.50159,7.4119577 45.640666,7.6904411 45.723906,7.8871022 45.918723,8 46.140556,8 46.224206,8 46.306692,7.972445 46.389527,7.97204 46.472567,7.943651 47.304077,7.4946819 47.414998,6.6259593 47.497351,6.0101941 47.193078,5.3937329 46.500164,4.7765962 46.25065,4.55237 45.944731,4.2162143 45.97261,3.8798748 46.000291,3.5157642 46.444846,3.2347947 46.444846,3.2347947 46.722041,3.0675506 46.804152,2.7322968 46.638482,2.451911 46.534939,2.2766698 46.365907,2.1785129 46.186004,2.1703125 Z m 3.212056,0 c -0.107938,-0.00492 -0.220092,0.020855 -0.324039,0.08388 -0.08242,0.055954 -0.914575,0.5881364 -0.997815,1.5138413 -0.05495,0.6444279 0.249997,1.2610263 0.914834,1.8493631 0.360426,0.3083627 0.555234,0.6165748 0.527554,0.8408011 -0.02767,0.2242263 -0.333669,0.4193685 -0.416909,0.4753222 C 48.825119,7.0719623 48.713646,7.4119581 48.852722,7.6904415 48.935963,7.8871022 49.130779,8 49.352613,8 49.435655,8 49.517171,7.972445 49.599601,7.97204 49.682634,7.943651 50.514357,7.4946819 50.625072,6.6259593 50.708381,6.0101941 50.403436,5.3937329 49.710255,4.7765962 49.460939,4.55237 49.156986,4.2162143 49.184667,3.8798748 49.212545,3.5157642 49.654928,3.2347947 49.654928,3.2347947 49.932123,3.0675506 50.0162,2.7322968 49.850538,2.451911 49.746996,2.2766698 49.577964,2.1785129 49.39806,2.1703125 Z"
         sodipodi:nodetypes="sccccccsccccccsscccsccscccccsssccccccsccccccs" />
      <path
         id="path14"
         style="fill:#fbfbfb;fill-opacity:1;stroke-width:0.0165314"
         d="M 52.373551,10.253655 V 11.36886 H 53 c 0.843438,0 1.551593,-0.08142 1.551593,0.762219 v 1.495345 c 0,0.84364 -0.708155,1.551591 -1.551593,1.551591 h -0.925127 c -0.10868,0.353797 -0.245816,0.734239 -0.436391,1.115206 H 53 c 1.469336,0 2.666796,-1.197269 2.666796,-2.666797 v -1.495345 c 0,-1.469528 -0.462702,-1.877424 -2.666796,-1.877424 z" />
    </g>
  </g>
</svg>
