<?xml version="1.0" encoding="UTF-8" standalone="no"?>
<svg
   width="32"
   height="32"
   version="1.1"
   id="svg12"
   sodipodi:docname="choqok.svg"
   inkscape:version="1.3.2 (091e20ef0f, 2023-11-25, custom)"
   xmlns:inkscape="http://www.inkscape.org/namespaces/inkscape"
   xmlns:sodipodi="http://sodipodi.sourceforge.net/DTD/sodipodi-0.dtd"
   xmlns="http://www.w3.org/2000/svg"
   xmlns:svg="http://www.w3.org/2000/svg"
   xmlns:rdf="http://www.w3.org/1999/02/22-rdf-syntax-ns#"
   xmlns:cc="http://creativecommons.org/ns#"
   xmlns:dc="http://purl.org/dc/elements/1.1/">
  <metadata
     id="metadata18">
    <rdf:RDF>
      <cc:Work
         rdf:about="">
        <dc:format>image/svg+xml</dc:format>
        <dc:type
           rdf:resource="http://purl.org/dc/dcmitype/StillImage" />
      </cc:Work>
    </rdf:RDF>
  </metadata>
  <defs
     id="defs16" />
  <sodipodi:namedview
     pagecolor="#c8c8c8"
     bordercolor="#000000"
     borderopacity="1"
     objecttolerance="10"
     gridtolerance="10"
     guidetolerance="10"
     inkscape:pageopacity="0"
     inkscape:pageshadow="2"
     inkscape:window-width="1920"
     inkscape:window-height="995"
     id="namedview14"
     showgrid="true"
     inkscape:zoom="9.8125003"
     inkscape:cx="13.146496"
     inkscape:cy="18.140127"
     inkscape:window-x="0"
     inkscape:window-y="0"
     inkscape:window-maximized="1"
     inkscape:current-layer="svg12"
     inkscape:document-rotation="0"
     inkscape:lockguides="true"
     inkscape:showpageshadow="false"
     inkscape:pagecheckerboard="0"
     inkscape:deskcolor="#969696">
    <inkscape:grid
       type="xygrid"
       id="grid941"
       originx="0"
       originy="0"
       spacingy="1"
       spacingx="1"
       units="px"
       visible="true" />
  </sodipodi:namedview>
  <g
     id="22-22-choqok">
    <rect
       style="opacity:0.00100002"
       width="22"
       height="22"
       x="32"
       y="10"
       id="rect2" />
    <path
       id="path4411-1-6-3"
       style="fill:#eff0f1;fill-opacity:1;fill-rule:evenodd;stroke-width:0.298135"
       d="m 46.396484,21.484375 -5.890625,1.482422 c 2.364747,2.226657 4.554983,2.143545 5.621094,0.873047 1.066104,-1.270492 0.269531,-2.355469 0.269531,-2.355469 z m -0.410156,0.242187 c 0,0 0.60505,0.890141 -0.205078,1.933594 -0.81013,1.043465 -3.177651,1.137352 -4.974609,-0.691406 z" />
    <path
       id="path10"
       style="color:#000000;fill:#eff0f1;stroke-linecap:round;stroke-linejoin:round;-inkscape-stroke:none"
       d="m 38.058594,16.888672 c -0.465631,0.0061 -0.97044,0.05221 -1.417969,0.384765 a 0.44724472,0.44724472 0 0 0 -0.181641,0.359375 v 3.701172 a 0.44724472,0.44724472 0 0 0 0.181641,0.359375 c 0.449705,0.334163 1.009675,0.535156 1.615234,0.535156 0.687326,0 1.396439,-0.143708 1.976563,-0.492187 0.580122,-0.348479 1.03125,-0.958852 1.03125,-1.732422 0,-0.77357 -0.387774,-1.521269 -0.935547,-2.101562 -0.547773,-0.580294 -1.278304,-1.013672 -2.072266,-1.013672 -0.06462,0 -0.130747,-8.71e-4 -0.197265,0 z m 0.798828,1.632812 a 1.0499498,1.037037 0 0 1 1.048828,1.03711 1.0499498,1.037037 0 0 1 -1.048828,1.037109 1.0499498,1.037037 0 0 1 -1.050781,-1.037109 1.0499498,1.037037 0 0 1 1.050781,-1.03711 z" />
    <path
       id="path9"
       style="color:#000000;fill:#eff0f1;stroke-linecap:round;stroke-linejoin:round;-inkscape-stroke:none"
       d="m 46.207031,16 a 0.44724472,0.44724472 0 0 0 -0.345703,0.162109 c -0.693363,0.837092 -1.193997,1.934418 -0.824219,3.046875 0.258718,0.778336 0.883208,1.257639 1.5625,1.4375 0.679295,0.179861 1.418046,0.10721 2.085938,-0.109375 0.15722,-0.05101 0.301973,-0.116493 0.433594,-0.1875 a 0.44724472,0.44724472 0 0 0 0.234375,-0.392578 V 16.447265 A 0.44724472,0.44724472 0 0 0 48.90625,16 Z m 0.449219,1.335937 a 1.0499498,1.037037 0 0 1 1.050781,1.03711 1.0499498,1.037037 0 0 1 -1.050781,1.037109 1.0499498,1.037037 0 0 1 -1.050781,-1.037109 1.0499498,1.037037 0 0 1 1.050781,-1.03711 z" />
    <path
       inkscape:connector-curvature="0"
       style="fill:#eff0f1;fill-opacity:1;fill-rule:evenodd;stroke-width:0.298135"
       id="path4284-9-6"
       d="m 40.506679,22.966013 c 0,0 0.429489,-1.27968 2.679129,-1.8568 2.249647,-0.577107 3.319923,0.37532 3.319923,0.37532 0.299571,0.861666 -2.599037,2.200486 -2.599037,2.200486 0,0 -3.209451,0.170627 -3.400015,-0.719006 z" />
    <path
       id="rect857"
       style="fill:#eff0f1;fill-opacity:1;fill-rule:evenodd;stroke-width:5;stroke-linecap:round;stroke-linejoin:round;paint-order:stroke fill markers"
       d="m 36,13 c -1.10801,0 -2,0.89199 -2,2 v 11 c 0,1.10801 0.89199,2 2,2 h 14 c 1.10801,0 2,-0.89199 2,-2 V 15 c 0,-1.10801 -0.89199,-2 -2,-2 z m 0,1 h 14 c 0.55401,0 1,0.44599 1,1 v 11 c 0,0.55401 -0.44599,1 -1,1 H 36 c -0.55401,0 -1,-0.44599 -1,-1 V 15 c 0,-0.55401 0.44599,-1 1,-1 z" />
    <path
       id="path12447"
       style="fill:#eff0f1;fill-opacity:1;stroke-width:0.00484473"
       d="M 43.335938,26.992188 39.837891,27 c -0.20541,0 -0.394027,-0.0093 -0.560547,0.09961 -0.16826,0.11399 -0.270438,0.30265 -0.273438,0.50586 L 39,31.371094 c 0.0053,0.22884 0.130768,0.438221 0.330078,0.550781 0.19956,0.11275 0.446419,0.102379 0.636719,-0.02539 l 3.492187,-3.808593 c 0.15366,-0.15366 0.294072,-0.355215 0.263672,-0.583985 -0.02755,-0.22797 -0.174658,-0.423618 -0.386718,-0.511718 z" />
  </g>
  <g
     id="choqok">
    <rect
       style="opacity:0.00100002"
       width="32"
       height="32"
       x="0"
       y="0"
       id="rect7" />
    <path
       id="path1"
       style="fill:#fbfbfb;fill-opacity:1;fill-rule:evenodd;stroke-width:0.453226"
       d="m 21.417968,17.16573 -9.140625,2.20508 c 3.670939,3.314859 7.069622,3.194145 8.72461,1.302734 1.654978,-1.8914 0.416015,-3.507813 0.416015,-3.507814 z m -0.636718,0.359377 c 0,0 0.941205,1.327456 -0.316406,2.880859 -1.257614,1.553423 -4.933131,1.691249 -7.722657,-1.03125 z" />
    <path
       id="path7"
       style="color:#000000;fill:#fbfbfb;fill-opacity:1;stroke-width:1.01347;stroke-linecap:round;stroke-linejoin:round;-inkscape-stroke:none"
       d="M 8.4785152,9 C 7.7551081,9.0089 6.9681619,9.075297 6.2734372,9.5703125 A 0.69428487,0.66581983 0 0 0 5.9960936,10.105469 v 5.509765 a 0.69428487,0.66581983 0 0 0 0.2773436,0.535156 c 0.6981026,0.497472 1.5716706,0.796875 2.5117188,0.796875 1.0669755,0 2.165846,-0.213638 3.066406,-0.732421 0.900562,-0.518784 1.59961,-1.428452 1.59961,-2.580078 0,-1.151626 -0.602784,-2.263062 -1.453125,-3.126954 C 11.147704,9.6439212 10.017669,9 8.785156,9 8.6848425,9 8.58186,8.99873 8.4785152,9 Z m 1.2363287,2.429687 a 1.6299002,1.5438525 0 0 1 1.6308591,1.542969 1.6299002,1.5438525 0 0 1 -1.6308591,1.544922 1.6299002,1.5438525 0 0 1 -1.6289061,-1.544922 1.6299002,1.5438525 0 0 1 1.6289061,-1.542969 z" />
    <path
       id="path8"
       style="color:#000000;fill:#fbfbfb;fill-opacity:1;stroke-width:1.01347;stroke-linecap:round;stroke-linejoin:round;-inkscape-stroke:none"
       d="m 21.125,8 a 0.69428487,0.66581983 0 0 0 -0.533203,0.2421875 c -1.076352,1.2461925 -1.857235,2.8770705 -1.283204,4.5332035 0.401623,1.158721 1.371273,1.872863 2.425782,2.140625 1.054508,0.267759 2.203425,0.162276 3.240235,-0.160157 0.244049,-0.07593 0.467533,-0.173573 0.671875,-0.279297 a 0.69428487,0.66581983 0 0 0 0.363281,-0.585937 V 8.6660156 A 0.69428487,0.66581983 0 0 0 25.316406,8 Z m 0.697266,1.9882812 a 1.6299002,1.5438525 0 0 1 1.630859,1.5449218 1.6299002,1.5438525 0 0 1 -1.630859,1.542969 1.6299002,1.5438525 0 0 1 -1.628907,-1.542969 1.6299002,1.5438525 0 0 1 1.628907,-1.5449218 z" />
    <path
       inkscape:connector-curvature="0"
       id="path6"
       d="m 12.276671,19.371642 c 0,0 0.666721,-1.905078 4.158972,-2.764245 3.492263,-0.859148 5.153716,0.558744 5.153716,0.558744 0.465043,1.282776 -4.034641,3.275897 -4.034641,3.275897 0,0 -4.982223,0.254015 -5.278047,-1.070396 z"
       style="fill:#fbfbfb;fill-opacity:1" />
    <path
       id="path3"
       style="fill:#fbfbfb;fill-opacity:1;stroke-width:0.00696061"
       d="m 16.426818,24.994562 -5.184863,0.01088 c -0.304463,0 -0.584034,-0.01295 -0.830852,0.138722 -0.249398,0.15875 -0.400848,0.421488 -0.405295,0.70449 L 10,31.092867 c 0.0079,0.318695 0.193828,0.610291 0.489248,0.767048 0.295791,0.157022 0.66169,0.142579 0.943755,-0.03536 l 5.176178,-5.304059 C 16.836938,26.306501 17.045059,26.025804 17,25.707207 16.95917,25.389723 16.741119,25.117252 16.4268,24.994559 Z" />
    <path
       id="rect5"
       style="opacity:1;fill:#fbfbfb;fill-opacity:1;stroke-width:2.744;stroke-linecap:round;stroke-linejoin:round"
       d="M 5,4 C 3.892001,4 3,4.8920011 3,6 v 18 c 0,1.107999 0.892001,2 2,2 h 22 c 1.107999,0 2,-0.892001 2,-2 V 6 C 29,4.8920011 28.107999,4 27,4 Z m 0,1 h 22 c 0.553999,0 1,0.4460006 1,1 v 18 c 0,0.553999 -0.446001,1 -1,1 H 5 C 4.446001,25 4,24.553999 4,24 V 6 C 4,5.4460006 4.446001,5 5,5 Z" />
  </g>
</svg>
