<?xml version="1.0" encoding="UTF-8" standalone="no"?>
<svg
   id="svg"
   inkscape:version="1.1.1 (3bf5ae0d25, 2021-09-20, custom)"
   sodipodi:docname="configure.svg"
   version="1.1"
   viewBox="0 0 32 32"
   width="32"
   height="32"
   xmlns:inkscape="http://www.inkscape.org/namespaces/inkscape"
   xmlns:sodipodi="http://sodipodi.sourceforge.net/DTD/sodipodi-0.dtd"
   xmlns="http://www.w3.org/2000/svg"
   xmlns:svg="http://www.w3.org/2000/svg"
   xmlns:rdf="http://www.w3.org/1999/02/22-rdf-syntax-ns#"
   xmlns:cc="http://creativecommons.org/ns#"
   xmlns:dc="http://purl.org/dc/elements/1.1/">
  <metadata
     id="metadata15">
    <rdf:RDF>
      <cc:Work
         rdf:about="">
        <dc:format>image/svg+xml</dc:format>
        <dc:type
           rdf:resource="http://purl.org/dc/dcmitype/StillImage" />
        <dc:title />
      </cc:Work>
    </rdf:RDF>
  </metadata>
  <sodipodi:namedview
     id="namedview20"
     bordercolor="#666666"
     borderopacity="1"
     gridtolerance="10"
     guidetolerance="10"
     inkscape:current-layer="svg"
     inkscape:cx="-21.930085"
     inkscape:cy="18.923729"
     inkscape:pageopacity="0"
     inkscape:pageshadow="2"
     inkscape:window-height="965"
     inkscape:window-maximized="1"
     inkscape:window-width="1920"
     inkscape:window-x="0"
     inkscape:window-y="40"
     inkscape:zoom="21.454545"
     objecttolerance="10"
     pagecolor="#c8c8c8"
     showgrid="true"
     inkscape:pagecheckerboard="0">
    <inkscape:grid
       type="xygrid"
       id="grid863" />
  </sodipodi:namedview>
  <defs
     id="defs3">
    <style
       id="current-color-scheme"
       type="text/css">.ColorScheme-Text { color:#dedede; } .ColorScheme-Highlight { color:#5294e2; } .ColorScheme-ButtonBackground { color:#dedede; }</style>
  </defs>
  <g
     transform="translate(-22,10)"
     id="22-22-configure">
    <path
       style="color:#dedede;fill:#fbfbfb;fill-opacity:1;stroke:#fbfbfb;stroke-width:0.315496;stroke-miterlimit:4;stroke-dasharray:none;stroke-opacity:1"
       inkscape:connector-curvature="0"
       class="ColorScheme-Text"
       d="m 17.272725,11.297523 q 0,-0.07436 0.0042,-0.148767 0.0042,-0.07436 0.0042,-0.148756 0,-0.07436 -0.0042,-0.148756 -0.0042,-0.07435 -0.0042,-0.148767 L 19.413215,9.3719062 18.099166,6.2066127 15.644621,6.7685944 Q 15.446279,6.553721 15.231406,6.3553794 L 15.793387,3.9008344 12.628094,2.5867848 11.297523,4.727275 q -0.07436,0 -0.148767,-0.00421 Q 11.074396,4.718855 11,4.718855 q -0.07436,0 -0.148756,0.00421 -0.07435,0.00421 -0.148767,0.00421 L 9.3719062,2.5867848 6.2066127,3.9008344 6.7685944,6.3553794 Q 6.553721,6.553721 6.3553794,6.7685944 L 3.9008344,6.2066127 2.5867848,9.3719062 4.727275,10.702477 q 0,0.07436 -0.00421,0.148767 -0.00421,0.07436 -0.00421,0.148756 0,0.07436 0.00421,0.148756 0.00421,0.07435 0.00421,0.148767 l -2.1404902,1.330571 1.3140496,3.165293 2.454545,-0.561981 q 0.1983416,0.214873 0.413215,0.413215 l -0.5619817,2.454545 3.1652935,1.314049 1.3305708,-2.14049 q 0.07436,0 0.148767,0.0042 0.07436,0.0042 0.148756,0.0042 0.07436,0 0.148756,-0.0042 0.07435,-0.0042 0.148767,-0.0042 l 1.330571,2.14049 3.165293,-1.314049 -0.561981,-2.454545 q 0.214873,-0.198342 0.413215,-0.413215 l 2.454545,0.561981 1.314049,-3.165293 z m -0.966941,-1.074379 q 0.01651,0.198342 0.03302,0.392562 0.01651,0.194208 0.01651,0.39256 0,0.190086 -0.01651,0.388428 -0.01651,0.198351 -0.03302,0.388427 L 18.256187,13 17.54545,14.719009 15.305778,14.198346 q -0.256192,0.314045 -0.524795,0.578514 -0.268592,0.264459 -0.582637,0.528918 L 14.719009,17.54545 13,18.256187 11.776856,16.305784 q -0.190076,0.01651 -0.388429,0.03302 -0.198341,0.01651 -0.388427,0.01651 -0.198352,0 -0.39256,-0.01651 -0.19422,-0.01651 -0.392561,-0.03302 L 9,18.256187 7.2809909,17.54545 7.8016532,15.305778 Q 7.4876089,15.049586 7.2231395,14.780993 6.9586805,14.512391 6.6942217,14.198346 L 4.4545501,14.719009 3.7438122,13 5.6942164,11.776856 q -0.016511,-0.198342 -0.033022,-0.392562 -0.016511,-0.194208 -0.016511,-0.39256 0,-0.190086 0.016511,-0.388428 0.016511,-0.198351 0.033022,-0.388427 L 3.7438122,9 4.4545501,7.2809909 6.6942217,7.8016532 Q 6.9504145,7.4876089 7.219017,7.2231395 7.4876089,6.9586805 7.8016532,6.6942217 L 7.2809909,4.4545501 9,3.7438122 10.223144,5.6942164 Q 10.41322,5.6777055 10.611573,5.6611945 10.809914,5.6446836 11,5.6446836 q 0.198352,0 0.39256,0.016511 0.19422,0.016511 0.392561,0.033022 L 13,3.7438123 14.719009,4.4545502 14.198346,6.6942218 q 0.314045,0.2561928 0.578514,0.5247953 0.264459,0.2685918 0.528918,0.5826362 L 17.54545,7.2809909 18.256187,9.0000001 Z M 11,14.107431 q 0.644631,0 1.210745,-0.243793 0.566116,-0.243805 0.987596,-0.665297 0.421492,-0.42148 0.665297,-0.987596 Q 14.107431,11.644631 14.107431,11 q 0,-0.644631 -0.243793,-1.2107458 Q 13.619833,9.2231395 13.198341,8.8016585 12.776861,8.3801669 12.210745,8.1363624 11.644631,7.8925685 11,7.8925685 q -0.644631,0 -1.2107458,0.2437939 Q 9.2231395,8.3801669 8.8016585,8.8016585 8.3801669,9.2231395 8.1363624,9.7892542 7.8925685,10.355369 7.8925685,11 q 0,0.644631 0.2437939,1.210745 0.2438045,0.566116 0.6652961,0.987596 0.421481,0.421492 0.9875957,0.665297 Q 10.355369,14.107431 11,14.107431 Z m 0,-5.2892511 q 0.454545,0 0.851238,0.1694211 0.396694,0.1694212 0.694217,0.4669439 0.297523,0.2975229 0.466944,0.6942171 Q 13.18182,10.545455 13.18182,11 q 0,0.454545 -0.169421,0.851238 -0.169421,0.396694 -0.466944,0.694217 -0.297523,0.297523 -0.694217,0.466944 Q 11.454545,13.18182 11,13.18182 q -0.454545,0 -0.851238,-0.169421 Q 9.7520678,12.842978 9.4545449,12.545455 9.1570222,12.247932 8.987601,11.851238 8.8181799,11.454545 8.8181799,11 q 0,-0.454545 0.1694211,-0.851238 Q 9.1570222,9.7520678 9.4545449,9.4545449 9.7520678,9.1570222 10.148762,8.987601 10.545455,8.8181799 11,8.8181799 Z"
       id="path7" />
    <path
       style="fill:none"
       inkscape:connector-curvature="0"
       d="M 0,0 V 22 H 22 V 0 Z"
       id="path9" />
  </g>
  <g
     id="configure">
    <path
       style="color:#dedede;fill:#fbfbfb;stroke-width:1.49998999;fill-opacity:1"
       inkscape:connector-curvature="0"
       class="ColorScheme-Text"
       d="m 24.94696,16.424365 q 0,-0.10605 0.006,-0.21219 0.006,-0.10605 0.006,-0.212175 0,-0.10605 -0.006,-0.212175 -0.006,-0.10605 -0.006,-0.21219 L 28,13.677805 26.125735,9.16306 22.62475,9.96463 Q 22.34185,9.65815 22.03537,9.37525 L 22.83694,5.874265 18.322195,4 16.424365,7.05304 q -0.10605,0 -0.21219,-0.006 -0.10605,-0.006 -0.212175,-0.006 -0.10605,0 -0.212175,0.006 -0.10605,0.006 -0.21219,0.006 L 13.677805,4 9.16306,5.874265 9.96463,9.37525 Q 9.65815,9.65815 9.37525,9.96463 L 5.874265,9.16306 4,13.677805 l 3.05304,1.89783 q 0,0.10605 -0.006,0.21219 -0.006,0.10605 -0.006,0.212175 0,0.10605 0.006,0.212175 0.006,0.10605 0.006,0.21219 L 4,18.322195 5.874265,22.83694 9.37525,22.03537 q 0.2829,0.30648 0.58938,0.58938 L 9.16306,26.125735 13.677805,28 l 1.89783,-3.05304 q 0.10605,0 0.21219,0.006 0.10605,0.006 0.212175,0.006 0.10605,0 0.212175,-0.006 0.10605,-0.006 0.21219,-0.006 L 18.322195,28 22.83694,26.125735 22.03537,22.62475 q 0.30648,-0.2829 0.58938,-0.58938 L 26.125735,22.83694 28,18.322195 Z M 23.567785,14.89195 q 0.02355,0.2829 0.0471,0.55992 0.02355,0.277005 0.02355,0.55992 0,0.271125 -0.02355,0.554025 -0.02355,0.282915 -0.0471,0.554025 l 2.781915,1.732815 -1.013745,2.45187 -3.194505,-0.742635 q -0.365415,0.44793 -0.74853,0.82515 -0.3831,0.377205 -0.83103,0.75441 l 0.742635,3.194505 -2.45187,1.013745 -1.744605,-2.781915 q -0.27111,0.02355 -0.554025,0.0471 -0.2829,0.02355 -0.554025,0.02355 -0.282915,0 -0.55992,-0.02355 -0.27702,-0.02355 -0.55992,-0.0471 L 13.147345,26.3497 10.695475,25.335955 11.43811,22.14145 Q 10.99018,21.776035 10.61296,21.392935 10.235755,21.00982 9.85855,20.56189 L 6.664045,21.304525 5.6503,18.852655 8.432215,17.10805 q -0.02355,-0.2829 -0.0471,-0.55992 -0.02355,-0.277005 -0.02355,-0.55992 0,-0.271125 0.02355,-0.554025 0.02355,-0.282915 0.0471,-0.554025 L 5.6503,13.147345 6.664045,10.695475 9.85855,11.43811 q 0.365415,-0.44793 0.74853,-0.82515 0.3831,-0.377205 0.83103,-0.75441 L 10.695475,6.664045 13.147345,5.6503 14.89195,8.432215 q 0.27111,-0.02355 0.554025,-0.0471 0.2829,-0.02355 0.554025,-0.02355 0.282915,0 0.55992,0.02355 0.27702,0.02355 0.55992,0.0471 L 18.852655,5.6503 21.304525,6.664045 20.56189,9.85855 q 0.44793,0.365415 0.82515,0.74853 0.377205,0.3831 0.75441,0.83103 l 3.194505,-0.742635 1.013745,2.45187 z M 16,20.432215 q 0.919455,0 1.72692,-0.34773 0.807465,-0.347745 1.408635,-0.94893 0.601185,-0.60117 0.94893,-1.408635 0.34773,-0.807465 0.34773,-1.72692 0,-0.919455 -0.34773,-1.72692 -0.347745,-0.807465 -0.94893,-1.408635 -0.60117,-0.601185 -1.408635,-0.94893 -0.807465,-0.34773 -1.72692,-0.34773 -0.919455,0 -1.72692,0.34773 -0.807465,0.347745 -1.408635,0.94893 -0.601185,0.60117 -0.94893,1.408635 -0.34773,0.807465 -0.34773,1.72692 0,0.919455 0.34773,1.72692 0.347745,0.807465 0.94893,1.408635 0.60117,0.601185 1.408635,0.94893 0.807465,0.34773 1.72692,0.34773 z m 0,-7.544205 q 0.64833,0 1.214145,0.24165 0.565815,0.24165 0.99018,0.666015 0.424365,0.424365 0.666015,0.99018 0.24165,0.565815 0.24165,1.214145 0,0.64833 -0.24165,1.214145 -0.24165,0.565815 -0.666015,0.99018 Q 17.77996,18.62869 17.214145,18.87034 16.64833,19.11199 16,19.11199 q -0.64833,0 -1.214145,-0.24165 Q 14.22004,18.62869 13.795675,18.204325 13.37131,17.77996 13.12966,17.214145 12.88801,16.64833 12.88801,16 q 0,-0.64833 0.24165,-1.214145 0.24165,-0.565815 0.666015,-0.99018 Q 14.22004,13.37131 14.785855,13.12966 15.35167,12.88801 16,12.88801 Z"
       id="path11" />
    <path
       style="fill:none"
       inkscape:connector-curvature="0"
       d="M 0,0 V 32 H 32 V 0 Z"
       id="path14-6" />
  </g>
  <g
     id="16-16-configure"
     transform="translate(-38,16)">
    <path
       style="fill:none;stroke-width:0.72727299"
       inkscape:connector-curvature="0"
       d="M 0,0 V 16 H 16 V 0 Z"
       id="path9-7" />
    <path
       style="color:#dedede;fill:#fbfbfb;fill-opacity:1;stroke-width:0.874986"
       inkscape:connector-curvature="0"
       class="ColorScheme-Text"
       d="m 13.218646,8.2475462 q 0,-0.061863 0.0035,-0.1237774 0.0035,-0.061863 0.0035,-0.1237688 0,-0.061863 -0.0035,-0.1237688 -0.0035,-0.061863 -0.0035,-0.1237775 L 14.999531,6.6453863 13.906244,4.011785 11.864067,4.4793675 q -0.16502,-0.17878 -0.343795,-0.343805 L 11.98784,2.0933212 9.3543209,1 8.2472884,2.78094 q -0.061863,0 -0.123774,-0.0035 -0.061863,-0.0035 -0.1237644,-0.0035 -0.061862,0 -0.1237652,0.0035 -0.061863,0.0035 -0.1237732,0.0035 L 6.6451783,1 4.0116593,2.0933212 4.4792278,4.1355625 Q 4.300453,4.3005875 4.1354332,4.4793675 L 2.0932559,4.011785 0.99996875,6.6453863 2.7808528,7.7524537 q 0,0.061863 -0.0035,0.1237775 -0.0035,0.061862 -0.0035,0.1237688 0,0.061863 0.0035,0.1237688 0.0035,0.061863 0.0035,0.1237775 L 0.99996875,9.3546138 2.0932559,11.988215 4.1354332,11.520633 q 0.1650198,0.178779 0.3437946,0.343804 L 4.0116593,13.906679 6.6451783,15 7.7522116,13.21906 q 0.061863,0 0.1237732,0.0035 0.061862,0.0035 0.1237652,0.0035 0.061863,0 0.1237644,-0.0035 0.061863,-0.0035 0.123774,-0.0035 L 9.3543209,15 11.98784,13.906679 11.520272,11.864437 q 0.178775,-0.165025 0.343795,-0.343804 l 2.042177,0.467582 1.093287,-2.6336012 z M 12.414153,7.3536375 q 0.01374,0.165025 0.02747,0.32662 0.01374,0.1615863 0.01374,0.32662 0,0.1581563 -0.01374,0.3231813 -0.01374,0.1650337 -0.02747,0.3231812 l 1.622733,1.0108088 -0.591333,1.4302572 -1.863402,-0.433203 q -0.213152,0.261292 -0.43663,0.481337 -0.223468,0.220036 -0.484752,0.440073 l 0.43319,1.863461 -1.4302127,0.591351 -1.0176539,-1.622784 q -0.1581431,0.01374 -0.3231716,0.02748 -0.1650198,0.01374 -0.3231708,0.01374 -0.1650285,0 -0.3266095,-0.01374 -0.1615906,-0.01374 -0.3266104,-0.02748 L 6.3357529,14.037325 4.90554,13.445974 5.3387306,11.582513 Q 5.077446,11.369354 4.857408,11.145879 4.6373788,10.922395 4.4173495,10.661103 L 2.553946,11.094306 1.962614,9.6640488 3.585347,8.6463625 Q 3.57161,8.4813375 3.557872,8.3197425 3.544135,8.1581562 3.544135,7.9931225 q 0,-0.1581563 0.013737,-0.3231813 Q 3.5716095,7.5049075 3.585347,7.34676 L 1.962614,6.3359512 2.553946,4.9056937 4.4173495,5.3388975 Q 4.6305013,5.077605 4.853978,4.85756 5.077446,4.6375237 5.3387306,4.4174875 L 4.90554,2.5540262 6.3357529,1.962675 7.3534076,3.5854588 Q 7.5115499,3.5717213 7.6765784,3.5579838 7.841599,3.5442463 7.99975,3.5442463 q 0.1650285,0 0.3266095,0.013737 0.1615898,0.013737 0.3266104,0.027475 L 9.6637463,1.962675 11.093959,2.5540262 10.660769,4.4174875 q 0.261284,0.2131587 0.481323,0.4366425 0.220029,0.223475 0.440059,0.4847675 l 1.863402,-0.4332038 0.591333,1.4302575 z M 7.99975,10.585459 q 0.5363321,0 1.0073385,-0.202843 Q 9.4780949,10.179765 9.8287669,9.8290737 10.179447,9.4783913 10.382292,9.00737 10.585128,8.5363488 10.585128,8 q 0,-0.5363488 -0.202836,-1.00737 Q 10.179447,6.5216088 9.8287669,6.1709262 9.4780949,5.820235 9.0070885,5.6173837 8.5360821,5.4145412 7.99975,5.4145412 q -0.5363321,0 -1.0073385,0.2028425 Q 6.5214051,5.820235 6.1707331,6.1709262 5.8200533,6.5216088 5.6172081,6.99263 5.4143718,7.4636512 5.4143718,8 q 0,0.5363488 0.2028363,1.00737 0.2028452,0.4710213 0.553525,0.8217037 0.350672,0.3506913 0.8216784,0.5535423 0.4710064,0.202843 1.0073385,0.202843 z m 0,-4.4007865 q 0.3781803,0 0.7082294,0.1409625 Q 9.0380276,6.4665975 9.285566,6.7141437 9.5331044,6.96169 9.6740625,7.2917487 9.8150206,7.6218075 9.8150206,8 q 0,0.3781925 -0.1409581,0.7082513 Q 9.5331044,9.03831 9.285566,9.2858563 9.0380276,9.5334025 8.7079794,9.674365 8.3779303,9.8153275 7.99975,9.8153275 7.6215689,9.8153275 7.2915206,9.674365 6.9614724,9.5334025 6.713934,9.2858563 6.4663956,9.03831 6.3254375,8.7082513 6.1844794,8.3781925 6.1844794,8 q 0,-0.3781925 0.1409581,-0.7082513 Q 6.4663956,6.96169 6.713934,6.7141437 6.9614724,6.4665975 7.2915206,6.325635 7.6215689,6.1846725 7.99975,6.1846725 Z"
       id="path4" />
  </g>
</svg>
