<?xml version="1.0" encoding="UTF-8" standalone="no"?>
<svg
   width="32"
   height="32"
   version="1.1"
   id="svg16"
   sodipodi:docname="dropbox.svg"
   inkscape:version="1.1.1 (3bf5ae0d25, 2021-09-20)"
   xmlns:inkscape="http://www.inkscape.org/namespaces/inkscape"
   xmlns:sodipodi="http://sodipodi.sourceforge.net/DTD/sodipodi-0.dtd"
   xmlns="http://www.w3.org/2000/svg"
   xmlns:svg="http://www.w3.org/2000/svg"
   xmlns:rdf="http://www.w3.org/1999/02/22-rdf-syntax-ns#"
   xmlns:cc="http://creativecommons.org/ns#"
   xmlns:dc="http://purl.org/dc/elements/1.1/">
  <metadata
     id="metadata22">
    <rdf:RDF>
      <cc:Work
         rdf:about="">
        <dc:format>image/svg+xml</dc:format>
        <dc:type
           rdf:resource="http://purl.org/dc/dcmitype/StillImage" />
      </cc:Work>
    </rdf:RDF>
  </metadata>
  <defs
     id="defs20">
    <linearGradient
       id="oomox"
       x1="131.53468"
       x2="131.53468"
       y1="146.39674"
       y2="160.8511"
       gradientTransform="scale(1.0377491,0.96362406)"
       gradientUnits="userSpaceOnUse">
      <stop
         offset="0%"
         style="stop-color:#303b3d; stop-opacity:1"
         id="stop18" />
      <stop
         offset="100%"
         style="stop-color:#bc985d; stop-opacity:1"
         id="stop20" />
    </linearGradient>
  </defs>
  <sodipodi:namedview
     pagecolor="#c8c8c8"
     bordercolor="#666666"
     borderopacity="1"
     objecttolerance="10"
     gridtolerance="10"
     guidetolerance="10"
     inkscape:pageopacity="0"
     inkscape:pageshadow="2"
     inkscape:window-width="1920"
     inkscape:window-height="962"
     id="namedview18"
     showgrid="true"
     inkscape:zoom="11.313709"
     inkscape:cx="23.20194"
     inkscape:cy="21.964503"
     inkscape:window-x="0"
     inkscape:window-y="40"
     inkscape:window-maximized="1"
     inkscape:current-layer="svg16"
     inkscape:document-rotation="0"
     inkscape:pagecheckerboard="0"
     inkscape:snap-bbox="true"
     inkscape:bbox-nodes="true"
     inkscape:snap-bbox-edge-midpoints="true"
     inkscape:snap-nodes="false">
    <inkscape:grid
       type="xygrid"
       id="grid876"
       originx="0"
       originy="0" />
  </sodipodi:namedview>
  <g
     id="dropbox">
    <rect
       style="opacity:0.00100002"
       width="32"
       height="32"
       x="0"
       y="0"
       id="rect9" />
    <g
       id="path57">
      <path
         style="color:#000000;fill:#ffffff;stroke-width:0.15;-inkscape-stroke:none"
         d="M 24.690048,12.984022 27.689094,9.9849754 C 27.783971,9.890098 27.829355,9.7580779 27.81285,9.6302012 27.792224,9.4940719 27.717973,9.3785571 27.602458,9.3125585 L 19.512772,4.6426571 C 19.343631,4.5477801 19.133239,4.5766581 18.99711,4.7127881 L 15.998064,7.7077253 12.999018,4.7127881 C 12.862889,4.5766588 12.652496,4.5436481 12.483356,4.6426571 L 4.3977785,9.3125585 c -0.115503,0.06601 -0.193886,0.1815134 -0.210392,0.3176427 -0.01644,0.1278881 0.02477,0.2640175 0.119636,0.3547742 l 2.999046,2.9990466 -2.999046,2.999046 c -0.09485,0.09489 -0.13613,0.226898 -0.119636,0.354774 0.01644,0.132009 0.09075,0.247524 0.210392,0.313523 l 3.085683,1.782146 v 3.881958 c 0,0.152635 0.08253,0.292896 0.214513,0.37128 l 8.0896865,4.669901 c 0.06598,0.04125 0.140261,0.05776 0.214513,0.05776 0.07419,0 0.144382,-0.0165 0.214512,-0.05776 l 8.085577,-4.669901 c 0.132008,-0.07838 0.214512,-0.214513 0.214512,-0.37128 v -3.881958 l 3.085683,-1.778037 c 0.115515,-0.066 0.189766,-0.181514 0.210392,-0.313522 0.0165,-0.132009 -0.02888,-0.264018 -0.123756,-0.354774 z m -1.460372,0 -7.227548,4.178963 -7.2357675,-4.178963 5.4247425,-3.1311124 1.811025,-1.0436969 6.538569,3.7746623 z M 19.372487,5.5461035 26.694891,9.7787153 24.017619,12.451878 23.580341,12.200234 16.695227,8.2275295 Z m -6.740719,0 2.677271,2.6772716 L 7.9825265,12.451764 5.3051405,9.7786012 Z M 7.9825265,13.516166 15.30493,17.744554 12.627544,20.421826 5.3051405,16.197433 Z m 0.354774,5.416524 4.1459755,2.392708 c 0.06598,0.04125 0.140262,0.05776 0.214513,0.05776 0.008,0 0.01655,-0.01237 0.02477,-0.01237 0.09896,-0.0041 0.202139,-0.03713 0.27639,-0.111383 l 2.574199,-2.574198 v 7.569984 L 8.3373805,22.072118 Z m 15.3216865,3.14344 -7.231658,4.174854 v -7.565761 l 2.570089,2.574199 c 0.07425,0.07425 0.173261,0.107262 0.276391,0.111383 0.0082,0 0.0165,0.01237 0.02475,0.01237 0.07425,0 0.144382,-0.0165 0.214513,-0.05776 l 4.145975,-2.392708 z m -4.290369,-1.65419 -2.677271,-2.673162 7.322403,-4.228389 2.677271,2.677272 z"
         id="path833" />
      <path
         style="color:#000000;fill:#ffffff;-inkscape-stroke:none"
         d="M 12.445313,4.578125 4.3613281,9.2480469 C 4.2257932,9.3255051 4.1325923,9.4618308 4.1132812,9.6210938 4.0939623,9.7713777 4.1417639,9.9299093 4.2558594,10.039063 l 2.9433593,2.945312 -2.9453125,2.945313 c -0.1117453,0.111792 -0.1599877,0.267851 -0.140625,0.417968 0.019202,0.154188 0.1074973,0.291608 0.2480469,0.369141 l 3.046875,1.759765 v 3.839844 c 0,0.17967 0.097999,0.344114 0.2519531,0.435547 l 8.0878908,4.667969 c 0.07981,0.04989 0.168537,0.07031 0.253906,0.07031 0.08531,0 0.170504,-0.02044 0.251953,-0.06836 l 8.085938,-4.669922 c 0.152992,-0.09084 0.251953,-0.252466 0.251953,-0.435547 v -3.839844 l 3.048828,-1.755859 c 0.136224,-0.07783 0.22226,-0.214649 0.246094,-0.367187 v -0.002 c 0.01936,-0.154907 -0.03399,-0.310359 -0.146485,-0.417968 l -2.945312,-2.949219 2.947265,-2.947266 c 0.111019,-0.1110191 0.16411,-0.2643284 0.144532,-0.4160152 v -0.00195 C 27.86304,9.4628656 27.77685,9.3258777 27.640625,9.2480469 L 19.550781,4.578125 h -0.002 C 19.350879,4.4670888 19.10306,4.5004549 18.943359,4.6601562 L 15.998047,7.6015625 13.052734,4.6601562 C 12.893571,4.5009923 12.644126,4.4617462 12.445313,4.578125 Z m 0.07617,0.1289062 c 0.139467,-0.081639 0.310734,-0.054501 0.423829,0.058594 l 3.052734,3.0488281 3.052734,-3.0488281 c 0.112558,-0.1125584 0.285449,-0.1353582 0.425781,-0.056641 l 8.087891,4.6679687 c 0.09481,0.054166 0.156255,0.1476886 0.173828,0.2636719 0.01343,0.1040662 -0.02283,0.2122804 -0.101562,0.2910156 l -3.052735,3.0527344 0.05273,0.05273 3,3.003907 c 0.07726,0.0739 0.1152,0.181905 0.101562,0.291015 -0.01778,0.11072 -0.07951,0.203926 -0.173828,0.257813 l -3.123047,1.800781 v 3.925781 c 0,0.12947 -0.06626,0.2386 -0.175781,0.304688 h -0.002 c -5.27e-4,3.16e-4 5.29e-4,0.0016 0,0.002 l -8.083985,4.667969 -0.002,0.002 c -0.05881,0.0346 -0.112711,0.04687 -0.175781,0.04687 -0.06313,0 -0.121675,-0.01427 -0.173828,-0.04687 h -0.002 L 7.7363281,22.621094 C 7.6272425,22.555592 7.5585938,22.441407 7.5585937,22.316406 V 18.390625 L 4.4355469,16.585937 h -0.00195 C 4.3348596,16.531472 4.2753966,16.437955 4.2617187,16.328125 4.2480935,16.22249 4.2814206,16.113144 4.359375,16.035156 L 7.4121094,12.984375 4.359375,9.9316406 C 4.2837387,9.8592806 4.2481578,9.746117 4.2617187,9.640625 v -0.00195 C 4.2754197,9.5256765 4.340076,9.4315147 4.4355469,9.3769531 Z M 12.644531,5.453125 12.59375,5.4804687 5.1835937,9.7617188 7.9707031,12.544922 15.431641,8.2402344 Z m 6.714844,0 -0.03906,0.039063 -2.748046,2.7519531 6.970703,4.0214844 0.486328,0.279297 2.787109,-2.7812501 z m -6.740234,0.1875 2.566406,2.5664063 L 7.9941406,12.357422 5.4277344,9.7949219 Z m 6.765625,0 7.189453,4.1542969 -2.56836,2.5625001 -0.388672,-0.222656 -6.798828,-3.9238285 z M 16.001953,8.7226563 14.154297,9.7871094 8.6171875,12.984375 16.001953,17.25 l 7.376953,-4.265625 -0.111328,-0.06445 -0.689453,-0.400391 z m 0,0.1738281 6.501953,3.7519536 0.576172,0.335937 -7.078125,4.091797 -7.0859374,-4.091797 5.3125004,-3.0664062 z m -8.0312499,4.5253906 -0.041016,0.04102 -2.7460938,2.75 7.4570313,4.302734 2.787109,-2.787109 z m 16.0546879,0.0039 -7.457032,4.306641 2.78711,2.783203 0.05078,-0.0293 7.40625,-4.273437 z m -16.0312504,0.183594 7.1894534,4.150391 -2.56836,2.568359 -7.1894528,-4.146484 z m 16.0078124,0.0039 2.568359,2.56836 -7.189453,4.146484 -2.566406,-2.5625 z m -8.353515,4.890625 -2.703125,2.703125 c -0.05755,0.05755 -0.142094,0.08439 -0.226563,0.08789 -0.0045,4.34e-4 -0.01739,0.0039 -0.02344,0.0059 -0.0052,0.0017 -0.0082,0.0021 -0.01172,0.0039 -0.05759,-0.002 -0.112122,-0.01294 -0.160156,-0.04297 h -0.002 L 8.2617188,18.802734 v 0.13086 3.18164 l 7.3867192,4.269532 z m 0.703124,0 v 7.876953 l 7.382813,-4.261718 v -0.04297 -3.273438 l -4.259766,2.457032 v 0.002 c -0.05423,0.03191 -0.105074,0.04107 -0.162109,0.04297 -0.0035,-0.0018 -0.0065,-0.0022 -0.01172,-0.0039 -0.0061,-0.002 -0.01891,-0.0054 -0.02344,-0.0059 -0.08908,-0.0036 -0.168026,-0.02935 -0.226563,-0.08789 z m 0.150391,0.361328 2.443359,2.447266 c 0.08996,0.08996 0.208989,0.12813 0.326172,0.132812 -0.0019,-2.68e-4 -0.01307,-4.71e-4 -0.01758,-0.002 -0.005,-0.0016 -0.0077,-0.0047 -0.0098,-0.0059 0.0022,0.0017 0.0042,0.0056 0.01172,0.0098 0.0041,0.0023 0.0086,0.0035 0.01563,0.0059 0.0071,0.0023 0.02631,0.0059 0.02734,0.0059 0.08536,0 0.170519,-0.02045 0.251953,-0.06836 L 23.583984,19.0625 v 2.970703 l -7.082031,4.087891 z m -1.003906,0.002 v 7.25586 L 8.4121094,22.029297 V 19.0625 l 4.0312496,2.326172 c 0.07981,0.04989 0.168538,0.07031 0.253907,0.07031 10e-4,0 0.02033,-0.0035 0.02734,-0.0059 0.007,-0.0023 0.01159,-0.0036 0.01563,-0.0059 0.0073,-0.0041 0.0095,-0.0081 0.01172,-0.0098 -0.002,0.0011 -0.0048,0.0043 -0.0098,0.0059 -0.0035,0.0011 -0.0089,0.0014 -0.01367,0.002 0.112954,-0.005 0.233734,-0.04233 0.324218,-0.132812 z"
         id="path835" />
    </g>
  </g>
  <g
     id="22-22-dropbox">
    <rect
       style="opacity:0.00100002"
       width="22"
       height="22"
       x="32"
       y="10"
       id="rect2" />
    <g
       id="path1235">
      <path
         style="color:#000000;fill:#ffffff;stroke-width:0.4;-inkscape-stroke:none"
         d="m 49.050865,18.89975 2.088216,-2.088216 c 0.06606,-0.06606 0.09766,-0.157987 0.08617,-0.247027 -0.01437,-0.09478 -0.06606,-0.175218 -0.146495,-0.221172 L 45.44596,13.091713 c -0.117771,-0.06606 -0.264266,-0.04595 -0.359052,0.04883 l -2.088216,2.085355 -2.088215,-2.085355 c -0.09478,-0.09478 -0.241281,-0.117771 -0.359052,-0.04883 l -5.629933,3.251622 c -0.08043,0.04596 -0.135002,0.126386 -0.146495,0.221172 -0.01145,0.08905 0.01724,0.183834 0.0833,0.247027 l 2.088215,2.088216 -2.088215,2.088216 c -0.06604,0.06607 -0.09478,0.157988 -0.0833,0.247027 0.01145,0.09192 0.06318,0.172349 0.146495,0.218304 l 2.14854,1.240896 v 2.702982 c 0,0.106279 0.05746,0.203941 0.149364,0.25852 l 5.632794,3.25162 c 0.04594,0.02872 0.09766,0.04022 0.149364,0.04022 0.05165,0 0.100537,-0.01149 0.149364,-0.04022 l 5.629933,-3.25162 c 0.09192,-0.05457 0.149363,-0.149364 0.149363,-0.25852 v -2.702982 l 2.148541,-1.238036 c 0.08043,-0.04595 0.132132,-0.126386 0.146495,-0.218303 0.0115,-0.09192 -0.02011,-0.183833 -0.08617,-0.247026 z m -1.016847,0 -5.032494,2.909784 -5.038216,-2.909784 3.777212,-2.180173 1.261004,-0.726718 4.552762,2.628271 z m -2.685735,-5.178973 5.098541,2.94714 -1.864167,1.861305 -0.304473,-0.175218 -4.79406,-2.766168 z m -4.693519,0 1.864167,1.864167 -5.101402,2.944199 -1.864246,-1.861306 z m -3.237235,5.549502 5.098541,2.944198 -1.864246,1.864166 -5.098541,-2.941416 z m 0.247027,3.771489 2.886815,1.666026 c 0.04594,0.02872 0.09766,0.04022 0.149364,0.04022 0.0056,0 0.01152,-0.0086 0.01725,-0.0086 0.06891,-0.0029 0.140747,-0.02585 0.192448,-0.07755 l 1.792398,-1.792398 v 5.27093 l -5.038222,-2.912674 z m 10.668388,2.188757 -5.035355,2.906922 v -5.267988 l 1.789535,1.792397 c 0.0517,0.0517 0.120641,0.07468 0.19245,0.07755 0.0057,0 0.01149,0.0086 0.01723,0.0086 0.0517,0 0.100537,-0.01149 0.149364,-0.04022 l 2.886815,-1.666027 z m -2.987355,-1.151802 -1.864166,-1.861305 5.09854,-2.944199 1.864166,1.864167 z"
         id="path839" />
      <path
         style="color:#000000;fill:#ffffff;-inkscape-stroke:none"
         d="m 40.451172,12.917969 -5.628906,3.251953 c -0.13337,0.07621 -0.226653,0.213381 -0.246094,0.36914 -0.01913,0.148768 0.02719,0.305718 0.144531,0.417969 l 1.943359,1.94336 -1.947265,1.945312 c -0.111097,0.111148 -0.159751,0.265724 -0.140625,0.414063 0.0187,0.150121 0.108458,0.290168 0.246094,0.367187 h 0.002 c 5.05e-4,2.81e-4 -5.07e-4,0.0017 0,0.002 l 2.044922,1.181641 v 2.585937 c 0,0.178366 0.09755,0.342265 0.248046,0.431641 h 0.002 l 5.626953,3.248047 c 0.0828,0.05177 0.174499,0.07227 0.255859,0.07227 0.08072,0 0.169429,-0.02256 0.248047,-0.06836 l 5.632812,-3.251953 c 0.147894,-0.0878 0.248047,-0.252319 0.248047,-0.431641 v -2.585937 l 2.046875,-1.181641 c 0.135666,-0.07751 0.223176,-0.21271 0.246094,-0.359375 v -0.0039 -0.0039 c 0.01914,-0.153012 -0.03345,-0.307891 -0.146484,-0.416016 l -1.94336,-1.947266 1.947266,-1.945312 c 0.109109,-0.109109 0.162261,-0.261532 0.142578,-0.414063 v -0.002 -0.002 c -0.02251,-0.148477 -0.110419,-0.287721 -0.246094,-0.365234 l -5.632812,-3.251953 h -0.002 C 45.348375,12.808817 45.102955,12.842367 44.945312,13 L 42.998047,14.943359 41.052734,13 c -0.156209,-0.15621 -0.404655,-0.195344 -0.601562,-0.08008 z m 0.201172,0.345703 c 0.03863,-0.02262 0.08384,-0.01577 0.117187,0.01758 l 2.228516,2.226563 2.230469,-2.226563 c 0.03141,-0.03141 0.07672,-0.03728 0.117187,-0.01563 l 5.632813,3.251953 h 0.002 c 0.02473,0.01413 0.04039,0.03459 0.04687,0.07422 0.0027,0.02524 -0.0068,0.05561 -0.0293,0.07813 l -2.230469,2.230469 0.142578,0.140625 L 51,21.132812 v 0.002 c 0.01809,0.01731 0.02761,0.04525 0.02539,0.07422 -0.0063,0.03529 -0.02049,0.06026 -0.04492,0.07422 h -0.002 l -2.248047,1.294922 v 2.818359 c 0,0.03796 -0.01487,0.0649 -0.04883,0.08594 h -0.002 c -5.87e-4,3.58e-4 5.99e-4,0.0016 0,0.002 l -5.628906,3.25 h -0.002 c -0.01863,0.01096 -0.02489,0.01367 -0.04687,0.01367 -0.02205,0 -0.03389,-0.0041 -0.04297,-0.0098 l -0.0039,-0.002 -5.632812,-3.251953 -0.002,-0.002 c -0.03167,-0.01991 -0.05078,-0.05264 -0.05078,-0.08594 v -2.818359 l -2.25,-1.298828 -0.002,-0.002 c -0.02756,-0.0152 -0.04084,-0.03361 -0.04492,-0.06641 v -0.002 c -0.0038,-0.02974 0.0064,-0.05909 0.02734,-0.08008 l 2.228516,-2.228515 -2.230469,-2.232422 h -0.002 c -0.01478,-0.01413 -0.02721,-0.04879 -0.02344,-0.07813 v -0.002 c 0.004,-0.0331 0.02183,-0.05488 0.04883,-0.07031 z m 0.03516,0.207031 -0.132813,0.07617 -5.328125,3.078125 2.158204,2.154297 5.458984,-3.152344 z m 4.626953,0 -0.107422,0.109375 -2.048828,2.050781 5.019531,2.896485 0.4375,0.251953 2.158203,-2.154297 z m -4.691406,0.5 1.570312,1.572266 -4.742187,2.736328 -1.570313,-1.56836 z m 4.757812,0 4.740235,2.740234 -1.572266,1.56836 -0.169922,-0.09766 -4.570312,-2.636719 z m -2.378906,1.791016 -1.361328,0.785156 -4.078125,2.353516 5.439453,3.140625 5.431641,-3.140625 -0.298828,-0.173829 -0.480469,-0.279296 z m 0,0.46289 4.451172,2.570313 0.181641,0.105469 -4.632813,2.677734 -4.640625,-2.677734 3.478516,-2.007813 z m -5.617187,2.794922 -0.109375,0.109375 -2.046875,2.050781 5.457031,3.148438 2.15625,-2.15625 z m 11.228515,0.0039 -5.457031,3.150391 2.15625,2.154297 0.132812,-0.07617 5.324219,-3.072266 z m -11.162109,0.496094 4.740234,2.736328 -1.572265,1.572266 -4.740235,-2.732422 z m 11.095703,0.0039 1.572266,1.572266 -4.740235,2.734375 -1.572265,-1.570312 z m -5.644531,2.863282 -2.132813,2.132812 c -0.0071,0.0071 -0.03009,0.01825 -0.06055,0.01953 h 0.0098 c -4.13e-4,0 -0.01924,0.003 -0.03711,0.0059 -0.008,-0.0018 -0.01846,-0.0027 -0.02344,-0.0059 l -0.0039,-0.002 -3.189453,-1.841797 v 0.345704 2.302734 l 5.4375,3.142578 z m 0.195312,0 v 6.097656 l 5.435547,-3.138672 v -0.115234 -2.535157 l -3.1875,1.839844 c -0.01275,0.0075 -0.02278,0.0085 -0.0332,0.0098 -0.0165,-0.0027 -0.03283,-0.0059 -0.0332,-0.0059 h 0.0078 c -0.03435,-0.0014 -0.0488,-0.0097 -0.05859,-0.01953 z m -0.595703,0.966797 v 4.439453 l -4.636719,-2.679688 v -1.724609 l 2.580078,1.488281 c 0.0828,0.05177 0.1745,0.07031 0.25586,0.07031 7e-4,0 0.06374,-0.0095 0.06445,-0.0098 7.09e-4,-2.35e-4 0.02832,-0.01068 0.03711,-0.01563 0.0056,-0.0031 0.0043,-0.0036 0.0078,-0.0059 -0.0075,0.0042 -0.03392,0.01391 -0.0332,0.01367 5.53e-4,-1.8e-4 -0.02849,0.0052 -0.04492,0.0078 0.105977,-0.0055 0.225713,-0.04017 0.320312,-0.134766 z m 0.996094,0 1.447265,1.449218 c 0.09198,0.09198 0.212487,0.129317 0.320313,0.134766 -0.01634,-0.0027 -0.04743,-0.008 -0.04687,-0.0078 6.79e-4,2.24e-4 -0.02242,-0.0091 -0.03125,-0.01367 0.0035,0.0023 0.0024,0.0028 0.0078,0.0059 0.009,0.005 0.03639,0.01539 0.03711,0.01563 7.19e-4,2.35e-4 0.06374,0.0098 0.06445,0.0098 0.08133,0 0.171023,-0.01994 0.25,-0.06641 l 2.585937,-1.492187 v 1.724609 l -4.634765,2.677735 z"
         id="path841" />
    </g>
  </g>
</svg>
