<?xml version="1.0" encoding="UTF-8" standalone="no"?>
<svg
   width="32"
   height="32"
   version="1.1"
   id="svg14"
   sodipodi:docname="face.svg"
   inkscape:version="1.3.2 (091e20ef0f, 2023-11-25, custom)"
   xmlns:inkscape="http://www.inkscape.org/namespaces/inkscape"
   xmlns:sodipodi="http://sodipodi.sourceforge.net/DTD/sodipodi-0.dtd"
   xmlns="http://www.w3.org/2000/svg"
   xmlns:svg="http://www.w3.org/2000/svg">
  <sodipodi:namedview
     id="namedview16"
     pagecolor="#c8c8c8"
     bordercolor="#000000"
     borderopacity="1"
     inkscape:showpageshadow="2"
     inkscape:pageopacity="0"
     inkscape:pagecheckerboard="0"
     inkscape:deskcolor="#cccccc"
     showgrid="true"
     inkscape:zoom="8.0000004"
     inkscape:cx="-11.125"
     inkscape:cy="17.124999"
     inkscape:window-width="1920"
     inkscape:window-height="995"
     inkscape:window-x="0"
     inkscape:window-y="0"
     inkscape:window-maximized="1"
     inkscape:current-layer="svg14">
    <inkscape:grid
       type="xygrid"
       id="grid191"
       originx="0"
       originy="0"
       spacingy="1"
       spacingx="1"
       units="px"
       visible="true" />
  </sodipodi:namedview>
  <defs
     id="defs5">
    <style
       id="current-color-scheme"
       type="text/css">.ColorScheme-Background { color:#181818; }
.ColorScheme-ButtonBackground { color:#343434; }
.ColorScheme-Highlight { color:#4285f4; }
.ColorScheme-Text { color:#eceff4; }
.ColorScheme-ViewBackground { color:#242424; }
.ColorScheme-NegativeText { color:#f44336; }
.ColorScheme-PositiveText { color:#4caf50; }
.ColorScheme-NeutralText { color:#ff9800; }
</style>
  </defs>
  <g
     id="face">
    <rect
       style="opacity:0.00100002;fill:#eff0f1;fill-opacity:1"
       width="32"
       height="32"
       x="0"
       y="0"
       id="rect9" />
    <path
       id="path1638"
       style="opacity:0.996111;fill:#fbfbfb;fill-opacity:1;stroke-width:0.692308;stroke-linecap:round;paint-order:stroke fill markers"
       d="M 15.886719,1.0000535 A 15,15 0 0 0 1,16.000053 a 15,15 0 0 0 15,15 15,15 0 0 0 15,-15 15,15 0 0 0 -15,-14.9999995 15,15 0 0 0 -0.113281,0 z m 0.113281,1 a 14,14 0 0 1 14,13.9999995 14,14 0 0 1 -14,14 14,14 0 0 1 -14,-14 14,14 0 0 1 14,-13.9999995 z" />
    <circle
       style="opacity:1;fill:#fbfbfb;fill-opacity:1;stroke:none;stroke-width:0.5;stroke-linecap:square"
       id="path1"
       cx="11"
       cy="12"
       r="2" />
    <circle
       style="opacity:1;fill:#fbfbfb;fill-opacity:1;stroke:none;stroke-width:0.5;stroke-linecap:square"
       id="circle1"
       cx="21"
       cy="12"
       r="2" />
    <path
       style="color:#000000;fill:#fbfbfb;stroke-linecap:round;-inkscape-stroke:none"
       d="M 9.2871094,20.21875 A 0.57143003,0.57143003 0 0 0 9.078125,21 c 1.428603,2.474413 4.072481,4 6.929687,4 2.857207,0 5.499132,-1.525587 6.927735,-4 a 0.57143003,0.57143003 0 0 0 -0.208985,-0.78125 0.57143003,0.57143003 0 0 0 -0.78125,0.208984 c -1.225367,2.122398 -3.486765,3.429688 -5.9375,3.429688 -2.450734,0 -4.714086,-1.307289 -5.939453,-3.429688 A 0.57143003,0.57143003 0 0 0 9.2871094,20.21875 Z"
       id="path2" />
  </g>
  <g
     id="22-22-face">
    <rect
       style="opacity:0.00100002;fill:#eff0f1;fill-opacity:1"
       width="22"
       height="22"
       x="32"
       y="10.000001"
       id="rect4" />
    <g
       id="g5"
       transform="translate(-16)">
      <path
         style="color:#000000;fill:#fbfbfb;stroke-linecap:round;-inkscape-stroke:none"
         d="m 59,13 c -4.412351,0 -8,3.587649 -8,8 0,4.412351 3.587649,8 8,8 4.412351,0 8,-3.587649 8,-8 0,-4.412351 -3.587649,-8 -8,-8 z m 0,1 c 3.871911,0 7,3.128089 7,7 0,3.871911 -3.128089,7 -7,7 -3.871911,0 -7,-3.128089 -7,-7 0,-3.871911 3.128089,-7 7,-7 z"
         id="path3" />
      <circle
         style="opacity:1;fill:#fbfbfb;fill-opacity:1;stroke:none;stroke-width:1;stroke-linecap:round;stroke-dasharray:none;stroke-opacity:1"
         id="path4"
         cx="56.000004"
         cy="19"
         r="1" />
      <circle
         style="opacity:1;fill:#fbfbfb;fill-opacity:1;stroke:none;stroke-width:1;stroke-linecap:round;stroke-dasharray:none;stroke-opacity:1"
         id="circle4"
         cx="62"
         cy="19"
         r="1" />
      <path
         style="color:#000000;fill:#fbfbfb;stroke-linecap:round;-inkscape-stroke:none"
         d="m 55.666016,22.017578 a 0.5,0.5 0 0 0 -0.38086,0.04883 A 0.5,0.5 0 0 0 55.103516,22.75 C 55.906962,24.141609 57.393108,25 59,25 c 1.606892,0 3.093038,-0.858391 3.896484,-2.25 A 0.5,0.5 0 0 0 62.714844,22.066406 0.5,0.5 0 0 0 62.03125,22.25 C 61.405635,23.333597 60.25123,24 59,24 57.74877,24 56.594365,23.333597 55.96875,22.25 a 0.5,0.5 0 0 0 -0.302734,-0.232422 z"
         id="circle5" />
    </g>
  </g>
</svg>
