<?xml version="1.0" encoding="UTF-8" standalone="no"?>
<svg
   inkscape:version="1.3.2 (091e20ef0f, 2023-11-25, custom)"
   sodipodi:docname="image.svg"
   id="svg44"
   version="1.1"
   height="32"
   width="32"
   style="enable-background:new"
   xmlns:inkscape="http://www.inkscape.org/namespaces/inkscape"
   xmlns:sodipodi="http://sodipodi.sourceforge.net/DTD/sodipodi-0.dtd"
   xmlns:xlink="http://www.w3.org/1999/xlink"
   xmlns="http://www.w3.org/2000/svg"
   xmlns:svg="http://www.w3.org/2000/svg"
   xmlns:rdf="http://www.w3.org/1999/02/22-rdf-syntax-ns#"
   xmlns:cc="http://creativecommons.org/ns#"
   xmlns:dc="http://purl.org/dc/elements/1.1/">
  <metadata
     id="metadata48">
    <rdf:RDF>
      <cc:Work
         rdf:about="">
        <dc:format>image/svg+xml</dc:format>
        <dc:type
           rdf:resource="http://purl.org/dc/dcmitype/StillImage" />
      </cc:Work>
    </rdf:RDF>
  </metadata>
  <sodipodi:namedview
     showguides="true"
     inkscape:current-layer="svg44"
     inkscape:window-maximized="1"
     inkscape:window-y="0"
     inkscape:window-x="0"
     inkscape:cy="23.242236"
     inkscape:cx="0.62816855"
     inkscape:zoom="7.9596472"
     showgrid="true"
     id="namedview46"
     inkscape:window-height="995"
     inkscape:window-width="1920"
     inkscape:pageshadow="2"
     inkscape:pageopacity="0"
     guidetolerance="10"
     gridtolerance="10"
     objecttolerance="10"
     borderopacity="1"
     bordercolor="#000000"
     pagecolor="#c8c8c8"
     inkscape:document-rotation="0"
     inkscape:lockguides="false"
     inkscape:showpageshadow="false"
     inkscape:pagecheckerboard="false"
     inkscape:deskcolor="#cccccc">
    <inkscape:grid
       type="xygrid"
       id="grid905"
       originx="0"
       originy="0"
       spacingy="1"
       spacingx="1"
       units="px"
       visible="true" />
  </sodipodi:namedview>
  <defs
     id="defs4">
    <linearGradient
       id="linearGradient5606"
       inkscape:swatch="solid">
      <stop
         style="stop-color:#000000"
         offset="0"
         id="stop5608" />
    </linearGradient>
    <linearGradient
       xlink:href="#1"
       id="9"
       gradientUnits="userSpaceOnUse"
       x1="252.72501"
       y1="388.505"
       x2="255.41499"
       y2="-76.616997"
       gradientTransform="matrix(0.02890894,0,0,0.02711282,8.3449777,8.8451403)" />
    <linearGradient
       id="1">
      <stop
         stop-color="#f9f9f9"
         id="stop2" />
      <stop
         offset="1"
         stop-color="#afafaf"
         id="stop4" />
    </linearGradient>
    <linearGradient
       id="oomox"
       x1="1.4797103"
       x2="1.4797103"
       y1="0.4730846"
       y2="14.665033"
       gradientTransform="matrix(0.94613118,0,0,1.0569359,7.8239662,8.0979799)"
       gradientUnits="userSpaceOnUse">
      <stop
         offset="0%"
         style="stop-color:#303b3d; stop-opacity:1"
         id="stop18" />
      <stop
         offset="100%"
         style="stop-color:#bc985d; stop-opacity:1"
         id="stop20" />
    </linearGradient>
  </defs>
  <g
     id="g34"
     transform="matrix(0,0.23269337,-0.3257329,0,32.286645,4.6684124)">
    <g
       id="g32">
      <g
         id="g30">
        <g
           id="g28">
          <g
             id="g26">
            <g
               id="g24">
              <g
                 id="g22" />
            </g>
          </g>
        </g>
      </g>
    </g>
  </g>
  <g
     id="g52"
     transform="matrix(0,0.23269337,-0.3257329,0,32.286645,4.6684124)">
    <g
       id="g50">
      <g
         id="g48">
        <g
           id="g46">
          <g
             id="g44">
            <g
               id="g42">
              <g
                 id="g40" />
            </g>
          </g>
        </g>
      </g>
    </g>
  </g>
  <g
     id="g70"
     transform="matrix(0,0.23269337,-0.3257329,0,32.286645,4.6684124)">
    <g
       id="g68">
      <g
         id="g66">
        <g
           id="g64">
          <g
             id="g62">
            <g
               id="g60">
              <g
                 id="g58" />
            </g>
          </g>
        </g>
      </g>
    </g>
  </g>
  <g
     id="g88"
     transform="matrix(0,0.23269337,-0.3257329,0,32.286645,4.6684124)">
    <g
       id="g86">
      <g
         id="g84">
        <g
           id="g82">
          <g
             id="g80">
            <g
               id="g78">
              <g
                 id="g76" />
            </g>
          </g>
        </g>
      </g>
    </g>
  </g>
  <g
     id="g106"
     transform="matrix(0,0.23269337,-0.3257329,0,32.286645,4.6684124)">
    <g
       id="g104">
      <g
         id="g102">
        <g
           id="g100">
          <g
             id="g98">
            <g
               id="g96">
              <g
                 id="g94" />
            </g>
          </g>
        </g>
      </g>
    </g>
  </g>
  <g
     id="g128"
     transform="matrix(0,0.23269337,-0.3257329,0,32.286645,4.6684123)">
    <g
       id="g126">
      <g
         id="g124">
        <g
           id="g122">
          <g
             id="g120">
            <g
               id="g118">
              <g
                 id="g116">
                <g
                   id="g114" />
              </g>
            </g>
          </g>
        </g>
      </g>
    </g>
  </g>
  <g
     id="g146"
     transform="matrix(0,0.23269337,-0.3257329,0,32.286645,4.6684123)">
    <g
       id="g144">
      <g
         id="g142">
        <g
           id="g140">
          <g
             id="g138">
            <g
               id="g136">
              <g
                 id="g134">
                <g
                   id="g132" />
              </g>
            </g>
          </g>
        </g>
      </g>
    </g>
  </g>
  <g
     id="image-x-generic">
    <rect
       id="rect11"
       style="opacity:0.00100002;fill:#d1d5e9;fill-opacity:1"
       y="0"
       x="0"
       height="32"
       width="32" />
    <path
       style="fill:#ffffff;fill-opacity:1;stroke:none;stroke-width:1.42983;stroke-linecap:round;stroke-miterlimit:4;stroke-dasharray:none;stroke-opacity:1"
       d="m 13.730033,15.11082 c -0.420904,-0.03217 -0.8458,0.10423 -1.148095,0.436859 L 4,24.991325 c 0,1.008685 0,1.008685 0,1.008685 l 19.411972,-2.1e-5 -8.557901,-10.309833 C 14.566826,15.34406 14.150921,15.143101 13.730033,15.11082 Z"
       id="rect2428"
       inkscape:connector-curvature="0"
       sodipodi:nodetypes="ccccccc" />
    <path
       style="fill:#ffffff;fill-opacity:0.85037398;stroke:none;stroke-width:1.42983;stroke-linecap:round;stroke-miterlimit:4;stroke-dasharray:none;stroke-opacity:1"
       d="m 20.361532,16.83945 c -0.420914,-0.03223 -0.845805,0.104132 -1.148092,0.436844 L 11.285967,25.999989 28,26.000011 v -0.668248 l -6.514439,-7.912974 c -0.287246,-0.346126 -0.70314,-0.547064 -1.124029,-0.579339 z"
       id="path2433"
       inkscape:connector-curvature="0"
       sodipodi:nodetypes="ccccccc" />
    <circle
       style="fill:#ffffff;fill-opacity:1;stroke:none;stroke-width:2.01871;stroke-linecap:round;stroke-miterlimit:4;stroke-dasharray:none;stroke-opacity:1"
       id="path2451"
       cx="8.5"
       cy="11.5"
       r="1.5" />
    <path
       id="rect1"
       style="opacity:1;fill:#ffffff;fill-opacity:1;stroke-width:0.99951;stroke-linecap:round;stroke-opacity:0.94902"
       d="M 6 5 C 4.3380017 5 3 6.3380017 3 8 L 3 24 C 3 25.661998 4.3380017 27 6 27 L 27 27 C 28.661998 27 30 25.661998 30 24 L 30 8 C 30 6.3380017 28.661998 5 27 5 L 6 5 z M 6 6 L 27 6 C 28.107999 6 29 6.8920011 29 8 L 29 24 C 29 25.107999 28.107999 26 27 26 L 6 26 C 4.8920011 26 4 25.107999 4 24 L 4 8 C 4 6.8920011 4.8920011 6 6 6 z " />
  </g>
  <g
     id="22-22-image-x-generic">
    <path
       id="path6"
       d="m 32,10 h 22 c 0,0 0,0 0,0 v 22 c 0,0 0,0 0,0 H 32 c 0,0 0,0 0,0 z"
       style="opacity:0;fill:#d1d5e9;fill-opacity:1" />
    <path
       style="fill:#ffffff;fill-opacity:1;stroke:none;stroke-width:0.976725;stroke-linecap:round;stroke-miterlimit:4;stroke-dasharray:none;stroke-opacity:1;enable-background:new"
       d="m 41.411028,20.740557 c -0.294639,-0.02148 -0.59206,0.0695 -0.803664,0.291233 L 34.6,27.327553 c 0,0.672456 0,0.672456 0,0.672456 l 13.588384,-2e-5 -5.990538,-6.873215 c -0.201072,-0.230725 -0.492202,-0.364702 -0.786818,-0.386217 z"
       id="rect2428-3"
       inkscape:connector-curvature="0"
       sodipodi:nodetypes="ccccccc" />
    <path
       style="fill:#ffffff;fill-opacity:0.84999996;stroke:none;stroke-width:0.976725;stroke-linecap:round;stroke-miterlimit:4;stroke-dasharray:none;stroke-opacity:1;enable-background:new"
       d="m 46.053076,21.892971 c -0.294639,-0.02151 -0.592059,0.06948 -0.803664,0.291229 L 39.700177,27.999989 51.4,28.00001 V 27.554511 L 46.839903,22.279195 C 46.638825,22.048451 46.3477,21.914488 46.053076,21.892971 Z"
       id="path2433-6"
       inkscape:connector-curvature="0"
       sodipodi:nodetypes="ccccccc" />
    <circle
       style="fill:#ffffff;fill-opacity:1;stroke:none;stroke-width:1.34566;stroke-linecap:round;stroke-miterlimit:4;stroke-dasharray:none;stroke-opacity:1;enable-background:new"
       id="path2451-7"
       cx="37.700001"
       cy="18"
       r="1" />
    <path
       id="rect2"
       style="opacity:1;fill:#ffffff;fill-opacity:1;stroke-width:1.00275;stroke-linecap:round;stroke-opacity:0.94902"
       d="M 37 13 C 35.338002 13 34 14.338002 34 16 L 34 26 C 34 27.661998 35.338002 29 37 29 L 48.998047 29 C 50.660045 29 51.998047 27.661998 51.998047 26 L 51.998047 16 C 51.998047 14.338002 50.660045 13 48.998047 13 L 37 13 z M 36.998047 14 L 49 14 C 50.107999 14 51 14.892001 51 16 L 51 26 C 51 27.107999 50.107999 28 49 28 L 36.998047 28 C 35.890048 28 34.998047 27.107999 34.998047 26 L 34.998047 16 C 34.998047 14.892001 35.890048 14 36.998047 14 z " />
  </g>
</svg>
