<?xml version="1.0" encoding="UTF-8" standalone="no"?>
<svg
   width="32"
   height="32"
   version="1"
   id="svg14"
   sodipodi:docname="internet.svg"
   inkscape:version="1.3.2 (091e20ef0f, 2023-11-25, custom)"
   xmlns:inkscape="http://www.inkscape.org/namespaces/inkscape"
   xmlns:sodipodi="http://sodipodi.sourceforge.net/DTD/sodipodi-0.dtd"
   xmlns="http://www.w3.org/2000/svg"
   xmlns:svg="http://www.w3.org/2000/svg">
  <sodipodi:namedview
     id="namedview16"
     pagecolor="#c8c8c8"
     bordercolor="#000000"
     borderopacity="1"
     inkscape:showpageshadow="true"
     inkscape:pageopacity="0"
     inkscape:pagecheckerboard="false"
     inkscape:deskcolor="#cccccc"
     showgrid="true"
     inkscape:zoom="10.429825"
     inkscape:cx="11.409587"
     inkscape:cy="15.052985"
     inkscape:window-width="1920"
     inkscape:window-height="995"
     inkscape:window-x="0"
     inkscape:window-y="0"
     inkscape:window-maximized="1"
     inkscape:current-layer="svg14">
    <inkscape:grid
       type="xygrid"
       id="grid1531"
       originx="0"
       originy="0"
       spacingy="1"
       spacingx="1"
       units="px"
       visible="true" />
  </sodipodi:namedview>
  <defs
     id="l4k1">
    <style
       type="text/css"
       id="current-color-scheme" />
  </defs>
  <g
     id="22-22-internet-web-browser"
     transform="translate(32.000001,10.000001)"
     style="fill:#eff0f1;fill-opacity:1">
    <rect
       style="opacity:0.001;fill:#eff0f1;fill-opacity:1"
       width="22"
       height="22"
       x="0"
       y="0"
       id="rect4" />
    <path
       style="opacity:1;fill:#ffffff;fill-opacity:1;stroke-width:1.25"
       d="M 11.001655,0.999999 C 7.3458851,1.000424 3.7455357,3.1163888 2.1227645,6.4199107 0.47609179,9.4838566 0.6659893,13.377785 2.526163,16.302619 c 2.2098513,3.61232 6.8716261,5.502446 10.96753,4.370109 3.640178,-0.873439 6.540663,-4.003511 7.277219,-7.653104 C 21.416466,10.208199 20.66675,7.1720435 18.911759,4.8997021 17.072001,2.470678 14.042409,0.98990737 10.996579,1.003873 m 0,1.2491812 c 1.422847,0.00809 2.831491,0.3835286 4.101399,1.0167406 -0.643691,0.2113442 0.302237,0.8264788 -0.180235,1.150681 0.499852,0.326376 1.167947,-0.2992223 0.476256,-0.6248718 -0.610914,-0.9644284 1.5614,0.2858705 0.434726,0.6297373 -0.383685,0.3486785 -1.318952,0.2097064 -0.557482,0.8435839 0.06142,0.6155557 -1.333533,-0.1237162 -1.158958,0.8894151 0.06741,0.4556665 0.254798,0.609653 -0.421646,1.0187542 -0.533481,0.7402134 -1.528751,1.3536611 -1.363009,2.4744758 -0.267884,0.8863307 0.67895,1.3423367 1.44224,1.5333297 0.791185,-0.05201 2.67595,-0.565263 3.000032,0.425201 -0.336652,0.876765 1.474322,1.745648 0.709461,2.616342 -0.496415,0.814765 0.0977,1.097652 -0.06123,1.936057 0.612036,0.880925 -1.588374,2.172073 -2.2588,2.565867 -2.024402,1.189091 -4.619952,1.344419 -6.8474025,0.57571 -0.8755169,-0.530683 0.1970339,-0.946779 0.4735191,-1.214429 -0.3827425,-0.730945 0.2140383,-0.288608 0.2198155,-1.064815 0.00793,-1.173943 1.5662249,-0.982148 1.4558609,-2.202348 0.03261,-0.727337 1.163913,-1.717811 -0.08661,-2.012949 C 9.4396801,12.631341 8.6759961,12.690409 8.1863684,11.881401 7.3346793,11.768134 7.3246147,10.871981 6.3283441,11.033739 5.6252896,10.615216 4.667289,12.098433 4.2383598,11.033167 4.3999882,10.487544 4.081368,9.6319697 3.6069908,9.7417806 3.8343723,9.3329633 3.8316908,8.5265615 3.3054563,9.1842699 2.4505217,9.9421624 2.2542258,8.6585322 2.6900593,8.1114397 3.239068,7.3956876 4.5619274,7.4402125 5.0054555,8.0843391 4.9604025,7.0414052 6.0833027,6.8871501 6.5715485,6.0843687 7.1263626,5.7985418 7.6939244,5.1417273 8.2318817,5.4493364 8.6061271,5.394676 8.9969125,4.9657754 8.3826444,5.185431 8.0883403,5.041842 8.6724567,4.5473022 8.147619,4.6770607 8.5857933,4.5641018 9.0451185,4.4814678 9.487758,4.4635758 8.5171708,5.037987 10.584994,5.2231063 9.7197195,4.5874983 9.9784874,3.9214491 9.4776455,3.7329973 9.3062206,3.1713343 8.8344835,3.1899571 8.7925438,3.3428177 8.5304147,2.8719067 7.6045352,2.3416172 9.4220809,3.0229458 9.5479289,2.5609426 9.9045587,2.165049 10.525534,2.2995691 11.00153,2.2559285 M 7.8764253,2.841779 C 7.6706775,3.5497791 7.0703461,4.0628519 6.5968739,4.2838161 6.4640306,3.8903335 6.6349662,3.7777452 6.2276625,3.6850432 6.6846853,3.2698698 7.3238978,3.1059449 7.8726496,2.841779 m 6.7189844,0.936636 c -0.756116,0.2140511 0.06339,0.8991645 0.224884,0.1486226 0.002,-0.1139225 -0.134299,-0.1607506 -0.226121,-0.1474979 m 2.656379,1.4426344 c 0.640647,0.3261803 1.724745,1.587171 1.41507,2.0176039 C 18.111332,7.105802 18.295793,7.8161908 17.684212,7.3832375 16.864174,7.2569321 16.857169,6.0604648 15.860547,6.5561718 15.503964,6.8070001 14.087783,6.9035731 15.148902,6.4855881 15.613328,5.9827955 16.332485,5.0714667 17.142737,5.7018584 17.385866,5.9843655 17.868747,6.5467246 17.894913,5.9499949 17.711584,5.7806421 16.901688,5.5528151 17.250588,5.2181726 M 2.6038992,9.7472668 c 0.7969038,0.2420431 1.3371487,1.6701082 2.0295233,1.8032302 0.9233523,-0.278478 0.089491,1.254593 -0.108315,1.641334 0.178201,0.957198 0.8139494,1.383664 1.6666244,1.889623 0.4616708,1.055809 0.1969696,2.289293 0.4080654,3.399684 C 5.5097996,17.979014 4.539817,16.957352 3.8112843,15.956132 2.6822708,14.355988 2.1432,12.351845 2.2743016,10.404165 2.3415848,10.188107 2.3357489,9.8074886 2.6089375,9.7478918"
       id="path6" />
  </g>
  <g
     id="internet-web-browser"
     style="fill:#eff0f1;fill-opacity:1">
    <rect
       style="opacity:0.001;fill:#eff0f1;fill-opacity:1"
       width="32"
       height="32"
       x="0"
       y="0"
       id="rect9" />
    <path
       style="opacity:1;fill:#ffffff;fill-opacity:1;stroke-width:1.16667"
       d="M 16,2 A 14,14 0 0 0 2,16 14,14 0 0 0 16,30 14,14 0 0 0 30,16 14,14 0 0 0 16,2 Z m 0,1.1666667 a 12.833333,12.833333 0 0 1 5.591797,1.3011068 c -0.359467,0.3692599 0.579635,1.0794149 -0.01139,1.4765625 0.699794,0.4569264 1.636014,-0.4190907 0.667644,-0.875 C 22.114895,4.8591344 22.080273,4.7534213 22.099935,4.7115886 a 12.833333,12.833333 0 0 1 0.40332,0.2392578 c 0.513328,0.4966571 1.211931,1.5544013 0.257487,1.845703 -0.537159,0.48815 -1.847632,0.2929102 -0.781575,1.1803386 0.086,0.8617781 -1.866802,-0.1742434 -1.622396,1.2441405 0.09437,0.6379333 0.356852,0.8536895 -0.590169,1.4264315 -0.746874,1.036299 -2.7226,1.896681 -2.49056,3.465821 -0.375037,1.240863 0.950274,1.879095 2.01888,2.146484 1.107659,-0.07281 4.329163,-0.791922 4.782877,0.594727 -0.471312,1.22747 2.064296,2.442814 0.99349,3.661784 -0.694982,1.140672 0.135906,1.537822 -0.08659,2.711588 0.493261,0.709969 -0.215187,1.891912 -1.080078,2.87793 A 12.833333,12.833333 0 0 1 16,28.833333 12.833333,12.833333 0 0 1 11.966797,28.170248 c -0.648235,-0.639649 0.583484,-1.146051 0.931966,-1.483399 -0.535839,-1.023323 0.29953,-0.403546 0.307618,-1.490235 0.01108,-1.643518 2.193896,-2.135795 2.039388,-3.844075 0.04566,-1.018271 1.629966,-2.405492 -0.120769,-2.818685 -1.308778,-0.249472 -2.3793,-0.166216 -3.064779,-1.298828 -1.192361,-0.158574 -1.205156,-1.413634 -2.5999348,-1.187174 -0.7382071,-0.439449 -2.0148225,0.586935 -2.8597002,0.499023 0.1689455,0.107634 0.3330059,0.194015 0.4853515,0.223307 1.2926929,-0.38987 0.1265382,1.757716 -0.1503906,2.299153 0.2494815,1.340077 1.1395887,1.937167 2.3333336,2.645509 0.6223233,1.423211 0.2568008,3.923867 0.4921875,5.496093 A 12.833333,12.833333 0 0 1 3.1666667,16 12.833333,12.833333 0 0 1 3.2190755,14.970053 c 0.065981,-0.305231 0.102647,-0.704467 0.4352214,-0.777019 0.7240383,0.223932 1.5408851,1.141569 2.2945963,1.825195 -0.00407,-0.0095 -0.00972,-0.01525 -0.013672,-0.02506 0.22628,-0.763876 -0.2199865,-1.962985 -0.8841144,-1.80925 C 5.3694408,13.611574 5.3662855,12.483831 4.6295572,13.404623 3.432649,14.465671 3.7550675,12.721333 4.3652344,11.955404 5.1338467,10.953351 6.9868079,11.017168 7.6077474,11.918945 7.5446727,10.458838 9.1162607,10.242385 9.7998048,9.118489 10.576544,8.7183328 11.370884,7.7991651 12.124023,8.2298178 12.647967,8.1532937 13.195912,7.5531595 12.335938,7.8606771 11.923912,7.6596526 12.740308,6.9657991 12.005534,7.147461 12.618979,6.9893186 13.263442,6.8740071 13.883138,6.8489583 12.524316,7.653134 15.41809,7.9119866 14.206706,7.0221354 14.568981,6.0896667 13.867926,5.8260418 13.62793,5.0397136 12.967499,5.065785 12.910275,4.3477518 12.543294,3.6884765 c -0.02457,-0.014071 -0.026,-0.019026 -0.04785,-0.031901 a 12.833333,12.833333 0 0 1 0.786133,-0.1822916 c 0.275948,0.00931 0.52744,-0.00532 0.635742,-0.1321615 A 12.833333,12.833333 0 0 1 16,3.1666667 Z M 5.9488932,16.018229 C 6.0993314,16.370067 6.3263731,16.518343 6.600586,16.546875 6.3936689,16.41505 6.1726301,16.221161 5.9488932,16.018229 Z M 11.625,3.9482422 11.6273,4.5794271 C 11.339232,5.570627 10.499126,6.2889575 9.8362632,6.5983072 9.6773293,6.1275422 9.8233808,5.2665864 9.5149737,4.9440104 A 12.833333,12.833333 0 0 1 11.625,3.9482422 Z m 9.497396,1.0983072 c -1.052331,0.3008294 0.09089,1.2569165 0.316731,0.2073568 0.0028,-0.1594916 -0.18818,-0.2259106 -0.316731,-0.2073568 z m 4.277018,2.5247396 c 0.279926,0.1432599 0.599202,0.4531812 0.906901,0.8066407 a 12.833333,12.833333 0 0 1 0.918295,1.4287106 c 0.129924,0.3421147 0.172531,0.6438457 0.04557,0.8203127 -0.77072,-0.187568 -1.055571,0.916031 -1.911784,0.309896 -1.148053,-0.176827 -1.159092,-1.8515423 -2.554362,-1.1575518 -0.499215,0.3511598 -2.481333,0.4849178 -0.995767,-0.100261 0.650196,-0.7039093 2.30868,-2.3203735 3.443034,-1.4378252 0.340379,0.3955098 1.01838,1.1817757 1.055012,0.3463541 C 26.050959,8.351671 24.929763,8.0359 25.399414,7.571289 Z"
       id="path11" />
  </g>
</svg>
