<?xml version="1.0" encoding="UTF-8" standalone="no"?>
<svg
   width="32"
   height="32"
   version="1.1"
   id="svg986"
   sodipodi:docname="jami.svg"
   inkscape:version="1.3.2 (091e20ef0f, 2023-11-25, custom)"
   xmlns:inkscape="http://www.inkscape.org/namespaces/inkscape"
   xmlns:sodipodi="http://sodipodi.sourceforge.net/DTD/sodipodi-0.dtd"
   xmlns="http://www.w3.org/2000/svg"
   xmlns:svg="http://www.w3.org/2000/svg">
  <style
     id="current-color-scheme"
     type="text/css">.ColorScheme-Text { color:#eceff4; }
</style>
  <sodipodi:namedview
     id="namedview988"
     pagecolor="#c8c8c8"
     bordercolor="#000000"
     borderopacity="1"
     inkscape:showpageshadow="2"
     inkscape:pageopacity="0.0"
     inkscape:pagecheckerboard="0"
     inkscape:deskcolor="#cccccc"
     showgrid="true"
     inkscape:zoom="10.429825"
     inkscape:cx="37.201008"
     inkscape:cy="12.08074"
     inkscape:window-width="1920"
     inkscape:window-height="995"
     inkscape:window-x="0"
     inkscape:window-y="0"
     inkscape:window-maximized="1"
     inkscape:current-layer="svg986">
    <inkscape:grid
       type="xygrid"
       id="grid1519"
       originx="32"
       originy="10"
       spacingy="1"
       spacingx="1"
       units="px"
       visible="true" />
  </sodipodi:namedview>
  <defs
     id="Dexy" />
  <g
     id="22-22-jami">
    <rect
       style="opacity:0.00100002;fill:#eceff4;fill-opacity:1"
       width="22"
       height="22"
       x="32"
       y="10"
       id="rect981" />
    <path
       id="path2"
       style="opacity:1;fill:#ffffff;fill-opacity:1;stroke:none;stroke-width:1.33333;stroke-linecap:round;stroke-linejoin:round"
       d="m 43,13 a 8,8 0 0 0 -8,8 8,8 0 0 0 8,8 8,8 0 0 0 8,-8 8,8 0 0 0 -8,-8 z m 0,1 a 7,7 0 0 1 7,7 7,7 0 0 1 -7,7 7,7 0 0 1 -7,-7 7,7 0 0 1 7,-7 z" />
    <path
       style="fill:#ffffff;fill-opacity:1;stroke-width:0.774566"
       d="m 42.189098,15.00002 c -0.380529,-0.0012 -0.616426,1.549989 -0.721835,3.514026 -1.550136,-0.739013 -2.897264,-1.280664 -3.420149,-1.26411 -0.111147,0.0036 -0.186633,0.03196 -0.220294,0.08643 l -0.807774,1.30513 c -0.191905,0.310252 1.125983,1.282136 2.893604,2.355378 -1.777655,1.078209 -3.086223,2.049833 -2.893604,2.361238 l 0.807774,1.305128 c 0.192731,0.311586 1.762444,-0.276121 3.651379,-1.177692 0.112787,1.960772 0.352756,3.5087 0.732776,3.509632 l 1.599923,0.0048 c 0.380126,0.0012 0.616247,-1.547158 0.721836,-3.508169 1.883493,0.898253 3.448125,1.48276 3.640446,1.171836 l 0.807774,-1.305131 c 0.19262,-0.311405 -1.115949,-1.28303 -2.893608,-2.361238 1.76762,-1.073243 3.085513,-2.045128 2.893608,-2.35538 L 48.17318,17.336743 c -0.03369,-0.05446 -0.10915,-0.08293 -0.220302,-0.08643 -0.523937,-0.01654 -1.875319,0.52709 -3.42952,1.268505 -0.112656,-1.96309 -0.354004,-3.513089 -0.734335,-3.514026 z m 0.414047,0.751439 0.771834,0.002 c 0.07619,0.255269 0.158161,0.682506 0.221865,1.211379 0.06657,0.55287 0.11735,1.213465 0.151555,1.923269 -0.248139,0.124112 -0.495986,0.256916 -0.748401,0.388132 -0.25529,-0.132709 -0.505321,-0.267096 -0.756213,-0.392562 0.03145,-0.711683 0.07913,-1.375186 0.143743,-1.929124 0.06126,-0.525268 0.140954,-0.947546 0.215617,-1.202593 z m -4.290415,2.293855 c 0.275633,0.0662 0.716426,0.21459 1.24056,0.429183 0.552089,0.226042 1.1978,0.522263 1.881158,0.855437 -0.0086,0.261144 -0.01293,0.527183 -0.01716,0.79538 -0.260558,0.145931 -0.502153,0.290511 -0.753088,0.436506 -0.649311,-0.386554 -1.246297,-0.760456 -1.731163,-1.094197 -0.458996,-0.315931 -0.814806,-0.595295 -1.014009,-0.785127 z m 9.374536,0 0.393732,0.637182 c -0.199204,0.189832 -0.555017,0.469196 -1.014012,0.785127 -0.484867,0.333741 -1.081853,0.707643 -1.731167,1.094197 -0.252528,-0.146923 -0.495511,-0.292584 -0.757774,-0.439436 -0.0055,-0.265507 -0.0108,-0.529483 -0.02029,-0.788054 0.68624,-0.334739 1.334793,-0.632938 1.88897,-0.859833 0.524132,-0.214593 0.964931,-0.363023 1.240564,-0.429183 z m -4.687268,2.088788 c 0.137987,0.073 0.271746,0.135169 0.409356,0.209464 0.130987,0.0707 0.249564,0.143741 0.379669,0.215325 0.002,0.151804 0.01061,0.294608 0.01096,0.44676 2.89e-4,0.147765 -0.0082,0.286142 -0.0093,0.433578 -0.130722,0.07191 -0.249605,0.145725 -0.381229,0.216787 -0.137609,0.07426 -0.271366,0.13643 -0.409352,0.209465 -0.138012,-0.07299 -0.271772,-0.135168 -0.40938,-0.209465 -0.130989,-0.0707 -0.249564,-0.14374 -0.379667,-0.215322 -0.0016,-0.151805 -0.01065,-0.29461 -0.01093,-0.446759 -2.87e-4,-0.147766 0.0083,-0.286145 0.0094,-0.43358 0.13072,-0.07191 0.249605,-0.145726 0.381229,-0.216789 0.137607,-0.07426 0.271363,-0.136428 0.40935,-0.209464 z m -2.338948,1.30366 c 0.247974,0.144202 0.503539,0.28651 0.7609,0.430648 0.005,0.268525 0.01071,0.535391 0.02032,0.796845 -0.68624,0.334736 -1.334792,0.632937 -1.888973,0.859831 -0.524133,0.214594 -0.964927,0.363024 -1.24056,0.429184 l -0.393728,-0.637183 c 0.199203,-0.189833 0.555014,-0.469193 1.014009,-0.785126 0.484323,-0.333369 1.079574,-0.708097 1.728041,-1.094199 z m 4.677895,0 c 0.648467,0.386102 1.243716,0.76083 1.728041,1.094199 0.458995,0.315933 0.81481,0.595293 1.014012,0.785126 l -0.393732,0.637183 c -0.275633,-0.06621 -0.716429,-0.214592 -1.240563,-0.429184 -0.552085,-0.226041 -1.197796,-0.522262 -1.881155,-0.855437 0.0086,-0.264027 0.01291,-0.532951 0.01717,-0.804168 0.255685,-0.143235 0.509814,-0.284429 0.756213,-0.427719 z m -2.338947,1.281691 c 0.254211,0.132084 0.506388,0.263281 0.756212,0.388169 -0.03147,0.714894 -0.07888,1.381788 -0.143743,1.937915 -0.06128,0.525265 -0.140953,0.947543 -0.215615,1.202591 l -0.771836,-0.002 c -0.07619,-0.255197 -0.158161,-0.682434 -0.221865,-1.211307 -0.06683,-0.554689 -0.117347,-1.218117 -0.151555,-1.930592 0.247466,-0.123757 0.496652,-0.254435 0.748402,-0.385238 z"
       id="path983"
       class="ColorScheme-Text" />
  </g>
  <g
     id="jami">
    <rect
       style="opacity:0.00100002;fill:#eceff4;fill-opacity:1"
       width="32"
       height="32"
       x="0"
       y="0"
       id="rect976" />
    <path
       style="fill:#ffffff;fill-opacity:1;stroke-width:1.16187"
       d="m 14.783641,7.0000007 c -0.570791,-0.0012 -0.92465,2.324998 -1.082756,5.2710923 -2.325235,-1.108535 -4.3459345,-1.921012 -5.1302795,-1.896195 -0.166708,0.0059 -0.279935,0.04793 -0.330432,0.129636 l -1.211676,1.957722 c -0.287858,0.465379 1.688983,1.923211 4.3404435,3.533082 -2.6665095,1.617335 -4.6293745,3.074778 -4.3404435,3.54189 l 1.211676,1.957715 c 0.289093,0.467375 2.6436945,-0.414183 5.4771125,-1.766559 0.169181,2.941186 0.529133,5.263097 1.09917,5.264495 l 2.399897,0.0071 c 0.570204,0.0018 0.924393,-2.320753 1.082766,-5.262298 2.825266,1.347389 5.172228,2.224158 5.460718,1.757771 l 1.211664,-1.957724 c 0.288942,-0.467108 -1.673929,-1.924557 -4.340441,-3.541874 2.651452,-1.609882 4.628312,-3.067715 4.340441,-3.533101 L 23.759837,10.50503 c -0.05049,-0.08169 -0.163734,-0.124367 -0.330449,-0.129646 -0.785915,-0.02482 -2.813016,0.790636 -5.144327,1.902771 C 18.116085,9.3334967 17.75405,7.0084807 17.183546,7.0070717 Z m 0.621073,1.127164 1.15776,0.0021 c 0.114224,0.382904 0.237243,1.023766 0.332802,1.817082 0.09994,0.8293143 0.176024,1.8202143 0.227336,2.8849293 -0.372215,0.186168 -0.743988,0.385377 -1.122603,0.5822 -0.382954,-0.199064 -0.757984,-0.40065 -1.134337,-0.588848 0.04714,-1.067533 0.118712,-2.062795 0.215621,-2.8937073 0.09186,-0.78791 0.211423,-1.421333 0.323421,-1.803906 z M 8.9690415,11.567974 c 0.413453,0.0992 1.0746535,0.321895 1.8608485,0.643788 0.828157,0.339066 1.796716,0.783393 2.821755,1.283166 -0.01287,0.391706 -0.01939,0.790774 -0.02573,1.193066 -0.390843,0.21891 -0.753225,0.435773 -1.129638,0.654777 -0.973974,-0.579841 -1.869454,-1.140689 -2.5967755,-1.64131 -0.688498,-0.473895 -1.222212,-0.892942 -1.521016,-1.177694 z m 14.0619195,0 0.590606,0.955793 c -0.298804,0.284752 -0.832539,0.703799 -1.521038,1.177694 -0.727294,0.500621 -1.622785,1.061469 -2.596764,1.64131 -0.378799,-0.220389 -0.743274,-0.438873 -1.136678,-0.659158 -0.0079,-0.398271 -0.0162,-0.794233 -0.03049,-1.182088 1.029368,-0.502123 2.0022,-0.949424 2.833474,-1.289763 0.786201,-0.321893 1.447412,-0.544543 1.860867,-0.643788 z m -7.030952,3.133212 c 0.206971,0.109565 0.407607,0.202765 0.614037,0.314202 0.196472,0.106098 0.374348,0.215615 0.5695,0.322989 0.0021,0.227705 0.01601,0.441912 0.01636,0.670143 4.33e-4,0.221652 -0.01238,0.429222 -0.01424,0.65038 -0.196092,0.107898 -0.374412,0.218584 -0.571847,0.325167 -0.206423,0.111439 -0.407059,0.204651 -0.614038,0.314215 -0.207021,-0.109526 -0.407658,-0.202759 -0.614077,-0.314215 -0.196483,-0.106091 -0.374352,-0.215598 -0.569507,-0.322975 -0.0016,-0.227706 -0.01605,-0.441918 -0.01633,-0.670142 -4.28e-4,-0.221652 0.01249,-0.42923 0.01432,-0.650372 0.196084,-0.107906 0.374407,-0.218607 0.571848,-0.32519 0.206413,-0.111445 0.407051,-0.204649 0.614021,-0.314202 z m -3.508467,1.955509 c 0.371977,0.216299 0.755326,0.429768 1.141365,0.645968 0.0074,0.402801 0.01611,0.803104 0.03052,1.195293 -1.029367,0.502097 -2.002209,0.9494 -2.833475,1.289755 -0.786218,0.32188 -1.4474085,0.544529 -1.8608545,0.64377 l -0.59061,-0.95577 c 0.298809,-0.284754 0.832535,-0.703794 1.521034,-1.177702 0.7264875,-0.50006 1.6193685,-1.062153 2.5920795,-1.641314 z m 7.01691,0 c 0.972708,0.579161 1.865587,1.141254 2.592077,1.641314 0.688499,0.473908 1.222236,0.892948 1.521038,1.177702 l -0.590606,0.95577 c -0.41345,-0.09924 -1.074665,-0.321893 -1.860862,-0.64377 -0.828129,-0.339079 -1.796704,-0.783404 -2.82175,-1.283183 0.01289,-0.396029 0.01932,-0.799416 0.0258,-1.206246 0.383524,-0.214865 0.764721,-0.426655 1.134317,-0.641587 z m -3.508443,1.922545 c 0.381311,0.198137 0.75958,0.39493 1.134319,0.582266 -0.04718,1.07235 -0.118339,2.072696 -0.215611,2.906889 -0.09188,0.787908 -0.211431,1.421335 -0.323429,1.803905 l -1.157763,-0.0028 c -0.114296,-0.382797 -0.237242,-1.023657 -0.3328,-1.816975 -0.1003,-0.832039 -0.176017,-1.827191 -0.227338,-2.895912 0.3712,-0.185641 0.744989,-0.381662 1.122622,-0.577865 z"
       id="path983-3"
       class="ColorScheme-Text " />
    <path
       id="path1"
       style="opacity:1;fill:#fffffd;fill-opacity:1;stroke:none;stroke-width:2.32841;stroke-linecap:round;stroke-linejoin:round"
       d="M 16,2 A 14,14 0 0 0 2,16 14,14 0 0 0 16,30 14,14 0 0 0 30,16 14,14 0 0 0 16,2 Z m 0,1 A 13,13 0 0 1 29,16 13,13 0 0 1 16,29 13,13 0 0 1 3,16 13,13 0 0 1 16,3 Z" />
  </g>
</svg>
