<?xml version="1.0" encoding="UTF-8" standalone="no"?>
<svg
   width="32"
   height="32"
   version="1"
   id="svg12"
   sodipodi:docname="juk.svg"
   inkscape:version="1.3.2 (091e20ef0f, 2023-11-25, custom)"
   xmlns:inkscape="http://www.inkscape.org/namespaces/inkscape"
   xmlns:sodipodi="http://sodipodi.sourceforge.net/DTD/sodipodi-0.dtd"
   xmlns="http://www.w3.org/2000/svg"
   xmlns:svg="http://www.w3.org/2000/svg"
   xmlns:rdf="http://www.w3.org/1999/02/22-rdf-syntax-ns#"
   xmlns:cc="http://creativecommons.org/ns#"
   xmlns:dc="http://purl.org/dc/elements/1.1/">
  <metadata
     id="metadata18">
    <rdf:RDF>
      <cc:Work
         rdf:about="">
        <dc:format>image/svg+xml</dc:format>
        <dc:type
           rdf:resource="http://purl.org/dc/dcmitype/StillImage" />
      </cc:Work>
    </rdf:RDF>
  </metadata>
  <defs
     id="defs16" />
  <sodipodi:namedview
     pagecolor="#c8c8c8"
     bordercolor="#000000"
     borderopacity="1"
     objecttolerance="10"
     gridtolerance="10"
     guidetolerance="10"
     inkscape:pageopacity="0"
     inkscape:pageshadow="2"
     inkscape:window-width="1920"
     inkscape:window-height="995"
     id="namedview14"
     showgrid="true"
     inkscape:zoom="9.8125"
     inkscape:cx="7.7452229"
     inkscape:cy="29.350318"
     inkscape:window-x="0"
     inkscape:window-y="0"
     inkscape:window-maximized="1"
     inkscape:current-layer="svg12"
     inkscape:document-rotation="0"
     inkscape:showpageshadow="false"
     inkscape:lockguides="false"
     inkscape:pagecheckerboard="0"
     inkscape:deskcolor="#d1d1d1">
    <inkscape:grid
       type="xygrid"
       id="grid865"
       originx="0"
       originy="0"
       spacingy="1"
       spacingx="1"
       units="px"
       visible="true" />
  </sodipodi:namedview>
  <g
     id="22-22-juk">
    <rect
       style="opacity:0.00100002"
       width="22"
       height="22"
       x="32"
       y="10"
       id="rect2" />
    <path
       id="path2"
       style="fill:#ffffff;fill-opacity:1;stroke-width:1.04334;stroke-linecap:round;stroke-linejoin:round"
       d="m 43,13 a 8,8 0 0 0 -8,8 8,8 0 0 0 8,8 8,8 0 0 0 8,-8 8,8 0 0 0 -8,-8 z m 0,1 a 7,7 0 0 1 7,7 7,7 0 0 1 -7,7 7,7 0 0 1 -7,-7 7,7 0 0 1 7,-7 z" />
    <path
       d="m 44.836633,20.999846 c 0,-0.992282 -0.808965,-1.799358 -1.803276,-1.799358 -0.994334,0 -1.803298,0.807076 -1.803298,1.799358 0,0.992276 0.808964,1.79956 1.803298,1.79956 0.994311,0 1.803276,-0.807284 1.803276,-1.79956 z m -3.003195,0 c 0,-0.660036 0.538316,-1.197282 1.199919,-1.197282 0.661591,0 1.199901,0.537203 1.199901,1.197282 0,0.66024 -0.53831,1.197428 -1.199901,1.197428 -0.661603,0 -1.199919,-0.537206 -1.199919,-1.197428 z"
       id="path70-6"
       style="fill:#ffffff;fill-opacity:1;stroke-width:0.0538161" />
    <path
       d="m 42.953775,17.870363 c 0.166678,-0.0048 0.298193,-0.14259 0.293988,-0.308709 -0.0051,-0.163799 -0.138473,-0.293376 -0.301775,-0.293376 h -0.0072 c -0.449031,0.01156 -0.889497,0.103108 -1.309328,0.272802 -0.418988,0.16927 -0.79861,0.408876 -1.129012,0.712129 -0.122893,0.112565 -0.130475,0.303043 -0.01784,0.425476 0.05955,0.06468 0.140793,0.09724 0.222231,0.09724 0.07303,0 0.146464,-0.02628 0.204123,-0.07937 0.27694,-0.254322 0.595352,-0.455507 0.94698,-0.597467 0.352272,-0.142166 0.721623,-0.21924 1.097867,-0.228694 z"
       id="path72-7"
       style="fill:#ffffff;fill-opacity:1;stroke-width:0.0538161" />
    <path
       d="m 43.521059,16.629016 c 0.167709,0.0178 0.315024,-0.100596 0.333541,-0.265868 0.01852,-0.165285 -0.100801,-0.314398 -0.266414,-0.332872 -0.8207,-0.09113 -1.664551,0.02419 -2.435849,0.336008 -0.771247,0.311665 -1.456886,0.813156 -1.983382,1.450712 -0.106066,0.128101 -0.08774,0.318161 0.041,0.423584 0.05622,0.04622 0.123951,0.06886 0.191498,0.06886 0.08713,0 0.173616,-0.03742 0.232959,-0.109618 0.46275,-0.560083 1.065868,-1.001311 1.744346,-1.275387 0.678682,-0.27449 1.419642,-0.376974 2.142296,-0.29549 z"
       id="path74-5"
       style="fill:#ffffff;fill-opacity:1;stroke-width:0.0538161" />
    <path
       d="m 43.114861,24.12931 c -0.166675,0.005 -0.298199,0.142596 -0.293993,0.308717 0.005,0.163808 0.138478,0.293375 0.301365,0.293375 h 0.0075 c 0.44844,-0.0115 0.888245,-0.103529 1.307274,-0.272794 0.419828,-0.169253 0.800491,-0.409517 1.130456,-0.71321 0.122485,-0.112981 0.130275,-0.303031 0.0175,-0.425475 -0.112796,-0.122014 -0.30345,-0.129566 -0.426357,-0.01746 -0.276724,0.25453 -0.595342,0.455714 -0.947833,0.5981 -0.352069,0.142389 -0.720981,0.219241 -1.096414,0.2287 z"
       id="path76-3"
       style="fill:#ffffff;fill-opacity:1;stroke-width:0.0538161" />
    <path
       d="m 46.431795,23.799761 c -0.462745,0.560301 -1.065869,1.001316 -1.744774,1.275394 -0.678254,0.274899 -1.41878,0.377584 -2.141865,0.295474 -0.166468,-0.017 -0.314607,0.100802 -0.333551,0.265862 -0.01853,0.165282 0.100801,0.314387 0.266426,0.332869 C 42.660886,25.98979 42.845039,26 43.029146,26 c 0.642485,0 1.285122,-0.124123 1.884303,-0.366676 0.771235,-0.311439 1.457096,-0.813151 1.983591,-1.450699 0.106055,-0.128107 0.08771,-0.318171 -0.04104,-0.423584 -0.128569,-0.105851 -0.318608,-0.08742 -0.424239,0.04069 z"
       id="path78-5"
       style="fill:#ffffff;fill-opacity:1;stroke-width:0.0538161" />
  </g>
  <g
     id="juk">
    <rect
       style="opacity:0.00100002"
       width="32"
       height="32"
       x="0"
       y="0"
       id="rect7" />
    <path
       d="m 18.87856,15.999719 c 0,-1.587645 -1.29432,-2.878952 -2.885231,-2.878952 -1.590922,0 -2.885246,1.291307 -2.885246,2.878952 0,1.587636 1.294324,2.879294 2.885246,2.879294 1.590911,0 2.885231,-1.291658 2.885231,-2.879294 z m -4.80508,0 c 0,-1.056048 0.861292,-1.915638 1.919849,-1.915638 1.058546,0 1.919837,0.859522 1.919837,1.915638 0,1.056387 -0.861291,1.915886 -1.919837,1.915886 -1.058557,0 -1.919849,-0.859519 -1.919849,-1.915886 z"
       id="path70"
       style="fill:#ffffff;fill-opacity:1;stroke-width:0.0861061" />
    <path
       d="m 15.866016,10.992577 c 0.266669,-0.0077 0.477111,-0.228146 0.470367,-0.493938 -0.007,-0.262079 -0.221546,-0.4694 -0.482831,-0.4694 h -0.01214 c -0.717846,0.01849 -1.422575,0.164979 -2.094302,0.436481 -0.670377,0.270826 -1.277771,0.654206 -1.806416,1.139402 -0.196621,0.180105 -0.20875,0.484861 -0.02861,0.680756 0.0953,0.103483 0.225262,0.155574 0.35556,0.155574 0.116837,0 0.234348,-0.04202 0.326598,-0.127014 0.443102,-0.406905 0.952565,-0.728805 1.51516,-0.95593 0.563641,-0.227465 1.154596,-0.350786 1.756583,-0.365911 z"
       id="path72"
       style="fill:#ffffff;fill-opacity:1;stroke-width:0.0861061" />
    <path
       d="M 16.773653,9.0064196 C 17.042004,9.0349696 17.2777,8.8454676 17.307329,8.5810333 17.336989,8.316587 17.146048,8.078014 16.881064,8.0484542 15.567954,7.9026356 14.217788,8.0871062 12.983721,8.5860633 11.749738,9.0847125 10.65272,9.8870984 9.81033,10.907189 c -0.1697045,0.204961 -0.1403965,0.509056 0.0656,0.677726 0.08988,0.07391 0.198314,0.110209 0.306394,0.110209 0.139392,0 0.27778,-0.05984 0.372724,-0.175391 0.740405,-0.896134 1.705384,-1.602096 2.790937,-2.040614 1.085895,-0.4391751 2.271433,-0.6031467 3.42766,-0.4727748 z"
       id="path74"
       style="fill:#ffffff;fill-opacity:1;stroke-width:0.0861061" />
    <path
       d="m 16.123737,21.006847 c -0.266669,0.007 -0.477112,0.228148 -0.470368,0.493938 0.007,0.26209 0.221546,0.4694 0.482162,0.4694 h 0.01283 c 0.717505,-0.01849 1.421193,-0.16565 2.091631,-0.43647 0.67172,-0.270818 1.280783,-0.655218 1.808729,-1.141127 0.195963,-0.18077 0.208428,-0.484858 0.02797,-0.680759 -0.180472,-0.195218 -0.485519,-0.207318 -0.682164,-0.0279 -0.442759,0.407248 -0.952547,0.729148 -1.516527,0.956957 -0.563309,0.22781 -1.153562,0.350789 -1.754257,0.365919 z"
       id="path76"
       style="fill:#ffffff;fill-opacity:1;stroke-width:0.0861061" />
    <path
       d="m 21.430819,20.479559 c -0.740402,0.896477 -1.705388,1.602095 -2.791631,2.040615 -1.085201,0.439838 -2.270046,0.604138 -3.426976,0.472768 -0.266328,-0.0272 -0.503365,0.161281 -0.533667,0.425379 -0.02966,0.264439 0.161281,0.503008 0.426267,0.532579 0.292591,0.03259 0.587207,0.0491 0.881782,0.0491 1.027973,0 2.056199,-0.198588 3.014868,-0.586679 1.233988,-0.498297 2.331345,-1.301024 3.173737,-2.321113 0.169698,-0.204968 0.140409,-0.509059 -0.06564,-0.677737 -0.205724,-0.169352 -0.509778,-0.139781 -0.678795,0.0652 z"
       id="path78"
       style="fill:#ffffff;fill-opacity:1;stroke-width:0.0861061" />
    <path
       id="path1"
       style="fill:#ffffff;fill-opacity:1;stroke-width:1.06132;stroke-linecap:round;stroke-linejoin:round"
       d="M 16,2 A 14,14 0 0 0 2,16 14,14 0 0 0 16,30 14,14 0 0 0 30,16 14,14 0 0 0 16,2 Z m 0,1 A 13,13 0 0 1 29,16 13,13 0 0 1 16,29 13,13 0 0 1 3,16 13,13 0 0 1 16,3 Z" />
  </g>
</svg>
