<?xml version="1.0" encoding="UTF-8" standalone="no"?>
<svg
   id="svg19"
   viewBox="0 0 32 32"
   version="1.1"
   sodipodi:docname="kate.svg"
   inkscape:version="1.2.1 (9c6d41e410, 2022-07-14, custom)"
   xmlns:inkscape="http://www.inkscape.org/namespaces/inkscape"
   xmlns:sodipodi="http://sodipodi.sourceforge.net/DTD/sodipodi-0.dtd"
   xmlns="http://www.w3.org/2000/svg"
   xmlns:svg="http://www.w3.org/2000/svg"
   xmlns:rdf="http://www.w3.org/1999/02/22-rdf-syntax-ns#"
   xmlns:cc="http://creativecommons.org/ns#"
   xmlns:dc="http://purl.org/dc/elements/1.1/">
  <sodipodi:namedview
     pagecolor="#c8c8c8"
     bordercolor="#666666"
     borderopacity="1"
     objecttolerance="10"
     gridtolerance="10"
     guidetolerance="10"
     inkscape:pageopacity="0"
     inkscape:pageshadow="2"
     inkscape:window-width="1920"
     inkscape:window-height="949"
     id="namedview13"
     showgrid="true"
     inkscape:zoom="6.0546874"
     inkscape:cx="5.4503227"
     inkscape:cy="38.069678"
     inkscape:window-x="0"
     inkscape:window-y="40"
     inkscape:window-maximized="1"
     inkscape:current-layer="svg19"
     inkscape:document-rotation="0"
     inkscape:showpageshadow="0"
     inkscape:pagecheckerboard="0"
     inkscape:deskcolor="#c8c8c8">
    <inkscape:grid
       type="xygrid"
       id="grid838" />
  </sodipodi:namedview>
  <metadata
     id="metadata21">
    <rdf:RDF>
      <cc:Work
         rdf:about="">
        <dc:format>image/svg+xml</dc:format>
        <dc:type
           rdf:resource="http://purl.org/dc/dcmitype/StillImage" />
        <dc:title />
      </cc:Work>
    </rdf:RDF>
  </metadata>
  <defs
     id="defs5">
    <style
       type="text/css"
       id="current-color-scheme"> .ColorScheme-Text { color:#363636; } </style>
  </defs>
  <g
     id="22-22-kate"
     transform="translate(0,-27.863281)">
    <path
       id="path295"
       style="fill:none;fill-opacity:1;stroke:#fbfbfb;stroke-width:1;stroke-linecap:round;stroke-linejoin:round;stroke-dasharray:none;stroke-opacity:1;paint-order:stroke fill markers"
       d="m 59.212891,40.996093 c -1.147067,0.03867 -2.441323,0.400301 -3.699219,1.328125 -1.30593,0.96327 -1.880226,1.226645 -2.513672,1.546875 0.56439,0.04385 3.9416,-0.445546 4.539062,1.574219 0.02782,-0.0087 0.146246,-0.04474 0.185547,-0.05664 -2.429067,0.688376 -3.784705,2.272487 -2.757812,4.470703 1.030561,2.20622 2.811177,2.258398 5.009765,3.75586 1.716409,1.16905 2.136637,1.764404 3.244141,3.384765 -0.230313,-2.238946 -1.293639,-5.125077 -1.791015,-6.396484 1.92025,1.169495 2.893036,1.431249 5.570312,1.716797 -3.474215,-2.51818 -4.13246,-3.01032 -6.121094,-4.736328 -1.33414,0.06848 -1.18789,0.05561 -1.974609,0.101562 1.035713,1.488214 1.444402,3.675017 -0.449219,4.076172 -1.772478,0.375473 -3.482029,-1.182913 -2.996094,-2.851563 0.527648,-1.811913 2.805896,-1.462981 5.195313,-1.777343 2.38933,-0.314307 4.571675,-2.700683 5.884765,-4.466797 -1.874921,0.651384 -4.279573,1.394738 -6.929687,2.167968 -0.536748,-1.067138 -1.224921,-3.083748 2.416016,-3.22461 -0.666913,-0.368465 -1.665434,-0.651956 -2.8125,-0.613281 z" />
    <path
       id="path297"
       fill="none"
       d="m 49,37.863281 h 22 v 22 H 49 Z"
       style="color:#363636" />
  </g>
  <g
     id="kate"
     transform="translate(2.8953998e-8,-39)">
    <rect
       id="rect1271"
       fill="none"
       height="32"
       width="32"
       y="39"
       x="-2.8954e-08"
       style="color:#363636" />
    <path
       style="color:#363636;font-style:normal;font-variant:normal;font-weight:normal;font-stretch:normal;font-size:medium;line-height:normal;font-family:sans-serif;font-variant-ligatures:normal;font-variant-position:normal;font-variant-caps:normal;font-variant-numeric:normal;font-variant-alternates:normal;font-variant-east-asian:normal;font-feature-settings:normal;font-variation-settings:normal;text-indent:0;text-align:start;text-decoration:none;text-decoration-line:none;text-decoration-style:solid;text-decoration-color:#000000;letter-spacing:normal;word-spacing:normal;text-transform:none;writing-mode:lr-tb;direction:ltr;text-orientation:mixed;dominant-baseline:auto;baseline-shift:baseline;text-anchor:start;white-space:normal;shape-padding:0;shape-margin:0;inline-size:0;clip-rule:nonzero;display:inline;overflow:visible;visibility:visible;isolation:auto;mix-blend-mode:normal;color-interpolation:sRGB;color-interpolation-filters:linearRGB;solid-color:#000000;solid-opacity:1;fill:none;fill-opacity:1;fill-rule:nonzero;stroke:#fbfbfb;stroke-width:1;stroke-linecap:round;stroke-linejoin:round;stroke-miterlimit:4;stroke-dasharray:none;stroke-dashoffset:0;stroke-opacity:1;color-rendering:auto;image-rendering:auto;shape-rendering:auto;text-rendering:auto;enable-background:accumulate;stop-color:#000000"
       d="m 14.99979,40.9754 c -2.108671,0.06777 -4.488352,0.703178 -6.800763,2.329329 -2.4007136,1.688277 -3.4545678,2.149468 -4.6190415,2.71072 1.0375263,0.07686 7.2453285,-0.783244 8.3436555,2.756699 0.05116,-0.01527 0.268505,-0.07563 0.340753,-0.09649 -4.4653949,1.206483 -6.9563379,3.980667 -5.0685836,7.833374 1.894498,3.866735 5.1679636,3.95916 9.2096656,6.583688 3.155302,2.048937 3.927228,3.091331 5.963172,5.931258 -0.423389,-3.92409 -2.379521,-8.981908 -3.293857,-11.21024 3.530026,2.049715 5.319683,2.508881 10.241364,3.009348 -6.386705,-4.413492 -7.598541,-5.276959 -11.254278,-8.302046 -2.452571,0.120022 -2.18365,0.09865 -3.629889,0.179176 1.90397,2.608319 2.657594,6.441232 -0.823481,7.144316 -3.258375,0.658073 -6.4021164,-2.074187 -5.5088127,-4.998747 0.9699826,-3.175651 5.1580097,-2.564055 9.5505157,-3.115021 4.392344,-0.550871 8.404984,-4.733473 10.818864,-7.828855 -3.446702,1.14164 -7.868426,2.44435 -12.740175,3.799554 -0.986712,-1.870322 -2.249314,-5.404139 4.443882,-5.651021 C 18.946784,41.404654 17.108672,40.907585 15,40.975368 Z"
       id="path1273" />
  </g>
</svg>
