<?xml version="1.0" encoding="UTF-8" standalone="no"?>
<svg
   width="32"
   height="32"
   version="1"
   id="svg359"
   sodipodi:docname="krusader_user.svg"
   inkscape:version="1.3.2 (091e20ef0f, 2023-11-25, custom)"
   xmlns:inkscape="http://www.inkscape.org/namespaces/inkscape"
   xmlns:sodipodi="http://sodipodi.sourceforge.net/DTD/sodipodi-0.dtd"
   xmlns="http://www.w3.org/2000/svg"
   xmlns:svg="http://www.w3.org/2000/svg">
  <style
     id="current-color-scheme"
     type="text/css">.ColorScheme-Text { color:#d6dbf1; }
</style>
  <defs
     id="defs363" />
  <sodipodi:namedview
     id="namedview361"
     pagecolor="#c8c8c8"
     bordercolor="#000000"
     borderopacity="1"
     inkscape:showpageshadow="true"
     inkscape:pageopacity="0"
     inkscape:pagecheckerboard="false"
     inkscape:deskcolor="#cccccc"
     showgrid="true"
     inkscape:zoom="2.6074563"
     inkscape:cx="-109.30193"
     inkscape:cy="-26.079057"
     inkscape:window-width="1920"
     inkscape:window-height="995"
     inkscape:window-x="0"
     inkscape:window-y="0"
     inkscape:window-maximized="1"
     inkscape:current-layer="svg359">
    <inkscape:grid
       type="xygrid"
       id="grid795"
       originx="-10"
       originy="39"
       spacingy="1"
       spacingx="1"
       units="px"
       visible="true" />
  </sodipodi:namedview>
  <g
     id="krusader_user">
    <rect
       style="opacity:0.00100002;fill:#eceff4;fill-opacity:1"
       width="32"
       height="32"
       x="0"
       y="0"
       id="rect350" />
    <path
       d="M 23.285672,21.285723 28.000001,19.142912 16,14 21.142912,26 Z"
       id="path3094-2"
       style="fill:#ffffff;fill-opacity:1" />
    <path
       id="path1099-2"
       d="m 16.91368,23.499999 c 0,0.647193 -0.530503,1.172797 -1.183734,1.172797 -0.653232,0 -1.183741,-0.525604 -1.183741,-1.172797 0,-0.647533 0.530509,-1.172793 1.183741,-1.172793 0.653231,0 1.183734,0.52526 1.183734,1.172793 z"
       class="ColorScheme-Text "
       style="color:#eff0f1;fill:#ffffff;fill-opacity:1" />
    <path
       id="rect1"
       style="fill:#ffffff;fill-opacity:1;stroke-width:2;stroke-linecap:round;stroke-linejoin:round"
       d="M 5,4 C 3.338002,4 2,5.3380017 2,7 v 18 c 0,1.661998 1.338002,3 3,3 h 22 c 1.661998,0 3,-1.338002 3,-3 V 7 C 30,5.3380017 28.661998,4 27,4 Z m 0,1 h 22 c 1.107999,0 2,0.8920011 2,2 v 18 c 0,1.107999 -0.892001,2 -2,2 H 5 C 3.892001,27 3,26.107999 3,25 V 7 C 3,5.8920011 3.892001,5 5,5 Z" />
    <rect
       style="fill:#ffffff;fill-opacity:1;stroke-width:2.90562;stroke-linecap:round;stroke-linejoin:round"
       id="rect2"
       width="18"
       height="1"
       x="7"
       y="9"
       ry="0.5" />
    <rect
       style="fill:#ffffff;fill-opacity:1;stroke-width:2.90562;stroke-linecap:round;stroke-linejoin:round"
       id="rect4"
       width="18"
       height="1"
       x="7"
       y="12"
       ry="0.5" />
    <rect
       style="fill:#ffffff;fill-opacity:1;stroke-width:1.93708;stroke-linecap:round;stroke-linejoin:round"
       id="rect6"
       width="8"
       height="1"
       x="7"
       y="15"
       ry="0.5" />
    <rect
       style="fill:#ffffff;fill-opacity:1;stroke-width:1.93708;stroke-linecap:round;stroke-linejoin:round"
       id="rect7"
       width="8"
       height="1"
       x="7"
       y="18"
       ry="0.5" />
  </g>
  <g
     id="22-22-krusader_user">
    <rect
       style="opacity:0.00100002;fill:#eceff4;fill-opacity:1"
       width="22"
       height="22"
       x="32"
       y="10"
       id="rect343" />
    <path
       id="path2"
       style="fill:#ffffff;fill-opacity:1;stroke-width:2;stroke-linecap:round;stroke-linejoin:round"
       d="m 36,13 c -1.661998,0 -3,1.338002 -3,3 v 10 c 0,1.661998 1.338002,3 3,3 h 14 c 1.661998,0 3,-1.338002 3,-3 V 16 c 0,-1.661998 -1.338002,-3 -3,-3 z m 0,1 h 14 c 1.107999,0 2,0.892001 2,2 v 10 c 0,1.107999 -0.892001,2 -2,2 H 36 c -1.107999,0 -2,-0.892001 -2,-2 V 16 c 0,-1.107999 0.892001,-2 2,-2 z"
       sodipodi:nodetypes="ssssssssssssssssss" />
    <circle
       style="fill:#ffffff;fill-opacity:1;stroke-width:2;stroke-linecap:round;stroke-linejoin:round"
       id="path3"
       cx="43"
       cy="26"
       r="1" />
    <path
       d="M 48.249944,24.250005 50.999969,23.000032 43.999969,20 47,27 Z"
       id="path7"
       style="fill:#ffffff;fill-opacity:1;stroke-width:0.583333" />
    <rect
       style="fill:#ffffff;fill-opacity:1;stroke-width:2.30941;stroke-linecap:round;stroke-linejoin:round"
       id="rect8"
       width="12"
       height="1"
       x="37"
       y="17"
       ry="0.5" />
    <rect
       style="fill:#ffffff;fill-opacity:1;stroke-width:1.56347;stroke-linecap:round;stroke-linejoin:round"
       id="rect9"
       width="5.5"
       height="1"
       x="37"
       y="20"
       ry="0.5" />
    <rect
       style="fill:#ffffff;fill-opacity:1;stroke-width:1.56347;stroke-linecap:round;stroke-linejoin:round"
       id="rect10"
       width="5.5"
       height="1"
       x="37"
       y="23"
       ry="0.5" />
  </g>
</svg>
