<?xml version="1.0" encoding="UTF-8" standalone="no"?>
<svg
   inkscape:version="1.2 (dc2aedaf03, 2022-05-15)"
   sodipodi:docname="manjaro.svg"
   version="1.1"
   height="22"
   width="22"
   id="svg"
   xmlns:inkscape="http://www.inkscape.org/namespaces/inkscape"
   xmlns:sodipodi="http://sodipodi.sourceforge.net/DTD/sodipodi-0.dtd"
   xmlns="http://www.w3.org/2000/svg"
   xmlns:svg="http://www.w3.org/2000/svg"
   xmlns:rdf="http://www.w3.org/1999/02/22-rdf-syntax-ns#"
   xmlns:cc="http://creativecommons.org/ns#"
   xmlns:dc="http://purl.org/dc/elements/1.1/">
  <sodipodi:namedview
     inkscape:current-layer="svg"
     inkscape:window-maximized="1"
     inkscape:window-y="0"
     inkscape:window-x="0"
     inkscape:cy="27.532969"
     inkscape:cx="13.611805"
     inkscape:zoom="11.313709"
     inkscape:snap-bbox-edge-midpoints="true"
     inkscape:bbox-nodes="true"
     inkscape:snap-bbox="true"
     showgrid="true"
     id="namedview15"
     inkscape:window-height="1001"
     inkscape:window-width="1920"
     inkscape:pageshadow="2"
     inkscape:pageopacity="0"
     guidetolerance="10"
     gridtolerance="10"
     objecttolerance="10"
     borderopacity="1"
     bordercolor="#666666"
     pagecolor="#c8c8c8"
     inkscape:document-rotation="0"
     inkscape:showpageshadow="0"
     inkscape:pagecheckerboard="0"
     inkscape:deskcolor="#c8c8c8">
    <inkscape:grid
       id="grid840"
       type="xygrid" />
  </sodipodi:namedview>
  <metadata
     id="metadata23">
    <rdf:RDF>
      <cc:Work
         rdf:about="">
        <dc:format>image/svg+xml</dc:format>
        <dc:type
           rdf:resource="http://purl.org/dc/dcmitype/StillImage" />
        <dc:title />
      </cc:Work>
    </rdf:RDF>
  </metadata>
  <defs
     id="defs5">
    <style
       type="text/css"
       id="current-color-scheme"> .ColorScheme-Text { color:#363636; } </style>
    <style
       type="text/css"
       id="style842" />
  </defs>
  <g
     id="22-22-manjaro-settings-manager"
     transform="translate(32,-4)">
    <rect
       id="rect7-3"
       width="22"
       height="22"
       fill-opacity="0"
       x="-32"
       y="4" />
    <g
       id="rect845"
       transform="translate(-54,4)">
      <path
         id="path861"
         style="color:#363636;fill:#fbfbfb;fill-opacity:1"
         class="ColorScheme-Text"
         d="M 27 3 C 25.909298 3 25 3.9092983 25 5 L 25 17 C 25 18.090702 25.909298 19 27 19 L 30 19 L 30 10 L 30 8 L 35 8 L 35 3 L 27 3 z M 36 3 L 36 4 L 36 19 L 39 19 C 40.090702 19 41 18.090702 41 17 L 41 5 C 41 3.9092983 40.090702 3 39 3 L 36 3 z M 27 4 L 34 4 L 34 7 L 29 7 L 29 10 L 29 18 L 27 18 C 26.446001 18 26 17.553999 26 17 L 26 5 C 26 4.4460006 26.446001 4 27 4 z M 37 4 L 39 4 C 39.553999 4 40 4.4460006 40 5 L 40 17 C 40 17.553999 39.553999 18 39 18 L 37 18 L 37 4 z M 31 9 L 31 10 L 31 19 L 35 19 L 35 9 L 31 9 z M 32 10 L 34 10 L 34 18 L 32 18 L 32 10 z " />
    </g>
  </g>
  <g
     id="16-16-manjaro-settings-manager"
     transform="translate(0,4)">
    <rect
       id="rect17-7"
       x="3"
       y="27"
       width="16"
       height="16"
       fill="none" />
    <path
       id="path880"
       style="color:#363636;fill:#fbfbfb;fill-opacity:1"
       class="ColorScheme-Text"
       d="M 5 29 L 5 30 L 5 31 L 5 41 L 8 41 L 8 32 L 13 32 L 13 29 L 5 29 z M 14 29 L 14 30 L 14 41 L 17 41 L 17 29 L 14 29 z M 6 30 L 12 30 L 12 31 L 7 31 L 7 40 L 6 40 L 6 31 L 6 30 z M 15 30 L 16 30 L 16 40 L 15 40 L 15 30 z M 9 33 L 9 34 L 9 41 L 13 41 L 13 33 L 9 33 z M 10 34 L 12 34 L 12 40 L 10 40 L 10 34 z " />
  </g>
  <g
     id="manjaro-settings-manager"
     transform="translate(0,4)">
    <rect
       id="rect14-3"
       x="-5"
       y="-39"
       width="32"
       height="32"
       ry="0.63999999"
       fill-opacity="0" />
    <path
       id="path907"
       style="color:#363636;fill:#fbfbfb;fill-opacity:1"
       class="ColorScheme-Text"
       d="M 3 -34 C 1.3552986 -34 0 -32.644701 0 -31 L 0 -15 C 0 -13.355299 1.3552986 -12 3 -12 L 6 -12 L 6 -25 L 6 -26 L 6 -28 L 14 -28 L 14 -34 L 3 -34 z M 16 -34 L 16 -33 L 16 -12 L 19 -12 C 20.644701 -12 22 -13.355299 22 -15 L 22 -31 C 22 -32.644701 20.644701 -34 19 -34 L 16 -34 z M 3 -33 L 13 -33 L 13 -29 L 5 -29 L 5 -26 L 5 -25 L 5 -13 L 3 -13 C 1.8920011 -13 1 -13.892001 1 -15 L 1 -31 C 1 -32.107999 1.8920011 -33 3 -33 z M 17 -33 L 19 -33 C 20.107999 -33 21 -32.107999 21 -31 L 21 -15 C 21 -13.892001 20.107999 -13 19 -13 L 17 -13 L 17 -33 z M 8 -26 L 8 -25 L 8 -12 L 14 -12 L 14 -26 L 8 -26 z M 9 -25 L 13 -25 L 13 -13 L 9 -13 L 9 -25 z " />
  </g>
</svg>
