<?xml version="1.0" encoding="UTF-8" standalone="no"?>
<svg
   inkscape:version="1.2.1 (9c6d41e410, 2022-07-14, custom)"
   sodipodi:docname="media.svg"
   id="svg67"
   viewBox="0 0 22 22"
   version="1.1"
   height="22"
   width="22"
   xmlns:inkscape="http://www.inkscape.org/namespaces/inkscape"
   xmlns:sodipodi="http://sodipodi.sourceforge.net/DTD/sodipodi-0.dtd"
   xmlns="http://www.w3.org/2000/svg"
   xmlns:svg="http://www.w3.org/2000/svg"
   xmlns:rdf="http://www.w3.org/1999/02/22-rdf-syntax-ns#"
   xmlns:cc="http://creativecommons.org/ns#"
   xmlns:dc="http://purl.org/dc/elements/1.1/">
  <metadata
     id="metadata71">
    <rdf:RDF>
      <cc:Work
         rdf:about="">
        <dc:format>image/svg+xml</dc:format>
        <dc:type
           rdf:resource="http://purl.org/dc/dcmitype/StillImage" />
        <dc:title />
      </cc:Work>
    </rdf:RDF>
  </metadata>
  <sodipodi:namedview
     inkscape:document-rotation="0"
     inkscape:current-layer="svg67"
     inkscape:window-maximized="1"
     inkscape:window-y="0"
     inkscape:window-x="0"
     inkscape:cy="13.097457"
     inkscape:cx="0.93220336"
     inkscape:zoom="10.727273"
     showgrid="true"
     id="namedview69"
     inkscape:window-height="1005"
     inkscape:window-width="1920"
     inkscape:pageshadow="2"
     inkscape:pageopacity="0"
     guidetolerance="10"
     gridtolerance="10"
     objecttolerance="10"
     borderopacity="1"
     bordercolor="#666666"
     pagecolor="#c8c8c8"
     inkscape:snap-bbox="true"
     inkscape:bbox-nodes="true"
     inkscape:snap-bbox-edge-midpoints="false"
     inkscape:snap-smooth-nodes="true"
     inkscape:pagecheckerboard="0"
     inkscape:snap-nodes="true"
     inkscape:showpageshadow="0"
     inkscape:deskcolor="#c8c8c8">
    <inkscape:grid
       id="grid878"
       type="xygrid" />
  </sodipodi:namedview>
  <defs
     id="defs3">
    <style
       type="text/css"
       id="current-color-scheme">.ColorScheme-Text { color:#dedede; } .ColorScheme-Highlight { color:#5294e2; } .ColorScheme-ButtonBackground { color:#dedede; }</style>
  </defs>
  <g
     id="media-record"
     transform="translate(22,-1057.4683)"
     style="fill:#000000">
    <rect
       y="1030.4"
       width="22"
       height="22"
       opacity="0.00100002"
       id="rect5"
       x="0" />
    <path
       class="ColorScheme-Highlight"
       d="m 11,1035.4 c -3.311,0 -6,2.6888 -6,6 0,3.311 2.689,6 6,6 3.311,0 6,-2.689 6,-6 0,-3.3112 -2.689,-6 -6,-6 z"
       enable-background="new"
       fill="#f96060"
       id="path7"
       style="fill:#ff3232;fill-opacity:1" />
  </g>
  <g
     id="media-eject"
     transform="translate(0,-2.068359)">
    <path
       id="rect2936"
       style="opacity:1;fill:#fbfbfb;fill-opacity:1;fill-rule:evenodd;stroke-width:0.55;stroke-linecap:round;stroke-linejoin:round;paint-order:stroke fill markers"
       d="m -32.99517,-20 c -0.408735,0 -0.764082,0.157375 -0.996094,0.470703 l -3.847656,4.705078 c -0.486068,0.602957 -0.08044,1.8125 0.847656,1.8125 h 8 c 0.9281,0 1.300256,-1.190675 0.839844,-1.8125 l -3.839844,-4.705078 C -32.223277,-19.842625 -32.586436,-20 -32.99517,-20 Z"
       sodipodi:nodetypes="sccssccs" />
    <rect
       y="-24.999975"
       width="22"
       height="22"
       opacity="0.00100002"
       id="rect35"
       x="-44"
       style="fill:#000000" />
    <rect
       style="opacity:1;fill:#fbfbfb;fill-opacity:1;fill-rule:evenodd;stroke-width:0.55;stroke-linecap:round;stroke-linejoin:round;paint-order:stroke fill markers"
       id="rect2813"
       width="10"
       height="2"
       x="-37.991264"
       y="-11"
       ry="1" />
  </g>
  <g
     id="media-playback-pause"
     transform="translate(0,-2.068359)">
    <rect
       y="-24.999975"
       width="22"
       height="22"
       opacity="0.00100002"
       id="rect40"
       x="-22"
       style="fill:#000000" />
    <rect
       style="opacity:1;fill:#fbfbfb;fill-opacity:1;fill-rule:evenodd;stroke-width:0.55;stroke-linecap:round;stroke-linejoin:round;paint-order:stroke fill markers"
       id="rect3503"
       width="4"
       height="12"
       x="-17"
       y="-20"
       ry="2" />
    <rect
       style="opacity:1;fill:#fbfbfb;fill-opacity:1;fill-rule:evenodd;stroke-width:0.55;stroke-linecap:round;stroke-linejoin:round;paint-order:stroke fill markers"
       id="rect3703"
       width="4"
       height="12"
       x="-9"
       y="-20"
       ry="2" />
  </g>
  <g
     id="media-playback-start"
     transform="translate(0,-2.068359)">
    <rect
       y="-24.999975"
       width="22"
       height="22"
       opacity="0.00100002"
       id="rect45"
       x="0"
       style="fill:#000000" />
    <path
       id="rect3945"
       style="opacity:1;fill:#fbfbfb;fill-opacity:1;fill-rule:evenodd;stroke-width:0.55;stroke-linecap:round;stroke-linejoin:round;paint-order:stroke fill markers"
       d="M 7.4648438,-20.002352 C 6.6955223,-19.982642 6,-19.360874 6,-18.500399 v 8.9999999 c 0,1.1473 1.234465,1.870994 2.234375,1.308594 l 8.001953,-4.4999999 c 1.0195,-0.5734 1.0194,-2.041735 0,-2.615235 l -8.001953,-4.5 c -0.2499775,-0.140624 -0.5130908,-0.201881 -0.7695312,-0.195312 z" />
  </g>
  <g
     id="media-playback-stop"
     transform="translate(0,-2.068359)">
    <rect
       y="-24.999975"
       width="22"
       height="22"
       opacity="0.00100002"
       id="rect10"
       x="44"
       style="fill:#000000" />
    <rect
       style="opacity:1;fill:#fbfbfb;fill-opacity:1;fill-rule:evenodd;stroke-width:0.55;stroke-linecap:round;stroke-linejoin:round;paint-order:stroke fill markers"
       id="rect4204"
       width="12"
       height="12"
       x="49"
       y="-20"
       ry="2" />
  </g>
  <g
     id="media-seek-forward"
     transform="translate(0,-2.068359)">
    <rect
       y="-24.999975"
       width="22"
       height="22"
       opacity="0.00100002"
       id="rect25"
       x="110"
       style="fill:#000000" />
    <path
       id="rect4985"
       style="opacity:1;fill:#fbfbfb;fill-opacity:1;fill-rule:evenodd;stroke-width:0.55;stroke-linecap:round;stroke-linejoin:round;paint-order:stroke fill markers"
       d="m 114.48828,-20.060547 c -0.0694,0.0018 -0.14012,0.01761 -0.20508,0.04883 -0.17324,0.08326 -0.2832,0.258962 -0.2832,0.451172 v 11.099607 c 0,0.1914 0.1091,0.367472 0.28125,0.451172 0.17216,0.0837 0.37683,0.06156 0.52734,-0.05664 L 121,-12.931641 v 4.470703 c 0,0.1914 0.10915,0.367472 0.28125,0.451172 0.1722,0.0837 0.37684,0.06156 0.52734,-0.05664 l 7,-5.5 c 0.1207,-0.0948 0.19141,-0.241132 0.19141,-0.394532 0,-0.15343 -0.0707,-0.297778 -0.19141,-0.392578 l -7,-5.5 c -0.1505,-0.11825 -0.35514,-0.140321 -0.52734,-0.05664 -0.1721,0.08367 -0.28125,0.257808 -0.28125,0.449218 V -15 l -6.1875,-4.951172 c -0.0938,-0.07504 -0.20849,-0.112294 -0.32422,-0.109375 z" />
  </g>
  <g
     id="media-seek-backward"
     transform="translate(0,-2.068359)">
    <rect
       y="-24.999975"
       width="22"
       height="22"
       opacity="0.00100002"
       id="rect30"
       x="-154"
       transform="scale(-1,1)"
       style="fill:#000000" />
    <path
       id="path5068"
       style="opacity:1;fill:#fbfbfb;fill-opacity:1;fill-rule:evenodd;stroke-width:0.55;stroke-linecap:round;stroke-linejoin:round;paint-order:stroke fill markers"
       d="m 149.51172,-20.060547 c 0.0694,0.0018 0.14012,0.01761 0.20508,0.04883 0.17324,0.08326 0.2832,0.258962 0.2832,0.451172 v 11.099607 c 0,0.1914 -0.1091,0.367472 -0.28125,0.451172 -0.17216,0.0837 -0.37683,0.06156 -0.52734,-0.05664 L 143,-12.931641 v 4.470703 c 0,0.1914 -0.10915,0.367472 -0.28125,0.451172 -0.1722,0.0837 -0.37684,0.06156 -0.52734,-0.05664 l -7,-5.5 C 135.07071,-13.661206 135,-13.807538 135,-13.960938 c 0,-0.15343 0.0707,-0.297778 0.19141,-0.392578 l 7,-5.5 c 0.1505,-0.11825 0.35514,-0.140321 0.52734,-0.05664 0.1721,0.08367 0.28125,0.257808 0.28125,0.449218 V -15 l 6.1875,-4.951172 c 0.0938,-0.07504 0.20849,-0.112294 0.32422,-0.109375 z" />
  </g>
  <g
     id="media-skip-forward"
     transform="translate(3,-1.068334)">
    <rect
       y="-26"
       width="22"
       height="22"
       opacity="0.00100002"
       id="rect1173"
       x="63"
       style="fill:#000000" />
    <path
       id="path1175"
       style="fill:#fbfbfb;fill-opacity:1;fill-rule:evenodd;stroke-width:0.55;stroke-linecap:round;stroke-linejoin:round;paint-order:stroke fill markers"
       d="m 66.488284,-21.060572 c -0.0694,0.0018 -0.14012,0.01761 -0.20508,0.04883 -0.17324,0.08326 -0.2832,0.258962 -0.2832,0.451172 v 11.0996072 c 0,0.1914 0.1091,0.367472 0.28125,0.451172 0.17216,0.0837 0.37683,0.06156 0.52734,-0.05664 l 6.19141,-4.8652352 v 4.4707032 c 0,0.1914 0.10915,0.367472 0.28125,0.451172 0.1722,0.0837 0.37684,0.06156 0.52734,-0.05664 l 7,-5.5000002 c 0.1207,-0.0948 0.19141,-0.241132 0.19141,-0.394532 0,-0.15343 -0.0707,-0.297778 -0.19141,-0.392578 l -7,-5.5 c -0.1505,-0.11825 -0.35514,-0.140321 -0.52734,-0.05664 -0.1721,0.08367 -0.28125,0.257808 -0.28125,0.449218 v 4.460938 l -6.1875,-4.951172 c -0.0938,-0.07504 -0.20849,-0.112294 -0.32422,-0.109375 z" />
    <rect
       style="opacity:1;fill:#fbfbfb;fill-opacity:1;fill-rule:evenodd;stroke-width:2;stroke-linecap:round;stroke-linejoin:round;paint-order:stroke fill markers"
       id="rect1255"
       width="1"
       height="12"
       x="80"
       y="-21"
       ry="0.5" />
  </g>
  <g
     id="media-skip-backward"
     transform="matrix(-1,0,0,1,173,-1.068334)">
    <rect
       y="-26"
       width="22"
       height="22"
       opacity="0.00100002"
       id="rect6604"
       x="63"
       style="fill:#000000" />
    <path
       id="path6606"
       style="fill:#fbfbfb;fill-opacity:1;fill-rule:evenodd;stroke-width:0.55;stroke-linecap:round;stroke-linejoin:round;paint-order:stroke fill markers"
       d="m 66.488284,-21.060572 c -0.0694,0.0018 -0.14012,0.01761 -0.20508,0.04883 -0.17324,0.08326 -0.2832,0.258962 -0.2832,0.451172 v 11.0996072 c 0,0.1914 0.1091,0.367472 0.28125,0.451172 0.17216,0.0837 0.37683,0.06156 0.52734,-0.05664 l 6.19141,-4.8652352 v 4.4707032 c 0,0.1914 0.10915,0.367472 0.28125,0.451172 0.1722,0.0837 0.37684,0.06156 0.52734,-0.05664 l 7,-5.5000002 c 0.1207,-0.0948 0.19141,-0.241132 0.19141,-0.394532 0,-0.15343 -0.0707,-0.297778 -0.19141,-0.392578 l -7,-5.5 c -0.1505,-0.11825 -0.35514,-0.140321 -0.52734,-0.05664 -0.1721,0.08367 -0.28125,0.257808 -0.28125,0.449218 v 4.460938 l -6.1875,-4.951172 c -0.0938,-0.07504 -0.20849,-0.112294 -0.32422,-0.109375 z" />
    <rect
       style="opacity:1;fill:#fbfbfb;fill-opacity:1;fill-rule:evenodd;stroke-width:2;stroke-linecap:round;stroke-linejoin:round;paint-order:stroke fill markers"
       id="rect6608"
       width="1"
       height="12"
       x="80"
       y="-21"
       ry="0.5" />
  </g>
  <g
     id="media-playback-paused"
     transform="translate(-25,-28)">
    <rect
       style="color:#dedede;stroke-width:1.5"
       x="0"
       y="28"
       width="22.0005"
       height="22.0005"
       fill="#ed1515"
       fill-opacity="0.00392163"
       opacity="0.01"
       id="rect50" />
    <g
       id="g7852"
       transform="translate(2.4986267e-4,2.4986267e-4)">
      <rect
         style="opacity:1;fill:#fbfbfb;fill-opacity:1;fill-rule:evenodd;stroke-width:2;stroke-linecap:round;stroke-linejoin:round;paint-order:stroke fill markers"
         id="rect6983"
         width="2"
         height="6"
         x="8"
         y="36"
         ry="1" />
      <rect
         style="opacity:1;fill:#fbfbfb;fill-opacity:1;fill-rule:evenodd;stroke-width:2;stroke-linecap:round;stroke-linejoin:round;paint-order:stroke fill markers"
         id="rect7084"
         width="2"
         height="6"
         x="12"
         y="36"
         ry="1" />
    </g>
    <path
       id="path7876"
       style="opacity:1;fill:#fbfbfb;fill-opacity:1;fill-rule:evenodd;stroke-width:2;stroke-linecap:round;stroke-linejoin:round;paint-order:stroke fill markers"
       d="m 11.00025,30.00025 a 9,9 0 0 0 -9.0000001,9 9,9 0 0 0 9.0000001,9 9,9 0 0 0 9,-9 9,9 0 0 0 -9,-9 z m 0,1 a 8,8 0 0 1 8,8 8,8 0 0 1 -8,8 8,8 0 0 1 -8.0000001,-8 8,8 0 0 1 8.0000001,-8 z" />
  </g>
  <g
     id="media-playback-playing"
     transform="translate(-25,-50)">
    <rect
       style="color:#dedede;stroke-width:1.5"
       x="24.99975"
       y="49.999748"
       width="22.0005"
       height="22.0005"
       fill="#ed1515"
       fill-opacity="0.00392163"
       opacity="0.01"
       id="rect8153" />
    <path
       id="path1181"
       style="fill:#fbfbfb;fill-opacity:1;fill-rule:evenodd;stroke-width:0.273342;stroke-linecap:round;stroke-linejoin:round;paint-order:stroke fill markers"
       d="m 34.738889,58.000572 c -0.266679,-0.01293 -0.522223,0.19476 -0.522223,0.496985 v 5.004798 c 0,0.403056 0.454127,0.638133 0.783334,0.405742 l 3.544904,-2.502399 c 0.280499,-0.198009 0.280499,-0.613475 0,-0.811483 L 35,58.091815 c -0.0823,-0.0581 -0.172219,-0.08693 -0.261111,-0.09125 z"
       sodipodi:nodetypes="sssccccs" />
    <path
       id="path8161"
       style="fill:#fbfbfb;fill-opacity:1;fill-rule:evenodd;stroke-width:2;stroke-linecap:round;stroke-linejoin:round;paint-order:stroke fill markers"
       d="m 36,52 a 9,9 0 0 0 -9,9 9,9 0 0 0 9,9 9,9 0 0 0 9,-9 9,9 0 0 0 -9,-9 z m 0,1 a 8,8 0 0 1 8,8 8,8 0 0 1 -8,8 8,8 0 0 1 -8,-8 8,8 0 0 1 8,-8 z" />
  </g>
  <g
     id="media-playback-stopped"
     transform="translate(-25,-28)">
    <rect
       style="color:#dedede;stroke-width:1.5"
       x="48.999752"
       y="27.99975"
       width="22.0005"
       height="22.0005"
       fill="#ed1515"
       fill-opacity="0.00392163"
       opacity="0.01"
       id="rect60" />
    <rect
       style="opacity:1;fill:#fbfbfb;fill-opacity:1;fill-rule:evenodd;stroke-width:2;stroke-linecap:round;stroke-linejoin:round;paint-order:stroke fill markers"
       id="rect7207"
       width="6"
       height="6"
       x="57"
       y="36"
       ry="2" />
    <path
       id="path8250"
       style="fill:#fbfbfb;fill-opacity:1;fill-rule:evenodd;stroke-width:2;stroke-linecap:round;stroke-linejoin:round;paint-order:stroke fill markers"
       d="m 60.000002,30 a 9,9 0 0 0 -9,9 9,9 0 0 0 9,9 9,9 0 0 0 9,-9 9,9 0 0 0 -9,-9 z m 0,1 a 8,8 0 0 1 8,8 8,8 0 0 1 -8,8 8,8 0 0 1 -8,-8 8,8 0 0 1 8,-8 z" />
  </g>
</svg>
