<?xml version="1.0" encoding="UTF-8" standalone="no"?>
<svg
   width="32"
   height="32"
   x="0"
   y="0"
   version="1.1"
   id="svg18"
   sodipodi:docname="mellowplayer.svg"
   inkscape:version="1.3.2 (091e20ef0f, 2023-11-25, custom)"
   xmlns:inkscape="http://www.inkscape.org/namespaces/inkscape"
   xmlns:sodipodi="http://sodipodi.sourceforge.net/DTD/sodipodi-0.dtd"
   xmlns="http://www.w3.org/2000/svg"
   xmlns:svg="http://www.w3.org/2000/svg">
  <style
     id="current-color-scheme"
     type="text/css">.ColorScheme-Text { color:#d6dbf1; }
</style>
  <sodipodi:namedview
     id="namedview20"
     pagecolor="#c8c8c8"
     bordercolor="#000000"
     borderopacity="1"
     inkscape:showpageshadow="2"
     inkscape:pageopacity="0"
     inkscape:pagecheckerboard="0"
     inkscape:deskcolor="#cccccc"
     showgrid="true"
     inkscape:zoom="22.627417"
     inkscape:cx="15.733126"
     inkscape:cy="12.683728"
     inkscape:window-width="1920"
     inkscape:window-height="999"
     inkscape:window-x="0"
     inkscape:window-y="0"
     inkscape:window-maximized="1"
     inkscape:current-layer="svg18">
    <inkscape:grid
       id="grid1"
       units="px"
       originx="0"
       originy="0"
       spacingx="1"
       spacingy="1"
       empcolor="#0099e5"
       empopacity="0.30196078"
       color="#0099e5"
       opacity="0.14902"
       empspacing="5"
       dotted="false"
       gridanglex="30"
       gridanglez="30"
       visible="true" />
  </sodipodi:namedview>
  <defs
     id="987">
    <style
       type="text/css"
       id="style2179" />
  </defs>
  <g
     id="mellowplayer">
    <rect
       style="opacity:0.00100002;fill:#d1d5e9;fill-opacity:1"
       width="32"
       height="32"
       x="0"
       y="0"
       id="rect11" />
    <g
       id="g3"
       transform="translate(30)">
      <path
         style="fill:none;fill-opacity:1;stroke:#fafafa;stroke-linecap:butt;stroke-linejoin:round;stroke-opacity:1"
         d="m -18.22461,4 c -4.023353,3.082e-4 -7.284848,3.2618031 -7.285156,7.285156 0.0029,0.933582 0.185287,1.857899 0.53711,2.722656 0.712327,-1.240237 2.032648,-2.005769 3.46289,-2.007812 0.0033,-4e-6 0.0065,-4e-6 0.0098,0 V 7.6054688 c 4.42e-4,0 -0.03489,-0.3975301 0.277344,-0.5546876 C -21.146808,7.0126311 -21.069994,6.9986121 -21,7 c 0.209981,0.00416 0.373047,0.140625 0.373047,0.140625 l 3.986328,2.3710938 C -15.882012,8.556899 -14.729264,8.0003008 -13.509766,8 c 0.712663,0.00181 1.411903,0.1939786 2.025391,0.5566406 C -12.594828,5.8079159 -15.26006,4.0061238 -18.22461,4 Z m 7.714844,5 c -0.112787,0.00444 -0.22545,0.0116 -0.337891,0.021484 0.8493359,0.7573335 1.3359044,1.84057 1.3378914,2.978516 -0.00141,0.537189 -0.1110137,1.06859 -0.322266,1.5625 l 2.896485,1.724609 c 0,0 0.425781,0.207318 0.425781,0.707032 0,0.50108 -0.429688,0.664062 -0.429688,0.664062 l -2.912109,1.730469 c 0.2244856,0.50758 0.3408856,1.056323 0.341797,1.611328 -0.00193,1.138932 -0.4892772,2.223035 -1.3398444,2.980469 0.113106,0.0093 0.226421,0.01578 0.339844,0.01953 3.8659934,0 7.0000004,-3.134007 7.0000004,-7 0,-3.865993 -3.134007,-7.0000006 -7.0000004,-7.0000004 z m -14.464843,8.992188 c -0.351154,0.86489 -0.532834,1.789201 -0.535157,2.722656 3.08e-4,4.023353 3.261803,7.284848 7.285156,7.285156 2.967647,-0.0044 5.63607,-1.808313 6.746094,-4.560547 -0.614814,0.365038 -1.316236,0.558603 -2.03125,0.560547 -1.238485,-0.002 -2.406198,-0.577549 -3.162109,-1.558594 l -4.126953,2.453125 c 0,0 -0.206974,0.185292 -0.474609,0.06641 C -21.579055,24.824274 -21.5,24.476562 -21.5,24.476562 V 20 c -0.0033,4e-6 -0.0065,4e-6 -0.0098,0 -1.430941,-0.0013 -2.752168,-0.766971 -3.464843,-2.007812 z"
         id="path1"
         class="ColorScheme-Text"
         sodipodi:nodetypes="cccscccsccccccccccccscccccscccccccccccccc" />
      <path
         style="fill:#fafafa;fill-opacity:1;stroke-width:0.655446"
         d="m -10.959104,15.998996 -4.166155,-2.420773 -4.32723,-2.49993 v 4.859662 l -0.0151,4.972585 4.321411,-2.451193 z m -1.479182,0 -3.076524,1.771514 -2.982851,1.675363 4e-6,-3.487535 -4e-6,-3.219245 2.995323,1.589073 z"
         id="path2"
         class="ColorScheme-Text"
         sodipodi:nodetypes="cccccccccccccc" />
      <path
         style="opacity:1;fill:none;fill-opacity:1;stroke:#fafafa;stroke-linejoin:round;stroke-opacity:1"
         d="m -13.509766,8 a 4,4 0 0 0 -3.130859,1.5117188 l 2.974609,1.7675782 3.8339844,2.283203 A 4,4 0 0 0 -9.5097656,12 4,4 0 0 0 -13.509766,8 Z m -8,4 a 4,4 0 0 0 -4,4 4,4 0 0 0 4,4 4,4 0 0 0 0.0098,0 V 15.972656 12 a 4,4 0 0 0 -0.0098,0 z m 11.6582034,6.388672 -3.8300784,2.27539 -2.990234,1.777344 A 4,4 0 0 0 -13.509766,24 a 4,4 0 0 0 4.0000004,-4 4,4 0 0 0 -0.341797,-1.611328 z"
         id="path3"
         class="ColorScheme-Text" />
    </g>
  </g>
  <g
     id="22-22-mellowplayer">
    <rect
       style="opacity:0.00100002;fill:#d1d5e9;fill-opacity:1"
       width="22"
       height="22"
       x="32"
       y="10"
       id="rect4" />
    <path
       style="fill:none;fill-opacity:1;stroke:#fafafa;stroke-opacity:1;stroke-linejoin:round;opacity:1;stroke-width:0.7;stroke-dasharray:none"
       d="m 41,13 c -2.761424,0 -5,2.238576 -5,5 0.0036,0.575849 0.106706,1.146743 0.304687,1.6875 C 36.80658,18.65593 37.852815,18.000896 39,18 h 0.0059 v -2.595703 c 0,0 -0.02245,-0.266094 0.185547,-0.371094 0.203,-0.101 0.396485,0.06055 0.396485,0.06055 l 1.96875,1.169922 C 42.118641,15.471881 43.029055,15.001018 44,15 c 0.395684,7.22e-4 0.787316,0.07971 1.152344,0.232422 C 44.227927,13.841502 42.670086,13.003961 41,13 Z m 5.240234,3.007812 C 46.728887,16.55644 46.999229,17.265308 47,18 c -0.0011,0.457227 -0.106608,0.908164 -0.308594,1.318359 l 2.025391,1.205079 c 0,0 0.283203,0.139656 0.283203,0.472656 0,0.334 -0.287109,0.443359 -0.287109,0.443359 l -2.035157,1.208985 C 46.889443,23.067532 46.999825,23.530468 47,24 c -0.0012,0.73309 -0.270761,1.440373 -0.757812,1.988281 C 48.904074,25.859196 50.996882,23.665012 51,21 c -0.0011,-2.667243 -2.095603,-4.864036 -4.759766,-4.992188 z m -9.9375,6.294922 C 36.104309,22.846693 36.001875,23.420984 36,24 c 0,2.761424 2.238576,5 5,5 1.672164,-0.002 3.232635,-0.839777 4.158203,-2.232422 C 44.791355,26.921047 44.397656,27.000053 44,27 c -0.984295,-0.0011 -1.905411,-0.485062 -2.464844,-1.294922 l -2.060547,1.22461 c 0,0 -0.139359,0.121968 -0.318359,0.04297 -0.203,-0.091 -0.150391,-0.322265 -0.150391,-0.322265 V 24 H 39 c -1.150098,-0.002 -2.197843,-0.661261 -2.697266,-1.697266 z"
       id="path6"
       class="ColorScheme-Text"
       sodipodi:nodetypes="cccsccccccccccccscccccccccccccccccc" />
    <path
       style="opacity:1;fill:none;fill-opacity:1;stroke:#fafafa;stroke-opacity:1;stroke-linejoin:round;stroke-width:0.7;stroke-dasharray:none"
       d="m 44,15 a 3,3 0 0 0 -2.443,1.266 l 2.672,1.587 2.464,1.467 A 3,3 0 0 0 47,18 3,3 0 0 0 44,15 Z m -5,3 a 3,3 0 0 0 -3,3 3,3 0 0 0 3,3 3,3 0 0 0 0.006,0 V 20.982 18 A 3,3 0 0 0 39,18 Z m 7.676,4.65 -2.457,1.459 -2.686,1.596 A 3,3 0 0 0 44,27 3,3 0 0 0 47,24 3,3 0 0 0 46.676,22.65 Z"
       id="path8"
       class="ColorScheme-Text" />
    <path
       style="fill:#fafafa;fill-opacity:1;stroke-width:0.74527"
       d="M 40.871906,17.646287 V 21 24.353713 L 43.666668,22.676856 46.461427,21 43.666668,19.323144 Z m 0.730713,1.315865 1.698691,1.018925 L 45,21 43.30131,22.018923 41.602619,23.037848 V 21 Z"
       id="path4"
       class="ColorScheme-Text"
       sodipodi:nodetypes="cccccccccccccc" />
  </g>
</svg>
