<?xml version="1.0" encoding="UTF-8" standalone="no"?>
<svg
   id="svg"
   inkscape:version="1.1.1 (3bf5ae0d25, 2021-09-20, custom)"
   sodipodi:docname="phone.svg"
   version="1.1"
   viewBox="0 0 22 22"
   xmlns:inkscape="http://www.inkscape.org/namespaces/inkscape"
   xmlns:sodipodi="http://sodipodi.sourceforge.net/DTD/sodipodi-0.dtd"
   xmlns="http://www.w3.org/2000/svg"
   xmlns:svg="http://www.w3.org/2000/svg"
   xmlns:rdf="http://www.w3.org/1999/02/22-rdf-syntax-ns#"
   xmlns:cc="http://creativecommons.org/ns#"
   xmlns:dc="http://purl.org/dc/elements/1.1/">
  <metadata
     id="metadata46">
    <rdf:RDF>
      <cc:Work
         rdf:about="">
        <dc:format>image/svg+xml</dc:format>
        <dc:type
           rdf:resource="http://purl.org/dc/dcmitype/StillImage" />
        <dc:title />
      </cc:Work>
    </rdf:RDF>
  </metadata>
  <sodipodi:namedview
     id="namedview26"
     bordercolor="#666666"
     borderopacity="1"
     gridtolerance="10"
     guidetolerance="10"
     inkscape:current-layer="svg"
     inkscape:cx="12.1875"
     inkscape:cy="19.5"
     inkscape:pageopacity="0"
     inkscape:pageshadow="2"
     inkscape:window-height="1005"
     inkscape:window-maximized="1"
     inkscape:window-width="1920"
     inkscape:window-x="0"
     inkscape:window-y="0"
     inkscape:zoom="8"
     objecttolerance="10"
     pagecolor="#c8c8c8"
     showgrid="true"
     inkscape:document-rotation="0"
     inkscape:pagecheckerboard="0"
     inkscape:snap-bbox="true"
     inkscape:bbox-nodes="true"
     inkscape:snap-bbox-edge-midpoints="true"
     inkscape:snap-nodes="true"
     inkscape:snap-smooth-nodes="true">
    <inkscape:grid
       id="grid835"
       type="xygrid" />
  </sodipodi:namedview>
  <defs
     id="defs81">
    <style
       id="current-color-scheme"
       type="text/css">.ColorScheme-Text { color:#dedede; } .ColorScheme-Highlight { color:#5294e2; } .ColorScheme-ButtonBackground { color:#dedede; }</style>
    <style
       id="current-color-scheme-9"
       type="text/css">.ColorScheme-Text { color:#dedede; } .ColorScheme-Highlight { color:#5294e2; } .ColorScheme-ButtonBackground { color:#dedede; }</style>
    <style
       id="current-color-scheme-3"
       type="text/css">
      .ColorScheme-Text {
        color:#31363b;
      }
      .ColorScheme-Background {
        color:#eff0f1;
      }
      .ColorScheme-Highlight {
        color:#3daee9;
      }
      .ColorScheme-ViewText {
        color:#31363b;
      }
      .ColorScheme-ViewBackground {
        color:#fcfcfc;
      }
      .ColorScheme-ViewHover {
        color:#93cee9;
      }
      .ColorScheme-ViewFocus{
        color:#3daee9;
      }
      .ColorScheme-ButtonText {
        color:#31363b;
      }
      .ColorScheme-ButtonBackground {
        color:#eff0f1;
      }
      .ColorScheme-ButtonHover {
        color:#93cee9;
      }
      .ColorScheme-ButtonFocus{
        color:#3daee9;
      }
      </style>
  </defs>
  <g
     id="phone"
     transform="translate(-321,-564.36218)">
    <rect
       y="529.36218"
       x="321"
       height="32"
       width="32"
       id="rect4436-3"
       style="fill:none;fill-opacity:1;stroke:none;stroke-width:0.1;stroke-linecap:square;stroke-linejoin:miter;stroke-miterlimit:4;stroke-dasharray:none;stroke-dashoffset:0;stroke-opacity:1" />
    <g
       id="g2627"
       transform="translate(0,-32.99998)">
      <path
         id="rect873"
         style="fill:#fbfbfb;fill-opacity:1;fill-rule:evenodd;stroke-width:3;stroke-linecap:round;stroke-linejoin:round;paint-order:stroke fill markers"
         d="m 331,564.36216 c -1.10799,0 -2,0.89201 -2,2 v 24 c 0,1.10799 0.89201,2 2,2 h 12 c 1.10799,0 2,-0.89201 2,-2 v -24 c 0,-1.10799 -0.89201,-2 -2,-2 z m 0,1 h 12 c 0.55399,0 1,0.44601 1,1 v 24 c 0,0.55399 -0.44601,1 -1,1 h -12 c -0.55399,0 -1,-0.44601 -1,-1 v -24 c 0,-0.55399 0.44601,-1 1,-1 z" />
      <rect
         style="fill:#fbfbfb;fill-opacity:1;fill-rule:evenodd;stroke-width:3;stroke-linecap:round;stroke-linejoin:round;paint-order:stroke fill markers"
         id="rect1802"
         width="6"
         height="1"
         x="334"
         y="588.36218"
         ry="0.5" />
    </g>
  </g>
  <g
     id="16-16-phone"
     transform="translate(-303,-511.36218)">
    <rect
       y="537.36218"
       x="303"
       height="16"
       width="16"
       id="rect4442-6"
       style="fill:none;fill-opacity:1;stroke:none;stroke-width:0.10079;stroke-linecap:square;stroke-linejoin:miter;stroke-miterlimit:4;stroke-dasharray:none;stroke-dashoffset:0;stroke-opacity:1" />
    <g
       id="g2631"
       transform="translate(0,-32.99998)">
      <path
         id="rect1906"
         style="fill:#fbfbfb;fill-opacity:1;fill-rule:evenodd;stroke-width:3;stroke-linecap:round;stroke-linejoin:round;paint-order:stroke fill markers"
         d="m 308,572.36216 c -0.55399,0 -1,0.44601 -1,1 v 10 c 0,0.55399 0.44601,1 1,1 h 6 c 0.55399,0 1,-0.44601 1,-1 v -10 c 0,-0.55399 -0.44601,-1 -1,-1 z m 0,1 h 6 v 10 h -6 z" />
      <rect
         style="fill:#fbfbfb;fill-opacity:1;fill-rule:evenodd;stroke-width:3;stroke-linecap:round;stroke-linejoin:round;paint-order:stroke fill markers"
         id="rect2131"
         width="2"
         height="1"
         x="310"
         y="581.36218"
         ry="0.5" />
    </g>
  </g>
  <g
     id="22-22-phone"
     transform="translate(-355,-534.36218)">
    <rect
       style="fill:none;fill-opacity:1;stroke:none;stroke-width:0.138587;stroke-linecap:square;stroke-linejoin:miter;stroke-miterlimit:4;stroke-dasharray:none;stroke-dashoffset:0;stroke-opacity:1"
       id="rect4444-7"
       width="22"
       height="22"
       x="355"
       y="534.36218" />
    <g
       id="g2635"
       transform="translate(0,-32.99998)">
      <path
         id="rect2235"
         style="fill:#fbfbfb;fill-opacity:1;fill-rule:evenodd;stroke-width:3;stroke-linecap:round;stroke-linejoin:round;paint-order:stroke fill markers"
         d="m 363,570.36216 c -1.10799,0 -2,0.89201 -2,2 v 12 c 0,1.10799 0.89201,2 2,2 h 6 c 1.10799,0 2,-0.89201 2,-2 v -12 c 0,-1.10799 -0.89201,-2 -2,-2 z m 0,1 h 6 c 0.55399,0 1,0.44601 1,1 v 12 c 0,0.55399 -0.44601,1 -1,1 h -6 c -0.55399,0 -1,-0.44601 -1,-1 v -12 c 0,-0.55399 0.44601,-1 1,-1 z" />
      <rect
         style="fill:#fbfbfb;fill-opacity:1;fill-rule:evenodd;stroke-width:4.24264;stroke-linecap:round;stroke-linejoin:round;paint-order:stroke fill markers"
         id="rect2460"
         width="4"
         height="1"
         x="364"
         y="583.36218"
         ry="0.5" />
    </g>
  </g>
  <g
     id="16-16-phone-battery"
     transform="translate(-35)">
    <g
       id="g5618"
       transform="translate(-165.53572,-403.50504)">
      <g
         id="g5616">
        <path
           id="path5608"
           style="opacity:1;fill:#3278ff;fill-opacity:1;stroke:none;stroke-width:2;stroke-linecap:butt;stroke-linejoin:round;stroke-miterlimit:4;stroke-dasharray:none;stroke-opacity:1;paint-order:stroke markers fill"
           d="m 24,31 c -0.554003,0 -1,0 -1,0.736015 V 32 32 c 0,0 2.32e-4,0.06933 0.002,0.103516 0.0017,0.03418 0.0044,0.06786 0.0078,0.101562 0.0034,0.0337 0.0086,0.06644 0.01367,0.09961 0.005,0.03317 0.01094,0.067 0.01758,0.09961 0.0066,0.03261 0.01329,0.0637 0.02148,0.0957 0.0082,0.032 0.01763,0.06435 0.02734,0.0957 0.0097,0.03135 0.02006,0.06309 0.03125,0.09375 0.01118,0.03066 0.02254,0.05991 0.03516,0.08984 0.01262,0.02993 0.02701,0.06069 0.04102,0.08984 0.01401,0.02916 0.02761,0.05759 0.04297,0.08594 0.01536,0.02834 0.03216,0.0565 0.04883,0.08398 0.01667,0.02749 0.03285,0.05349 0.05078,0.08008 0.01794,0.02659 0.03748,0.05247 0.05664,0.07813 0.01916,0.02565 0.03825,0.0515 0.05859,0.07617 0.02035,0.02468 0.04101,0.04861 0.0625,0.07227 0.02149,0.02365 0.04381,0.04772 0.06641,0.07031 0.02259,0.02259 0.04666,0.04492 0.07031,0.06641 0.02366,0.02149 0.04759,0.04215 0.07227,0.0625 0.02468,0.02035 0.05052,0.03943 0.07617,0.05859 0.02566,0.01916 0.05153,0.03871 0.07813,0.05664 0.02659,0.01794 0.05259,0.03411 0.08008,0.05078 0.02749,0.01667 0.05564,0.03347 0.08398,0.04883 0.02834,0.01536 0.05678,0.02896 0.08594,0.04297 0.02916,0.01401 0.05991,0.0284 0.08984,0.04102 0.02993,0.01262 0.05918,0.02397 0.08984,0.03516 0.03066,0.01118 0.0624,0.02154 0.09375,0.03125 0.03135,0.0097 0.0637,0.01915 0.0957,0.02734 0.032,0.0082 0.0631,0.01485 0.0957,0.02148 0.03261,0.0066 0.06644,0.01254 0.09961,0.01758 0.03317,0.005 0.06591,0.01027 0.09961,0.01367 0.0337,0.0034 0.06738,0.0061 0.101562,0.0078 C 24.930667,33.999768 25,34 25,34 v 0 c 0,0 0.06933,-2.32e-4 0.103516,-0.002 0.03418,-0.0017 0.06786,-0.0044 0.101562,-0.0078 0.0337,-0.0034 0.06644,-0.0086 0.09961,-0.01367 0.03317,-0.005 0.067,-0.01094 0.09961,-0.01758 0.03261,-0.0066 0.0637,-0.01329 0.0957,-0.02148 0.032,-0.0082 0.06435,-0.01763 0.0957,-0.02734 0.03135,-0.0097 0.06309,-0.02007 0.09375,-0.03125 0.03066,-0.01118 0.05991,-0.02254 0.08984,-0.03516 0.02993,-0.01262 0.06069,-0.02701 0.08984,-0.04102 0.02916,-0.01401 0.05759,-0.02761 0.08594,-0.04297 0.02834,-0.01536 0.0565,-0.03216 0.08398,-0.04883 0.02749,-0.01667 0.05349,-0.03285 0.08008,-0.05078 0.02659,-0.01794 0.05247,-0.03748 0.07813,-0.05664 0.02565,-0.01916 0.05149,-0.03825 0.07617,-0.05859 0.02468,-0.02035 0.04861,-0.04101 0.07227,-0.0625 0.02365,-0.02149 0.04772,-0.04381 0.07031,-0.06641 0.02259,-0.02259 0.04491,-0.04666 0.06641,-0.07031 0.02149,-0.02365 0.04215,-0.04759 0.0625,-0.07227 0.02035,-0.02468 0.03943,-0.05052 0.05859,-0.07617 0.01916,-0.02566 0.03871,-0.05153 0.05664,-0.07813 0.01794,-0.02659 0.03411,-0.05259 0.05078,-0.08008 0.01667,-0.02749 0.03347,-0.05564 0.04883,-0.08398 0.01536,-0.02834 0.02896,-0.05678 0.04297,-0.08594 0.01401,-0.02916 0.0284,-0.05991 0.04102,-0.08984 0.01262,-0.02993 0.02397,-0.05918 0.03516,-0.08984 0.01119,-0.03066 0.02154,-0.0624 0.03125,-0.09375 0.0097,-0.03135 0.01915,-0.0637 0.02734,-0.0957 0.0082,-0.032 0.01485,-0.0631 0.02148,-0.0957 0.0066,-0.03261 0.01254,-0.06644 0.01758,-0.09961 0.005,-0.03317 0.01027,-0.06591 0.01367,-0.09961 0.0034,-0.0337 0.0061,-0.06738 0.0078,-0.101562 C 26.999768,32.069333 27,32 27,32 v 0 -0.263984 C 27,31 26.554003,31 26,31 Z"
           transform="translate(223.53572,404.50504)"
           sodipodi:nodetypes="sscscsccssssssssssssssscsssssssccscsscsccssssssssssssssscsssssssccscscsss" />
        <rect
           style="opacity:1;fill:#3278ff;fill-opacity:1;stroke:none;stroke-width:0.974818;stroke-linecap:butt;stroke-linejoin:round;stroke-miterlimit:4;stroke-dasharray:none;stroke-opacity:1;paint-order:stroke markers fill"
           id="rect5610"
           width="0.99999917"
           height="3.8010604"
           x="248.03572"
           y="435.70398"
           ry="0.49999958" />
        <rect
           style="opacity:1;fill:#3278ff;fill-opacity:1;stroke:none;stroke-width:2;stroke-linecap:butt;stroke-linejoin:round;stroke-miterlimit:4;stroke-dasharray:none;stroke-opacity:1;paint-order:stroke markers fill"
           id="rect5612"
           width="1"
           height="3"
           x="248.03572"
           y="434.50504"
           ry="0.5" />
      </g>
    </g>
    <rect
       y="26.000002"
       x="75"
       height="16"
       width="16"
       id="rect7407"
       style="fill:none;fill-opacity:1;stroke:none;stroke-width:0.10079;stroke-linecap:square;stroke-linejoin:miter;stroke-miterlimit:4;stroke-dasharray:none;stroke-dashoffset:0;stroke-opacity:1" />
    <g
       id="g7413"
       transform="translate(-228,-544.36216)">
      <path
         id="path7409"
         style="fill:#fbfbfb;fill-opacity:1;fill-rule:evenodd;stroke-width:3;stroke-linecap:round;stroke-linejoin:round;paint-order:stroke fill markers"
         d="m 308,572.36216 c -0.55399,0 -1,0.44601 -1,1 v 10 c 0,0.55399 0.44601,1 1,1 h 6 c 0.55399,0 1,-0.44601 1,-1 v -10 c 0,-0.55399 -0.44601,-1 -1,-1 z m 0,1 h 6 v 10 h -6 z" />
      <rect
         style="fill:#fbfbfb;fill-opacity:1;fill-rule:evenodd;stroke-width:3;stroke-linecap:round;stroke-linejoin:round;paint-order:stroke fill markers"
         id="rect7411"
         width="2"
         height="1"
         x="310"
         y="581.36218"
         ry="0.5" />
    </g>
  </g>
  <g
     id="22-22-phone-battery"
     transform="translate(-35)">
    <g
       id="g4185"
       transform="translate(-163.03572,-426.50504)">
      <g
         id="g4183">
        <path
           id="path4175"
           style="opacity:1;fill:#3278ff;fill-opacity:1;stroke:none;stroke-width:2;stroke-linecap:butt;stroke-linejoin:round;stroke-miterlimit:4;stroke-dasharray:none;stroke-opacity:1;paint-order:stroke markers fill"
           d="m 24,31 c -0.554003,0 -1,0.445997 -1,1 v 1 0 c 0,0 2.32e-4,0.06933 0.002,0.103516 0.0017,0.03418 0.0044,0.06786 0.0078,0.101562 0.0034,0.0337 0.0086,0.06644 0.01367,0.09961 0.005,0.03317 0.01094,0.067 0.01758,0.09961 0.0066,0.03261 0.01329,0.0637 0.02148,0.0957 0.0082,0.032 0.01763,0.06435 0.02734,0.0957 0.0097,0.03135 0.02006,0.06309 0.03125,0.09375 0.01118,0.03066 0.02254,0.05991 0.03516,0.08984 0.01262,0.02993 0.02701,0.06069 0.04102,0.08984 0.01401,0.02916 0.02761,0.05759 0.04297,0.08594 0.01536,0.02834 0.03216,0.0565 0.04883,0.08398 0.01667,0.02749 0.03285,0.05349 0.05078,0.08008 0.01794,0.02659 0.03748,0.05247 0.05664,0.07813 0.01916,0.02565 0.03825,0.0515 0.05859,0.07617 0.02035,0.02468 0.04101,0.04861 0.0625,0.07227 0.02149,0.02365 0.04381,0.04772 0.06641,0.07031 0.02259,0.02259 0.04666,0.04492 0.07031,0.06641 0.02366,0.02149 0.04759,0.04215 0.07227,0.0625 0.02468,0.02035 0.05052,0.03943 0.07617,0.05859 0.02566,0.01916 0.05153,0.03871 0.07813,0.05664 0.02659,0.01794 0.05259,0.03411 0.08008,0.05078 0.02749,0.01667 0.05564,0.03347 0.08398,0.04883 0.02834,0.01536 0.05678,0.02896 0.08594,0.04297 0.02916,0.01401 0.05991,0.0284 0.08984,0.04102 0.02993,0.01262 0.05918,0.02397 0.08984,0.03516 0.03066,0.01118 0.0624,0.02154 0.09375,0.03125 0.03135,0.0097 0.0637,0.01915 0.0957,0.02734 0.032,0.0082 0.0631,0.01485 0.0957,0.02148 0.03261,0.0066 0.06644,0.01254 0.09961,0.01758 0.03317,0.005 0.06591,0.01027 0.09961,0.01367 0.0337,0.0034 0.06738,0.0061 0.101562,0.0078 C 24.930667,34.999768 24.965375,35 25,35 h 1 c 0.03462,0 0.06933,-2.32e-4 0.103516,-0.002 0.03418,-0.0017 0.06786,-0.0044 0.101562,-0.0078 0.0337,-0.0034 0.06644,-0.0086 0.09961,-0.01367 0.03317,-0.005 0.067,-0.01094 0.09961,-0.01758 0.03261,-0.0066 0.0637,-0.01329 0.0957,-0.02148 0.032,-0.0082 0.06435,-0.01763 0.0957,-0.02734 0.03135,-0.0097 0.06309,-0.02007 0.09375,-0.03125 0.03066,-0.01118 0.05991,-0.02254 0.08984,-0.03516 0.02993,-0.01262 0.06069,-0.02701 0.08984,-0.04102 0.02916,-0.01401 0.05759,-0.02761 0.08594,-0.04297 0.02834,-0.01536 0.0565,-0.03216 0.08398,-0.04883 0.02749,-0.01667 0.05349,-0.03285 0.08008,-0.05078 0.02659,-0.01794 0.05247,-0.03748 0.07813,-0.05664 0.02565,-0.01916 0.05149,-0.03825 0.07617,-0.05859 0.02468,-0.02035 0.04861,-0.04101 0.07227,-0.0625 0.02365,-0.02149 0.04772,-0.04381 0.07031,-0.06641 0.02259,-0.02259 0.04491,-0.04666 0.06641,-0.07031 0.02149,-0.02365 0.04215,-0.04759 0.0625,-0.07227 0.02035,-0.02468 0.03943,-0.05052 0.05859,-0.07617 0.01916,-0.02566 0.03871,-0.05153 0.05664,-0.07813 0.01794,-0.02659 0.03411,-0.05259 0.05078,-0.08008 0.01667,-0.02749 0.03347,-0.05564 0.04883,-0.08398 0.01536,-0.02834 0.02896,-0.05678 0.04297,-0.08594 0.01401,-0.02916 0.0284,-0.05991 0.04102,-0.08984 0.01262,-0.02993 0.02397,-0.05918 0.03516,-0.08984 0.01119,-0.03066 0.02154,-0.0624 0.03125,-0.09375 0.0097,-0.03135 0.01915,-0.0637 0.02734,-0.0957 0.0082,-0.032 0.01485,-0.0631 0.02148,-0.0957 0.0066,-0.03261 0.01254,-0.06644 0.01758,-0.09961 0.005,-0.03317 0.01027,-0.06591 0.01367,-0.09961 0.0034,-0.0337 0.0061,-0.06738 0.0078,-0.101562 C 27.999768,33.069333 28,33.034625 28,33 v 0 -1 c 0,-0.554003 -0.445997,-1 -1,-1 z"
           transform="translate(223.53572,404.50504)"
           sodipodi:nodetypes="sscscsccssssssssssssssscsssssssccscsscsccssssssssssssssscsssssssccscscsss" />
        <rect
           style="opacity:1;fill:#3278ff;fill-opacity:1;stroke:none;stroke-width:1.09557;stroke-linecap:butt;stroke-linejoin:round;stroke-miterlimit:4;stroke-dasharray:none;stroke-opacity:1;paint-order:stroke markers fill"
           id="rect4177"
           width="0.99999917"
           height="4.8010716"
           x="248.53572"
           y="436.70398"
           ry="0.49999958" />
        <rect
           style="opacity:1;fill:#3278ff;fill-opacity:1;stroke:none;stroke-width:2;stroke-linecap:butt;stroke-linejoin:round;stroke-miterlimit:4;stroke-dasharray:none;stroke-opacity:1;paint-order:stroke markers fill"
           id="rect4179"
           width="1"
           height="3"
           x="247.53572"
           y="433.50504"
           ry="0.5" />
        <rect
           style="opacity:1;fill:#3278ff;fill-opacity:1;stroke:none;stroke-width:2;stroke-linecap:butt;stroke-linejoin:round;stroke-miterlimit:4;stroke-dasharray:none;stroke-opacity:1;paint-order:stroke markers fill"
           id="rect4181"
           width="1"
           height="3"
           x="249.53572"
           y="433.50504"
           ry="0.5" />
      </g>
    </g>
    <rect
       style="fill:none;fill-opacity:1;stroke:none;stroke-width:0.138587;stroke-linecap:square;stroke-linejoin:miter;stroke-miterlimit:4;stroke-dasharray:none;stroke-dashoffset:0;stroke-opacity:1"
       id="rect7417"
       width="22"
       height="22"
       x="75"
       y="2.6171874e-06" />
    <g
       id="g7423"
       transform="translate(-280,-567.36216)">
      <path
         id="path7419"
         style="fill:#fbfbfb;fill-opacity:1;fill-rule:evenodd;stroke-width:3;stroke-linecap:round;stroke-linejoin:round;paint-order:stroke fill markers"
         d="m 363,570.36216 c -1.10799,0 -2,0.89201 -2,2 v 12 c 0,1.10799 0.89201,2 2,2 h 6 c 1.10799,0 2,-0.89201 2,-2 v -12 c 0,-1.10799 -0.89201,-2 -2,-2 z m 0,1 h 6 c 0.55399,0 1,0.44601 1,1 v 12 c 0,0.55399 -0.44601,1 -1,1 h -6 c -0.55399,0 -1,-0.44601 -1,-1 v -12 c 0,-0.55399 0.44601,-1 1,-1 z" />
      <rect
         style="fill:#fbfbfb;fill-opacity:1;fill-rule:evenodd;stroke-width:4.24264;stroke-linecap:round;stroke-linejoin:round;paint-order:stroke fill markers"
         id="rect7421"
         width="4"
         height="1"
         x="364"
         y="583.36218"
         ry="0.5" />
    </g>
  </g>
  <g
     id="phone-battery"
     transform="translate(-35,-2e-5)">
    <rect
       y="-34.999996"
       x="75"
       height="32"
       width="32"
       id="rect7397"
       style="fill:none;fill-opacity:1;stroke:none;stroke-width:0.1;stroke-linecap:square;stroke-linejoin:miter;stroke-miterlimit:4;stroke-dasharray:none;stroke-dashoffset:0;stroke-opacity:1" />
    <g
       id="g7403"
       transform="translate(-246,-597.36216)">
      <path
         id="path7399"
         style="fill:#fbfbfb;fill-opacity:1;fill-rule:evenodd;stroke-width:3;stroke-linecap:round;stroke-linejoin:round;paint-order:stroke fill markers"
         d="m 331,564.36216 c -1.10799,0 -2,0.89201 -2,2 v 24 c 0,1.10799 0.89201,2 2,2 h 12 c 1.10799,0 2,-0.89201 2,-2 v -24 c 0,-1.10799 -0.89201,-2 -2,-2 z m 0,1 h 12 c 0.55399,0 1,0.44601 1,1 v 24 c 0,0.55399 -0.44601,1 -1,1 h -12 c -0.55399,0 -1,-0.44601 -1,-1 v -24 c 0,-0.55399 0.44601,-1 1,-1 z" />
      <rect
         style="fill:#fbfbfb;fill-opacity:1;fill-rule:evenodd;stroke-width:3;stroke-linecap:round;stroke-linejoin:round;paint-order:stroke fill markers"
         id="rect7401"
         width="6"
         height="1"
         x="334"
         y="588.36218"
         ry="0.5" />
    </g>
    <g
       id="g24867"
       transform="translate(-158.53572,-456.50504)">
      <g
         id="g24768">
        <path
           id="path1417"
           style="opacity:1;fill:#3278ff;fill-opacity:1;stroke:none;stroke-width:2;stroke-linecap:butt;stroke-linejoin:round;stroke-miterlimit:4;stroke-dasharray:none;stroke-opacity:1;paint-order:stroke markers fill"
           d="m 247.53572,434.50506 c -0.554,0 -1,0.446 -1,1 v 2 1 c 0,0.0346 2.3e-4,0.0693 0.002,0.10352 0.002,0.0342 0.004,0.0679 0.008,0.10156 0.003,0.0337 0.009,0.0664 0.0137,0.0996 0.005,0.0332 0.0109,0.067 0.0176,0.0996 0.007,0.0326 0.0133,0.0637 0.0215,0.0957 0.008,0.032 0.0176,0.0643 0.0273,0.0957 0.01,0.0314 0.0201,0.0631 0.0312,0.0937 0.0112,0.0307 0.0225,0.0599 0.0352,0.0898 0.0126,0.0299 0.027,0.0607 0.041,0.0898 0.014,0.0292 0.0276,0.0576 0.043,0.0859 0.0154,0.0283 0.0322,0.0565 0.0488,0.084 0.0167,0.0275 0.0329,0.0535 0.0508,0.0801 0.0179,0.0266 0.0375,0.0525 0.0566,0.0781 0.0192,0.0257 0.0383,0.0515 0.0586,0.0762 0.0204,0.0247 0.041,0.0486 0.0625,0.0723 0.0215,0.0237 0.0438,0.0477 0.0664,0.0703 0.0226,0.0226 0.0467,0.0449 0.0703,0.0664 0.0237,0.0215 0.0476,0.0421 0.0723,0.0625 0.0247,0.0204 0.0505,0.0394 0.0762,0.0586 0.0257,0.0192 0.0515,0.0387 0.0781,0.0566 0.0266,0.0179 0.0526,0.0341 0.0801,0.0508 0.0275,0.0167 0.0556,0.0335 0.084,0.0488 0.0283,0.0154 0.0568,0.029 0.0859,0.043 0.0292,0.014 0.0599,0.0284 0.0898,0.041 0.0299,0.0126 0.0592,0.024 0.0898,0.0352 0.0307,0.0112 0.0624,0.0215 0.0937,0.0312 0.0313,0.01 0.0637,0.0192 0.0957,0.0273 0.032,0.008 0.0631,0.0148 0.0957,0.0215 0.0326,0.007 0.0664,0.0125 0.0996,0.0176 0.0332,0.005 0.0659,0.0103 0.0996,0.0137 0.0337,0.003 0.0674,0.006 0.10156,0.008 0.0342,0.002 0.0689,0.002 0.10349,0.002 h 2 c 0.0346,0 0.0693,-2.3e-4 0.10352,-0.002 0.0342,-0.002 0.0679,-0.004 0.10156,-0.008 0.0337,-0.003 0.0664,-0.009 0.0996,-0.0137 0.0332,-0.005 0.067,-0.0109 0.0996,-0.0176 0.0326,-0.007 0.0637,-0.0133 0.0957,-0.0215 0.032,-0.008 0.0643,-0.0176 0.0957,-0.0273 0.0314,-0.01 0.0631,-0.0201 0.0937,-0.0312 0.0307,-0.0112 0.0599,-0.0225 0.0898,-0.0352 0.0299,-0.0126 0.0607,-0.027 0.0898,-0.041 0.0292,-0.014 0.0576,-0.0276 0.0859,-0.043 0.0283,-0.0154 0.0565,-0.0322 0.084,-0.0488 0.0275,-0.0167 0.0535,-0.0328 0.0801,-0.0508 0.0266,-0.0179 0.0525,-0.0375 0.0781,-0.0566 0.0257,-0.0192 0.0515,-0.0383 0.0762,-0.0586 0.0247,-0.0204 0.0486,-0.041 0.0723,-0.0625 0.0237,-0.0215 0.0477,-0.0438 0.0703,-0.0664 0.0226,-0.0226 0.0449,-0.0467 0.0664,-0.0703 0.0215,-0.0236 0.0422,-0.0476 0.0625,-0.0723 0.0204,-0.0247 0.0394,-0.0505 0.0586,-0.0762 0.0192,-0.0257 0.0387,-0.0515 0.0566,-0.0781 0.0179,-0.0266 0.0341,-0.0526 0.0508,-0.0801 0.0167,-0.0275 0.0335,-0.0556 0.0488,-0.084 0.0154,-0.0283 0.029,-0.0568 0.043,-0.0859 0.014,-0.0292 0.0284,-0.0599 0.041,-0.0898 0.0126,-0.0299 0.024,-0.0592 0.0352,-0.0898 0.0112,-0.0307 0.0215,-0.0624 0.0312,-0.0937 0.01,-0.0313 0.0192,-0.0637 0.0273,-0.0957 0.008,-0.032 0.0148,-0.0631 0.0215,-0.0957 0.007,-0.0326 0.0125,-0.0664 0.0176,-0.0996 0.005,-0.0332 0.0103,-0.0659 0.0137,-0.0996 0.003,-0.0337 0.006,-0.0674 0.008,-0.10156 0.002,-0.0342 0.002,-0.0689 0.002,-0.10349 v -1 -2 c 0,-0.554 -0.446,-1 -1,-1 z" />
        <rect
           style="opacity:1;fill:#3278ff;fill-opacity:1;stroke:none;stroke-width:1.54937;stroke-linecap:butt;stroke-linejoin:round;stroke-miterlimit:4;stroke-dasharray:none;stroke-opacity:1;paint-order:stroke markers fill"
           id="rect14372"
           width="2"
           height="4.8010716"
           x="248.53572"
           y="438.70398"
           ry="1" />
        <rect
           style="opacity:1;fill:#3278ff;fill-opacity:1;stroke:none;stroke-width:2;stroke-linecap:butt;stroke-linejoin:round;stroke-miterlimit:4;stroke-dasharray:none;stroke-opacity:1;paint-order:stroke markers fill"
           id="rect17954"
           width="1"
           height="3"
           x="247.53572"
           y="432.50507"
           ry="0.5" />
        <rect
           style="opacity:1;fill:#3278ff;fill-opacity:1;stroke:none;stroke-width:2;stroke-linecap:butt;stroke-linejoin:round;stroke-miterlimit:4;stroke-dasharray:none;stroke-opacity:1;paint-order:stroke markers fill"
           id="rect24759"
           width="1"
           height="3"
           x="250.53572"
           y="432.50507"
           ry="0.5" />
      </g>
    </g>
  </g>
</svg>
