<?xml version="1.0" encoding="UTF-8" standalone="no"?>
<svg
   version="1.1"
   viewBox="0 0 54 32"
   id="svg15"
   sodipodi:docname="search.svg"
   inkscape:version="1.3 (0e150ed6c4, 2023-07-21)"
   xmlns:inkscape="http://www.inkscape.org/namespaces/inkscape"
   xmlns:sodipodi="http://sodipodi.sourceforge.net/DTD/sodipodi-0.dtd"
   xmlns="http://www.w3.org/2000/svg"
   xmlns:svg="http://www.w3.org/2000/svg">
  <sodipodi:namedview
     id="namedview17"
     pagecolor="#c8c8c8"
     bordercolor="#000000"
     borderopacity="0.25"
     inkscape:showpageshadow="2"
     inkscape:pageopacity="0"
     inkscape:pagecheckerboard="0"
     inkscape:deskcolor="#d1d1d1"
     showgrid="true"
     inkscape:zoom="8.0000001"
     inkscape:cx="-0.125"
     inkscape:cy="13.5"
     inkscape:window-width="1920"
     inkscape:window-height="989"
     inkscape:window-x="0"
     inkscape:window-y="0"
     inkscape:window-maximized="1"
     inkscape:current-layer="svg15">
    <inkscape:grid
       type="xygrid"
       id="grid306"
       originx="0"
       originy="0"
       spacingy="1"
       spacingx="1"
       units="px"
       visible="true" />
  </sodipodi:namedview>
  <defs
     id="defs3">
    <style
       id="current-color-scheme"
       type="text/css">.ColorScheme-Text { color:#363636; }</style>
  </defs>
  <g
     id="16-16-search"
     transform="translate(-0.5)">
    <path
       d="m -15.5,15.999997 v 16 h 16 v -16 z"
       fill="none"
       id="path300"
       style="fill:none;stroke-width:0.727273" />
    <path
       style="color:#000000;fill:#ffffff;-inkscape-stroke:none"
       d="m -9,17 c 3.0376,0 5.5,2.46243 5.5,5.5 0,1.33879 -0.4783,2.5659 -1.2734,3.5196 l 4.127,4.1268 c 0.1952,0.1953 0.1952,0.5119 0,0.7072 -0.1736,0.1735 -0.443,0.1928 -0.6379,0.0578 l -0.0693,-0.0578 -4.1268,-4.127 C -6.4341,27.5217 -7.66121,28 -9,28 c -3.03757,0 -5.5,-2.4624 -5.5,-5.5 0,-3.03757 2.46243,-5.5 5.5,-5.5 z m 0,1 c -2.48528,0 -4.5,2.01472 -4.5,4.5 0,2.4853 2.01472,4.5 4.5,4.5 2.4853,0 4.5,-2.0147 4.5,-4.5 C -4.5,20.01472 -6.5147,18 -9,18 Z"
       id="path517" />
  </g>
  <g
     id="22-22-search">
    <path
       id="path7"
       class="ColorScheme-Text"
       d="m 9.0000001,13 c -3.3240047,0 -6,2.675995 -6,6 0,3.324005 2.6759953,6 6,6 C 10.481206,25 11.830584,24.465318 12.875,23.582031 L 18.292969,29 19,28.292969 13.582032,22.875 C 14.465318,21.830584 15,20.481205 15,19 15,15.675995 12.324005,13 9.0000001,13 Z m 0,1 C 11.770005,14 14,16.229995 14,19 c 0,2.770005 -2.229995,5 -4.9999999,5 -2.7700048,0 -5,-2.229995 -5,-5 0,-2.770005 2.2299952,-5 5,-5 z"
       style="color:#31363b;fill:#eaeaea;fill-opacity:1;stroke:none"
       inkscape:connector-curvature="0" />
    <path
       id="path9"
       d="M 0,10 V 32 H 22 V 10 Z"
       style="opacity:1;fill:none"
       inkscape:connector-curvature="0" />
  </g>
  <g
     id="search">
    <path
       id="path12"
       class="ColorScheme-Text"
       d="m 35,4 a 9,9 0 0 0 -9,9 9,9 0 0 0 9,9 9,9 0 0 0 5.994141,-2.298828 L 49.292969,28 50,27.292969 41.699219,18.992187 A 9,9 0 0 0 44,13 9,9 0 0 0 35,4 Z m 0,1 a 8,8 0 0 1 8,8 8,8 0 0 1 -8,8 8,8 0 0 1 -8,-8 8,8 0 0 1 8,-8 z"
       style="color:#31363b;fill:#eaeaea;fill-opacity:1;stroke:none"
       inkscape:connector-curvature="0" />
    <path
       id="path14"
       d="M 22,0 V 32 H 54 V 0 Z"
       style="opacity:1;fill:none"
       inkscape:connector-curvature="0" />
  </g>
</svg>
