<?xml version="1.0" encoding="UTF-8" standalone="no"?>
<svg
   version="1.1"
   width="24"
   height="24"
   id="svg3013"
   inkscape:version="1.2.2 (b0a8486541, 2022-12-01)"
   sodipodi:docname="skype.svg"
   xmlns:inkscape="http://www.inkscape.org/namespaces/inkscape"
   xmlns:sodipodi="http://sodipodi.sourceforge.net/DTD/sodipodi-0.dtd"
   xmlns:xlink="http://www.w3.org/1999/xlink"
   xmlns="http://www.w3.org/2000/svg"
   xmlns:svg="http://www.w3.org/2000/svg"
   xmlns:rdf="http://www.w3.org/1999/02/22-rdf-syntax-ns#"
   xmlns:cc="http://creativecommons.org/ns#"
   xmlns:dc="http://purl.org/dc/elements/1.1/">
  <sodipodi:namedview
     pagecolor="#c8c8c8"
     bordercolor="#666666"
     borderopacity="1"
     objecttolerance="10"
     gridtolerance="10"
     guidetolerance="10"
     inkscape:pageopacity="0"
     inkscape:pageshadow="2"
     inkscape:window-width="1920"
     inkscape:window-height="1002"
     id="namedview66"
     showgrid="true"
     inkscape:zoom="19.666667"
     inkscape:cx="1.9322034"
     inkscape:cy="10.932203"
     inkscape:window-x="0"
     inkscape:window-y="0"
     inkscape:window-maximized="1"
     inkscape:current-layer="layer1"
     inkscape:lockguides="true"
     inkscape:document-rotation="0"
     inkscape:showpageshadow="0"
     inkscape:pagecheckerboard="0"
     inkscape:deskcolor="#d1d1d1">
    <inkscape:grid
       type="xygrid"
       id="grid903" />
  </sodipodi:namedview>
  <defs
     id="defs3015">
    <linearGradient
       id="linearGradient5009">
      <stop
         id="stop5011"
         style="stop-color:#000000;stop-opacity:1"
         offset="0" />
      <stop
         id="stop5013"
         style="stop-color:#000000;stop-opacity:0"
         offset="1" />
    </linearGradient>
    <linearGradient
       id="linearGradient4249">
      <stop
         id="stop4251"
         style="stop-color:#ffffff;stop-opacity:1"
         offset="0" />
      <stop
         id="stop4253"
         style="stop-color:#ffffff;stop-opacity:0.78431374"
         offset="0.47000003" />
      <stop
         id="stop4255"
         style="stop-color:#ffffff;stop-opacity:0.51724136"
         offset="0.75125003" />
      <stop
         id="stop4257"
         style="stop-color:#ffffff;stop-opacity:1"
         offset="1" />
    </linearGradient>
    <linearGradient
       id="linearGradient3289">
      <stop
         id="stop3291"
         style="stop-color:#ffffff;stop-opacity:1"
         offset="0" />
      <stop
         id="stop3294"
         style="stop-color:#ffffff;stop-opacity:1"
         offset="1" />
    </linearGradient>
    <linearGradient
       id="linearGradient2916">
      <stop
         id="stop2918"
         style="stop-color:#ffffff;stop-opacity:1"
         offset="0" />
      <stop
         id="stop2920"
         style="stop-color:#ffffff;stop-opacity:0"
         offset="1" />
    </linearGradient>
    <linearGradient
       id="linearGradient3140">
      <stop
         id="stop3142"
         style="stop-color:#ffffff;stop-opacity:1"
         offset="0" />
      <stop
         id="stop3144"
         style="stop-color:#ffffff;stop-opacity:0"
         offset="1" />
    </linearGradient>
    <linearGradient
       id="linearGradient2895">
      <stop
         id="stop2897"
         style="stop-color:#ffffff;stop-opacity:1"
         offset="0" />
      <stop
         id="stop2899"
         style="stop-color:#ffffff;stop-opacity:0"
         offset="1" />
    </linearGradient>
    <linearGradient
       x1="38.875084"
       y1="67.528122"
       x2="90.409752"
       y2="67.528122"
       id="linearGradient6228"
       xlink:href="#linearGradient2916"
       gradientUnits="userSpaceOnUse"
       gradientTransform="matrix(0.511504,0,0,1.80649,68.030435,-6.0981568)" />
    <linearGradient
       x1="38.875084"
       y1="67.528122"
       x2="90.409752"
       y2="67.528122"
       id="linearGradient6233"
       xlink:href="#linearGradient2916"
       gradientUnits="userSpaceOnUse"
       gradientTransform="matrix(0.511504,0,0,0.96108,67.773305,4.8320565)" />
    <linearGradient
       x1="11.543377"
       y1="3.4375"
       x2="10.88339"
       y2="5.9006019"
       id="linearGradient6238"
       xlink:href="#linearGradient2895"
       gradientUnits="userSpaceOnUse"
       gradientTransform="matrix(5.467529,0,0,5.820575,24.290213,-2.0656323)" />
    <linearGradient
       x1="38.875084"
       y1="67.528122"
       x2="90.409752"
       y2="67.528122"
       id="linearGradient6243"
       xlink:href="#linearGradient2916"
       gradientUnits="userSpaceOnUse"
       gradientTransform="matrix(0.511504,0,0,0.77135,67.773305,6.6291413)" />
    <radialGradient
       cx="68.000046"
       cy="-117.34602"
       r="27.999956"
       fx="68.000046"
       fy="-117.34602"
       id="radialGradient9168"
       xlink:href="#linearGradient3140"
       gradientUnits="userSpaceOnUse"
       gradientTransform="matrix(0.990365,0,0,1.664158,16.251985,75.514833)" />
    <linearGradient
       x1="18.01074"
       y1="65.760353"
       x2="72.498932"
       y2="65.760353"
       id="linearGradient2867"
       xlink:href="#linearGradient3289"
       gradientUnits="userSpaceOnUse"
       gradientTransform="matrix(1.017716,0,0,0.960169,5.524222,-18.774756)" />
    <linearGradient
       id="linearGradient4046-1-38">
      <stop
         id="stop4048-6-5"
         style="stop-color:#ffffff;stop-opacity:0"
         offset="0" />
      <stop
         id="stop4051-4-0"
         style="stop-color:#ffffff;stop-opacity:0.72661871"
         offset="1" />
    </linearGradient>
    <linearGradient
       id="linearGradient16006-3-9">
      <stop
         id="stop16008-5-6"
         style="stop-color:#ffffff;stop-opacity:0.58823532"
         offset="0" />
      <stop
         id="stop16016-1-7"
         style="stop-color:#ffffff;stop-opacity:0.8705036"
         offset="0.25" />
      <stop
         id="stop16014-1-2"
         style="stop-color:#ffffff;stop-opacity:0.58823532"
         offset="0.5" />
      <stop
         id="stop3998"
         style="stop-color:#ffffff;stop-opacity:0.8561151"
         offset="0.75" />
      <stop
         id="stop16010-4-1"
         style="stop-color:#ffffff;stop-opacity:0.58823532"
         offset="1" />
    </linearGradient>
    <linearGradient
       id="linearGradient4124">
      <stop
         id="stop4126"
         style="stop-color:#ffffff;stop-opacity:0.70503598"
         offset="0" />
      <stop
         id="stop4128"
         style="stop-color:#ffffff;stop-opacity:0.6978417"
         offset="0.185378" />
      <stop
         id="stop4130"
         style="stop-color:#ffffff;stop-opacity:0.80575538"
         offset="0.44680852" />
      <stop
         id="stop4132"
         style="stop-color:#ffffff;stop-opacity:0.77697843"
         offset="0.76861703" />
      <stop
         id="stop4134"
         style="stop-color:#ffffff;stop-opacity:0.74100721"
         offset="1" />
    </linearGradient>
    <linearGradient
       x1="3.0267859"
       y1="1040.4602"
       x2="21.776787"
       y2="1040.4602"
       id="linearGradient4717"
       xlink:href="#linearGradient4124"
       gradientUnits="userSpaceOnUse" />
    <linearGradient
       x1="12.580358"
       y1="1031.4336"
       x2="12.580358"
       y2="1049.4011"
       id="linearGradient4727"
       xlink:href="#linearGradient4124"
       gradientUnits="userSpaceOnUse" />
    <linearGradient
       x1="12"
       y1="1031.3356"
       x2="12.178572"
       y2="1049.2603"
       id="linearGradient4929"
       xlink:href="#linearGradient4249"
       gradientUnits="userSpaceOnUse" />
    <linearGradient
       x1="12"
       y1="1031.3356"
       x2="12.178572"
       y2="1049.2603"
       id="linearGradient4991"
       xlink:href="#linearGradient4249"
       gradientUnits="userSpaceOnUse"
       gradientTransform="translate(24,0)" />
    <linearGradient
       x1="12"
       y1="1031.3356"
       x2="12.178572"
       y2="1049.2603"
       id="linearGradient4993"
       xlink:href="#linearGradient4249"
       gradientUnits="userSpaceOnUse"
       gradientTransform="translate(24,0)" />
    <linearGradient
       x1="12"
       y1="1031.3356"
       x2="12.178572"
       y2="1049.2603"
       id="linearGradient4995"
       xlink:href="#linearGradient4249"
       gradientUnits="userSpaceOnUse"
       gradientTransform="translate(24,0)" />
    <linearGradient
       x1="12"
       y1="1031.3356"
       x2="12.178572"
       y2="1049.2603"
       id="linearGradient4997"
       xlink:href="#linearGradient4249"
       gradientUnits="userSpaceOnUse"
       gradientTransform="translate(24,0)" />
    <linearGradient
       x1="12"
       y1="1031.3356"
       x2="12.178572"
       y2="1049.2603"
       id="linearGradient4999"
       xlink:href="#linearGradient4249"
       gradientUnits="userSpaceOnUse"
       gradientTransform="translate(24,0)" />
    <linearGradient
       x1="12"
       y1="1031.3356"
       x2="12.178572"
       y2="1049.2603"
       id="linearGradient5001"
       xlink:href="#linearGradient4249"
       gradientUnits="userSpaceOnUse"
       gradientTransform="translate(24,0)" />
    <linearGradient
       x1="12"
       y1="1031.3356"
       x2="12.178572"
       y2="1049.2603"
       id="linearGradient5003"
       xlink:href="#linearGradient4249"
       gradientUnits="userSpaceOnUse"
       gradientTransform="translate(24,0)" />
    <linearGradient
       x1="12"
       y1="1031.3356"
       x2="12.178572"
       y2="1049.2603"
       id="linearGradient5005"
       xlink:href="#linearGradient4249"
       gradientUnits="userSpaceOnUse"
       gradientTransform="translate(24,0)" />
    <linearGradient
       x1="4.2426405"
       y1="11.71402"
       x2="19.975765"
       y2="11.71402"
       id="linearGradient5015"
       xlink:href="#linearGradient5009"
       gradientUnits="userSpaceOnUse"
       gradientTransform="translate(0,1028.3622)" />
    <radialGradient
       cx="12.00001"
       cy="11.987168"
       r="9.5000095"
       fx="12.00001"
       fy="11.987168"
       id="radialGradient3937"
       xlink:href="#linearGradient2895"
       gradientUnits="userSpaceOnUse"
       gradientTransform="matrix(2.4034553,0,0,2.408755,-16.841477,-16.886983)" />
  </defs>
  <metadata
     id="metadata3018">
    <rdf:RDF>
      <cc:Work
         rdf:about="">
        <dc:format>image/svg+xml</dc:format>
        <dc:type
           rdf:resource="http://purl.org/dc/dcmitype/StillImage" />
      </cc:Work>
    </rdf:RDF>
  </metadata>
  <g
     transform="translate(0,-1028.3622)"
     id="layer1">
    <g
       id="skype">
      <rect
         width="24"
         height="24"
         x="0"
         y="1028.3622"
         id="rect5017"
         style="opacity:0;fill:#000000;fill-opacity:0.392157;stroke:none" />
      <g
         id="g3939">
        <g
           id="g907"
           transform="translate(0.49888002,0.5028167)">
          <path
             d="m 7.0965175,1029.8621 c -0.22908,0.01 -0.4625266,0.016 -0.714259,0.059 -2.7572388,0.4732 -4.8499821,2.8943 -4.8510085,5.6545 -2.459e-4,0.6612 0.1146397,1.3131 0.3571294,2.0535 v 0.03 l 0.148804,0.4762 v 1.3392 c 0.00307,1.285 0.041295,1.6786 0.1190431,2.0535 0.9045355,4.3616 4.2580441,7.4526 8.6008675,7.8271 0.464458,0.045 0.889758,0.04 1.607083,0 l 0.773781,-0.059 0.297607,0.119 c 0.61362,0.2183 0.976616,0.3295 1.309475,0.3869 0.528964,0.087 1.154095,0.066 1.696365,0 1.254708,-0.1534 2.467029,-0.7407 3.39273,-1.6666 0.791216,-0.7914 1.302547,-1.7791 1.547561,-2.9166 0.08094,-0.3758 0.08971,-0.7316 0.08928,-1.1904 -6.72e-4,-0.7422 -0.09582,-1.2232 -0.38689,-2.0833 h 0.02976 l -0.148804,-0.4464 0.02976,-1.0118 c 0.03213,-1.3611 -0.03387,-2.0052 -0.267847,-2.9464 -0.818074,-3.2904 -3.330848,-5.8657 -6.636656,-6.8152 -0.856852,-0.2459 -1.095136,-0.2663 -2.857036,-0.2976 l -1.5475609,-0.03 -0.3571295,-0.1191 c -0.7811692,-0.2734 -1.484901,-0.444 -2.2320591,-0.4166 z m 0.029761,0.9225 c 0.5949253,-0.022 1.1805413,0.1038 1.9046905,0.3572 l 0.5059334,0.1785 1.6666036,0.03 c 1.764668,0.031 1.767728,0.024 2.61895,0.2678 2.998899,0.8614 5.273802,3.1926 6.011679,6.1605 0.223948,0.9008 0.269603,1.3434 0.238086,2.6785 l -0.02976,1.1904 0.178564,0.5655 c 0.291573,0.8545 0.326715,1.0928 0.327369,1.8154 4.21e-4,0.4497 -0.0059,0.7333 -0.05952,0.9821 -0.212802,0.988 -0.644815,1.8053 -1.309474,2.4701 -0.770318,0.7705 -1.819677,1.2719 -2.857036,1.3988 -0.414928,0.05 -1.125771,0.049 -1.428518,0 -0.292671,-0.051 -0.575195,-0.1191 -1.160671,-0.3274 l -0.505933,-0.1785 -0.922585,0.06 c -0.701453,0.039 -1.043782,0.04 -1.458278,0 -3.9612651,-0.3415 -6.9659443,-3.0742 -7.7973265,-7.0831 -0.062379,-0.3007 -0.086244,-0.6011 -0.089282,-1.8749 v -1.5178 l -0.1785647,-0.5952 c -0.2300028,-0.6951 -0.3275782,-1.2224 -0.3273687,-1.7857 8.486e-4,-2.2819 1.7684528,-4.3357 4.0772281,-4.7319 0.2062756,-0.035 0.3969074,-0.052 0.5952157,-0.06 z"
             id="path3872"
             inkscape:connector-curvature="0"
             style="fill:#fbfbfb;fill-opacity:1;stroke-width:0.952345" />
          <path
             d="m 11.471353,1033.6119 c -2.9884333,0.01 -4.8237987,1.4918 -4.6724434,3.7797 0.080616,1.2185 0.6278288,2.0176 1.7856473,2.5594 0.311274,0.1457 1.4571821,0.5022 2.5296671,0.7738 1.072484,0.2716 2.0809,0.5614 2.232059,0.6547 0.341032,0.2096 0.476173,0.5308 0.476173,1.0416 0,0.3177 -0.06389,0.4481 -0.297608,0.7143 -0.526859,0.6001 -1.533957,0.8602 -2.529667,0.6547 -0.783588,-0.1617 -1.1083634,-0.3733 -1.7856476,-1.1309 -0.8072763,-0.903 -1.2265854,-1.0673 -1.8451688,-0.7738 -0.3745241,0.1777 -0.5976443,0.532 -0.5952158,1.0119 0.00676,1.3435 1.5813083,2.5536 3.7498592,2.857 0.742488,0.1038 2.291908,0.019 3.00584,-0.1487 1.261281,-0.2972 2.25471,-1.0124 2.737992,-1.9941 0.269006,-0.5464 0.268293,-0.6287 0.267847,-1.4582 -4.17e-4,-0.7799 -0.0027,-0.9592 -0.208325,-1.3988 -0.542952,-1.1604 -1.44733,-1.6807 -3.898663,-2.232 -0.88389,-0.1988 -1.727047,-0.396 -1.904691,-0.4465 -0.49899,-0.141 -0.9061116,-0.4474 -1.0416275,-0.8035 -0.1112405,-0.2922 -0.1056722,-0.3706 0.059522,-0.744 0.2551647,-0.5769 0.8164995,-0.863 1.7856465,-0.863 1.044584,0 1.501705,0.1858 2.321342,0.9523 0.731829,0.6848 0.97565,0.7971 1.488039,0.7143 0.951331,-0.1544 1.248579,-1.0553 0.654738,-1.9345 -0.71577,-1.0597 -2.471702,-1.7857 -4.315315,-1.7857 z"
             id="rect3906"
             inkscape:connector-curvature="0"
             style="fill:#fbfbfb;fill-opacity:1;stroke-width:0.952345" />
        </g>
        <path
           d="M 7.40625,2.46875 C 7.1980184,2.4763641 6.9978475,2.494075 6.78125,2.53125 4.356945,2.94735 2.500891,5.1039 2.5,7.5 2.49978,8.0915 2.602238,8.6451 2.84375,9.375 L 3.03125,10 v 1.59375 C 3.03444,12.93135 3.0595,13.2467 3.125,13.5625 3.997984,17.772 7.1530155,20.6414 11.3125,21 c 0.435237,0.042 0.794696,0.041 1.53125,0 l 0.96875,-0.0625 0.53125,0.1875 c 0.614772,0.2187 0.911434,0.29075 1.21875,0.34375 0.317896,0.052 1.064309,0.053 1.5,0 1.089268,-0.1332 2.191136,-0.65975 3,-1.46875 0.697918,-0.6981 1.151549,-1.55635 1.375,-2.59375 0.05626,-0.2612 0.06294,-0.55905 0.0625,-1.03125 -6.87e-4,-0.7587 -0.03759,-1.00895 -0.34375,-1.90625 L 20.96875,13.875 21,12.625 C 21.033094,11.2231 20.985154,10.7584 20.75,9.8125 19.9752,6.6961 17.586462,4.24825 14.4375,3.34375 13.543684,3.08725 13.540471,3.0955 11.6875,3.0625 L 9.9375,3.03125 9.40625,2.84375 c -0.7603852,-0.2661 -1.3753051,-0.3978422 -2,-0.375 z m 4.5625,2.96875 c 1.935866,0 3.779664,0.7623 4.53125,1.875 0.623557,0.9232 0.311435,1.86915 -0.6875,2.03125 -0.538029,0.087 -0.794051,-0.0309 -1.5625,-0.75 -0.860651,-0.8049 -1.340646,-1.0014 -2.4375,-1 -1.017643,0 -1.607067,0.30055 -1.875,0.90625 -0.1734598,0.3921 -0.1793071,0.47435 -0.0625,0.78125 0.142297,0.3739 0.569791,0.69565 1.09375,0.84375 0.186533,0.053 1.071881,0.26005 2,0.46875 2.573997,0.5789 3.523629,1.12525 4.09375,2.34375 0.215953,0.4616 0.218312,0.64985 0.21875,1.46875 4.68e-4,0.871 0.0012,0.95745 -0.28125,1.53125 -0.507465,1.0308 -1.550605,1.78175 -2.875,2.09375 -0.749657,0.1766 -2.376608,0.26525 -3.15625,0.15625 -2.2770643,-0.3186 -3.9303707,-1.5893 -3.9375,-3 -0.00255,-0.5039 0.2317348,-0.8759 0.625,-1.0625 0.6495374,-0.3082 1.0898276,-0.1357 1.9375,0.8125 0.711175,0.7955 1.052202,1.0177 1.875,1.1875 1.045535,0.2158 2.103027,-0.0573 2.65625,-0.6875 0.24541,-0.2795 0.3125,-0.4164 0.3125,-0.75 0,-0.5364 -0.141903,-0.87365 -0.5,-1.09375 -0.158723,-0.098 -1.217599,-0.4023 -2.34375,-0.6875 -1.126151,-0.2852 -2.3293997,-0.6595 -2.65625,-0.8125 -1.2157547,-0.5689 -1.7903528,-1.408 -1.875,-2.6875 C 6.9035706,7.00385 8.8307774,5.4429 11.96875,5.4375 Z"
           transform="translate(0,1028.3622)"
           id="path3859"
           style="fill:url(#radialGradient3937);fill-opacity:0;stroke:none"
           inkscape:connector-curvature="0" />
      </g>
    </g>
  </g>
</svg>
