<?xml version="1.0" encoding="UTF-8" standalone="no"?>
<svg
   id="svg"
   version="1.1"
   viewBox="0 0 22 22"
   sodipodi:docname="slc.svg"
   inkscape:version="1.1 (c4e8f9ed74, 2021-05-24)"
   xmlns:inkscape="http://www.inkscape.org/namespaces/inkscape"
   xmlns:sodipodi="http://sodipodi.sourceforge.net/DTD/sodipodi-0.dtd"
   xmlns="http://www.w3.org/2000/svg"
   xmlns:svg="http://www.w3.org/2000/svg"
   xmlns:rdf="http://www.w3.org/1999/02/22-rdf-syntax-ns#"
   xmlns:cc="http://creativecommons.org/ns#"
   xmlns:dc="http://purl.org/dc/elements/1.1/">
  <metadata
     id="metadata23">
    <rdf:RDF>
      <cc:Work
         rdf:about="">
        <dc:format>image/svg+xml</dc:format>
        <dc:type
           rdf:resource="http://purl.org/dc/dcmitype/StillImage" />
        <dc:title />
      </cc:Work>
    </rdf:RDF>
  </metadata>
  <sodipodi:namedview
     pagecolor="#c8c8c8"
     bordercolor="#666666"
     borderopacity="1"
     objecttolerance="10"
     gridtolerance="10"
     guidetolerance="10"
     inkscape:pageopacity="0"
     inkscape:pageshadow="2"
     inkscape:window-width="1920"
     inkscape:window-height="962"
     id="namedview21"
     showgrid="true"
     inkscape:zoom="7.5853275"
     inkscape:cx="5.2074218"
     inkscape:cy="-20.104603"
     inkscape:window-x="0"
     inkscape:window-y="40"
     inkscape:window-maximized="1"
     inkscape:current-layer="svg"
     inkscape:pagecheckerboard="0"
     inkscape:snap-bbox="true"
     inkscape:bbox-nodes="true">
    <inkscape:grid
       type="xygrid"
       id="grid830" />
  </sodipodi:namedview>
  <defs
     id="defs3">
    <style
       id="current-color-scheme"
       type="text/css">.ColorScheme-Text { color:#dedede; } .ColorScheme-Highlight { color:#5294e2; } .ColorScheme-ButtonBackground { color:#dedede; }</style>
  </defs>
  <g
     id="slc-share">
    <rect
       class="ColorScheme-Text"
       x="40"
       y="0"
       width="22"
       height="22"
       fill-opacity="0"
       id="rect10" />
    <path
       style="color:#000000;fill:#fbfbfb;-inkscape-stroke:none"
       d="m 54.5,11 c 2.2091,0 4,-1.79086 4,-4 0,-2.20914 -1.7909,-4 -4,-4 -2.2091,0 -4,1.79086 -4,4 0,0.46556 0.07954,0.91254 0.22576,1.3281 L 48.60461,9.38867 C 48.12395,9.14028 47.57836,9 47,9 c -1.933,0 -3.5,1.567 -3.5,3.5 0,1.933 1.567,3.5 3.5,3.5 1.20416,0 2.26629,-0.6081 2.89605,-1.534 l 2.68955,1.3831 C 52.5298,16.0566 52.5,16.2748 52.5,16.5 c 0,1.3807 1.1193,2.5 2.5,2.5 1.3807,0 2.5,-1.1193 2.5,-2.5 0,-1.3807 -1.1193,-2.5 -2.5,-2.5 -0.7977,0 -1.5081,0.3736 -1.9658,0.9553 L 50.33439,13.567 C 50.44194,13.2306 50.5,12.8721 50.5,12.5 c 0,-0.9508 -0.37911,-1.81301 -0.99442,-2.44378 l 1.668,-0.834 C 51.8911,10.29421 53.1131,11 54.5,11 Z m 0,-1 c -1.6569,0 -3,-1.34315 -3,-3 0,-1.65685 1.3431,-3 3,-3 1.6569,0 3,1.34315 3,3 0,1.65685 -1.3431,3 -3,3 z M 47,15 c -1.38071,0 -2.5,-1.1193 -2.5,-2.5 0,-1.3807 1.11929,-2.5 2.5,-2.5 1.38071,0 2.5,1.1193 2.5,2.5 0,1.3807 -1.11929,2.5 -2.5,2.5 z m 9.5,1.5 c 0,0.8284 -0.6716,1.5 -1.5,1.5 -0.8284,0 -1.5,-0.6716 -1.5,-1.5 0,-0.8284 0.6716,-1.5 1.5,-1.5 0.8284,0 1.5,0.6716 1.5,1.5 z"
       id="path832" />
  </g>
  <g
     id="slc-connect">
    <rect
       class="ColorScheme-Text"
       x="0"
       y="0"
       width="22"
       height="22"
       fill-opacity="0"
       id="rect15" />
    <path
       style="color:#000000;fill:#fbfbfb;-inkscape-stroke:none"
       d="m 10.638062,4.6218748 c 0.6105,-1.22099 2.2378,-1.48507 3.203,-0.51978 l 4.0569,4.05682 c 0.9652,0.96528 0.7012,2.5925702 -0.5198,3.2030702 l -3.4585,1.72924 c -0.3286,0.1643 -0.5854,0.4434 -0.7219,0.7845 l -1.4359,3.59 c -0.2667,0.6666 -1.128,0.8434 -1.63563,0.3357 l -2.6102704,-2.6103 -3.29289,3.2929 h -0.70711 v -0.7071 l 3.29289,-3.2929 -2.61027,-2.6102 c -0.50764,-0.50768 -0.33085,-1.36899 0.33572,-1.63562 l 3.58995,-1.4359802 c 0.3411,-0.13644 0.62026,-0.39331 0.78456,-0.7219 z m 2.4959,0.18732 c -0.4826,-0.48264 -1.2963,-0.3506 -1.6015,0.2599 l -1.7292304,3.45845 c -0.27382,0.54764 -0.73909,0.97576 -1.30759,1.20316 l -3.58995,1.4359802 5.9276704,5.92764 1.436,-3.5899 c 0.2274,-0.5685 0.6555,-1.0338 1.2031,-1.3076 l 3.4585,-1.72927 c 0.6105,-0.30525 0.7425,-1.1188902 0.2599,-1.6015302 z"
       id="path5786" />
  </g>
  <g
     id="slc-like">
    <rect
       class="ColorScheme-Text"
       x="0"
       y="-40"
       width="22"
       height="22"
       fill-opacity="0"
       id="rect5" />
    <path
       style="color:#000000;fill:#fbfbfb;-inkscape-stroke:none"
       d="m 10.104331,-36.101063 c 0.36681,-0.74325 1.42667,-0.74324 1.79347,0 l 1.9304,3.9115 4.3166,0.62724 c 0.8203,0.11918 1.1478,1.12716 0.5542,1.70569 l -3.1235,3.04464 0.7374,4.2992 c 0.1401,0.8169 -0.7173,1.4399 -1.451,1.0542 l -3.8608,-2.0298 -3.8609201,2.0298 c -0.73363,0.3857 -1.59105,-0.2373 -1.45094,-1.0542 l 0.73736,-4.2992 -3.12352,-3.04464 c -0.59352,-0.57854 -0.266,-1.58651 0.55422,-1.70569 l 4.31659,-0.62724 z m 0.89677,0.44257 -1.9304796,3.91149 c -0.14566,0.29515 -0.42722,0.49972 -0.7529305,0.54705 l -4.3166,0.62723 3.12352,3.04463 c 0.23569,0.2298 0.34323,0.5608 0.2876,0.8852 l -0.73737,4.2991 3.8608801,-2.0298 c 0.29133,-0.1531 0.63938,-0.1531 0.93068,0 l 3.8609,2.0298 -0.7374,-4.2991 c -0.0556,-0.3244 0.0519,-0.6554 0.2876,-0.8852 l 3.1235,-3.04463 -4.3166,-0.62723 c -0.3257,-0.04733 -0.6072,-0.2519 -0.7529,-0.54705 z m -5.6106501,9.3461 c 0.17251,0.2157 0.13755,0.5303 -0.07808,0.7028 l -2.5,2 c -0.21564,0.1725 -0.53028,0.1376 -0.70279,-0.0781 -0.172501,-0.2156 -0.13754,-0.5302 0.07809,-0.7027 l 2.5,-2 c 0.21563,-0.1725 0.53028,-0.1376 0.70278,0.078 z m -0.07808,-7.57802 c 0.21563,0.17251 0.25059,0.48715 0.07808,0.70278 -0.1725,0.21564 -0.48715,0.2506 -0.70278,0.07809 l -2.5,-2 c -0.21563,-0.1725 -0.250591,-0.48715 -0.07809,-0.70278 0.17251,-0.21563 0.48715,-0.25059 0.70279,-0.07809 z m 11.2971301,7.57802 c -0.1725,0.2157 -0.1375,0.5303 0.0781,0.7028 l 2.5,2 c 0.2157,0.1725 0.5303,0.1376 0.7028,-0.0781 0.1725,-0.2156 0.1376,-0.5302 -0.0781,-0.7027 l -2.5,-2 c -0.2156,-0.1725 -0.5302,-0.1376 -0.7028,0.078 z m 0.0781,-7.57802 c -0.2156,0.17251 -0.2506,0.48715 -0.0781,0.70278 0.1726,0.21564 0.4872,0.2506 0.7028,0.07809 l 2.5,-2 c 0.2157,-0.1725 0.2506,-0.48715 0.0781,-0.70278 -0.1725,-0.21563 -0.4871,-0.25059 -0.7028,-0.07809 z"
       id="path7113" />
  </g>
</svg>
