<?xml version="1.0" encoding="UTF-8" standalone="no"?>
<svg
   width="32"
   height="32"
   x="0"
   y="0"
   version="1.1"
   xml:space="preserve"
   id="svg16"
   sodipodi:docname="thunderbird.svg"
   inkscape:version="1.2.2 (b0a8486541, 2022-12-01)"
   xmlns:inkscape="http://www.inkscape.org/namespaces/inkscape"
   xmlns:sodipodi="http://sodipodi.sourceforge.net/DTD/sodipodi-0.dtd"
   xmlns:xlink="http://www.w3.org/1999/xlink"
   xmlns="http://www.w3.org/2000/svg"
   xmlns:svg="http://www.w3.org/2000/svg"
   xmlns:rdf="http://www.w3.org/1999/02/22-rdf-syntax-ns#"
   xmlns:cc="http://creativecommons.org/ns#"
   xmlns:dc="http://purl.org/dc/elements/1.1/"><metadata
   id="metadata22"><rdf:RDF><cc:Work
       rdf:about=""><dc:format>image/svg+xml</dc:format><dc:type
         rdf:resource="http://purl.org/dc/dcmitype/StillImage" /></cc:Work></rdf:RDF></metadata><defs
   id="defs20">
  <linearGradient
   id="linearGradient-1"
   x1="93.544998"
   x2="18.601999"
   y1="104.29"
   y2="21.722"
   gradientTransform="matrix(0.47860022,0,0,0.43436948,-9.2078203,-59.414856)"
   gradientUnits="userSpaceOnUse"><stop
     stop-color="#130036"
     offset="0"
     id="stop1393" /><stop
     stop-color="#18023B"
     offset=".2297"
     id="stop1395" /><stop
     stop-color="#26094A"
     offset=".5122"
     id="stop1397" /><stop
     stop-color="#3D1563"
     offset=".8211"
     id="stop1399" /><stop
     stop-color="#4E1D75"
     offset="1"
     id="stop1401" /></linearGradient><linearGradient
   id="linearGradient-2"
   x1="6.1662998"
   x2="34.738998"
   y1="38.339001"
   y2="38.339001"
   gradientTransform="matrix(0.37269447,0,0,0.557797,-9.2078203,-59.414856)"
   gradientUnits="userSpaceOnUse"><stop
     stop-color="#3156A8"
     offset="0"
     id="stop1404" /><stop
     stop-color="#3351A4"
     offset=".2474"
     id="stop1406" /><stop
     stop-color="#3B4397"
     offset=".5365"
     id="stop1408" /><stop
     stop-color="#472C82"
     offset=".8453"
     id="stop1410" /><stop
     stop-color="#4E1D75"
     offset="1"
     id="stop1412" /></linearGradient><radialGradient
   id="radialGradient-3"
   cx="38.772999"
   cy="42.032001"
   r="55.952"
   gradientTransform="matrix(0.34183646,0,0,0.60813277,-9.2078203,-59.414856)"
   gradientUnits="userSpaceOnUse"><stop
     stop-color="#14CDDA"
     offset=".1654"
     id="stop1415" /><stop
     stop-color="#2061BD"
     offset=".5478"
     id="stop1417" /><stop
     stop-color="#2658AC"
     offset=".6546"
     id="stop1419" /><stop
     stop-color="#373F81"
     offset=".864"
     id="stop1421" /><stop
     stop-color="#432D62"
     offset="1"
     id="stop1423" /></radialGradient><linearGradient
   id="linearGradient1008"
   x1="0.19829001"
   x2="58.432999"
   y1="29.618"
   y2="29.618"
   gradientTransform="scale(1.242,0.80516)"
   gradientUnits="userSpaceOnUse"
   xlink:href="#linearGradient-4" /><linearGradient
   id="linearGradient-4"
   x1="1.1634e-05"
   y1="0.49998999"
   y2="0.49998999"><stop
     stop-color="#2061BD"
     offset="0"
     id="stop1427" /><stop
     stop-color="#2B51AC"
     offset=".1846"
     id="stop1429" /><stop
     stop-color="#442C84"
     offset=".6826"
     id="stop1431" /><stop
     stop-color="#4E1D75"
     offset=".9409"
     id="stop1433" /></linearGradient><linearGradient
   id="linearGradient1745"
   x1="1.1634e-05"
   y1="0.49998999"
   y2="0.49998999"><stop
     stop-color="#2061BD"
     offset="0"
     id="stop1737" /><stop
     stop-color="#2B51AC"
     offset=".1846"
     id="stop1739" /><stop
     stop-color="#442C84"
     offset=".6826"
     id="stop1741" /><stop
     stop-color="#4E1D75"
     offset=".9409"
     id="stop1743" /></linearGradient><linearGradient
   id="linearGradient-5"
   x1="27.301001"
   x2="69.007004"
   y1="13.621"
   y2="65.202003"
   gradientTransform="matrix(0.54384523,0,0,0.38225098,-9.2078203,-59.414856)"
   gradientUnits="userSpaceOnUse"><stop
     stop-color="#48A8E0"
     offset=".0202"
     id="stop1436" /><stop
     stop-color="#2061BD"
     offset=".3883"
     id="stop1438" /><stop
     stop-color="#2B51AC"
     offset=".4968"
     id="stop1440" /><stop
     stop-color="#442C84"
     offset=".7892"
     id="stop1442" /><stop
     stop-color="#4E1D75"
     offset=".9409"
     id="stop1444" /></linearGradient><linearGradient
   id="linearGradient-6"
   x1="12.234"
   x2="135.44"
   y1="131.42"
   y2="16.993999"
   gradientTransform="matrix(0.36086739,0,0,0.57608019,-9.2078203,-59.414856)"
   gradientUnits="userSpaceOnUse"><stop
     stop-color="#3156A8"
     offset=".3787"
     id="stop1447" /><stop
     stop-color="#4E1D75"
     offset="1"
     id="stop1449" /></linearGradient><linearGradient
   id="linearGradient-7"
   x1="55.195999"
   x2="117.71"
   y1="118.27"
   y2="13.812"
   gradientTransform="matrix(0.39326193,0,0,0.52861684,-9.2078203,-59.414856)"
   gradientUnits="userSpaceOnUse"><stop
     stop-color="#29ABE2"
     offset="0"
     id="stop1452" /><stop
     stop-color="#385AA6"
     offset=".7733"
     id="stop1454" /><stop
     stop-color="#414293"
     offset=".8575"
     id="stop1456" /><stop
     stop-color="#4E1D75"
     offset="1"
     id="stop1458" /></linearGradient><linearGradient
   id="linearGradient-8"
   x1="26.261"
   x2="29.51"
   y1="40.964001"
   y2="42.493"
   gradientTransform="matrix(0.41239773,0,0,0.50408726,-9.2078203,-59.414856)"
   gradientUnits="userSpaceOnUse"><stop
     stop-color="#B0DCD6"
     offset="0"
     id="stop1461" /><stop
     stop-color="#53ACE0"
     offset="1"
     id="stop1463" /></linearGradient><linearGradient
   id="linearGradient1016"
   x1="4.6623001"
   x2="0.73539001"
   y1="4.2711"
   y2="2.4033"
   gradientTransform="scale(1.5005,0.66645)"
   gradientUnits="userSpaceOnUse"
   xlink:href="#linearGradient-9" /><linearGradient
   id="linearGradient-9"
   x1="0.90678"
   x2="0.10458"
   y1="0.71357"
   y2="0.33201"><stop
     stop-color="#3092B9"
     offset="0"
     id="stop1467" /><stop
     stop-color="#258DB6"
     offset=".2199"
     id="stop1469" /><stop
     stop-color="#1685B1"
     offset=".6564"
     id="stop1471" /><stop
     stop-color="#1082AF"
     offset="1"
     id="stop1473" /></linearGradient><linearGradient
   id="linearGradient-10"
   x1="40.854"
   x2="45.837002"
   y1="18.208"
   y2="37.132"
   gradientTransform="matrix(0.44365698,0,0,0.46856954,-9.2078203,-59.414856)"
   gradientUnits="userSpaceOnUse"><stop
     stop-color="#1398D1"
     stop-opacity="0"
     offset=".0074"
     id="stop1476" /><stop
     stop-color="#1187C2"
     stop-opacity=".6197"
     offset=".2482"
     id="stop1478" /><stop
     stop-color="#3F6499"
     stop-opacity=".71"
     offset=".6422"
     id="stop1480" /><stop
     stop-color="#2F4282"
     stop-opacity=".5"
     offset="1"
     id="stop1482" /></linearGradient><linearGradient
   id="linearGradient-11"
   x1="37.583"
   x2="34.780998"
   y1="34.328999"
   y2="32.799"
   gradientTransform="matrix(0.43459289,0,0,0.47832665,-9.2078203,-59.414856)"
   gradientUnits="userSpaceOnUse"><stop
     stop-color="#F9C21B"
     offset="0"
     id="stop1485" /><stop
     stop-color="#F3BA1B"
     offset=".1479"
     id="stop1487" /><stop
     stop-color="#E3A41B"
     offset=".3787"
     id="stop1489" /><stop
     stop-color="#C9801C"
     offset=".6634"
     id="stop1491" /><stop
     stop-color="#A44E1C"
     offset=".9884"
     id="stop1493" /><stop
     stop-color="#A34C1C"
     offset="1"
     id="stop1495" /></linearGradient><linearGradient
   id="linearGradient-12"
   x1="130.82001"
   x2="107.49"
   y1="49.676998"
   y2="18.142"
   gradientTransform="matrix(0.35367266,0,0,0.58779785,-9.2078203,-59.414856)"
   gradientUnits="userSpaceOnUse"><stop
     stop-color="#409EC3"
     offset="0"
     id="stop1498" /><stop
     stop-color="#2061BD"
     offset=".62"
     id="stop1500" /></linearGradient><linearGradient
   id="linearGradient-13"
   x1="81.893997"
   x2="69.683998"
   y1="53.868"
   y2="11.475"
   gradientTransform="matrix(0.48429947,0,0,0.42926295,-9.2078203,-59.414856)"
   gradientUnits="userSpaceOnUse"><stop
     stop-color="#14B2DA"
     offset="0"
     id="stop1503" /><stop
     stop-color="#297CCC"
     offset=".4028"
     id="stop1505" /><stop
     stop-color="#256FC5"
     offset=".5077"
     id="stop1507" /><stop
     stop-color="#2164BF"
     offset=".6492"
     id="stop1509" /><stop
     stop-color="#2061BD"
     offset=".8162"
     id="stop1511" /><stop
     stop-color="#2061BD"
     offset=".9835"
     id="stop1513" /></linearGradient></defs><sodipodi:namedview
   pagecolor="#d7d7d7"
   bordercolor="#666666"
   borderopacity="1"
   objecttolerance="10"
   gridtolerance="10"
   guidetolerance="10"
   inkscape:pageopacity="0"
   inkscape:pageshadow="2"
   inkscape:window-width="1920"
   inkscape:window-height="965"
   id="namedview18"
   showgrid="false"
   inkscape:zoom="6.1015625"
   inkscape:cx="23.43662"
   inkscape:cy="21.879641"
   inkscape:window-x="0"
   inkscape:window-y="40"
   inkscape:window-maximized="1"
   inkscape:current-layer="svg16"
   inkscape:document-rotation="0"
   inkscape:showpageshadow="0"
   inkscape:pagecheckerboard="0"
   inkscape:deskcolor="#d1d1d1" />
  <g
   id="22-22-thunderbird"><rect
     style="opacity:0.00100002"
     width="22"
     height="22"
     x="32"
     y="10"
     id="rect2" /><g
     id="g29932"
     transform="matrix(0.64001268,0,0,0.64001268,-6.1951458,10.759639)"><path
       id="path28307"
       style="fill:#ffffff;fill-opacity:1"
       d="m 74.884766,4.5859375 c -0.01179,1.265e-4 -0.02376,0.00133 -0.03711,0.00195 -0.320299,0.014916 -1.093558,0.1783871 -2.154297,1.2441406 -0.118376,0.1190255 -0.227757,0.2420046 -0.333984,0.3671876 -4.12206,0.997216 -7.072266,3.659107 -7.072266,6.7871093 0,0.613425 -0.18745,1.289061 0.01563,1.962891 -0.08113,1.076243 0.0918,4.011719 0.0918,4.011719 0,0 1.115488,6.039922 5.40625,7.089843 0.06818,0.01636 -0.897513,-1.504699 -1.324219,-3.339843 0.830753,0.845 1.820311,1.513118 2.931641,1.628906 0.131773,0.01362 -0.582355,-0.835842 -1.240234,-1.876953 l -5.103516,-1.697266 c -0.426505,-1.323747 -0.612629,-2.875133 -0.503906,-4.6875 0.252459,0.484036 1.033061,0.884157 1.517578,0.892578 -0.583739,-0.550152 -1.807517,-3.263995 -0.08398,-5.691406 1.265742,1.848543 5.271782,7.849609 5.521484,7.849609 0.0015,0 0.0048,4.81e-4 0.0059,0 1.693065,-0.603309 6.134,-2.133656 9.175782,-3.179687 -0.01601,2.435807 -0.623047,3.365234 -0.623047,3.365234 0,0 2.066456,-0.793018 3.05664,-3.34375 0.04645,0.123142 0.08056,0.246284 0.107422,0.369141 L 82.1856,25.068356 c 3.623904,-1.572455 3.280834,-1.536731 4.265625,-2.603515 2.412222,-2.611204 2.748442,-4.092405 2.140625,-8.466797 C 88.180899,11.04517 86.001581,8.1203163 83.599609,7.1542969 82.106536,6.1790921 80.198218,5.8641919 79.144531,5.7539062 c -1.127902,-0.1178913 -2.10909,-0.097176 -2.970703,0.029297 -0.07303,-9.637e-4 -0.145394,-0.00391 -0.21875,-0.00391 -0.05603,0 -0.109662,0.00131 -0.166016,0.00195 0.02316,-0.028337 0.03906,-0.044922 0.03906,-0.044922 0,0 -0.04586,0.00656 -0.134766,0.046875 -0.279658,0.00454 -0.557876,0.01442 -0.832031,0.033203 0.382014,-0.4187757 0.695313,-0.6386718 0.695313,-0.6386718 0,0 -0.372915,0.055526 -1.050782,0.6699218 -0.322425,0.029636 -0.640575,0.068282 -0.953125,0.1171876 0.71237,-0.9638646 1.458985,-1.3691407 1.458985,-1.3691407 0,0 -0.04446,-0.010651 -0.126953,-0.00977 z m -3.451172,5.2402344 c 0.225048,-0.00171 0.415192,0.075529 0.451172,0.1113281 0.205043,0.203341 0.159784,0.576904 0.01953,0.886719 l 10.089844,1.59375 c -0.195045,0.665384 -0.374782,1.563795 -0.322266,2.529297 0.0079,0.146011 0.01343,0.28422 0.01758,0.421875 -3.426857,1.288698 -7.424419,2.749303 -9.119141,3.199218 -0.234013,0.06229 -4.697684,-6.677222 -5.349609,-7.580078 0.276101,-0.330656 0.570427,-0.584532 0.876953,-0.777343 l 0.423828,0.07812 2.041016,0.322266 c 0.04369,-0.186548 0.139034,-0.384905 0.339844,-0.580078 0.159689,-0.1549468 0.356212,-0.2037481 0.53125,-0.2050781 z" /><polygon
       transform="matrix(0.2092314,0,0,0.2092314,64.151808,3.5000905)"
       id="polygon28309"
       points="9.396,84.237 83.153,108.76 82.338,106.86 9.1375,82.526 "
       style="fill:#ffffff;fill-opacity:1" /><path
       id="path28311"
       style="fill:#ffffff;fill-opacity:1;fill-rule:evenodd;stroke-width:0.209231"
       d="m 75.087891,3.5039062 c 0,1e-7 -1.883211,0.4787294 -2.34375,1.4628907 -5.335762,1.5432741 -8.591797,6.0549431 -8.591797,11.0058591 0,7.028905 5.534784,9.950517 6.648437,10.078125 -3.407849,-1.638487 -5.555859,-4.711333 -5.240234,-9.972656 0.252459,0.484036 1.033061,0.884157 1.517578,0.892578 -1.790336,-3.978103 0.40358,-5.969233 1.880859,-6.806641 0.02419,0.222781 0.06605,0.452697 0.119141,0.69336 0.08551,0.385423 0.172486,0.569872 0.06836,0.96289 -0.05749,0.216827 -0.04773,0.418952 -0.11914,0.546876 -0.09862,0.176836 -0.22546,0.370096 -0.267578,0.6875 -0.10526,0.792692 0.176187,1.045793 0.351562,1.3125 0.249865,-0.248086 0.737539,-0.832999 1.617188,-1.181641 0.879816,-0.348663 1.457878,-0.872968 2.560546,-1.435547 1.506526,-0.768401 3.27298,0.397905 6.621094,-0.699219 0.07137,-0.02339 0.151215,-0.06555 0.234375,-0.117187 0.342501,0.429935 0.604007,0.869436 0.798828,1.251953 0.518537,1.018767 0.730469,2.810547 0.730469,2.810547 0.162614,3.152454 -0.599609,4.318359 -0.599609,4.318359 0,0 0.80385,-0.309887 1.648437,-1.160156 -0.0057,0.660261 -0.165568,2.401108 -1.583984,4.107422 0,0 0.733772,-0.205292 1.560547,-0.607422 -0.454125,2.128309 -1.678341,4.671056 -5.638672,6.597656 0,0 3.331659,-0.272079 4.984375,-2.132812 C 81.372703,27.664855 79.529297,28.5 79.529297,28.5 c 1.357366,-0.198537 4.922157,-1.251571 7.193359,-4.091797 2.570403,-3.215044 3.344259,-6.230257 2.570313,-10.273437 -0.236904,-1.258781 -0.736628,-2.48491 -1.404297,-3.601563 -0.0651,-0.111692 -0.1337,-0.225252 -0.208984,-0.339844 -0.0022,-0.0033 -0.0057,-0.0084 -0.0078,-0.01172 C 87.502541,9.9182852 87.323275,9.6626569 87.136719,9.4140625 85.703719,7.4581413 84.616728,6.8234401 84.447266,6.7324219 84.245715,6.5918576 84.043601,6.4612589 83.847656,6.3398438 82.003662,5.196396 80.818359,5.0351563 80.818359,5.0351562 c 0,0 -0.104908,0.020363 -0.228515,0.048828 -0.887403,-0.2910169 -1.729364,-0.4365727 -2.328125,-0.4824219 -0.78505,-0.060255 -1.506926,-0.057335 -2.173828,-0.00391 0.144729,-0.072032 0.235518,-0.135934 0.228515,-0.1875 -0.192514,0.00635 -0.383393,0.018118 -0.572265,0.03125 0.0056,-0.021779 0.0078,-0.029297 0.0078,-0.029297 -0.05119,5.491e-4 -0.107284,0.014731 -0.183594,0.041016 -0.181307,0.014683 -0.359284,0.031914 -0.537109,0.052734 0.241096,-0.4510375 0.423828,-0.5390625 0.423828,-0.5390625 -0.236745,0.02833 -0.736635,0.2642484 -1.599609,0.6992187 0.373603,-0.7489632 1.232422,-1.1621093 1.232422,-1.1621094 z m -6.148438,6.3125 c 2.5e-5,0.00459 -4.8e-5,0.00908 0,0.013672 l -0.06445,0.00977 c 0.02151,-0.0076 0.04292,-0.01619 0.06445,-0.023438 z m 2.494141,0.00977 c 0.225048,-0.00171 0.415192,0.075529 0.451172,0.1113281 0.272209,0.2699497 0.100482,0.8396847 -0.144532,1.1621087 -0.01244,0.01631 -0.02637,0.0332 -0.04297,0.05078 -0.0018,0.0024 -0.0041,0.0055 -0.0059,0.0078 -0.05448,0.07184 -0.169183,0.16675 -0.322265,0.21875 -0.184073,0.08239 -0.416328,0.128023 -0.677735,0.06445 0,0 -0.480697,-0.737938 0.210938,-1.410156 0.159689,-0.1549465 0.356212,-0.2037478 0.53125,-0.2050778 z" /><path
       id="path28313"
       style="fill:#ffffff;fill-opacity:1;fill-rule:evenodd;stroke-width:0.209231"
       d="m 74.923828,3.5019531 c -0.944837,0.038307 -3.355923,0.8187943 -4.84375,3.8320313 -0.260075,0.3169218 -0.503133,0.642915 -0.734375,0.96875 -0.596914,0.8406263 -0.531993,1.6125279 -0.326172,2.5449216 0.07358,0.333822 0.09622,0.833398 0.05078,1.228516 -0.0027,-0.01123 -0.0039,-0.01758 -0.0039,-0.01758 -0.0092,0.08259 -0.01782,0.160842 -0.0332,0.232422 -0.0022,0.01028 -0.0077,0.02426 -0.01563,0.03906 -0.0016,0.0032 -0.004,0.0063 -0.0059,0.0098 -0.0605,0.107357 -0.231904,0.332671 -0.28125,0.820312 -0.06202,0.607922 0.166935,0.960077 0.380859,1.207032 0.664976,-0.972353 1.31314,-1.303487 1.464844,-1.371094 0.0082,-0.0028 0.03906,-0.01563 0.03906,-0.01563 1.063639,-0.435782 1.506002,-0.899604 2.644532,-1.480469 1.555588,-0.793653 6.99447,1.796817 10.451172,0.664062 1.063769,-0.348493 -0.40884,-4.8766952 0.171874,-5.0156245 C 82.266338,5.3612931 79.918446,4.572167 78.501953,4.3886719 77.028634,4.1977467 75.796991,4.2357245 74.75,4.4375 c 0.329225,-0.3156249 0.710938,-0.4707031 0.710938,-0.4707031 -0.493743,0.043563 -1.109778,0.3658389 -1.638672,0.7070312 -0.26656,0.085017 -0.521228,0.1800669 -0.761719,0.2871094 0.147203,-0.1940031 0.31888,-0.401364 0.486328,-0.5605469 0.621687,-0.5912442 1.544922,-0.8964844 1.544922,-0.8964844 -0.04925,-0.00361 -0.10498,-0.00451 -0.167969,-0.00195 z m -3.490234,6.3242188 c 0.05626,-4.269e-4 0.109984,0.00409 0.160156,0.011719 0.05017,0.00763 0.09646,0.017423 0.136719,0.029297 0.02013,0.00594 0.03775,0.013246 0.05469,0.019531 0.01501,0.00567 0.03294,0.01202 0.04492,0.017578 4.9e-4,2.254e-4 0.0015,-2.25e-4 0.002,0 0.02654,0.012315 0.04374,0.024253 0.05273,0.033203 0.01701,0.016872 0.03324,0.035604 0.04687,0.054687 0.01108,0.015505 0.02034,0.032023 0.0293,0.048829 0.0018,0.0035 0.0041,0.0063 0.0059,0.0098 0.0018,0.0037 0.0022,0.008 0.0039,0.01172 0.0085,0.0181 0.01712,0.03539 0.02344,0.05469 0.0074,0.0227 0.01298,0.0462 0.01758,0.07031 0.0091,0.04762 0.01265,0.09883 0.01172,0.150391 -1.2e-5,6.52e-4 1.3e-5,0.0013 0,0.002 -0.0043,0.209015 -0.08489,0.441013 -0.195313,0.628906 -0.02761,0.04697 -0.05726,0.09056 -0.08789,0.130859 -0.01244,0.01631 -0.02637,0.0332 -0.04297,0.05078 -0.0018,0.0024 -0.0041,0.0055 -0.0059,0.0078 -0.01383,0.01824 -0.03154,0.03651 -0.05273,0.05664 -0.02054,0.01951 -0.04349,0.04125 -0.07031,0.06055 -4.32e-4,3.11e-4 -0.0015,-3.12e-4 -0.002,0 -0.02692,0.01927 -0.05727,0.03763 -0.08984,0.05469 -0.03308,0.01733 -0.06915,0.03388 -0.107421,0.04687 -0.04602,0.0206 -0.09467,0.03989 -0.146485,0.05469 -0.03886,0.0111 -0.07929,0.01865 -0.121094,0.02539 -0.0052,8.62e-4 -0.01037,0.0012 -0.01562,0.002 -0.0149,0.0022 -0.02968,0.0043 -0.04492,0.0059 -0.04313,0.0043 -0.08714,0.0073 -0.132813,0.0059 -0.0187,-5.08e-4 -0.03754,-0.0023 -0.05664,-0.0039 -0.0052,-4.49e-4 -0.0104,-0.0014 -0.01562,-0.002 -0.04688,-0.0048 -0.09552,-0.01152 -0.144532,-0.02344 0,0 -0.02446,-0.04059 -0.05469,-0.107422 -0.0048,-0.0104 -0.0047,-0.0076 -0.0098,-0.01953 -0.0021,-0.0048 -0.0038,-0.01059 -0.0059,-0.01563 -0.01522,-0.03679 -0.03087,-0.07854 -0.04492,-0.126953 -0.01597,-0.05504 -0.03067,-0.116484 -0.03906,-0.183594 -0.0028,-0.02219 -0.0044,-0.04508 -0.0059,-0.06836 -8.04e-4,-0.01256 -0.0016,-0.02426 -0.002,-0.03711 -0.0011,-0.03536 -7.45e-4,-0.07204 0.002,-0.109374 4.6e-5,-6.23e-4 -4.7e-5,-0.0013 0,-0.002 0.0028,-0.03802 0.0081,-0.07557 0.01563,-0.115234 0.0075,-0.03967 0.01819,-0.08017 0.03125,-0.121094 0.01306,-0.04092 0.02943,-0.08322 0.04883,-0.125 0.01939,-0.04178 0.04183,-0.08275 0.06836,-0.125 0.02072,-0.03299 0.04481,-0.06655 0.07031,-0.09961 0.0136,-0.01762 0.02792,-0.03514 0.04297,-0.05274 0.02903,-0.03397 0.05903,-0.06781 0.09375,-0.101562 0.03637,-0.035288 0.07586,-0.06486 0.115234,-0.089844 0.006,-0.00376 0.01155,-0.00818 0.01758,-0.011719 0.04152,-0.024623 0.08382,-0.043464 0.126953,-0.058594 0.09059,-0.031778 0.183966,-0.044257 0.271485,-0.044922 z" /></g></g><g
   id="thunderbird"
   transform="translate(-60.865536)"><rect
     style="opacity:0.00100002"
     width="32"
     height="32"
     x="60.865536"
     y="0"
     id="rect29797" /><path
     id="path29799"
     style="fill:#ffffff;fill-opacity:1"
     d="m 74.884766,4.5859375 c -0.01179,1.265e-4 -0.02376,0.00133 -0.03711,0.00195 -0.320299,0.014916 -1.093558,0.1783871 -2.154297,1.2441406 -0.118376,0.1190255 -0.227757,0.2420046 -0.333984,0.3671876 -4.12206,0.997216 -7.072266,3.659107 -7.072266,6.7871093 0,0.613425 -0.18745,1.289061 0.01563,1.962891 -0.08113,1.076243 0.0918,4.011719 0.0918,4.011719 0,0 1.115488,6.039922 5.40625,7.089843 0.06818,0.01636 -0.897513,-1.504699 -1.324219,-3.339843 0.830753,0.845 1.820311,1.513118 2.931641,1.628906 0.131773,0.01362 -0.582355,-0.835842 -1.240234,-1.876953 l -5.103516,-1.697266 c -0.426505,-1.323747 -0.612629,-2.875133 -0.503906,-4.6875 0.252459,0.484036 1.033061,0.884157 1.517578,0.892578 -0.583739,-0.550152 -1.807517,-3.263995 -0.08398,-5.691406 1.265742,1.848543 5.271782,7.849609 5.521484,7.849609 0.0015,0 0.0048,4.81e-4 0.0059,0 1.693065,-0.603309 6.134,-2.133656 9.175782,-3.179687 -0.01601,2.435807 -0.623047,3.365234 -0.623047,3.365234 0,0 2.066456,-0.793018 3.05664,-3.34375 0.04645,0.123142 0.08056,0.246284 0.107422,0.369141 L 82.1856,25.068356 c 3.623904,-1.572455 3.280834,-1.536731 4.265625,-2.603515 2.412222,-2.611204 2.748442,-4.092405 2.140625,-8.466797 C 88.180899,11.04517 86.001581,8.1203163 83.599609,7.1542969 82.106536,6.1790921 80.198218,5.8641919 79.144531,5.7539062 c -1.127902,-0.1178913 -2.10909,-0.097176 -2.970703,0.029297 -0.07303,-9.637e-4 -0.145394,-0.00391 -0.21875,-0.00391 -0.05603,0 -0.109662,0.00131 -0.166016,0.00195 0.02316,-0.028337 0.03906,-0.044922 0.03906,-0.044922 0,0 -0.04586,0.00656 -0.134766,0.046875 -0.279658,0.00454 -0.557876,0.01442 -0.832031,0.033203 0.382014,-0.4187757 0.695313,-0.6386718 0.695313,-0.6386718 0,0 -0.372915,0.055526 -1.050782,0.6699218 -0.322425,0.029636 -0.640575,0.068282 -0.953125,0.1171876 0.71237,-0.9638646 1.458985,-1.3691407 1.458985,-1.3691407 0,0 -0.04446,-0.010651 -0.126953,-0.00977 z m -3.451172,5.2402344 c 0.225048,-0.00171 0.415192,0.075529 0.451172,0.1113281 0.205043,0.203341 0.159784,0.576904 0.01953,0.886719 l 10.089844,1.59375 c -0.195045,0.665384 -0.374782,1.563795 -0.322266,2.529297 0.0079,0.146011 0.01343,0.28422 0.01758,0.421875 -3.426857,1.288698 -7.424419,2.749303 -9.119141,3.199218 -0.234013,0.06229 -4.697684,-6.677222 -5.349609,-7.580078 0.276101,-0.330656 0.570427,-0.584532 0.876953,-0.777343 l 0.423828,0.07812 2.041016,0.322266 c 0.04369,-0.186548 0.139034,-0.384905 0.339844,-0.580078 0.159689,-0.1549468 0.356212,-0.2037481 0.53125,-0.2050781 z" /><polygon
     transform="matrix(0.2092314,0,0,0.2092314,64.151808,3.5000905)"
     id="polygon29801"
     points="9.396,84.237 83.153,108.76 82.338,106.86 9.1375,82.526 "
     style="fill:#ffffff;fill-opacity:1" /><path
     id="path29803"
     style="fill:#ffffff;fill-opacity:1;fill-rule:evenodd;stroke-width:0.209231"
     d="m 75.087891,3.5039062 c 0,1e-7 -1.883211,0.4787294 -2.34375,1.4628907 -5.335762,1.5432741 -8.591797,6.0549431 -8.591797,11.0058591 0,7.028905 5.534784,9.950517 6.648437,10.078125 -3.407849,-1.638487 -5.555859,-4.711333 -5.240234,-9.972656 0.252459,0.484036 1.033061,0.884157 1.517578,0.892578 -1.790336,-3.978103 0.40358,-5.969233 1.880859,-6.806641 0.02419,0.222781 0.06605,0.452697 0.119141,0.69336 0.08551,0.385423 0.172486,0.569872 0.06836,0.96289 -0.05749,0.216827 -0.04773,0.418952 -0.11914,0.546876 -0.09862,0.176836 -0.22546,0.370096 -0.267578,0.6875 -0.10526,0.792692 0.176187,1.045793 0.351562,1.3125 0.249865,-0.248086 0.737539,-0.832999 1.617188,-1.181641 0.879816,-0.348663 1.457878,-0.872968 2.560546,-1.435547 1.506526,-0.768401 3.27298,0.397905 6.621094,-0.699219 0.07137,-0.02339 0.151215,-0.06555 0.234375,-0.117187 0.342501,0.429935 0.604007,0.869436 0.798828,1.251953 0.518537,1.018767 0.730469,2.810547 0.730469,2.810547 0.162614,3.152454 -0.599609,4.318359 -0.599609,4.318359 0,0 0.80385,-0.309887 1.648437,-1.160156 -0.0057,0.660261 -0.165568,2.401108 -1.583984,4.107422 0,0 0.733772,-0.205292 1.560547,-0.607422 -0.454125,2.128309 -1.678341,4.671056 -5.638672,6.597656 0,0 3.331659,-0.272079 4.984375,-2.132812 C 81.372703,27.664855 79.529297,28.5 79.529297,28.5 c 1.357366,-0.198537 4.922157,-1.251571 7.193359,-4.091797 2.570403,-3.215044 3.344259,-6.230257 2.570313,-10.273437 -0.236904,-1.258781 -0.736628,-2.48491 -1.404297,-3.601563 -0.0651,-0.111692 -0.1337,-0.225252 -0.208984,-0.339844 -0.0022,-0.0033 -0.0057,-0.0084 -0.0078,-0.01172 C 87.502541,9.9182852 87.323275,9.6626569 87.136719,9.4140625 85.703719,7.4581413 84.616728,6.8234401 84.447266,6.7324219 84.245715,6.5918576 84.043601,6.4612589 83.847656,6.3398438 82.003662,5.196396 80.818359,5.0351563 80.818359,5.0351562 c 0,0 -0.104908,0.020363 -0.228515,0.048828 -0.887403,-0.2910169 -1.729364,-0.4365727 -2.328125,-0.4824219 -0.78505,-0.060255 -1.506926,-0.057335 -2.173828,-0.00391 0.144729,-0.072032 0.235518,-0.135934 0.228515,-0.1875 -0.192514,0.00635 -0.383393,0.018118 -0.572265,0.03125 0.0056,-0.021779 0.0078,-0.029297 0.0078,-0.029297 -0.05119,5.491e-4 -0.107284,0.014731 -0.183594,0.041016 -0.181307,0.014683 -0.359284,0.031914 -0.537109,0.052734 0.241096,-0.4510375 0.423828,-0.5390625 0.423828,-0.5390625 -0.236745,0.02833 -0.736635,0.2642484 -1.599609,0.6992187 0.373603,-0.7489632 1.232422,-1.1621093 1.232422,-1.1621094 z m -6.148438,6.3125 c 2.5e-5,0.00459 -4.8e-5,0.00908 0,0.013672 l -0.06445,0.00977 c 0.02151,-0.0076 0.04292,-0.01619 0.06445,-0.023438 z m 2.494141,0.00977 c 0.225048,-0.00171 0.415192,0.075529 0.451172,0.1113281 0.272209,0.2699497 0.100482,0.8396847 -0.144532,1.1621087 -0.01244,0.01631 -0.02637,0.0332 -0.04297,0.05078 -0.0018,0.0024 -0.0041,0.0055 -0.0059,0.0078 -0.05448,0.07184 -0.169183,0.16675 -0.322265,0.21875 -0.184073,0.08239 -0.416328,0.128023 -0.677735,0.06445 0,0 -0.480697,-0.737938 0.210938,-1.410156 0.159689,-0.1549465 0.356212,-0.2037478 0.53125,-0.2050778 z" /><path
     id="path29805"
     style="fill:#ffffff;fill-opacity:1;fill-rule:evenodd;stroke-width:0.209231"
     d="m 74.923828,3.5019531 c -0.944837,0.038307 -3.355923,0.8187943 -4.84375,3.8320313 -0.260075,0.3169218 -0.503133,0.642915 -0.734375,0.96875 -0.596914,0.8406263 -0.531993,1.6125279 -0.326172,2.5449216 0.07358,0.333822 0.09622,0.833398 0.05078,1.228516 -0.0027,-0.01123 -0.0039,-0.01758 -0.0039,-0.01758 -0.0092,0.08259 -0.01782,0.160842 -0.0332,0.232422 -0.0022,0.01028 -0.0077,0.02426 -0.01563,0.03906 -0.0016,0.0032 -0.004,0.0063 -0.0059,0.0098 -0.0605,0.107357 -0.231904,0.332671 -0.28125,0.820312 -0.06202,0.607922 0.166935,0.960077 0.380859,1.207032 0.664976,-0.972353 1.31314,-1.303487 1.464844,-1.371094 0.0082,-0.0028 0.03906,-0.01563 0.03906,-0.01563 1.063639,-0.435782 1.506002,-0.899604 2.644532,-1.480469 1.555588,-0.793653 6.99447,1.796817 10.451172,0.664062 1.063769,-0.348493 -0.40884,-4.8766952 0.171874,-5.0156245 C 82.266338,5.3612931 79.918446,4.572167 78.501953,4.3886719 77.028634,4.1977467 75.796991,4.2357245 74.75,4.4375 c 0.329225,-0.3156249 0.710938,-0.4707031 0.710938,-0.4707031 -0.493743,0.043563 -1.109778,0.3658389 -1.638672,0.7070312 -0.26656,0.085017 -0.521228,0.1800669 -0.761719,0.2871094 0.147203,-0.1940031 0.31888,-0.401364 0.486328,-0.5605469 0.621687,-0.5912442 1.544922,-0.8964844 1.544922,-0.8964844 -0.04925,-0.00361 -0.10498,-0.00451 -0.167969,-0.00195 z m -3.490234,6.3242188 c 0.05626,-4.269e-4 0.109984,0.00409 0.160156,0.011719 0.05017,0.00763 0.09646,0.017423 0.136719,0.029297 0.02013,0.00594 0.03775,0.013246 0.05469,0.019531 0.01501,0.00567 0.03294,0.01202 0.04492,0.017578 4.9e-4,2.254e-4 0.0015,-2.25e-4 0.002,0 0.02654,0.012315 0.04374,0.024253 0.05273,0.033203 0.01701,0.016872 0.03324,0.035604 0.04687,0.054687 0.01108,0.015505 0.02034,0.032023 0.0293,0.048829 0.0018,0.0035 0.0041,0.0063 0.0059,0.0098 0.0018,0.0037 0.0022,0.008 0.0039,0.01172 0.0085,0.0181 0.01712,0.03539 0.02344,0.05469 0.0074,0.0227 0.01298,0.0462 0.01758,0.07031 0.0091,0.04762 0.01265,0.09883 0.01172,0.150391 -1.2e-5,6.52e-4 1.3e-5,0.0013 0,0.002 -0.0043,0.209015 -0.08489,0.441013 -0.195313,0.628906 -0.02761,0.04697 -0.05726,0.09056 -0.08789,0.130859 -0.01244,0.01631 -0.02637,0.0332 -0.04297,0.05078 -0.0018,0.0024 -0.0041,0.0055 -0.0059,0.0078 -0.01383,0.01824 -0.03154,0.03651 -0.05273,0.05664 -0.02054,0.01951 -0.04349,0.04125 -0.07031,0.06055 -4.32e-4,3.11e-4 -0.0015,-3.12e-4 -0.002,0 -0.02692,0.01927 -0.05727,0.03763 -0.08984,0.05469 -0.03308,0.01733 -0.06915,0.03388 -0.107421,0.04687 -0.04602,0.0206 -0.09467,0.03989 -0.146485,0.05469 -0.03886,0.0111 -0.07929,0.01865 -0.121094,0.02539 -0.0052,8.62e-4 -0.01037,0.0012 -0.01562,0.002 -0.0149,0.0022 -0.02968,0.0043 -0.04492,0.0059 -0.04313,0.0043 -0.08714,0.0073 -0.132813,0.0059 -0.0187,-5.08e-4 -0.03754,-0.0023 -0.05664,-0.0039 -0.0052,-4.49e-4 -0.0104,-0.0014 -0.01562,-0.002 -0.04688,-0.0048 -0.09552,-0.01152 -0.144532,-0.02344 0,0 -0.02446,-0.04059 -0.05469,-0.107422 -0.0048,-0.0104 -0.0047,-0.0076 -0.0098,-0.01953 -0.0021,-0.0048 -0.0038,-0.01059 -0.0059,-0.01563 -0.01522,-0.03679 -0.03087,-0.07854 -0.04492,-0.126953 -0.01597,-0.05504 -0.03067,-0.116484 -0.03906,-0.183594 -0.0028,-0.02219 -0.0044,-0.04508 -0.0059,-0.06836 -8.04e-4,-0.01256 -0.0016,-0.02426 -0.002,-0.03711 -0.0011,-0.03536 -7.45e-4,-0.07204 0.002,-0.109374 4.6e-5,-6.23e-4 -4.7e-5,-0.0013 0,-0.002 0.0028,-0.03802 0.0081,-0.07557 0.01563,-0.115234 0.0075,-0.03967 0.01819,-0.08017 0.03125,-0.121094 0.01306,-0.04092 0.02943,-0.08322 0.04883,-0.125 0.01939,-0.04178 0.04183,-0.08275 0.06836,-0.125 0.02072,-0.03299 0.04481,-0.06655 0.07031,-0.09961 0.0136,-0.01762 0.02792,-0.03514 0.04297,-0.05274 0.02903,-0.03397 0.05903,-0.06781 0.09375,-0.101562 0.03637,-0.035288 0.07586,-0.06486 0.115234,-0.089844 0.006,-0.00376 0.01155,-0.00818 0.01758,-0.011719 0.04152,-0.024623 0.08382,-0.043464 0.126953,-0.058594 0.09059,-0.031778 0.183966,-0.044257 0.271485,-0.044922 z" /></g></svg>
