<?xml version="1.0" encoding="UTF-8" standalone="no"?>
<svg
   width="32"
   height="32"
   x="0"
   y="0"
   version="1.1"
   xml:space="preserve"
   id="svg16"
   sodipodi:docname="thunderbird.svg"
   inkscape:version="1.4 (e7c3feb100, 2024-10-09)"
   xmlns:inkscape="http://www.inkscape.org/namespaces/inkscape"
   xmlns:sodipodi="http://sodipodi.sourceforge.net/DTD/sodipodi-0.dtd"
   xmlns:xlink="http://www.w3.org/1999/xlink"
   xmlns="http://www.w3.org/2000/svg"
   xmlns:svg="http://www.w3.org/2000/svg"
   xmlns:rdf="http://www.w3.org/1999/02/22-rdf-syntax-ns#"
   xmlns:cc="http://creativecommons.org/ns#"
   xmlns:dc="http://purl.org/dc/elements/1.1/"><metadata
   id="metadata22"><rdf:RDF><cc:Work
       rdf:about=""><dc:format>image/svg+xml</dc:format><dc:type
         rdf:resource="http://purl.org/dc/dcmitype/StillImage" /></cc:Work></rdf:RDF></metadata><defs
   id="defs20">
  <linearGradient
   id="linearGradient-1"
   x1="93.544998"
   x2="18.601999"
   y1="104.29"
   y2="21.722"
   gradientTransform="matrix(0.47860022,0,0,0.43436948,-9.2078203,-59.414856)"
   gradientUnits="userSpaceOnUse"><stop
     stop-color="#130036"
     offset="0"
     id="stop1393" /><stop
     stop-color="#18023B"
     offset=".2297"
     id="stop1395" /><stop
     stop-color="#26094A"
     offset=".5122"
     id="stop1397" /><stop
     stop-color="#3D1563"
     offset=".8211"
     id="stop1399" /><stop
     stop-color="#4E1D75"
     offset="1"
     id="stop1401" /></linearGradient><linearGradient
   id="linearGradient-2"
   x1="6.1662998"
   x2="34.738998"
   y1="38.339001"
   y2="38.339001"
   gradientTransform="matrix(0.37269447,0,0,0.557797,-9.2078203,-59.414856)"
   gradientUnits="userSpaceOnUse"><stop
     stop-color="#3156A8"
     offset="0"
     id="stop1404" /><stop
     stop-color="#3351A4"
     offset=".2474"
     id="stop1406" /><stop
     stop-color="#3B4397"
     offset=".5365"
     id="stop1408" /><stop
     stop-color="#472C82"
     offset=".8453"
     id="stop1410" /><stop
     stop-color="#4E1D75"
     offset="1"
     id="stop1412" /></linearGradient><radialGradient
   id="radialGradient-3"
   cx="38.772999"
   cy="42.032001"
   r="55.952"
   gradientTransform="matrix(0.34183646,0,0,0.60813277,-9.2078203,-59.414856)"
   gradientUnits="userSpaceOnUse"><stop
     stop-color="#14CDDA"
     offset=".1654"
     id="stop1415" /><stop
     stop-color="#2061BD"
     offset=".5478"
     id="stop1417" /><stop
     stop-color="#2658AC"
     offset=".6546"
     id="stop1419" /><stop
     stop-color="#373F81"
     offset=".864"
     id="stop1421" /><stop
     stop-color="#432D62"
     offset="1"
     id="stop1423" /></radialGradient><linearGradient
   id="linearGradient1008"
   x1="0.19829001"
   x2="58.432999"
   y1="29.618"
   y2="29.618"
   gradientTransform="scale(1.242,0.80516)"
   gradientUnits="userSpaceOnUse"
   xlink:href="#linearGradient-4" /><linearGradient
   id="linearGradient-4"
   x1="1.1634e-05"
   y1="0.49998999"
   y2="0.49998999"><stop
     stop-color="#2061BD"
     offset="0"
     id="stop1427" /><stop
     stop-color="#2B51AC"
     offset=".1846"
     id="stop1429" /><stop
     stop-color="#442C84"
     offset=".6826"
     id="stop1431" /><stop
     stop-color="#4E1D75"
     offset=".9409"
     id="stop1433" /></linearGradient><linearGradient
   id="linearGradient1745"
   x1="1.1634e-05"
   y1="0.49998999"
   y2="0.49998999"><stop
     stop-color="#2061BD"
     offset="0"
     id="stop1737" /><stop
     stop-color="#2B51AC"
     offset=".1846"
     id="stop1739" /><stop
     stop-color="#442C84"
     offset=".6826"
     id="stop1741" /><stop
     stop-color="#4E1D75"
     offset=".9409"
     id="stop1743" /></linearGradient><linearGradient
   id="linearGradient-5"
   x1="27.301001"
   x2="69.007004"
   y1="13.621"
   y2="65.202003"
   gradientTransform="matrix(0.54384523,0,0,0.38225098,-9.2078203,-59.414856)"
   gradientUnits="userSpaceOnUse"><stop
     stop-color="#48A8E0"
     offset=".0202"
     id="stop1436" /><stop
     stop-color="#2061BD"
     offset=".3883"
     id="stop1438" /><stop
     stop-color="#2B51AC"
     offset=".4968"
     id="stop1440" /><stop
     stop-color="#442C84"
     offset=".7892"
     id="stop1442" /><stop
     stop-color="#4E1D75"
     offset=".9409"
     id="stop1444" /></linearGradient><linearGradient
   id="linearGradient-6"
   x1="12.234"
   x2="135.44"
   y1="131.42"
   y2="16.993999"
   gradientTransform="matrix(0.36086739,0,0,0.57608019,-9.2078203,-59.414856)"
   gradientUnits="userSpaceOnUse"><stop
     stop-color="#3156A8"
     offset=".3787"
     id="stop1447" /><stop
     stop-color="#4E1D75"
     offset="1"
     id="stop1449" /></linearGradient><linearGradient
   id="linearGradient-7"
   x1="55.195999"
   x2="117.71"
   y1="118.27"
   y2="13.812"
   gradientTransform="matrix(0.39326193,0,0,0.52861684,-9.2078203,-59.414856)"
   gradientUnits="userSpaceOnUse"><stop
     stop-color="#29ABE2"
     offset="0"
     id="stop1452" /><stop
     stop-color="#385AA6"
     offset=".7733"
     id="stop1454" /><stop
     stop-color="#414293"
     offset=".8575"
     id="stop1456" /><stop
     stop-color="#4E1D75"
     offset="1"
     id="stop1458" /></linearGradient><linearGradient
   id="linearGradient-8"
   x1="26.261"
   x2="29.51"
   y1="40.964001"
   y2="42.493"
   gradientTransform="matrix(0.41239773,0,0,0.50408726,-9.2078203,-59.414856)"
   gradientUnits="userSpaceOnUse"><stop
     stop-color="#B0DCD6"
     offset="0"
     id="stop1461" /><stop
     stop-color="#53ACE0"
     offset="1"
     id="stop1463" /></linearGradient><linearGradient
   id="linearGradient1016"
   x1="4.6623001"
   x2="0.73539001"
   y1="4.2711"
   y2="2.4033"
   gradientTransform="scale(1.5005,0.66645)"
   gradientUnits="userSpaceOnUse"
   xlink:href="#linearGradient-9" /><linearGradient
   id="linearGradient-9"
   x1="0.90678"
   x2="0.10458"
   y1="0.71357"
   y2="0.33201"><stop
     stop-color="#3092B9"
     offset="0"
     id="stop1467" /><stop
     stop-color="#258DB6"
     offset=".2199"
     id="stop1469" /><stop
     stop-color="#1685B1"
     offset=".6564"
     id="stop1471" /><stop
     stop-color="#1082AF"
     offset="1"
     id="stop1473" /></linearGradient><linearGradient
   id="linearGradient-10"
   x1="40.854"
   x2="45.837002"
   y1="18.208"
   y2="37.132"
   gradientTransform="matrix(0.44365698,0,0,0.46856954,-9.2078203,-59.414856)"
   gradientUnits="userSpaceOnUse"><stop
     stop-color="#1398D1"
     stop-opacity="0"
     offset=".0074"
     id="stop1476" /><stop
     stop-color="#1187C2"
     stop-opacity=".6197"
     offset=".2482"
     id="stop1478" /><stop
     stop-color="#3F6499"
     stop-opacity=".71"
     offset=".6422"
     id="stop1480" /><stop
     stop-color="#2F4282"
     stop-opacity=".5"
     offset="1"
     id="stop1482" /></linearGradient><linearGradient
   id="linearGradient-11"
   x1="37.583"
   x2="34.780998"
   y1="34.328999"
   y2="32.799"
   gradientTransform="matrix(0.43459289,0,0,0.47832665,-9.2078203,-59.414856)"
   gradientUnits="userSpaceOnUse"><stop
     stop-color="#F9C21B"
     offset="0"
     id="stop1485" /><stop
     stop-color="#F3BA1B"
     offset=".1479"
     id="stop1487" /><stop
     stop-color="#E3A41B"
     offset=".3787"
     id="stop1489" /><stop
     stop-color="#C9801C"
     offset=".6634"
     id="stop1491" /><stop
     stop-color="#A44E1C"
     offset=".9884"
     id="stop1493" /><stop
     stop-color="#A34C1C"
     offset="1"
     id="stop1495" /></linearGradient><linearGradient
   id="linearGradient-12"
   x1="130.82001"
   x2="107.49"
   y1="49.676998"
   y2="18.142"
   gradientTransform="matrix(0.35367266,0,0,0.58779785,-9.2078203,-59.414856)"
   gradientUnits="userSpaceOnUse"><stop
     stop-color="#409EC3"
     offset="0"
     id="stop1498" /><stop
     stop-color="#2061BD"
     offset=".62"
     id="stop1500" /></linearGradient><linearGradient
   id="linearGradient-13"
   x1="81.893997"
   x2="69.683998"
   y1="53.868"
   y2="11.475"
   gradientTransform="matrix(0.48429947,0,0,0.42926295,-9.2078203,-59.414856)"
   gradientUnits="userSpaceOnUse"><stop
     stop-color="#14B2DA"
     offset="0"
     id="stop1503" /><stop
     stop-color="#297CCC"
     offset=".4028"
     id="stop1505" /><stop
     stop-color="#256FC5"
     offset=".5077"
     id="stop1507" /><stop
     stop-color="#2164BF"
     offset=".6492"
     id="stop1509" /><stop
     stop-color="#2061BD"
     offset=".8162"
     id="stop1511" /><stop
     stop-color="#2061BD"
     offset=".9835"
     id="stop1513" /></linearGradient></defs><sodipodi:namedview
   pagecolor="#d7d7d7"
   bordercolor="#666666"
   borderopacity="1"
   objecttolerance="10"
   gridtolerance="10"
   guidetolerance="10"
   inkscape:pageopacity="0"
   inkscape:pageshadow="2"
   inkscape:window-width="1920"
   inkscape:window-height="952"
   id="namedview18"
   showgrid="true"
   inkscape:zoom="5.6568543"
   inkscape:cx="11.313708"
   inkscape:cy="30.228815"
   inkscape:window-x="0"
   inkscape:window-y="34"
   inkscape:window-maximized="1"
   inkscape:current-layer="svg16"
   inkscape:document-rotation="0"
   inkscape:showpageshadow="0"
   inkscape:pagecheckerboard="0"
   inkscape:deskcolor="#d1d1d1"><inkscape:grid
     id="grid5"
     units="px"
     originx="0"
     originy="0"
     spacingx="1"
     spacingy="1"
     empcolor="#0099e5"
     empopacity="0.30196078"
     color="#0099e5"
     opacity="0.14901961"
     empspacing="5"
     enabled="true"
     visible="true" /></sodipodi:namedview>
  <g
   id="thunderbird"><rect
     style="opacity:0.00100002"
     width="32"
     height="32"
     x="-2.6391601e-07"
     y="0"
     id="rect29797" /><g
     id="g7"
     transform="translate(0.12434152,-31.695312)"><path
       id="path1"
       style="color:#000000;fill:#ffffff;stroke-width:0.5;-inkscape-stroke:none"
       d="m 15.137377,37.134765 -0.333984,0.04687 c 0,0 -0.07733,0.0247 -0.142578,0.04687 -0.03983,7.18e-4 -0.07933,0.003 -0.119141,0.0039 0.01942,-0.01497 0.05312,-0.04773 0.09375,-0.08594 l -0.0293,0.002 c -0.152053,0.01282 -0.300066,0.02769 -0.447265,0.04492 l -0.703125,0.08203 c -0.01172,0.01005 -0.02136,0.0151 -0.0332,0.02539 -0.04743,0.0046 -0.09336,0.01262 -0.140625,0.01758 0.01253,-0.01134 0.01702,-0.01617 0.0293,-0.02734 l -0.09766,0.01172 -2.585937,1.304687 0.216796,-0.435546 c -2.3395208,0.967083 -4.106033,2.53449 -5.226562,4.492187 0.4950975,-0.620589 1.0142407,-1.111233 1.5390625,-1.441406 l -0.2070313,0.287109 h 0.019531 l -0.00391,0.0059 0.484375,-0.002 c 3.8e-6,5.4e-5 -1.4e-6,-0.0022 0,-0.002 h 0.015625 l -0.00195,0.002 h 0.1328125 c 0.0012,-7.12e-4 0.0027,-0.0012 0.00391,-0.002 h 0.1835937 l -0.00195,-0.0039 0.1464844,-0.002 -0.044922,-0.175781 0.041016,-0.02344 -0.064453,-0.259765 -0.035156,0.04297 -0.013672,-0.05078 0.044922,-0.0078 -0.056641,-0.226563 1,-0.566406 0.1328125,1.226562 c 0.093121,-0.154958 0.1430698,-0.320831 0.2832031,-0.457031 0.3786519,-0.367407 0.8654998,-0.485581 1.2207028,-0.488281 l 0.199219,-0.002 0.113281,0.04492 c 0.08978,0.01447 0.196118,0.01633 0.273438,0.03906 0.08281,0.02434 0.159234,0.05226 0.240234,0.08984 0.081,0.03758 0.144152,0.03771 0.337891,0.230469 0.458821,0.456456 0.4738,1.047209 0.40039,1.449218 -0.01145,0.06271 -0.05498,0.100986 -0.07031,0.160157 1.045529,-0.497611 2.058025,-0.36746 3.044922,-0.3125 1.007125,0.05609 2.095413,0.07288 3.603515,-0.416016 -0.0057,0.0026 0.0028,-4.56e-4 0.03125,-0.0098 -0.01002,0.0033 -0.01931,0.0046 -0.0293,0.0078 0.0066,-0.003 0.02465,-0.0096 0.04687,-0.02344 l 0.755859,-0.46875 0.552734,0.695313 c 0.394879,0.495684 0.689728,0.992915 0.908203,1.421875 0.683581,1.343028 0.832032,3.146484 0.832032,3.146484 l 0.0039,0.0332 0.002,0.0332 c 0.04694,0.910061 -0.07954,1.352036 -0.144531,1.988282 l 1.216797,-1.226563 -0.01367,1.457031 c 0.02889,-0.04527 0.0596,-0.08595 0.08789,-0.132812 l -0.08984,0.378906 -0.0059,0.751953 c -0.0036,0.419908 -0.08944,1.174029 -0.36914,2.0625 l 0.751953,-0.365234 -0.427735,2.003906 c -0.232942,1.091713 -0.712012,2.308791 -1.5625,3.507813 l 0.169922,-0.07422 c 1.813959,-0.787098 2.63943,-1.168886 3.160157,-1.509766 0.520728,-0.340879 0.705929,-0.628562 1.189453,-1.152343 0.195822,-0.211976 0.374393,-0.41624 0.544922,-0.617188 1.4068,-2.353025 1.719507,-4.620151 1.130859,-7.695312 v -0.002 c -0.211459,-1.12358 -0.664306,-2.244885 -1.279297,-3.273437 l -0.0039,-0.0059 -0.002,-0.0039 c -0.05848,-0.10033 -0.117215,-0.196642 -0.177735,-0.289062 0.0045,0.0068 -0.0044,-0.005 -0.01758,-0.02539 -0.154927,-0.240929 -0.320525,-0.477634 -0.49414,-0.708984 l -0.002,-0.0039 -0.0039,-0.0039 C 23.989031,39.854577 23.017643,39.32415 22.985033,39.30664 l -0.05078,-0.02734 -0.04883,-0.0332 C 22.702778,39.118714 22.515478,38.997285 22.330737,38.882812 20.67502,37.856116 19.850648,37.767565 19.787768,37.759765 l -0.234375,0.05469 -0.265625,-0.08594 c -0.803253,-0.263421 -1.582525,-0.396547 -2.091797,-0.435547 v -0.002 c -0.735949,-0.05648 -1.405057,-0.05299 -2.017578,-0.0039 z m -7.3378904,3.400391 -0.050781,0.06055 -0.013672,-0.05078 z m -0.1679687,0.02734 -0.064453,0.08984 -0.015625,-0.0625 c -0.00513,0.0018 0.022165,-0.0078 0.080078,-0.02734 z m 0.1582031,0.472656 -0.056641,0.08008 -0.013672,-0.05273 c 0.00819,-0.0029 0.030591,-0.01396 0.070312,-0.02734 z m -3.09375,3.503906 c -0.059975,0.228707 -0.1052465,0.468154 -0.1347656,0.716797 0.042352,-0.240158 0.078904,-0.481441 0.1347656,-0.716797 z m -0.1347656,0.716797 c -0.014624,0.08292 -0.02691,0.165607 -0.044922,0.248047 l 0.017578,0.03125 c 0.00656,-0.09502 0.016404,-0.187149 0.027344,-0.279297 z m 4.5585937,1.21875 c -0.099118,0.09788 -0.1946514,0.197304 -0.2929687,0.294922 l -0.3242188,0.320312 c 0.1373053,0.202807 0.271622,0.401433 0.4375,0.642578 0.596062,0.866527 1.1606664,1.674439 1.5937504,2.269532 0.216543,0.297546 0.39985,0.54261 0.541015,0.716797 0.07058,0.08709 0.130315,0.156381 0.183594,0.210937 0.02664,0.02728 0.05085,0.05041 0.08203,0.07422 0.03118,0.02381 0.05257,0.06836 0.185547,0.06836 0.0073,1.9e-5 0.01531,1.4e-5 0.01563,0 2.44e-4,-1.1e-5 0.03105,-0.0039 0.03125,-0.0039 1.98e-4,-3.3e-5 0.05846,-0.01752 0.05859,-0.01758 l -0.01563,0.0078 c 1.498414,-0.533947 5.129189,-1.786144 8.060547,-2.794922 0.01836,-0.324389 0.02522,-0.689584 0.01563,-1.095703 -3.144277,1.174443 -6.520884,2.394402 -8.0625,2.8125 -0.03439,-0.0374 -0.07053,-0.07917 -0.125,-0.146484 -0.14022,-0.173285 -0.334989,-0.433231 -0.564453,-0.75 -0.458922,-0.633532 -1.0590904,-1.4984 -1.6718754,-2.392578 -0.052706,-0.07691 -0.1000812,-0.145604 -0.1484375,-0.216797 z m -2.875,6.111328 c 0.6297769,1.7164 1.729041,2.94324 3.2109375,3.830078 -0.1482759,-0.369955 -0.2923074,-0.831787 -0.4394531,-1.271484 0.707482,0.57177 1.4809265,1.043363 2.3769535,1.136719 0.03429,0.0035 0.08547,0.0049 0.146484,-0.02539 0.06101,-0.03034 0.115227,-0.09782 0.132812,-0.152344 0.03517,-0.109039 0.0056,-0.1521 -0.0059,-0.185547 -0.0229,-0.06689 -0.04875,-0.104913 -0.08203,-0.158203 -0.06656,-0.106579 -0.164567,-0.245063 -0.28711,-0.416015 -0.05659,-0.07895 -0.130005,-0.184139 -0.195312,-0.275391 l 7.03125,2.337891 c 0.239125,-0.215861 0.453831,-0.434734 0.644531,-0.654297 l -8.435547,-2.804688 z"
       sodipodi:nodetypes="ccccccccccccccccccccccccccccccccccccccccccccscscccccccccccccccccccccscccccccccccccccccccccccccccccccccccccccccccccssssscsccccccsssccccccscssccccc" /><path
       style="fill:#ffffff;fill-rule:evenodd"
       d="m 14.097657,35.197265 c 0,0 -1.883211,0.47873 -2.34375,1.462891 -5.335762,1.543274 -8.591797,6.054943 -8.591797,11.005859 0,7.028905 5.534784,9.950517 6.648437,10.078125 -3.407849,-1.638487 -5.555859,-4.711333 -5.240234,-9.972656 0.252459,0.484036 1.033061,0.884157 1.517578,0.892578 -1.790336,-3.978103 0.40358,-5.969233 1.880859,-6.806641 0.02419,0.222781 0.06605,0.452697 0.119141,0.69336 0.08551,0.385423 0.172486,0.569872 0.06836,0.96289 -0.05749,0.216827 -0.04773,0.418952 -0.11914,0.546876 -0.09862,0.176836 -0.22546,0.370096 -0.267578,0.6875 -0.10526,0.792692 0.176187,1.045793 0.351562,1.3125 0.249865,-0.248086 0.737539,-0.832999 1.617188,-1.181641 0.879816,-0.348663 1.457878,-0.872968 2.560546,-1.435547 1.506526,-0.768401 3.27298,0.397905 6.621094,-0.699219 0.07137,-0.02339 0.151215,-0.06555 0.234375,-0.117187 0.342501,0.429935 0.604007,0.869436 0.798828,1.251953 0.518537,1.018767 0.730469,2.810547 0.730469,2.810547 0.162614,3.152454 -0.599609,4.318359 -0.599609,4.318359 0,0 0.80385,-0.309887 1.648437,-1.160156 -0.0057,0.660261 -0.165568,2.401108 -1.583984,4.107422 0,0 0.733772,-0.205292 1.560547,-0.607422 -0.454125,2.128309 -1.678341,4.671056 -5.638672,6.597656 0,0 3.331659,-0.272079 4.984375,-2.132812 -0.67222,1.545714 -2.515626,2.380859 -2.515626,2.380859 1.357366,-0.198537 4.922157,-1.251571 7.193359,-4.091797 2.570403,-3.215044 3.344259,-6.230257 2.570313,-10.273437 -0.236904,-1.258781 -0.736628,-2.48491 -1.404297,-3.601563 -0.0651,-0.111692 -0.1337,-0.225252 -0.208984,-0.339844 -0.0022,-0.0033 -0.0057,-0.0084 -0.0078,-0.01172 -0.169347,-0.263354 -0.348613,-0.518982 -0.535169,-0.767577 -1.433,-1.955921 -2.519991,-2.590622 -2.689453,-2.68164 -0.201551,-0.140564 -0.403665,-0.271163 -0.59961,-0.392578 -1.843994,-1.143448 -3.029297,-1.304688 -3.029297,-1.304688 0,0 -0.104908,0.02036 -0.228515,0.04883 -0.887403,-0.291017 -1.729364,-0.436572 -2.328125,-0.482422 -0.78505,-0.06026 -1.506926,-0.05734 -2.173828,-0.0039 0.144729,-0.07203 0.235518,-0.135934 0.228515,-0.1875 -0.192514,0.0064 -0.383393,0.01812 -0.572265,0.03125 0.0056,-0.02178 0.0078,-0.0293 0.0078,-0.0293 -0.05119,5.49e-4 -0.107284,0.01473 -0.183594,0.04102 -0.181307,0.01468 -0.359284,0.03191 -0.537109,0.05273 0.241096,-0.451037 0.423828,-0.539062 0.423828,-0.539062 -0.236745,0.02833 -0.736635,0.264248 -1.599609,0.699219 0.373603,-0.748964 1.232422,-1.16211 1.232422,-1.16211 z m -6.148438,6.3125 c 2.5e-5,0.0046 -4.8e-5,0.0091 0,0.01367 l -0.06445,0.0098 c 0.02151,-0.0076 0.04292,-0.01619 0.06445,-0.02344 z m 2.494141,0.0098 c 0.225048,-0.0017 0.415192,0.07553 0.451172,0.111328 0.272209,0.26995 0.100482,0.839685 -0.144532,1.162109 -0.01244,0.01631 -0.02637,0.0332 -0.04297,0.05078 -0.0018,0.0024 -0.0041,0.0055 -0.0059,0.0078 -0.05448,0.07184 -0.169183,0.16675 -0.322265,0.21875 -0.184073,0.08239 -0.416328,0.128023 -0.677735,0.06445 0,0 -0.480697,-0.737938 0.210938,-1.410156 0.159689,-0.154947 0.356212,-0.203748 0.53125,-0.205078 z"
       id="path9" /></g></g><g
   id="22-22-thunderbird"><rect
     style="opacity:0.00100002"
     width="22"
     height="22"
     x="32"
     y="10"
     id="rect2" /><g
     id="g16"
     transform="translate(7.5344902e-7,-29.927642)"><path
       id="path10"
       style="fill:#ffffff;fill-opacity:1;stroke:#ffffff;stroke-width:0.3;stroke-dasharray:none;stroke-opacity:1"
       d="m 42.162109,44 c 0,0 -0.0069,0.0018 -0.0078,0.002 v 0.0039 C 42.154637,44.00562 42.162109,44 42.162109,44 Z m 0.388672,0.515625 c -0.05735,0.003 -0.113488,0.0037 -0.173828,0.0078 -0.0088,6e-4 -0.01649,0.0013 -0.02539,0.002 L 42.25,44.533203 c -0.105783,0.0086 -0.207993,0.01753 -0.308594,0.0293 l -0.535156,0.0625 -2.572266,1.296875 0.169922,-0.339844 c -0.0686,0.04048 -0.156136,0.06105 -0.222656,0.103516 l 0.06055,0.560547 c 0.23594,-0.117173 0.482516,-0.269985 0.673828,-0.271485 0.0043,-3.2e-5 0.0075,10e-7 0.01172,0 4.8e-4,-2.85e-4 0.0015,2.85e-4 0.002,0 0.06735,-0.03986 0.135729,-0.07122 0.173828,-0.07031 0.02262,5.37e-4 0.03414,0.01189 0.02734,0.03906 -0.0054,0.02165 -6.21e-4,0.03703 0.0078,0.04883 0.0518,0.0069 0.09965,0.01654 0.146485,0.02734 0.06325,-0.0052 0.124952,-0.01562 0.134765,-0.0059 0.0164,0.01627 0.02945,0.03333 0.04102,0.05273 2.09e-4,7.1e-5 -2.09e-4,0.0019 0,0.002 0.04544,0.01533 0.09041,0.02839 0.138672,0.05078 0.07099,0.03293 0.129137,0.03133 0.316406,0.216797 0.159719,0.158395 0.222554,0.32273 0.248047,0.486328 l 0.845703,0.277343 c 0.296523,-0.03727 0.580242,-0.05124 0.833984,-0.03711 0.627813,0.03496 1.260976,0.03913 2.16211,-0.25 l 0.720703,-0.447266 0.554687,0.695313 c 0.271583,0.340913 0.470799,0.679444 0.619141,0.970703 0.496912,0.976285 0.570312,2.134766 0.570312,2.134766 l 0.0039,0.0332 0.002,0.0332 c 0.0081,0.157469 -0.02729,0.204523 -0.02539,0.349609 l 0.71875,-0.722656 -0.02148,2.455078 c -0.0012,0.143107 -0.07584,0.446881 -0.107422,0.677735 L 48.138672,52.75 47.710938,54.753906 c -0.112528,0.527372 -0.335256,1.108136 -0.664063,1.695313 0.854598,-0.379385 1.234549,-0.577583 1.478516,-0.763672 5.79e-4,-7.24e-4 0.0014,-0.0012 0.002,-0.002 1.515789,-1.895947 1.898293,-3.387046 1.443359,-5.763672 v -0.002 c -0.126177,-0.670434 -0.398798,-1.34999 -0.773437,-1.976563 l -0.0039,-0.0059 -0.002,-0.0039 c -0.03504,-0.06012 -0.06803,-0.114696 -0.101562,-0.166016 l -0.0098,-0.01563 -0.0059,-0.0059 C 48.980256,47.598018 48.879896,47.45436 48.773438,47.3125 l -0.0039,-0.0059 -0.002,-0.0039 c -0.835609,-1.140533 -1.417062,-1.441031 -1.388672,-1.425781 l -0.05078,-0.0293 -0.04883,-0.0332 c -0.110062,-0.07675 -0.223652,-0.149909 -0.33785,-0.220669 -0.990402,-0.614144 -1.399768,-0.645844 -1.455078,-0.652344 l -0.15039,0.03516 -0.263672,-0.08594 c -0.483801,-0.158658 -0.962138,-0.239229 -1.25586,-0.261719 -0.453362,-0.03479 -0.86194,-0.03375 -1.234375,-0.0039 z m -4.808593,1.511719 -0.150391,0.177734 -0.0293,-0.11914 -0.232422,0.322265 c 0.03728,-0.02228 0.08119,-0.06553 0.117188,-0.08594 l 0.08594,-0.04883 -0.589844,0.695312 0.392579,-0.002 c -0.0018,0.0021 -0.0042,0.0038 -0.0059,0.0059 h 0.455078 l -0.002,-0.0059 0.195313,-0.002 -0.123047,-0.486328 c -0.05256,0.04982 -0.107663,0.09713 -0.158203,0.148437 l -0.09766,-0.390625 0.169922,-0.09766 z m 1.027343,4.537109 c -0.0098,0.0098 -0.01718,0.01725 -0.02734,0.02734 l -0.140626,0.138672 c 0.802364,1.169713 1.529828,2.199218 1.613282,2.199219 9.6e-4,0 0.0032,3.06e-4 0.0039,0 0.914116,-0.325737 3.029584,-1.055644 4.853516,-1.683594 0.0058,-0.110845 0.01072,-0.222799 0.01172,-0.34961 -1.924901,0.715449 -3.910824,1.428749 -4.833984,1.673828 -0.07063,0.0188 -0.745508,-0.936618 -1.480469,-2.005859 z m -1.517578,3.642578 c 0.275932,0.628296 0.671465,1.128066 1.169922,1.539063 -0.05508,-0.16932 -0.108116,-0.343579 -0.150391,-0.525391 0.531692,0.540811 1.163735,0.968863 1.875,1.042969 0.06194,0.0064 -0.169518,-0.287768 -0.46289,-0.707031 l 3.3125,1.107421 0.357422,-0.429687 z m 6.761719,2.248047 -0.896484,0.25 0.939453,0.314453 c 0.165476,-0.133084 0.314014,-0.267655 0.447265,-0.402343 z" /><path
       style="fill:#ffffff;fill-rule:evenodd"
       d="m 41.862057,42.928733 c 0,0 -1.205279,0.306393 -1.50003,0.936269 -3.414956,0.987715 -5.498859,3.87524 -5.498859,7.043889 0,4.498589 3.542332,6.368457 4.255084,6.450128 -2.181067,-1.048652 -3.55582,-3.015313 -3.353816,-6.382626 0.161577,0.309789 0.661172,0.565872 0.971269,0.571261 -1.145838,-2.546036 0.258296,-3.820385 1.203773,-4.356336 0.01548,0.142582 0.04227,0.289731 0.07625,0.443759 0.05473,0.246675 0.110393,0.364725 0.04375,0.616262 -0.03679,0.138772 -0.03055,0.268134 -0.07625,0.350007 -0.06312,0.113177 -0.144297,0.236866 -0.171253,0.440009 -0.06737,0.507333 0.112762,0.669321 0.225004,0.840016 0.159917,-0.158778 0.472034,-0.533129 1.035021,-0.756265 0.563093,-0.223148 0.93306,-0.55871 1.638782,-0.918768 0.964196,-0.491786 2.094749,0.254664 4.237584,-0.447509 0.04568,-0.01497 0.09678,-0.04195 0.150003,-0.075 0.219205,0.275164 0.386572,0.55645 0.51126,0.801266 0.33187,0.652023 0.467509,1.798785 0.467509,1.798785 0.104075,2.017611 -0.383757,2.763805 -0.383757,2.763805 0,0 0.514474,-0.198332 1.055021,-0.742515 -0.0036,0.422576 -0.105966,1.53674 -1.01377,2.628802 0,0 0.469623,-0.131389 0.99877,-0.388757 -0.290646,1.362144 -1.07416,2.989535 -3.608822,4.222583 0,0 2.132304,-0.174134 3.190063,-1.365027 -0.430229,0.989277 -1.610032,1.52378 -1.610032,1.52378 0.868731,-0.127066 3.150243,-0.801021 4.603841,-2.618802 1.64509,-2.057669 2.140368,-3.987443 1.645033,-6.57513 -0.151622,-0.805635 -0.471452,-1.590373 -0.898768,-2.305046 -0.04167,-0.07148 -0.08557,-0.144164 -0.133753,-0.217504 -0.0014,-0.0021 -0.0036,-0.0054 -0.005,-0.0075 -0.108384,-0.16855 -0.223117,-0.332155 -0.342515,-0.491259 -0.917138,-1.251814 -1.612826,-1.658031 -1.721284,-1.716284 -0.128995,-0.08996 -0.25835,-0.173547 -0.383758,-0.251255 -1.180179,-0.731821 -1.938788,-0.835016 -1.938788,-0.835016 0,0 -0.06714,0.01303 -0.146253,0.03125 -0.567949,-0.186254 -1.106815,-0.279412 -1.490029,-0.308756 -0.502442,-0.03856 -0.964452,-0.0367 -1.391278,-0.0025 0.09263,-0.0461 0.150735,-0.087 0.146253,-0.120003 -0.123212,0.0041 -0.245377,0.0116 -0.366257,0.02 0.0036,-0.01394 0.005,-0.01875 0.005,-0.01875 -0.03276,3.52e-4 -0.06866,0.0094 -0.117503,0.02625 -0.116038,0.0094 -0.229946,0.02043 -0.343756,0.03375 0.154304,-0.28867 0.271255,-0.345007 0.271255,-0.345007 -0.15152,0.01813 -0.471456,0.169122 -1.02377,0.447509 0.239111,-0.479346 0.788766,-0.743765 0.788766,-0.743765 z m -3.935079,4.04008 c 1.6e-5,0.0029 -3e-5,0.0058 0,0.0088 l -0.04125,0.0063 c 0.01377,-0.0049 0.02747,-0.01036 0.04125,-0.015 z m 1.596282,0.0063 c 0.144034,-0.0011 0.265728,0.04834 0.288756,0.07125 0.174217,0.172771 0.06431,0.537409 -0.0925,0.743764 -0.008,0.01044 -0.01688,0.02125 -0.0275,0.0325 -0.0012,0.0015 -0.0026,0.0035 -0.0038,0.005 -0.03487,0.04598 -0.108279,0.106722 -0.206253,0.140003 -0.11781,0.05273 -0.266456,0.08194 -0.433759,0.04125 0,0 -0.307653,-0.47229 0.135003,-0.902518 0.102203,-0.09917 0.22798,-0.130401 0.340006,-0.131253 z"
       id="path15" /></g></g></svg>
