<?xml version="1.0" encoding="UTF-8" standalone="no"?>
<svg
   id="svg"
   version="1.1"
   viewBox="0 0 22 22"
   sodipodi:docname="video.svg"
   inkscape:version="1.1 (c4e8f9ed74, 2021-05-24)"
   xmlns:inkscape="http://www.inkscape.org/namespaces/inkscape"
   xmlns:sodipodi="http://sodipodi.sourceforge.net/DTD/sodipodi-0.dtd"
   xmlns="http://www.w3.org/2000/svg"
   xmlns:svg="http://www.w3.org/2000/svg"
   xmlns:rdf="http://www.w3.org/1999/02/22-rdf-syntax-ns#"
   xmlns:cc="http://creativecommons.org/ns#"
   xmlns:dc="http://purl.org/dc/elements/1.1/">
  <sodipodi:namedview
     pagecolor="#c8c8c8"
     bordercolor="#666666"
     borderopacity="1"
     objecttolerance="10"
     gridtolerance="10"
     guidetolerance="10"
     inkscape:pageopacity="0"
     inkscape:pageshadow="2"
     inkscape:window-width="1920"
     inkscape:window-height="954"
     id="namedview86"
     showgrid="true"
     inkscape:zoom="12.454722"
     inkscape:cx="-16.981511"
     inkscape:cy="-15.576422"
     inkscape:window-x="0"
     inkscape:window-y="40"
     inkscape:window-maximized="1"
     inkscape:current-layer="svg"
     inkscape:pagecheckerboard="0"
     inkscape:snap-bbox="true"
     inkscape:bbox-nodes="true">
    <inkscape:grid
       type="xygrid"
       id="grid862" />
  </sodipodi:namedview>
  <defs
     id="defs9">
    <style
       id="current-color-scheme"
       type="text/css">.ColorScheme-Text {
        color:#7B7C7E;
      }
      .ColorScheme-Background{
        color:#EFF0F1;
      }
      .ColorScheme-Highlight{
        color:#3DAEE6;
      }
      .ColorScheme-ViewText {
        color:#7B7C7E;
      }
      .ColorScheme-ViewBackground{
        color:#FCFCFC;
      }
      .ColorScheme-ViewHover {
        color:#3DAEE6;
      }
      .ColorScheme-ViewFocus{
        color:#1E92FF;
      }
      .ColorScheme-ButtonText {
        color:#7B7C7E;
      }
      .ColorScheme-ButtonBackground{
        color:#EFF0F1;
      }
      .ColorScheme-ButtonHover {
        color:#3DAEE6;
      }
      .ColorScheme-ButtonFocus{
        color:#1E92FF;
      }</style>
    <style
       type="text/css"
       id="style3">.ColorScheme-Text { color:#dedede; } .ColorScheme-Highlight { color:#5294e2; } .ColorScheme-ButtonBackground { color:#dedede; }</style>
    <style
       type="text/css"
       id="style5" />
    <style
       type="text/css"
       id="style7">.ColorScheme-Text {
            color:#232629;
        }
        .ColorScheme-Background {
            color:#eff0f1;
        }
        .ColorScheme-ViewBackground {
            color:#fcfcfc;
        }
        .ColorScheme-ButtonFocus {
            color:#3daee9;
        }
        .ColorScheme-PositiveText {
            color:#27ae60;
        }
        .ColorScheme-NeutralText {
            color:#f67400;
        }
        .ColorScheme-NegativeText {
            color:#da4453;
        }</style>
  </defs>
  <metadata
     id="metadata11">
    <rdf:RDF>
      <cc:Work
         rdf:about="">
        <dc:format>image/svg+xml</dc:format>
        <dc:type
           rdf:resource="http://purl.org/dc/dcmitype/StillImage" />
        <dc:title />
      </cc:Work>
    </rdf:RDF>
  </metadata>
  <g
     id="video-display-brightness"
     transform="translate(27)">
    <g
       transform="translate(-69.5,1.5)"
       fill="#fbfbfb"
       id="g49"
       style="fill:#ffffff;fill-opacity:1">
      <g
         transform="translate(-0.5)"
         id="g31"
         style="fill:#ffffff;fill-opacity:1">
        <path
           d="m 55.23,-22.733 a 3,3 0 0 1 0.26953,1.2334 3,3 0 0 1 -3,3 3,3 0 0 1 -1.2305,-0.2666 3,3 0 0 0 2.7305,1.7666 3,3 0 0 0 3,-3 3,3 0 0 0 -1.7695,-2.7334 z"
           id="path27"
           style="fill:#ffffff;fill-opacity:1" />
        <path
           d="m 54,-23 a 3,3 0 0 0 -3,3 3,3 0 0 0 3,3 3,3 0 0 0 3,-3 3,3 0 0 0 -3,-3 z m 0,0.75 A 2.25,2.25 0 0 1 56.25,-20 2.25,2.25 0 0 1 54,-17.75 2.25,2.25 0 0 1 51.75,-20 2.25,2.25 0 0 1 54,-22.25 Z"
           id="path29"
           style="fill:#ffffff;fill-opacity:1" />
      </g>
      <rect
         x="53"
         y="-26"
         width="1"
         height="2"
         ry="0.5"
         id="rect33"
         style="fill:#ffffff;fill-opacity:1" />
      <rect
         x="53"
         y="-16"
         width="1"
         height="2"
         ry="0.5"
         id="rect35"
         style="fill:#ffffff;fill-opacity:1" />
      <rect
         transform="rotate(45)"
         x="23.188"
         y="-57.972"
         width="1"
         height="2"
         ry="0.5"
         id="rect37"
         style="fill:#ffffff;fill-opacity:1" />
      <rect
         transform="rotate(45)"
         x="23.188"
         y="-47.972"
         width="1"
         height="2"
         ry="0.5"
         id="rect39"
         style="fill:#ffffff;fill-opacity:1" />
      <rect
         transform="rotate(90)"
         x="-20.5"
         y="-59.5"
         width="1"
         height="2"
         ry="0.5"
         id="rect41"
         style="fill:#ffffff;fill-opacity:1" />
      <rect
         transform="rotate(90)"
         x="-20.5"
         y="-49.5"
         width="1"
         height="2"
         ry="0.5"
         id="rect43"
         style="fill:#ffffff;fill-opacity:1" />
      <rect
         transform="rotate(135)"
         x="-52.472"
         y="-29.688"
         width="1"
         height="2"
         ry="0.5"
         id="rect45"
         style="fill:#ffffff;fill-opacity:1" />
      <rect
         transform="rotate(135)"
         x="-52.472"
         y="-19.688"
         width="1"
         height="2"
         ry="0.5"
         id="rect47"
         style="fill:#ffffff;fill-opacity:1" />
    </g>
    <rect
       id="rect3832-6-3"
       x="-32"
       y="-34"
       width="32"
       height="32"
       fill-opacity="0" />
    <rect
       style="fill:#ffffff;fill-opacity:1;stroke:none;stroke-width:2;stroke-linecap:round;stroke-linejoin:round;stroke-opacity:1"
       id="rect8113"
       width="1"
       height="2"
       x="-19"
       y="-9" />
    <rect
       style="fill:#ffffff;fill-opacity:1;stroke:none;stroke-width:2;stroke-linecap:round;stroke-linejoin:round;stroke-opacity:1"
       id="rect8115"
       width="1"
       height="2"
       x="-14"
       y="-9" />
    <rect
       style="fill:#ffffff;fill-opacity:1;stroke:none;stroke-width:2.49444;stroke-linecap:round;stroke-linejoin:round;stroke-opacity:1"
       id="rect8117"
       width="14"
       height="1"
       x="-23"
       y="-7"
       ry="0.5" />
    <path
       id="path8119"
       style="fill:#ffffff;fill-opacity:1;stroke:none;stroke-width:0.5;stroke-linecap:round;stroke-linejoin:round;stroke-miterlimit:4;stroke-dasharray:none;stroke-opacity:1"
       d="m -26,-28 c -1.108,0 -2,0.892 -2,2 v 15 c 0,1.108 0.892,2 2,2 h 20 c 1.108,0 2,-0.892 2,-2 v -15 c 0,-1.108 -0.892,-2 -2,-2 z m 0,1 h 20 c 0.554,0 1,0.446 1,1 v 15 c 0,0.554 -0.446,1 -1,1 h -20 c -0.554,0 -1,-0.446 -1,-1 v -15 c 0,-0.554 0.446,-1 1,-1 z"
       sodipodi:nodetypes="ssssssssssssssssss" />
  </g>
  <g
     id="22-22-video-display-brightness">
    <rect
       style="fill:#ffffff;fill-opacity:1;stroke:none;stroke-width:2;stroke-linecap:round;stroke-linejoin:round;stroke-opacity:1"
       id="rect1633-2"
       width="1"
       height="2"
       x="8"
       y="17" />
    <rect
       style="fill:#ffffff;fill-opacity:1;stroke:none;stroke-width:2;stroke-linecap:round;stroke-linejoin:round;stroke-opacity:1"
       id="rect1635-9"
       width="1"
       height="2"
       x="13"
       y="17" />
    <rect
       style="fill:#ffffff;fill-opacity:1;stroke:none;stroke-width:2.10819;stroke-linecap:round;stroke-linejoin:round;stroke-opacity:1"
       id="rect1637"
       width="10"
       height="1"
       x="6"
       y="19"
       ry="0.5" />
    <path
       id="rect7217"
       style="fill:#ffffff;fill-opacity:1;stroke:none;stroke-width:0.5;stroke-linecap:round;stroke-linejoin:round;stroke-miterlimit:4;stroke-dasharray:none;stroke-opacity:1"
       d="M 5,5 C 3.892,5 3,5.892 3,7 v 8 c 0,1.108 0.892,2 2,2 h 12 c 1.108,0 2,-0.892 2,-2 V 7 C 19,5.892 18.108,5 17,5 Z m 0,1 h 12 c 0.554,0 1,0.446 1,1 v 8 c 0,0.554 -0.446,1 -1,1 H 5 C 4.446,16 4,15.554 4,15 V 7 C 4,6.446 4.446,6 5,6 Z"
       sodipodi:nodetypes="ssssssssssssssssss" />
    <rect
       x="0"
       width="22"
       height="22"
       fill-opacity="0"
       id="rect52"
       y="0" />
    <g
       transform="translate(-39.5,1.5)"
       fill="#fbfbfb"
       id="g82"
       style="fill:#ffffff;fill-opacity:1">
      <circle
         cx="50.5"
         cy="9.5"
         r="1.5"
         id="circle64"
         style="fill:#ffffff;fill-opacity:1" />
      <rect
         x="50"
         y="6"
         width="1"
         height="1"
         ry="0.5"
         id="rect66"
         style="fill:#ffffff;fill-opacity:1" />
      <rect
         x="50"
         y="12"
         width="1"
         height="1"
         ry="0.5"
         id="rect68"
         style="fill:#ffffff;fill-opacity:1" />
      <rect
         transform="rotate(45)"
         x="41.925999"
         y="-32.491001"
         width="1"
         height="1"
         ry="0.5"
         id="rect70"
         style="fill:#ffffff;fill-opacity:1" />
      <rect
         transform="rotate(45)"
         x="41.925999"
         y="-26.490999"
         width="1"
         height="1"
         ry="0.5"
         id="rect72"
         style="fill:#ffffff;fill-opacity:1" />
      <rect
         transform="rotate(90)"
         x="9"
         y="-54"
         width="1"
         height="1"
         ry="0.5"
         id="rect74"
         style="fill:#ffffff;fill-opacity:1" />
      <rect
         transform="rotate(90)"
         x="9"
         y="-48"
         width="1"
         height="1"
         ry="0.5"
         id="rect76"
         style="fill:#ffffff;fill-opacity:1" />
      <rect
         transform="rotate(-45)"
         x="28.490999"
         y="38.925999"
         width="1"
         height="1"
         ry="0.5"
         id="rect78"
         style="fill:#ffffff;fill-opacity:1" />
      <rect
         transform="rotate(-45)"
         x="28.490999"
         y="44.925999"
         width="1"
         height="1"
         ry="0.5"
         id="rect80"
         style="fill:#ffffff;fill-opacity:1" />
    </g>
  </g>
</svg>
