<?xml version="1.0" encoding="UTF-8" standalone="no"?>
<svg
   id="svg6"
   width="22"
   height="22"
   version="1.1"
   sodipodi:docname="virt.svg"
   inkscape:version="1.2.2 (b0a8486541, 2022-12-01)"
   xmlns:inkscape="http://www.inkscape.org/namespaces/inkscape"
   xmlns:sodipodi="http://sodipodi.sourceforge.net/DTD/sodipodi-0.dtd"
   xmlns="http://www.w3.org/2000/svg"
   xmlns:svg="http://www.w3.org/2000/svg"
   xmlns:rdf="http://www.w3.org/1999/02/22-rdf-syntax-ns#"
   xmlns:cc="http://creativecommons.org/ns#"
   xmlns:dc="http://purl.org/dc/elements/1.1/">
  <metadata
     id="metadata11">
    <rdf:RDF>
      <cc:Work
         rdf:about="">
        <dc:format>image/svg+xml</dc:format>
        <dc:type
           rdf:resource="http://purl.org/dc/dcmitype/StillImage" />
      </cc:Work>
    </rdf:RDF>
  </metadata>
  <defs
     id="defs9" />
  <sodipodi:namedview
     pagecolor="#e6e6e6"
     bordercolor="#666666"
     borderopacity="1"
     objecttolerance="10"
     gridtolerance="10"
     guidetolerance="10"
     inkscape:pageopacity="0"
     inkscape:pageshadow="2"
     inkscape:window-width="1920"
     inkscape:window-height="1002"
     id="namedview7"
     showgrid="true"
     inkscape:zoom="15.170655"
     inkscape:cx="2.9332946"
     inkscape:cy="8.371425"
     inkscape:window-x="0"
     inkscape:window-y="0"
     inkscape:window-maximized="1"
     inkscape:current-layer="svg6"
     inkscape:lockguides="true"
     inkscape:document-rotation="0"
     inkscape:showpageshadow="0"
     inkscape:pagecheckerboard="0"
     inkscape:deskcolor="#d1d1d1">
    <inkscape:grid
       type="xygrid"
       id="grid538" />
  </sodipodi:namedview>
  <g
     id="virt-manager">
    <rect
       id="rect822"
       style="opacity:0.00100002"
       width="22"
       height="22"
       x="0"
       y="0" />
    <g
       id="g2054"
       transform="translate(23.999752)">
      <path
         id="path1316"
         style="color:#000000;fill:#ffffff;stroke-width:0.908043;stroke-linecap:round;stroke-linejoin:round;-inkscape-stroke:none"
         d="m -22.545472,7 c -0.324899,1.909e-4 -0.54447,0.3315987 -0.417969,0.6308594 l 3,7.0917966 c 0.07098,0.167998 0.235591,0.277225 0.417969,0.277344 h 1 c 0.18285,-4.5e-4 0.34759,-0.110533 0.417969,-0.279297 l 2.953125,-7.0917968 C -15.049759,7.3302216 -15.268709,7.0007744 -15.592347,7 h -0.953125 c -0.181441,-5.495e-4 -0.345792,0.1069693 -0.417969,0.2734375 L -19.043767,12 -21.127503,7.2753906 C -21.199084,7.1081576 -21.363563,6.9997859 -21.545472,7 Z"
         sodipodi:nodetypes="cccccccccccccc" />
      <path
         id="path1307"
         style="color:#000000;fill:#ffffff;stroke-width:0.89865;stroke-linecap:round;stroke-linejoin:round;-inkscape-stroke:none"
         d="m -12.562252,7 c -0.182048,-3.548e-4 -0.346324,0.1091625 -0.416015,0.2773438 -0.984451,2.3771797 -1.985055,4.7382022 -3.021485,7.0917972 -0.131321,0.297452 0.08696,0.631597 0.41211,0.630859 h 1.128658 c 0.181574,6.83e-4 0.345717,-0.107976 0.416015,-0.275391 l 1.539063,-4.135641 2.088138,4.133688 c 0.06969,0.168182 0.233967,0.277699 0.416016,0.277344 h 1 c 0.1830042,-2.94e-4 0.3475496,-0.111536 0.4160156,-0.28125 l 2.0485802,-4.248923 1.578125,4.254782 c 0.070298,0.167416 0.234441,0.276074 0.4160156,0.275391 h 1.1291542 c 0.32515,7.38e-4 0.5434304,-0.333407 0.4121094,-0.630859 C -4.0371562,12.013331 -5.0611577,9.6522652 -6.0446738,7.2773438 -6.1140925,7.1098189 -6.2773987,7.0004346 -6.4587364,7 H -6.999752 c -0.1813376,4.346e-4 -0.3446437,0.1098189 -0.4140624,0.2773438 L -9.5273438,12 -11.58569,7.2753906 C -11.655714,7.1086317 -11.818888,7.0001055 -11.999752,7 Z"
         sodipodi:nodetypes="cccccccccccccccccccccccc" />
    </g>
  </g>
</svg>
