<?xml version="1.0" encoding="UTF-8" standalone="no"?>
<svg
   xmlns:dc="http://purl.org/dc/elements/1.1/"
   xmlns:cc="http://creativecommons.org/ns#"
   xmlns:rdf="http://www.w3.org/1999/02/22-rdf-syntax-ns#"
   xmlns:svg="http://www.w3.org/2000/svg"
   xmlns="http://www.w3.org/2000/svg"
   xmlns:sodipodi="http://sodipodi.sourceforge.net/DTD/sodipodi-0.dtd"
   xmlns:inkscape="http://www.inkscape.org/namespaces/inkscape"
   width="22"
   height="22"
   version="1.1"
   id="svg12"
   sodipodi:docname="yakuake.svg"
   inkscape:version="1.0.1 (3bc2e813f5, 2020-09-07)">
  <metadata
     id="metadata16">
    <rdf:RDF>
      <cc:Work
         rdf:about="">
        <dc:format>image/svg+xml</dc:format>
        <dc:type
           rdf:resource="http://purl.org/dc/dcmitype/StillImage" />
        <dc:title></dc:title>
      </cc:Work>
    </rdf:RDF>
  </metadata>
  <sodipodi:namedview
     pagecolor="#c8c8c8"
     bordercolor="#666666"
     borderopacity="1"
     objecttolerance="10"
     gridtolerance="10"
     guidetolerance="10"
     inkscape:pageopacity="0"
     inkscape:pageshadow="2"
     inkscape:window-width="1920"
     inkscape:window-height="935"
     id="namedview14"
     showgrid="true"
     inkscape:snap-bbox="true"
     inkscape:bbox-nodes="true"
     inkscape:snap-bbox-edge-midpoints="true"
     inkscape:zoom="18.886364"
     inkscape:cx="-1.8980431"
     inkscape:cy="10.676396"
     inkscape:window-x="0"
     inkscape:window-y="38"
     inkscape:window-maximized="1"
     inkscape:current-layer="svg12"
     inkscape:document-rotation="0">
    <inkscape:grid
       type="xygrid"
       id="grid841" />
  </sodipodi:namedview>
  <defs
     id="defs3">
    <style
       id="current-color-scheme"
       type="text/css">.ColorScheme-Text { color:#363636; } .ColorScheme-Highlight { color:#4285f4; }</style>
  </defs>
  <path
     id="rect835"
     style="fill:#fbfbfb;fill-opacity:1;stroke-width:2"
     d="M 26,2 V 20 H 44 V 2 Z m 1,1 H 43 V 19 H 27 Z" />
  <g
     id="yakuake">
    <path
       class="ColorScheme-Text"
       d="m 6.4648,7.4648 -0.70703,0.70703 2.8281,2.8281 -2.8281,2.8281 L 6.4648,14.53506 10,10.99986 6.4648,7.46466 Z M 10,14 v 1 h 5 v -1 z"
       fill="currentColor"
       id="path7"
       style="fill:#fbfbfb;fill-opacity:1" />
    <rect
       width="22"
       height="22"
       fill="none"
       id="rect9"
       x="0"
       y="0" />
    <path
       id="rect836"
       style="opacity:1;fill:#fbfbfb;fill-opacity:1;stroke-width:2.01449;stroke-linecap:round;stroke-linejoin:round;paint-order:stroke fill markers"
       d="M 4,2 C 2.892,2 2,2.892 2,4 v 14 c 0,1.108 0.892,2 2,2 h 14 c 1.108,0 2,-0.892 2,-2 V 4 C 20,2.892 19.108,2 18,2 Z m 0,1 h 14 c 0.554,0 1,0.446 1,1 v 14 c 0,0.554 -0.446,1 -1,1 H 4 C 3.446,19 3,18.554 3,18 V 4 C 3,3.446 3.446,3 4,3 Z" />
  </g>
</svg>
