<?xml version="1.0" encoding="UTF-8" standalone="no"?>
<svg
   xmlns:dc="http://purl.org/dc/elements/1.1/"
   xmlns:cc="http://creativecommons.org/ns#"
   xmlns:rdf="http://www.w3.org/1999/02/22-rdf-syntax-ns#"
   xmlns:svg="http://www.w3.org/2000/svg"
   xmlns="http://www.w3.org/2000/svg"
   xmlns:xlink="http://www.w3.org/1999/xlink"
   xmlns:sodipodi="http://sodipodi.sourceforge.net/DTD/sodipodi-0.dtd"
   xmlns:inkscape="http://www.inkscape.org/namespaces/inkscape"
   width="32"
   height="32"
   version="1.1"
   id="svg19"
   sodipodi:docname="bookmarks.svg"
   inkscape:version="0.92.4 5da689c313, 2019-01-14">
  <metadata
     id="metadata23">
    <rdf:RDF>
      <cc:Work
         rdf:about="">
        <dc:format>image/svg+xml</dc:format>
        <dc:type
           rdf:resource="http://purl.org/dc/dcmitype/StillImage" />
        <dc:title />
      </cc:Work>
    </rdf:RDF>
  </metadata>
  <sodipodi:namedview
     pagecolor="#c8c8c8"
     bordercolor="#666666"
     borderopacity="1"
     objecttolerance="10"
     gridtolerance="10"
     guidetolerance="10"
     inkscape:pageopacity="0"
     inkscape:pageshadow="2"
     inkscape:window-width="1920"
     inkscape:window-height="1007"
     id="namedview21"
     showgrid="true"
     inkscape:zoom="5.6568545"
     inkscape:cx="17.636362"
     inkscape:cy="17.091013"
     inkscape:window-x="0"
     inkscape:window-y="0"
     inkscape:window-maximized="1"
     inkscape:current-layer="svg19"
     inkscape:snap-bbox="true"
     inkscape:snap-bbox-edge-midpoints="false"
     inkscape:bbox-nodes="true"
     inkscape:snap-nodes="false">
    <inkscape:grid
       type="xygrid"
       id="grid819" />
  </sodipodi:namedview>
  <defs
     id="defs6">
    <style
       id="current-color-scheme"
       type="text/css">.ColorScheme-Text { color:#dedede; } .ColorScheme-Highlight { color:#5294e2; } .ColorScheme-ButtonBackground { color:#dedede; }</style>
    <filter
       id="a"
       x="-.036"
       y="-.036"
       width="1.072"
       height="1.072"
       color-interpolation-filters="sRGB">
      <feGaussianBlur
         stdDeviation="0.43506"
         id="feGaussianBlur3" />
    </filter>
    <style
       id="style835"
       type="text/css" />
    <style
       id="style822"
       type="text/css" />
    <style
       type="text/css"
       id="current-color-scheme-5">.ColorScheme-Text { color:#dedede; } .ColorScheme-Highlight { color:#5294e2; } .ColorScheme-ButtonBackground { color:#dedede; }</style>
    <filter
       color-interpolation-filters="sRGB"
       height="1.072"
       width="1.072"
       y="-.036"
       x="-.036"
       id="a-6">
      <feGaussianBlur
         id="feGaussianBlur3-2"
         stdDeviation="0.43506" />
    </filter>
    <style
       type="text/css"
       id="style835-9" />
    <style
       type="text/css"
       id="style822-1" />
    <clipPath
       id="clipPath13429">
      <path
         d="m481 318h22v22h-22z"
         id="path833" />
    </clipPath>
    <clipPath
       id="clipPath13465">
      <path
         d="m507 318h22v22h-22z"
         id="path836" />
    </clipPath>
    <clipPath
       id="clipPath13501">
      <path
         d="m530 318h22v22h-22z"
         id="path839" />
    </clipPath>
    <clipPath
       id="clipPath13753">
      <path
         d="m672 1064c0-1.105 4.925-2 11-2s11 0.895 11 2-4.925 2-11 2-11-0.895-11-2"
         id="path842" />
    </clipPath>
    <clipPath
       id="clipPath13771">
      <path
         d="m660 1057h51v65.001h-51z"
         id="path845" />
    </clipPath>
    <clipPath
       id="clipPath14035">
      <path
         d="m659 517h53v18h-53z"
         id="path848" />
    </clipPath>
    <clipPath
       id="clipPath14127">
      <path
         d="m659 500h53v18h-53z"
         id="path851" />
    </clipPath>
    <clipPath
       id="clipPath14445">
      <path
         d="m648 112h73v60h-73z"
         id="path854" />
    </clipPath>
    <clipPath
       id="clipPath14609">
      <path
         d="m826 1056h59v60h-59z"
         id="path857" />
    </clipPath>
    <clipPath
       id="clipPath15305">
      <path
         d="m805 276h100v100h-100z"
         id="path860" />
    </clipPath>
    <clipPath
       id="clipPath15341">
      <path
         d="m145 1063.8h74.152v45.21h-74.152z"
         id="path863" />
    </clipPath>
    <clipPath
       id="clipPath15715">
      <path
         d="m151 667h57v57h-57z"
         id="path866" />
    </clipPath>
    <clipPath
       id="clipPath15807">
      <path
         d="m154 697h51v51h-51z"
         id="path869" />
    </clipPath>
    <clipPath
       id="clipPath16001">
      <path
         d="m500.04 864.45h36.012v67.52h-36.012z"
         id="path872" />
    </clipPath>
    <clipPath
       id="clipPath16093">
      <path
         d="m836 870.54h47v55.539h-47z"
         id="path875" />
    </clipPath>
    <clipPath
       id="clipPath16477">
      <path
         d="m318.03 702.35h62.848v37.991h-62.848z"
         id="path878" />
    </clipPath>
    <clipPath
       id="clipPath16579">
      <path
         d="m485.03 133.35h62.847v37.991h-62.847z"
         id="path881" />
    </clipPath>
    <clipPath
       id="clipPath16709">
      <path
         d="m493.37 677.93h45.643v68.067h-45.643z"
         id="path884" />
    </clipPath>
    <clipPath
       id="clipPath24218">
      <path
         d="m144.34 1018.2h71.467v78h-71.467z"
         id="path887" />
    </clipPath>
    <clipPath
       id="clipPath24382">
      <path
         d="m293.21 1068.6 66.323-38.292 36.047 62.435-66.323 38.292z"
         id="path890" />
    </clipPath>
    <clipPath
       id="clipPath24650">
      <path
         d="m488.86 1054.5h10v10.706h-10z"
         id="path893" />
    </clipPath>
    <clipPath
       id="clipPath24700">
      <path
         d="m508 1066.8h10.001v10.705h-10.001z"
         id="path896" />
    </clipPath>
    <clipPath
       id="clipPath24750">
      <path
         d="m525 1045.8h10v10.706h-10z"
         id="path899" />
    </clipPath>
    <clipPath
       id="clipPath24864">
      <path
         d="m836 1043.7h25.5v31.5h-25.5z"
         id="path902" />
    </clipPath>
    <clipPath
       id="clipPath24896">
      <path
         d="m838 1062.2h24v24h-24z"
         id="path905" />
    </clipPath>
    <clipPath
       id="clipPath25070">
      <path
         d="m134 489.24h7v6h-7z"
         id="path908" />
    </clipPath>
    <clipPath
       id="clipPath25100">
      <path
         d="m216 489.24h7v6h-7z"
         id="path911" />
    </clipPath>
    <clipPath
       id="clipPath25502">
      <path
         d="m838 477.24h22v22h-22z"
         id="path914" />
    </clipPath>
    <clipPath
       id="clipPath25686">
      <path
         d="m704 1061.2h25v25h-25z"
         id="path917" />
    </clipPath>
    <clipPath
       id="clipPath25788">
      <path
         d="m663.04 1078.6-1.808-3.514-21.07-47.453c13.336-18.439 48.336-26.938 73.836-3.439 0.842 0 6.476 6.246 6 7l-18.386 25.895c-0.483 0.765-1.453 0.946-2.177 0.431l-15.505-11.011c-0.359-0.255-0.847-0.153-1.07 0.238l-18.272 31.869c-0.218 0.384-0.502 0.578-0.782 0.578-0.282 0-0.561-0.197-0.766-0.594"
         id="path920" />
    </clipPath>
    <clipPath
       id="clipPath26420">
      <path
         d="m127 820.24h100v100h-100z"
         id="path923" />
    </clipPath>
    <clipPath
       id="clipPath26860">
      <path
         d="m809 680.24c0-22.092 17.908-40 40-40s40 17.908 40 40c0 22.091-17.908 40-40 40s-40-17.909-40-40"
         id="path926" />
    </clipPath>
    <clipPath
       id="clipPath27506">
      <path
         d="m658 469.24h44v45h-44z"
         id="path929" />
    </clipPath>
    <clipPath
       id="clipPath27772">
      <path
         d="m651 271.24h58v58h-58z"
         id="path932" />
    </clipPath>
    <clipPath
       id="clipPath27864">
      <path
         d="m662 307.24h38v8h-38z"
         id="path935" />
    </clipPath>
    <clipPath
       id="clipPath28028">
      <path
         d="m858.98 137.24c0.013-0.101 0.021-0.203 0.021-0.307v-6.693h15.75c1.237 0 2.25-1.013 2.25-2.25v-11.25l-27-4.5-27 4.5v-2.25l27-4.5 27 4.5v-27c0-1.237-1.013-2.25-2.25-2.25h-49.5c-1.237 0-2.25 1.013-2.25 2.25v-4.25h54v54zm-35.979 0v-9.25c0 1.237 1.013 2.25 2.25 2.25h15.75v6.693c0 0.104 7e-3 0.207 0.02 0.307zm22.5-7h9v4.5h-9zm1.125-9c-0.62 0-1.125-0.506-1.125-1.125v-2.25c0-0.619 0.505-1.125 1.125-1.125h6.75c0.619 0 1.125 0.506 1.125 1.125v2.25c0 0.619-0.506 1.125-1.125 1.125z"
         id="path938" />
    </clipPath>
    <clipPath
       id="clipPath28200">
      <path
         d="m531.27 136.24c6.325-2.29 10.727-8.277 10.727-15.484 0-11.316-10.2-20.563-25.65-34.575l-4.35-3.941-4.35 3.941c-15.45 14.012-25.65 23.259-25.65 34.575v-39.516h60v55zm-26.983 0c2.995-1.052 5.686-2.883 7.71-5.25 2.024 2.367 4.715 4.198 7.71 5.25zm-22.29 0v-15.484c0 7.207 4.402 13.194 10.727 15.484z"
         id="path941" />
    </clipPath>
    <clipPath
       id="clipPath28364">
      <path
         d="m648 79.241h64v64h-64z"
         id="path944" />
    </clipPath>
    <clipPath
       id="clipPath28984">
      <path
         d="m500 691.74c0-3.037 2.463-5.5 5.5-5.5s5.5 2.463 5.5 5.5-2.463 5.5-5.5 5.5-5.5-2.463-5.5-5.5"
         id="path947" />
    </clipPath>
    <clipPath
       id="clipPath29012">
      <path
         d="m500 669.74c0-3.037 2.463-5.5 5.5-5.5s5.5 2.463 5.5 5.5c0 3.038-2.463 5.5-5.5 5.5s-5.5-2.462-5.5-5.5"
         id="path950" />
    </clipPath>
    <clipPath
       id="clipPath29040">
      <path
         d="m494 680.74c0-3.037 2.462-5.5 5.5-5.5s5.5 2.463 5.5 5.5c0 3.038-2.462 5.5-5.5 5.5s-5.5-2.462-5.5-5.5"
         id="path953" />
    </clipPath>
    <clipPath
       id="clipPath29068">
      <path
         d="m513 691.74c0-3.037 2.463-5.5 5.5-5.5s5.5 2.463 5.5 5.5-2.463 5.5-5.5 5.5-5.5-2.463-5.5-5.5"
         id="path956" />
    </clipPath>
    <clipPath
       id="clipPath29096">
      <path
         d="m513 669.74c0-3.037 2.463-5.5 5.5-5.5s5.5 2.463 5.5 5.5c0 3.038-2.463 5.5-5.5 5.5s-5.5-2.462-5.5-5.5"
         id="path959" />
    </clipPath>
    <clipPath
       id="clipPath29124">
      <path
         d="m507 680.74c0-3.037 2.463-5.5 5.5-5.5s5.5 2.463 5.5 5.5c0 3.038-2.463 5.5-5.5 5.5s-5.5-2.462-5.5-5.5"
         id="path962" />
    </clipPath>
    <clipPath
       id="clipPath29152">
      <path
         d="m520 680.74c0-3.037 2.463-5.5 5.5-5.5s5.5 2.463 5.5 5.5c0 3.038-2.463 5.5-5.5 5.5s-5.5-2.462-5.5-5.5"
         id="path965" />
    </clipPath>
    <clipPath
       id="clipPath29252">
      <path
         d="m321 322.24c-4.97 0-9-4.029-9-9 0-4.97 4.03-9 9-9h45c4.971 0 9 4.03 9 9 0 4.971-4.029 9-9 9z"
         id="path968" />
    </clipPath>
    <clipPath
       id="clipPath29280">
      <path
         d="m322 297.24c-4.971 0-9-4.029-9-9 0-4.97 4.029-9 9-9h45c4.971 0 9 4.03 9 9 0 4.971-4.029 9-9 9z"
         id="path971" />
    </clipPath>
    <clipPath
       id="clipPath29400">
      <path
         d="m155 83.24h44v53h-44z"
         id="path974" />
    </clipPath>
    <linearGradient
       id="linearGradient1423"
       x1="-109.09"
       x2="-101.26"
       y1="11.122"
       y2="18.44"
       gradientTransform="matrix(0.88889,0,0,0.88889,100.02,-0.64674)"
       gradientUnits="userSpaceOnUse">
      <stop
         stop-color="#64d2eb"
         offset="0"
         id="stop977" />
      <stop
         stop-color="#0082dc"
         offset="1"
         id="stop979" />
    </linearGradient>
    <linearGradient
       id="linearGradient1431"
       x1="-107.04"
       x2="-99.66"
       y1="6.9531"
       y2="17.895"
       gradientTransform="matrix(0.88889,0,0,0.88889,100.02,-0.64674)"
       gradientUnits="userSpaceOnUse">
      <stop
         stop-color="#a578e1"
         offset="0"
         id="stop982" />
      <stop
         stop-color="#5046a0"
         offset="1"
         id="stop984" />
    </linearGradient>
    <linearGradient
       id="linearGradient1439"
       x1="-105"
       x2="-97.017"
       y1="4.2921"
       y2="13.799"
       gradientTransform="matrix(0.88889,0,0,0.88889,100.01,-0.64644)"
       gradientUnits="userSpaceOnUse">
      <stop
         stop-color="#eb82aa"
         offset="0"
         id="stop987" />
      <stop
         stop-color="#dc2850"
         offset="1"
         id="stop989" />
    </linearGradient>
    <linearGradient
       id="linearGradient1447"
       x1="-102.1"
       x2="-98.566"
       y1="1.4752"
       y2="7.861"
       gradientTransform="matrix(0.88889,0,0,0.88889,100.01,-0.64649)"
       gradientUnits="userSpaceOnUse">
      <stop
         stop-color="#ffdc23"
         offset="0"
         id="stop992" />
      <stop
         stop-color="#f0a019"
         offset="1"
         id="stop994" />
    </linearGradient>
    <linearGradient
       gradientUnits="userSpaceOnUse"
       y2="8"
       x2="40"
       y1="3"
       x1="61.978516"
       id="linearGradient1715"
       xlink:href="#linearGradient1116"
       inkscape:collect="always" />
    <linearGradient
       gradientUnits="userSpaceOnUse"
       y2="29"
       x2="40"
       y1="9"
       x1="62"
       id="linearGradient1723"
       xlink:href="#linearGradient1124"
       inkscape:collect="always" />
    <linearGradient
       id="linearGradient1124">
      <stop
         stop-color="#2864b4"
         offset="0"
         id="stop1727" />
      <stop
         stop-color="#0a4682"
         offset="1"
         id="stop1729" />
    </linearGradient>
    <linearGradient
       id="linearGradient1116">
      <stop
         stop-color="#28a0f5"
         offset="0"
         id="stop1732" />
      <stop
         stop-color="#057ddc"
         offset="1"
         id="stop1734" />
    </linearGradient>
    <linearGradient
       id="linearGradient1108">
      <stop
         stop-color="#50d2ff"
         offset="0"
         id="stop1737" />
      <stop
         stop-color="#19a0e6"
         offset="1"
         id="stop1739" />
    </linearGradient>
    <linearGradient
       id="linearGradient1110"
       x1="-86.517"
       x2="-86.517"
       y1="3.4395"
       y2="17.991"
       gradientTransform="matrix(0.86728,0,0,0.86728,78.79,-0.58217)"
       gradientUnits="userSpaceOnUse"
       xlink:href="#linearGradient1108" />
    <linearGradient
       id="linearGradient1118"
       x1="-86.411"
       x2="-86.411"
       y1="3.4395"
       y2="17.991"
       gradientUnits="userSpaceOnUse"
       xlink:href="#linearGradient1116" />
    <linearGradient
       id="linearGradient1126"
       x1="-86.411"
       x2="-86.411"
       y1="3.4395"
       y2="17.991"
       gradientUnits="userSpaceOnUse"
       xlink:href="#linearGradient1124" />
    <filter
       id="filter1170"
       x="-.092129"
       y="-.077189"
       width="1.1843"
       height="1.1544"
       color-interpolation-filters="sRGB">
      <feGaussianBlur
         stdDeviation="0.31484797"
         id="feGaussianBlur1745" />
    </filter>
    <linearGradient
       id="linearGradient3789"
       x1="-6.5962"
       x2="-6.5962"
       y1="22.746"
       y2="15.514"
       gradientTransform="translate(2.8923,-7.2683)"
       gradientUnits="userSpaceOnUse">
      <stop
         stop-color="#2dc8f0"
         offset="0"
         id="stop1850" />
      <stop
         stop-color="#50e6ff"
         offset="1"
         id="stop1852" />
    </linearGradient>
    <linearGradient
       id="linearGradient3803"
       x1="-6.6145"
       x2="-6.6145"
       y1="5.027"
       y2="14.287"
       gradientUnits="userSpaceOnUse">
      <stop
         stop-color="#2fc3fe"
         offset="0"
         id="stop1855" />
      <stop
         stop-color="#23aef5"
         offset="1"
         id="stop1857" />
    </linearGradient>
    <linearGradient
       id="linearGradient3811"
       x1="-9.8426"
       x2="-9.8426"
       y1="6.6145"
       y2="14.287"
       gradientUnits="userSpaceOnUse">
      <stop
         stop-color="#1ea7f1"
         offset="0"
         id="stop1860" />
      <stop
         stop-color="#148dd0"
         offset="1"
         id="stop1862" />
    </linearGradient>
    <linearGradient
       id="linearGradient3819"
       x1="-12.7"
       x2="-12.7"
       y1="8.7311"
       y2="14.287"
       gradientUnits="userSpaceOnUse">
      <stop
         stop-color="#0978e8"
         offset="0"
         id="stop1865" />
      <stop
         stop-color="#0467cd"
         offset="1"
         id="stop1867" />
    </linearGradient>
    <linearGradient
       id="linearGradient3827"
       x1="-15.61"
       x2="-15.61"
       y1="10.848"
       y2="14.287"
       gradientUnits="userSpaceOnUse">
      <stop
         stop-color="#0171ca"
         offset="0"
         id="stop1870" />
      <stop
         stop-color="#005ba9"
         offset="1"
         id="stop1872" />
    </linearGradient>
    <filter
       id="filter3898"
       x="-.084"
       y="-.084"
       width="1.168"
       height="1.168"
       color-interpolation-filters="sRGB">
      <feGaussianBlur
         stdDeviation="0.32410822"
         id="feGaussianBlur1875" />
    </filter>
  </defs>
  <g
     id="123"
     inkscape:label="#bookmarks"
     transform="translate(53)">
    <rect
       x="0"
       y="0"
       width="32"
       height="32"
       rx="0"
       ry="0"
       style="opacity:0;stroke-width:2;paint-order:fill markers stroke"
       id="rect8" />
    <path
       style="fill:none;stroke:#eaeaea;stroke-width:1;stroke-miterlimit:4;stroke-dasharray:none;stroke-opacity:1"
       inkscape:connector-curvature="0"
       d="M 28.450051,13.184553 C 28.318447,12.77754 27.943956,12.503945 27.522488,12.503945 H 19.045156 L 16.425393,4.1825667 C 16.298115,3.7769028 15.92496,3.5033084 15.500828,3.5033084 c -0.421473,0 -0.795958,0.2735944 -0.924565,0.6762177 L 11.953501,12.503945 H 3.477838 c -0.4228024,0 -0.7962973,0.273595 -0.9262343,0.680608 -0.1316065,0.402962 0.012697,0.848481 0.3535001,1.096402 l 6.8584344,4.810162 -3.2099231,8.121366 c -0.1329362,0.404319 0.011297,0.845784 0.3535,1.096411 0.337844,0.249268 0.8042853,0.249268 1.1437889,0 l 7.449924,-5.017591 7.45086,5.017591 c 0.168254,0.123621 0.369159,0.187798 0.571398,0.187798 0.200572,0 0.402809,-0.06416 0.572396,-0.187798 0.340838,-0.250627 0.485104,-0.692092 0.352167,-1.096411 l -3.206863,-8.121366 6.854432,-4.810162 c 0.340507,-0.247921 0.483439,-0.69344 0.354833,-1.096402 z"
       p-id="2080"
       id="path826"
       sodipodi:nodetypes="csccsccsccccccccsccccc" />
  </g>
  <g
     id="bookmarks">
    <rect
       x="0"
       y="0"
       width="32"
       height="32"
       rx="0"
       ry="0"
       style="opacity:0;stroke-width:2;paint-order:fill markers stroke"
       id="rect8-0" />
    <g
       transform="translate(-34.978516)"
       id="g1838">
      <path
         inkscape:connector-curvature="0"
         style="opacity:1;fill:url(#linearGradient1723);fill-opacity:1;stroke:none;stroke-width:0.45133549;stroke-linecap:round;stroke-linejoin:round;stroke-miterlimit:4;stroke-dasharray:none;stroke-opacity:1"
         d="M 60.978516,9 H 40.978908 v 18 c 0,1.108 0.892,2 2,2 1.021484,0 0.02109,-0.02148 7.999608,-8 8,8 7.021484,8 8,8 1.108,0 2,-0.892 2,-2 z"
         id="path831"
         sodipodi:nodetypes="ccsscssc" />
      <path
         inkscape:connector-curvature="0"
         style="opacity:1;fill:url(#linearGradient1715);fill-opacity:1;stroke:none;stroke-width:0.45133549;stroke-linecap:round;stroke-linejoin:round;stroke-miterlimit:4;stroke-dasharray:none;stroke-opacity:1"
         d="m 42.978516,3 c -1.108,0 -1.993635,0.8920183 -2,2 v 3 h 20 V 5 c 0,-1.108 -0.892,-2 -2,-2 z"
         id="rect820"
         sodipodi:nodetypes="ssccsss" />
    </g>
  </g>
</svg>
