<?xml version="1.0" encoding="UTF-8" standalone="no"?>
<svg
   id="svg2"
   version="1.1"
   viewBox="0 0 98.384613 61.384617"
   sodipodi:docname="switch.svg"
   inkscape:version="1.4 (e7c3feb100, 2024-10-09)"
   width="98.384613"
   height="61.384617"
   xmlns:inkscape="http://www.inkscape.org/namespaces/inkscape"
   xmlns:sodipodi="http://sodipodi.sourceforge.net/DTD/sodipodi-0.dtd"
   xmlns:xlink="http://www.w3.org/1999/xlink"
   xmlns="http://www.w3.org/2000/svg"
   xmlns:svg="http://www.w3.org/2000/svg">
  <defs
     id="defs57">
    <radialGradient
       inkscape:collect="always"
       xlink:href="#shadow"
       id="radialGradient1675"
       cx="108"
       cy="111.5"
       fx="108"
       fy="111.5"
       r="11.5"
       gradientUnits="userSpaceOnUse" />
    <linearGradient
       inkscape:collect="always"
       id="shadow">
      <stop
         id="stop0"
         offset="0"
         style="stop-color:#000;stop-opacity:1" />
      <stop
         id="stop1"
         offset="0.7391304374"
         style="stop-color:#000;stop-opacity:.2" />
      <stop
         id="stop2"
         offset="0.8260869384"
         style="stop-color:#000;stop-opacity:.1" />
      <stop
         id="stop3"
         offset="0.8695651889"
         style="stop-color:#000;stop-opacity:.05" />
      <stop
         id="stop4"
         offset="1"
         style="stop-color:#000;stop-opacity:0" />
    </linearGradient>
  </defs>
  <sodipodi:namedview
     id="namedview55"
     pagecolor="#c8c8c8"
     bordercolor="#45a0c9"
     borderopacity="1"
     inkscape:showpageshadow="false"
     inkscape:pageopacity="1"
     inkscape:pagecheckerboard="true"
     inkscape:deskcolor="#c8c8c8"
     showgrid="false"
     inkscape:zoom="4.9002476"
     inkscape:cx="-36.222659"
     inkscape:cy="54.282971"
     inkscape:window-width="1920"
     inkscape:window-height="950"
     inkscape:window-x="0"
     inkscape:window-y="34"
     inkscape:window-maximized="1"
     inkscape:current-layer="svg2"
     showguides="false">
    <inkscape:grid
       type="xygrid"
       id="grid286"
       originx="1e-07"
       originy="2.9999999e-07"
       spacingy="1"
       spacingx="1"
       units="px" />
    <sodipodi:guide
       position="1e-07,13.384617"
       orientation="0,-1"
       id="guide663"
       inkscape:locked="false" />
    <sodipodi:guide
       position="11,24.384617"
       orientation="1,0"
       id="guide665"
       inkscape:locked="false" />
    <sodipodi:guide
       position="11,25.384617"
       orientation="0,-1"
       id="guide4433"
       inkscape:locked="false" />
    <sodipodi:guide
       position="45,-7.6153833"
       orientation="1,0"
       id="guide826"
       inkscape:locked="false" />
    <sodipodi:guide
       position="56.000001,-18.615383"
       orientation="0,-1"
       id="guide828"
       inkscape:locked="false" />
  </sodipodi:namedview>
  <style
     id="current-color-scheme"
     type="text/css">.ColorScheme-Text {
            color:#232629;
            stop-color:#232629;
        }
        .ColorScheme-Background {
            color:#eff0f1;
            stop-color:#eff0f1;
        }
.ColorScheme-Highlight { 
    color:#5e81ac;
    stop-color:#5e81ac;
}
        .ColorScheme-ButtonText {
            color:#232629;
            stop-color:#232629;
        }
        .ColorScheme-ButtonBackground {
            color:#eff0f1;
            stop-color:#eff0f1;
        }</style>
  <rect
     id="hint-stretch-borders"
     y="7.0100002"
     width="4"
     height="4"
     fill="#ff2a2a"
     x="0"
     style="opacity:0.01;fill:#008080" />
  <g
     id="active-left">
    <g
       transform="matrix(0.53333333,0,0,0.53333333,14,-15.99)"
       id="g1088">
      <path
         id="path3239"
         fill="currentColor"
         class="ColorScheme-ButtonBackground"
         d="M 30,45 C 30,36.628883 36.606391,30 45,30 V 45" />
      <path
         id="path2278"
         fill="currentColor"
         d="M 30,45 C 30,36.628883 36.606391,30 45,30 V 45"
         opacity="0.5"
         class="ColorScheme-Highlight"
         style="fill:#00a0d7;fill-opacity:1" />
      <path
         id="path2040"
         fill="currentColor"
         class="ColorScheme-Highlight"
         d="m 30,45 c 0,-8.371117 6.606391,-15 15,-15 v 1 c -7.750845,0 -14,6.202439 -14,14"
         style="fill:#00a0d7;fill-opacity:1" />
    </g>
    <g
       transform="matrix(0.53333333,0,0,-0.53333333,14,32)"
       id="g1092">
      <path
         id="path3154"
         fill="currentColor"
         class="ColorScheme-ButtonBackground"
         d="M 30,45 C 30,36.628883 36.606391,30 45,30 V 45" />
      <path
         id="path2289"
         fill="currentColor"
         class="ColorScheme-Highlight"
         d="M 30,45 C 30,36.628883 36.606391,30 45,30 V 45"
         opacity="0.5"
         style="fill:#00a0d7;fill-opacity:1" />
      <path
         id="path2291"
         fill="currentColor"
         class="ColorScheme-Highlight"
         d="m 30,45 c 0,-8.371117 6.606391,-15 15,-15 v 1 c -7.750845,0 -14,6.202439 -14,14"
         style="fill:#00a0d7;fill-opacity:1" />
    </g>
  </g>
  <g
     id="active-right">
    <g
       transform="matrix(0,0.53333333,-0.53333333,0,67,-15.99)"
       id="g1097">
      <path
         id="path2987"
         fill="currentColor"
         class="ColorScheme-ButtonBackground"
         d="M 30,45 C 30,36.628883 36.606391,30 45,30 V 45" />
      <path
         id="path2283"
         fill="currentColor"
         class="ColorScheme-Highlight"
         d="M 30,45 C 30,36.628883 36.606391,30 45,30 V 45"
         opacity="0.5"
         style="fill:#00a0d7;fill-opacity:1" />
      <path
         id="path2285"
         fill="currentColor"
         class="ColorScheme-Highlight"
         d="m 30,45 c 0,-8.371117 6.606391,-15 15,-15 v 1 c -7.750845,0 -14,6.202439 -14,14"
         style="fill:#00a0d7;fill-opacity:1" />
    </g>
    <g
       transform="matrix(0,-0.53333333,-0.53333333,0,67,32)"
       id="g1101">
      <path
         id="path3070"
         fill="currentColor"
         class="ColorScheme-ButtonBackground"
         d="M 30,45 C 30,36.628883 36.606391,30 45,30 V 45" />
      <path
         id="path2295"
         fill="currentColor"
         class="ColorScheme-Highlight"
         d="M 30,45 C 30,36.628883 36.606391,30 45,30 V 45"
         opacity="0.5"
         style="fill:#00a0d7;fill-opacity:1" />
      <path
         id="path2297"
         fill="currentColor"
         class="ColorScheme-Highlight"
         d="m 30,45 c 0,-8.371117 6.606391,-15 15,-15 v 1 c -7.750845,0 -14,6.202439 -14,14"
         style="fill:#00a0d7;fill-opacity:1" />
    </g>
  </g>
  <g
     id="active-center">
    <g
       transform="matrix(1,0,0,0.53333333,-15,-15.99)"
       id="g1106">
      <path
         id="path2824"
         class="ColorScheme-ButtonBackground"
         d="m 53,30 h 5 v 15 h -5 z"
         style="fill:currentColor" />
      <path
         id="path2453"
         class="ColorScheme-Highlight"
         d="m 53,30 h 5 v 15 h -5 z"
         style="opacity:0.5;fill:#00a0d7;fill-rule:evenodd;fill-opacity:1" />
      <path
         fill="currentColor"
         id="path2455"
         class="ColorScheme-Highlight"
         d="m 53,31 h 5 v -1 h -5 z"
         style="fill:#00a0d7;fill-opacity:1" />
    </g>
    <g
       transform="matrix(1,0,0,-0.53333333,-15,32)"
       id="g1110">
      <path
         id="path2905"
         class="ColorScheme-ButtonBackground"
         d="m 53,30 h 5 v 15 h -5 z"
         style="fill:currentColor;fill-rule:evenodd" />
      <path
         id="path2644"
         class="ColorScheme-Highlight"
         d="m 53,30 h 5 v 15 h -5 z"
         style="opacity:0.5;fill:#00a0d7;fill-rule:evenodd;fill-opacity:1" />
      <path
         fill="currentColor"
         id="path2646"
         class="ColorScheme-Highlight"
         d="m 53,31 h 5 v -1 h -5 z"
         style="fill:#00a0d7;fill-opacity:1" />
    </g>
  </g>
  <g
     id="inactive-left">
    <g
       transform="matrix(0.53333333,0,0,0.53333333,-10,-16)"
       id="g1115">
      <path
         fill="currentColor"
         id="path3759"
         class="ColorScheme-ButtonText"
         d="M 30,45 C 30,36.628883 36.606391,30 45,30 V 45"
         fill-opacity="0.09" />
      <path
         fill="currentColor"
         id="path3761"
         class="ColorScheme-ButtonText"
         d="m 30,45 c 0,-8.371117 6.606391,-15 15,-15 v 1 c -7.750845,0 -14,6.202439 -14,14"
         fill-opacity="0.24" />
    </g>
    <g
       transform="matrix(0.53333333,0,0,-0.53333333,-9.9999999,32)"
       id="g1119">
      <path
         fill="currentColor"
         id="path3771"
         class="ColorScheme-ButtonText"
         d="M 30,45 C 30,36.628883 36.606391,30 45,30 V 45"
         fill-opacity="0.09" />
      <path
         fill="currentColor"
         id="path3773"
         class="ColorScheme-ButtonText"
         d="m 30,45 c 0,-8.371117 6.606391,-15 15,-15 v 1 c -7.750845,0 -14,6.202439 -14,14"
         fill-opacity="0.24" />
    </g>
  </g>
  <g
     id="inactive-right">
    <g
       transform="matrix(0,0.53333333,-0.53333333,0,43,-16)"
       id="g1124">
      <path
         fill="currentColor"
         id="path3765"
         class="ColorScheme-ButtonText"
         d="M 30,45 C 30,36.628883 36.606391,30 45,30 V 45"
         fill-opacity="0.09" />
      <path
         fill="currentColor"
         id="path3767"
         class="ColorScheme-ButtonText"
         d="m 30,45 c 0,-8.371117 6.606391,-15 15,-15 v 1 c -7.750845,0 -14,6.202439 -14,14"
         fill-opacity="0.24" />
    </g>
    <g
       transform="matrix(0,-0.53333333,-0.53333333,0,43,32)"
       id="g1128">
      <path
         fill="currentColor"
         id="path3777"
         class="ColorScheme-ButtonText"
         d="M 30,45 C 30,36.628883 36.606391,30 45,30 V 45"
         fill-opacity="0.09" />
      <path
         fill="currentColor"
         id="path3779"
         class="ColorScheme-ButtonText"
         d="m 30,45 c 0,-8.371117 6.606391,-15 15,-15 v 1 c -7.750845,0 -14,6.202439 -14,14"
         fill-opacity="0.24" />
    </g>
  </g>
  <rect
     style="opacity:0.01;fill:#00a0d7;fill-opacity:1;stroke-width:145.989;stroke-linecap:round"
     id="hint-bar-size"
     width="38"
     height="16"
     x="7"
     y="18" />
  <g
     id="inactive-center">
    <g
       transform="matrix(1,0,0,0.53333333,-39,-16)"
       id="g1133">
      <path
         id="path3783"
         class="ColorScheme-ButtonText"
         d="m 53,30 h 5 v 15 h -5 z"
         fill-opacity="0.09"
         fill="currentColor" />
      <path
         fill="currentColor"
         id="path1207"
         class="ColorScheme-ButtonText"
         d="m 53,31 h 5 v -1 h -5 z"
         fill-opacity="0.24" />
    </g>
    <g
       transform="matrix(1,0,0,-0.53333333,-39,32)"
       id="g1137">
      <path
         fill="currentColor"
         id="path3789"
         class="ColorScheme-ButtonText"
         d="m 53,30 h 5 v 15 h -5 z"
         fill-opacity="0.09" />
      <path
         fill="currentColor"
         id="path3791"
         class="ColorScheme-ButtonText"
         d="m 53,31 h 5 v -1 h -5 z"
         fill-opacity="0.24" />
    </g>
  </g>
  <g
     id="handle"
     transform="translate(-66,21)">
    <path
       id="rect835-3-6"
       d="M 67,15 H 89 V 37 H 67 Z"
       fill="none"
       opacity="0.02" />
    <rect
       id="rect841-6-6-5-3-3"
       class="ColorScheme-ButtonBackground"
       x="67"
       y="15"
       width="22"
       height="22"
       rx="11"
       fill="currentColor"
       fill-rule="evenodd" />
    <path
       id="rect841-6"
       d="m 78,15 c -6.094,0 -11,4.906 -11,11 0,6.094 4.906,11 11,11 6.094,0 11,-4.906 11,-11 0,-6.094 -4.906,-11 -11,-11 z m 0,1 c 5.54,0 10,4.46 10,10 0,5.54 -4.46,10 -10,10 -5.54,0 -10,-4.46 -10,-10 0,-5.54 4.46,-10 10,-10 z"
       class="ColorScheme-ButtonText"
       fill="currentColor"
       fill-rule="evenodd"
       opacity="0.3" />
  </g>
  <g
     transform="translate(-30,-11)"
     id="handle-focus">
    <path
       id="rect1962"
       d="m 95,19 c -7,0 -13,6 -13,13 0,7 6,13 13,13 7,0 13,-6 13,-13 0,-7 -6,-13 -13,-13 z m 0,2 c 6,0 11,5 11,11 0,6 -5,11 -11,11 -6,0 -11,-5 -11,-11 0,-6 5,-11 11,-11 z"
       style="opacity:0.33;fill:#00a0d7;fill-opacity:1"
       class="ColorScheme-Highlight"
       sodipodi:nodetypes="ssssssssss" />
  </g>
  <g
     id="handle-shadow"
     transform="matrix(1.0769231,0,0,1.0769231,-31.923079,-71.076926)">
    <rect
       id="rect3114-3-3"
       height="26"
       style="opacity:0.00100002;fill:#000000;fill-opacity:0.00392157"
       width="26"
       x="95"
       y="97" />
    <circle
       style="fill:url(#radialGradient1675);fill-opacity:1;fill-rule:evenodd"
       id="path1195-6"
       cx="108"
       cy="111.5"
       r="11.5" />
  </g>
  <g
     id="handle-hover"
     transform="translate(-38,-44)">
    <path
       id="path4176"
       d="m 62,80 h 22 v 22 H 62 Z"
       fill="none"
       opacity="0.02" />
    <rect
       id="rect4178"
       class="ColorScheme-ButtonFocus"
       x="62"
       y="80"
       width="22"
       height="22"
       rx="11"
       fill="currentColor"
       fill-rule="evenodd" />
    <rect
       id="rect4180"
       class="ColorScheme-ButtonBackground"
       x="63"
       y="81"
       width="20"
       height="20"
       rx="10"
       fill="currentColor"
       fill-rule="evenodd" />
  </g>
  <g
     id="handle-pressed"
     transform="translate(-15,-44)">
    <path
       id="path4342"
       d="m 62,80 h 22 v 22 H 62 Z"
       fill="none"
       opacity="0.02" />
    <rect
       id="rect4344"
       class="ColorScheme-ButtonFocus"
       x="62"
       y="80"
       width="22"
       height="22"
       rx="11"
       fill="currentColor"
       fill-rule="evenodd" />
    <rect
       id="rect4346"
       class="ColorScheme-ButtonBackground"
       x="63"
       y="81"
       width="20"
       height="20"
       rx="10"
       fill="currentColor"
       fill-rule="evenodd" />
  </g>
</svg>
