<?xml version="1.0" encoding="UTF-8" standalone="no"?>
<svg
   xmlns:dc="http://purl.org/dc/elements/1.1/"
   xmlns:cc="http://creativecommons.org/ns#"
   xmlns:rdf="http://www.w3.org/1999/02/22-rdf-syntax-ns#"
   xmlns:svg="http://www.w3.org/2000/svg"
   xmlns="http://www.w3.org/2000/svg"
   xmlns:xlink="http://www.w3.org/1999/xlink"
   xmlns:sodipodi="http://sodipodi.sourceforge.net/DTD/sodipodi-0.dtd"
   xmlns:inkscape="http://www.inkscape.org/namespaces/inkscape"
   inkscape:version="1.0.1 (3bc2e813f5, 2020-09-07)"
   sodipodi:docname="viewitem.svg"
   id="svg184"
   version="1.0"
   height="161"
   width="257">
  <metadata
     id="metadata188">
    <rdf:RDF>
      <cc:Work
         rdf:about="">
        <dc:format>image/svg+xml</dc:format>
        <dc:type
           rdf:resource="http://purl.org/dc/dcmitype/StillImage" />
        <dc:title />
      </cc:Work>
    </rdf:RDF>
  </metadata>
  <sodipodi:namedview
     inkscape:document-rotation="0"
     inkscape:current-layer="svg184"
     inkscape:window-maximized="1"
     inkscape:window-y="52"
     inkscape:window-x="0"
     inkscape:cy="124.76995"
     inkscape:cx="56.229332"
     inkscape:zoom="5.8336309"
     showgrid="true"
     id="namedview186"
     inkscape:window-height="937"
     inkscape:window-width="1920"
     inkscape:pageshadow="2"
     inkscape:pageopacity="0"
     guidetolerance="10"
     gridtolerance="10"
     objecttolerance="10"
     borderopacity="1"
     bordercolor="#666666"
     pagecolor="#818181"
     inkscape:snap-bbox="true"
     inkscape:bbox-nodes="true"
     inkscape:snap-bbox-edge-midpoints="true"
     inkscape:object-paths="true"
     inkscape:snap-intersection-paths="true"
     inkscape:snap-smooth-nodes="true"
     inkscape:snap-midpoints="true">
    <inkscape:grid
       id="grid1102"
       type="xygrid" />
  </sodipodi:namedview>
  <defs
     id="defs3">
    <style
       type="text/css"
       id="current-color-scheme">.ColorScheme-Text {
        color:#7B7C7E;
      }
      .ColorScheme-Background{
        color:#EFF0F1;
      }
      .ColorScheme-Highlight{
        color:#3DAEE6;
      }
      .ColorScheme-ViewText {
        color:#7B7C7E;
      }
      .ColorScheme-ViewBackground{
        color:#FCFCFC;
      }
      .ColorScheme-ViewHover {
        color:#3DAEE6;
      }
      .ColorScheme-ViewFocus{
        color:#1E92FF;
      }
      .ColorScheme-ButtonText {
        color:#7B7C7E;
      }
      .ColorScheme-ButtonBackground{
        color:#EFF0F1;
      }
      .ColorScheme-ButtonHover {
        color:#3DAEE6;
      }
      .ColorScheme-ButtonFocus{
        color:#1E92FF;
      }</style>
  </defs>
  <rect
     id="hint-tile-center"
     x="49.929993"
     y="-90.320007"
     width="40"
     height="40"
     style="opacity:0.875;fill:#008000" />
  <path
     id="selected-center"
     class="ColorScheme-Highlight"
     d="M 22,21 V 69 H 70 V 21 Z"
     inkscape:connector-curvature="0"
     style="color:#3daee6;opacity:0.15;fill:#ffffff;stroke-width:0.99999994;fill-opacity:1" />
  <g
     style="opacity:1"
     id="selected-left"
     transform="matrix(1,0,0,3,-169.14,-2468.58)">
    <path
       class="ColorScheme-Highlight"
       d="m 186.14,829.86 v 16 h 4 v -16 z"
       id="path7"
       inkscape:connector-curvature="0"
       style="color:#3daee6;opacity:0.15;fill:#ffffff;fill-opacity:1" />
  </g>
  <g
     style="opacity:1"
     id="selected-topleft"
     transform="translate(-169.14001,-809.86005)">
    <path
       inkscape:connector-curvature="0"
       id="path10"
       transform="matrix(0.33333333,0,0,0.33333333,170.47333,818.86)"
       d="M 59,21 C 52.352,21 47,26.352 47,33 H 59 Z"
       style="color:#3daee6;opacity:0.15;fill:#ffffff;stroke-width:3;fill-opacity:1" />
  </g>
  <g
     style="opacity:1"
     id="selected-top"
     transform="matrix(0.36641221,0,0,1,-47.669618,-809.86)">
    <path
       class="ColorScheme-Highlight"
       d="m 190.14,825.86 v 4 h 131 v -4 z"
       id="path13"
       inkscape:connector-curvature="0"
       style="color:#3daee6;opacity:0.15;fill:#ffffff;fill-opacity:1" />
  </g>
  <g
     style="opacity:1"
     id="selected-topright"
     transform="matrix(1.4999981,0,0,1.4999981,-412.70938,-1222.7884)">
    <path
       inkscape:connector-curvature="0"
       id="path16"
       d="m 322.47333,825.86 v 2.66666 H 325.14 c 0,-1.47733 -1.18934,-2.66666 -2.66667,-2.66666 z"
       style="color:#3daee6;opacity:0.15;fill:#ffffff;stroke-width:0.66666573;fill-opacity:1" />
  </g>
  <g
     style="opacity:1"
     id="selected-right"
     transform="matrix(1,0,0,3,-250.14,-2468.58)">
    <path
       class="ColorScheme-Highlight"
       d="m 325.14,829.86 v 16 h -4 v -16 z"
       id="path19"
       inkscape:connector-curvature="0"
       style="color:#3daee6;opacity:0.15;fill:#ffffff;fill-opacity:1" />
  </g>
  <path
     id="normal-center"
     d="m 105.00003,20.999997 v 47.999988 h 48 V 20.999997 Z"
     inkscape:connector-curvature="0"
     style="opacity:0;fill:#000000;fill-opacity:0.92814373;stroke-width:0.99999964" />
  <g
     id="normal-topleft"
     transform="matrix(0.57142916,0,0,0.57142916,-4.651536,-454.20619)"
     style="opacity:0;fill:#000000;fill-opacity:0.92814373">
    <rect
       x="183.14"
       y="822.85999"
       width="7.0000095"
       height="7.0001078"
       id="rect62"
       style="opacity:0.52100004;fill:#000000;fill-opacity:0.92814373;stroke-width:3.50011683" />
    <g
       style="fill:#000000;fill-opacity:0.92814373"
       id="g60">
      <path
         d="m 186.14,829.86 h 4 v -4 h -1.4688 c -1.405,0 -2.5312,1.1159 -2.5312,2.5312 z"
         id="path54"
         inkscape:connector-curvature="0"
         style="opacity:0.82273003;fill:#000000;fill-opacity:0.92814373" />
      <path
         d="m 185.14,828.39 c 0,-1.9482 1.5884,-3.5312 3.5312,-3.5312 h 1.4688 v 1 h -1.4688 c -1.405,0 -2.5312,1.1159 -2.5312,2.5312 v 1.4688 h -1 z"
         id="path56"
         inkscape:connector-curvature="0"
         style="opacity:0.85;fill:#000000;fill-opacity:0.92814373" />
      <path
         d="m 186.14,829.86 h 1 v -1 c 0,-1.4154 0.59498,-2 2,-2 h 1 v -1 h -1.4688 c -1.405,0 -2.5312,1.1159 -2.5312,2.5312 z"
         id="path58"
         inkscape:connector-curvature="0"
         style="fill:#000000;fill-opacity:0.92814373" />
    </g>
  </g>
  <g
     id="normal-top"
     transform="matrix(0.36641296,0,0,0.57142728,35.330167,-454.20464)"
     style="opacity:0;fill:#000000;fill-opacity:0.92814373">
    <g
       style="fill:#000000;fill-opacity:0.92814373"
       id="g71">
      <path
         d="m 190.14,825.86 v 4 h 131 v -4 z"
         id="path65"
         inkscape:connector-curvature="0"
         style="opacity:0.82273003;fill:#000000;fill-opacity:0.92814373" />
      <path
         d="m 190.14,824.86 v 1 h 131 v -1 z"
         id="path67"
         inkscape:connector-curvature="0"
         style="opacity:0.85;fill:#000000;fill-opacity:0.92814373" />
      <path
         d="m 190.14,825.86 v 1 h 131 v -1 z"
         id="path69"
         inkscape:connector-curvature="0"
         style="fill:#000000;fill-opacity:0.92814373" />
    </g>
    <rect
       x="190.14005"
       y="822.85999"
       width="131.00006"
       height="1.9999"
       id="rect73"
       style="opacity:0.52100004;fill:#000000;fill-opacity:0.92814373;stroke-width:6.60807753" />
  </g>
  <g
     style="opacity:1"
     id="selected-bottomright"
     transform="rotate(180,130.57001,449.93001)">
    <path
       inkscape:connector-curvature="0"
       id="path149"
       transform="matrix(-0.33333333,0,0,-0.33333333,215.80667,846.86)"
       d="m 77,51 v 12 c 6.648,0 12,-5.352 12,-12 z"
       style="color:#3daee6;opacity:0.15;fill:#ffffff;stroke-width:3;fill-opacity:1" />
  </g>
  <g
     style="opacity:1"
     id="selected-bottom"
     transform="matrix(-0.36641221,0,0,-1,139.66964,899.86002)">
    <path
       class="ColorScheme-Highlight"
       d="m 190.14,825.86 v 4 h 131 v -4 z"
       id="path152"
       inkscape:connector-curvature="0"
       style="color:#3daee6;opacity:0.15;fill:#ffffff;fill-opacity:1" />
  </g>
  <g
     style="opacity:1"
     id="selected-bottomleft"
     transform="rotate(180,171.07,449.93)">
    <path
       inkscape:connector-curvature="0"
       id="path155"
       transform="matrix(-0.33333333,0,0,-0.33333333,340.80667,846.86)"
       d="m 47,51 c 0,6.648 5.352,12 12,12 V 51 Z"
       style="color:#3daee6;opacity:0.15;fill:#ffffff;stroke-width:3;fill-opacity:1" />
  </g>
  <use
     style="opacity:0"
     height="100%"
     width="100%"
     transform="rotate(90,128.99997,45.000046)"
     id="normal-right"
     xlink:href="#normal-top"
     y="0"
     x="0" />
  <use
     style="opacity:0"
     height="100%"
     width="100%"
     transform="matrix(0,-1,1.0000114,0,83.999795,173.99993)"
     id="normal-left"
     xlink:href="#normal-top"
     y="0"
     x="0" />
  <use
     style="opacity:0"
     height="100%"
     width="100%"
     transform="matrix(1,0,0,-1,9.7013627e-5,89.999994)"
     id="normal-bottom"
     xlink:href="#normal-top"
     y="0"
     x="0" />
  <use
     style="opacity:0"
     height="100%"
     width="100%"
     transform="matrix(-1,0,0,1,258.00004,-1.2372944e-5)"
     id="normal-topright"
     xlink:href="#normal-topleft"
     y="0"
     x="0" />
  <use
     style="opacity:0"
     height="100%"
     width="100%"
     transform="matrix(1,0,0,-1,2.0013627e-5,90.000004)"
     id="normal-bottomleft"
     xlink:href="#normal-topleft"
     y="0"
     x="0" />
  <use
     style="opacity:0"
     height="100%"
     width="100%"
     transform="rotate(-180,129.00001,45.000004)"
     id="normal-bottomright"
     xlink:href="#normal-topleft"
     y="0"
     x="0" />
  <path
     id="hover-center"
     class="ColorScheme-Highlight"
     d="m 22.000028,91.00005 v 48 h 48 v -48 z"
     inkscape:connector-curvature="0"
     style="color:#3daee6;opacity:0.15;fill:#ffffff;stroke-width:0.99999994;fill-opacity:1" />
  <g
     style="opacity:1"
     id="hover-left"
     transform="matrix(0.99999999,0,0,3,-169.13999,-2398.5798)">
    <path
       class="ColorScheme-Highlight"
       d="m 187.13999,829.86 v 16 H 190.14 v -16 z"
       id="path7-8"
       inkscape:connector-curvature="0"
       style="color:#3daee6;opacity:0.15;fill:#ffffff;fill-opacity:1;stroke-width:0.866027" />
    <path
       class="ColorScheme-Highlight"
       d="m 186.14,829.86 v 16 h 0.99999 v -16 z"
       id="path914"
       inkscape:connector-curvature="0"
       style="color:#3daee6;opacity:0.5;fill:#ffffff;fill-opacity:1;stroke-width:0.499998" />
  </g>
  <g
     style="opacity:1"
     id="hover-topleft"
     transform="translate(-169.14,-739.86)">
    <path
       inkscape:connector-curvature="0"
       id="path10-91"
       d="m 190.14,826.86 c -1.662,0 -3,1.338 -3,3 h 3 z"
       style="color:#3daee6;opacity:0.15;fill:#ffffff;fill-opacity:1;stroke-width:0.749999" />
    <path
       id="path902"
       style="color:#3daee6;opacity:0.5;fill:#ffffff;fill-opacity:1;stroke-width:1"
       d="M 21 86 C 18.784 86 17 87.784 17 90 L 18 90 C 18 88.338 19.338 87 21 87 L 21 86 z "
       transform="translate(169.14,739.86)" />
  </g>
  <g
     style="opacity:1"
     id="hover-top"
     transform="matrix(0.3664122,0,0,0.99999999,-47.669596,-739.85996)">
    <path
       class="ColorScheme-Highlight"
       d="M 190.14,826.85997 V 829.86 h 131 v -3.00003 z"
       id="path13-26"
       inkscape:connector-curvature="0"
       style="color:#3daee6;opacity:0.15;fill:#ffffff;fill-opacity:1;stroke-width:0.86603" />
    <path
       class="ColorScheme-Highlight"
       d="m 190.14,825.86 v 0.99997 h 131 V 825.86 Z"
       id="path912"
       inkscape:connector-curvature="0"
       style="color:#3daee6;opacity:0.5;fill:#ffffff;fill-opacity:1;stroke-width:0.499992" />
  </g>
  <g
     style="opacity:1"
     id="hover-topright"
     transform="matrix(1.4999981,0,0,1.4999981,-412.70937,-1152.7882)">
    <path
       inkscape:connector-curvature="0"
       id="path16-1"
       d="m 322.47333,826.52651 v 2.00015 h 2.00015 c 0,-1.10808 -0.89207,-2.00015 -2.00015,-2.00015 z"
       style="color:#3daee6;opacity:0.15;fill:#ffffff;fill-opacity:1;stroke-width:0.500037" />
    <path
       id="path907"
       style="color:#3daee6;opacity:0.5;fill:#ffffff;fill-opacity:1;stroke-width:0.999997"
       d="M 71 86 L 71 87 C 72.662118 87 74 88.337882 74 90 L 75 90 C 75 87.784008 73.215992 86 71 86 z "
       transform="matrix(0.66666751,0,0,0.66666751,275.13993,768.52644)" />
  </g>
  <g
     style="opacity:1"
     id="hover-right"
     transform="matrix(0.99999999,0,0,3,-250.13999,-2398.5798)">
    <path
       class="ColorScheme-Highlight"
       d="m 324.13999,829.86 v 16 H 321.14 v -16 z"
       id="path19-7"
       inkscape:connector-curvature="0"
       style="color:#3daee6;opacity:0.15;fill:#ffffff;fill-opacity:1;stroke-width:0.866023" />
    <path
       class="ColorScheme-Highlight"
       d="m 325.14,829.86 v 16 h -1.00001 v -16 z"
       id="path928"
       inkscape:connector-curvature="0"
       style="color:#3daee6;opacity:0.5;fill:#ffffff;fill-opacity:1;stroke-width:0.500002" />
  </g>
  <g
     style="opacity:1"
     id="hover-bottomright"
     transform="rotate(180,130.57003,484.93006)">
    <path
       inkscape:connector-curvature="0"
       id="path149-0"
       d="m 190.14,829.86 v -2.99988 c -1.66193,0 -2.99988,1.33795 -2.99988,2.99988 z"
       style="color:#3daee6;opacity:0.15;fill:#ffffff;fill-opacity:1;stroke-width:0.74997" />
    <path
       id="path923"
       style="color:#3daee6;opacity:0.5;fill:#ffffff;fill-opacity:1;stroke-width:1"
       d="M 74 140 C 74 141.66193 72.66193 143 71 143 L 71 144 C 73.216 144 75 142.216 75 140 L 74 140 z "
       transform="rotate(-180,130.57003,484.93006)" />
  </g>
  <g
     style="opacity:1"
     id="hover-bottom"
     transform="matrix(-0.3664122,0,0,-0.99999999,139.66966,969.86005)">
    <path
       class="ColorScheme-Highlight"
       d="M 190.14,826.86006 V 829.86 h 131 v -2.99994 z"
       id="path152-84"
       inkscape:connector-curvature="0"
       style="color:#3daee6;opacity:0.15;fill:#ffffff;fill-opacity:1;stroke-width:0.866017" />
    <path
       class="ColorScheme-Highlight"
       d="m 190.14,825.86 v 1.00006 h 131 V 825.86 Z"
       id="path921"
       inkscape:connector-curvature="0"
       style="color:#3daee6;opacity:0.5;fill:#ffffff;fill-opacity:1;stroke-width:0.500015" />
  </g>
  <g
     style="opacity:1"
     id="hover-bottomleft"
     transform="rotate(180,171.07001,484.93004)">
    <path
       inkscape:connector-curvature="0"
       id="path155-7"
       d="m 324.13992,829.86 c 0,-1.66196 -1.33796,-2.99992 -2.99992,-2.99992 V 829.86 Z"
       style="color:#3daee6;opacity:0.15;fill:#ffffff;fill-opacity:1;stroke-width:0.74998" />
    <path
       id="path916"
       style="color:#3daee6;opacity:0.5;fill:#ffffff;fill-opacity:1;stroke-width:1"
       d="M 17 140 C 17 142.216 18.784 144 21 144 L 21 143 C 19.33804 143 18 141.66196 18 140 L 17 140 z "
       transform="rotate(-180,171.07001,484.93004)" />
  </g>
  <path
     id="selected+hover-center"
     class="ColorScheme-Highlight"
     d="m 105.00001,90.9999 v 48 h 48 v -48 z"
     inkscape:connector-curvature="0"
     style="color:#3daee6;opacity:0.2;fill:#ffffff;stroke-width:0.99999994;fill-opacity:1" />
  <g
     style="opacity:1"
     id="selected+hover-left"
     transform="matrix(0.99999999,0,0,3,-86.139998,-2398.58)">
    <path
       class="ColorScheme-Highlight"
       d="m 186.14,829.86 v 16 h 4 v -16 z"
       id="path7-83"
       inkscape:connector-curvature="0"
       style="color:#3daee6;opacity:0.2;fill:#ffffff;fill-opacity:1" />
  </g>
  <g
     style="opacity:1"
     id="selected+hover-topleft"
     transform="translate(-86.140008,-739.86015)">
    <path
       inkscape:connector-curvature="0"
       id="path10-0"
       transform="matrix(0.33333333,0,0,0.33333333,170.47333,818.86)"
       d="M 59,21 C 52.352,21 47,26.352 47,33 H 59 Z"
       style="color:#3daee6;opacity:0.2;fill:#ffffff;stroke-width:3;fill-opacity:1" />
  </g>
  <g
     style="opacity:1"
     id="selected+hover-top"
     transform="matrix(0.3664122,0,0,0.99999999,35.330385,-739.86011)">
    <path
       class="ColorScheme-Highlight"
       d="m 190.14,825.86 v 4 h 131 v -4 z"
       id="path13-9"
       inkscape:connector-curvature="0"
       style="color:#3daee6;opacity:0.2;fill:#ffffff;fill-opacity:1" />
  </g>
  <g
     style="opacity:1"
     id="selected+hover-topright"
     transform="matrix(1.4999981,0,0,1.4999981,-329.70938,-1152.7884)">
    <path
       inkscape:connector-curvature="0"
       id="path16-6"
       d="m 322.47333,825.86 v 2.66666 H 325.14 c 0,-1.47733 -1.18934,-2.66666 -2.66667,-2.66666 z"
       style="color:#3daee6;opacity:0.2;fill:#ffffff;stroke-width:0.66666573;fill-opacity:1" />
  </g>
  <g
     style="opacity:1"
     id="selected+hover-right"
     transform="matrix(0.99999999,0,0,3,-167.14,-2398.58)">
    <path
       class="ColorScheme-Highlight"
       d="m 325.14,829.86 v 16 h -4 v -16 z"
       id="path19-4"
       inkscape:connector-curvature="0"
       style="color:#3daee6;opacity:0.2;fill:#ffffff;fill-opacity:1" />
  </g>
  <g
     style="opacity:1"
     id="selected+hover-bottomright"
     transform="rotate(180,172.07002,484.92998)">
    <path
       inkscape:connector-curvature="0"
       id="path149-8"
       transform="matrix(-0.33333333,0,0,-0.33333333,215.80667,846.86)"
       d="m 77,51 v 12 c 6.648,0 12,-5.352 12,-12 z"
       style="color:#3daee6;opacity:0.2;fill:#ffffff;stroke-width:3;fill-opacity:1" />
  </g>
  <g
     style="opacity:1"
     id="selected+hover-bottom"
     transform="matrix(-0.3664122,0,0,-0.99999999,222.66965,969.8599)">
    <path
       class="ColorScheme-Highlight"
       d="m 190.14,825.86 v 4 h 131 v -4 z"
       id="path152-7"
       inkscape:connector-curvature="0"
       style="color:#3daee6;opacity:0.2;fill:#ffffff;fill-opacity:1" />
  </g>
  <g
     style="opacity:1"
     id="selected+hover-bottomleft"
     transform="rotate(180,212.57,484.92996)">
    <path
       inkscape:connector-curvature="0"
       id="path155-1"
       transform="matrix(-0.33333333,0,0,-0.33333333,340.80667,846.86)"
       d="m 47,51 c 0,6.648 5.352,12 12,12 V 51 Z"
       style="color:#3daee6;opacity:0.2;fill:#ffffff;stroke-width:3;fill-opacity:1" />
  </g>
</svg>
