<?xml version="1.0" encoding="UTF-8" standalone="no"?>
<svg
   xmlns:dc="http://purl.org/dc/elements/1.1/"
   xmlns:cc="http://creativecommons.org/ns#"
   xmlns:rdf="http://www.w3.org/1999/02/22-rdf-syntax-ns#"
   xmlns:svg="http://www.w3.org/2000/svg"
   xmlns="http://www.w3.org/2000/svg"
   xmlns:sodipodi="http://sodipodi.sourceforge.net/DTD/sodipodi-0.dtd"
   xmlns:inkscape="http://www.inkscape.org/namespaces/inkscape"
   id="svg4306"
   width="22"
   height="22"
   version="1.1"
   style="enable-background:new"
   sodipodi:docname="close.svg"
   inkscape:version="0.92.4 5da689c313, 2019-01-14">
  <metadata
     id="metadata31">
    <rdf:RDF>
      <cc:Work
         rdf:about="">
        <dc:format>image/svg+xml</dc:format>
        <dc:type
           rdf:resource="http://purl.org/dc/dcmitype/StillImage" />
        <dc:title />
      </cc:Work>
    </rdf:RDF>
  </metadata>
  <defs
     id="defs29">
    <filter
       color-interpolation-filters="sRGB"
       height="1.048"
       width="1.048"
       y="-.024"
       x="-.024"
       id="filter11290">
      <feGaussianBlur
         id="feGaussianBlur880"
         stdDeviation="0.15875313" />
    </filter>
    <linearGradient
       gradientUnits="userSpaceOnUse"
       gradientTransform="translate(-0.0080452,-5.0139e-5)"
       y2=".93425"
       y1="14.069"
       x2="16.101"
       x1="2.9667"
       id="linearGradient1005">
      <stop
         id="stop883"
         offset="0"
         stop-color="#ff7d50" />
      <stop
         id="stop885"
         offset=".51596"
         stop-color="#fa4b5a" />
      <stop
         id="stop887"
         offset="1"
         stop-color="#ff509b" />
    </linearGradient>
    <clipPath
       id="aw">
      <path
         id="path890"
         d="m481 318h22v22h-22z" />
    </clipPath>
    <clipPath
       id="av">
      <path
         id="path893"
         d="m507 318h22v22h-22z" />
    </clipPath>
    <clipPath
       id="au">
      <path
         id="path896"
         d="m530 318h22v22h-22z" />
    </clipPath>
    <clipPath
       id="at">
      <path
         id="path899"
         d="m672 1064c0-1.105 4.925-2 11-2s11 0.895 11 2-4.925 2-11 2-11-0.895-11-2" />
    </clipPath>
    <clipPath
       id="as">
      <path
         id="path902"
         d="m660 1057h51v65.001h-51z" />
    </clipPath>
    <clipPath
       id="ar">
      <path
         id="path905"
         d="m659 517h53v18h-53z" />
    </clipPath>
    <clipPath
       id="aq">
      <path
         id="path908"
         d="m659 500h53v18h-53z" />
    </clipPath>
    <clipPath
       id="ap">
      <path
         id="path911"
         d="m648 112h73v60h-73z" />
    </clipPath>
    <clipPath
       id="ao">
      <path
         id="path914"
         d="m826 1056h59v60h-59z" />
    </clipPath>
    <clipPath
       id="an">
      <path
         id="path917"
         d="m805 276h100v100h-100z" />
    </clipPath>
    <clipPath
       id="am">
      <path
         id="path920"
         d="m145 1063.8h74.152v45.21h-74.152z" />
    </clipPath>
    <clipPath
       id="al">
      <path
         id="path923"
         d="m151 667h57v57h-57z" />
    </clipPath>
    <clipPath
       id="ak">
      <path
         id="path926"
         d="m154 697h51v51h-51z" />
    </clipPath>
    <clipPath
       id="aj">
      <path
         id="path929"
         d="m500.04 864.45h36.012v67.52h-36.012z" />
    </clipPath>
    <clipPath
       id="ai">
      <path
         id="path932"
         d="m836 870.54h47v55.539h-47z" />
    </clipPath>
    <clipPath
       id="ah">
      <path
         id="path935"
         d="m318.03 702.35h62.848v37.991h-62.848z" />
    </clipPath>
    <clipPath
       id="ag">
      <path
         id="path938"
         d="m485.03 133.35h62.847v37.991h-62.847z" />
    </clipPath>
    <clipPath
       id="af">
      <path
         id="path941"
         d="m493.37 677.93h45.643v68.067h-45.643z" />
    </clipPath>
    <clipPath
       id="ae">
      <path
         id="path944"
         d="m144.34 1018.2h71.467v78h-71.467z" />
    </clipPath>
    <clipPath
       id="ad">
      <path
         id="path947"
         d="m293.21 1068.6 66.323-38.292 36.047 62.435-66.323 38.292z" />
    </clipPath>
    <clipPath
       id="ac">
      <path
         id="path950"
         d="m488.86 1054.5h10v10.706h-10z" />
    </clipPath>
    <clipPath
       id="ab">
      <path
         id="path953"
         d="m508 1066.8h10.001v10.705h-10.001z" />
    </clipPath>
    <clipPath
       id="aa">
      <path
         id="path956"
         d="m525 1045.8h10v10.706h-10z" />
    </clipPath>
    <clipPath
       id="z">
      <path
         id="path959"
         d="m836 1043.7h25.5v31.5h-25.5z" />
    </clipPath>
    <clipPath
       id="y">
      <path
         id="path962"
         d="m838 1062.2h24v24h-24z" />
    </clipPath>
    <clipPath
       id="x">
      <path
         id="path965"
         d="m134 489.24h7v6h-7z" />
    </clipPath>
    <clipPath
       id="w">
      <path
         id="path968"
         d="m216 489.24h7v6h-7z" />
    </clipPath>
    <clipPath
       id="v">
      <path
         id="path971"
         d="m838 477.24h22v22h-22z" />
    </clipPath>
    <clipPath
       id="u">
      <path
         id="path974"
         d="m704 1061.2h25v25h-25z" />
    </clipPath>
    <clipPath
       id="t">
      <path
         id="path977"
         d="m663.04 1078.6-1.808-3.514-21.07-47.453c13.336-18.439 48.336-26.938 73.836-3.439 0.842 0 6.476 6.246 6 7l-18.386 25.895c-0.483 0.765-1.453 0.946-2.177 0.431l-15.505-11.011c-0.359-0.255-0.847-0.153-1.07 0.238l-18.272 31.869c-0.218 0.384-0.502 0.578-0.782 0.578-0.282 0-0.561-0.197-0.766-0.594" />
    </clipPath>
    <clipPath
       id="s">
      <path
         id="path980"
         d="m127 820.24h100v100h-100z" />
    </clipPath>
    <clipPath
       id="r">
      <path
         id="path983"
         d="m809 680.24c0-22.092 17.908-40 40-40s40 17.908 40 40c0 22.091-17.908 40-40 40s-40-17.909-40-40" />
    </clipPath>
    <clipPath
       id="q">
      <path
         id="path986"
         d="m658 469.24h44v45h-44z" />
    </clipPath>
    <clipPath
       id="p">
      <path
         id="path989"
         d="m651 271.24h58v58h-58z" />
    </clipPath>
    <clipPath
       id="o">
      <path
         id="path992"
         d="m662 307.24h38v8h-38z" />
    </clipPath>
    <clipPath
       id="n">
      <path
         id="path995"
         d="m858.98 137.24c0.013-0.101 0.021-0.203 0.021-0.307v-6.693h15.75c1.237 0 2.25-1.013 2.25-2.25v-11.25l-27-4.5-27 4.5v-2.25l27-4.5 27 4.5v-27c0-1.237-1.013-2.25-2.25-2.25h-49.5c-1.237 0-2.25 1.013-2.25 2.25v-4.25h54v54zm-35.979 0v-9.25c0 1.237 1.013 2.25 2.25 2.25h15.75v6.693c0 0.104 7e-3 0.207 0.02 0.307zm22.5-7h9v4.5h-9zm1.125-9c-0.62 0-1.125-0.506-1.125-1.125v-2.25c0-0.619 0.505-1.125 1.125-1.125h6.75c0.619 0 1.125 0.506 1.125 1.125v2.25c0 0.619-0.506 1.125-1.125 1.125z" />
    </clipPath>
    <clipPath
       id="m">
      <path
         id="path998"
         d="m531.27 136.24c6.325-2.29 10.727-8.277 10.727-15.484 0-11.316-10.2-20.563-25.65-34.575l-4.35-3.941-4.35 3.941c-15.45 14.012-25.65 23.259-25.65 34.575v-39.516h60v55zm-26.983 0c2.995-1.052 5.686-2.883 7.71-5.25 2.024 2.367 4.715 4.198 7.71 5.25zm-22.29 0v-15.484c0 7.207 4.402 13.194 10.727 15.484z" />
    </clipPath>
    <clipPath
       id="l">
      <path
         id="path1001"
         d="m648 79.241h64v64h-64z" />
    </clipPath>
    <clipPath
       id="k">
      <path
         id="path1004"
         d="m500 691.74c0-3.037 2.463-5.5 5.5-5.5s5.5 2.463 5.5 5.5-2.463 5.5-5.5 5.5-5.5-2.463-5.5-5.5" />
    </clipPath>
    <clipPath
       id="j">
      <path
         id="path1007"
         d="m500 669.74c0-3.037 2.463-5.5 5.5-5.5s5.5 2.463 5.5 5.5c0 3.038-2.463 5.5-5.5 5.5s-5.5-2.462-5.5-5.5" />
    </clipPath>
    <clipPath
       id="i">
      <path
         id="path1010"
         d="m494 680.74c0-3.037 2.462-5.5 5.5-5.5s5.5 2.463 5.5 5.5c0 3.038-2.462 5.5-5.5 5.5s-5.5-2.462-5.5-5.5" />
    </clipPath>
    <clipPath
       id="h">
      <path
         id="path1013"
         d="m513 691.74c0-3.037 2.463-5.5 5.5-5.5s5.5 2.463 5.5 5.5-2.463 5.5-5.5 5.5-5.5-2.463-5.5-5.5" />
    </clipPath>
    <clipPath
       id="g">
      <path
         id="path1016"
         d="m513 669.74c0-3.037 2.463-5.5 5.5-5.5s5.5 2.463 5.5 5.5c0 3.038-2.463 5.5-5.5 5.5s-5.5-2.462-5.5-5.5" />
    </clipPath>
    <clipPath
       id="f-0">
      <path
         id="path1019"
         d="m507 680.74c0-3.037 2.463-5.5 5.5-5.5s5.5 2.463 5.5 5.5c0 3.038-2.463 5.5-5.5 5.5s-5.5-2.462-5.5-5.5" />
    </clipPath>
    <clipPath
       id="e-7">
      <path
         id="path1022"
         d="m520 680.74c0-3.037 2.463-5.5 5.5-5.5s5.5 2.463 5.5 5.5c0 3.038-2.463 5.5-5.5 5.5s-5.5-2.462-5.5-5.5" />
    </clipPath>
    <clipPath
       id="d-8">
      <path
         id="path1025"
         d="m321 322.24c-4.97 0-9-4.029-9-9 0-4.97 4.03-9 9-9h45c4.971 0 9 4.03 9 9 0 4.971-4.029 9-9 9z" />
    </clipPath>
    <clipPath
       id="c">
      <path
         id="path1028"
         d="m322 297.24c-4.971 0-9-4.029-9-9 0-4.97 4.029-9 9-9h45c4.971 0 9 4.03 9 9 0 4.971-4.029 9-9 9z" />
    </clipPath>
    <clipPath
       id="b-6">
      <path
         id="path1031"
         d="m155 83.24h44v53h-44z" />
    </clipPath>
    <filter
       color-interpolation-filters="sRGB"
       height="1.1898"
       width="1.3198"
       y="-.094877"
       x="-.15989"
       id="filter2174">
      <feGaussianBlur
         id="feGaussianBlur1034"
         stdDeviation="0.25608494" />
    </filter>
  </defs>
  <sodipodi:namedview
     pagecolor="#c8c8c8"
     bordercolor="#666666"
     borderopacity="1"
     objecttolerance="10"
     gridtolerance="10"
     guidetolerance="10"
     inkscape:pageopacity="0"
     inkscape:pageshadow="2"
     inkscape:window-width="1920"
     inkscape:window-height="1007"
     id="namedview27"
     showgrid="true"
     inkscape:zoom="4"
     inkscape:cx="-74.338135"
     inkscape:cy="-13.000365"
     inkscape:window-x="0"
     inkscape:window-y="0"
     inkscape:window-maximized="1"
     inkscape:current-layer="svg4306"
     inkscape:snap-bbox="true"
     inkscape:bbox-nodes="true">
    <inkscape:grid
       type="xygrid"
       id="grid878" />
  </sodipodi:namedview>
  <g
     id="active-center">
    <rect
       id="rect4175"
       width="22"
       height="22"
       x="0"
       y="0"
       style="opacity:0.00100002;fill:#000000;fill-opacity:1;fill-rule:nonzero;stroke:none;stroke-width:2;stroke-linecap:round;stroke-linejoin:round;stroke-miterlimit:4;stroke-dasharray:none;stroke-opacity:1" />
    <g
       transform="translate(27.282485,0.28248599)"
       id="g964">
      <rect
         style="opacity:1;fill:#eaeaea;fill-opacity:1;fill-rule:evenodd;stroke:none;stroke-width:0.48989797;stroke-linecap:round;stroke-linejoin:miter;stroke-miterlimit:4;stroke-dasharray:none;stroke-dashoffset:3;stroke-opacity:1;paint-order:stroke fill markers"
         id="rect948"
         width="1"
         height="18"
         x="-19.591883"
         y="-12.935029"
         ry="0"
         transform="rotate(-45)" />
      <rect
         transform="matrix(-0.70710678,-0.70710678,-0.70710678,0.70710678,0,0)"
         ry="0"
         y="10.091883"
         x="3.435029"
         height="18"
         width="1"
         id="rect960"
         style="opacity:1;fill:#eaeaea;fill-opacity:1;fill-rule:evenodd;stroke:none;stroke-width:0.48989797;stroke-linecap:round;stroke-linejoin:miter;stroke-miterlimit:4;stroke-dasharray:none;stroke-dashoffset:3;stroke-opacity:1;paint-order:stroke fill markers" />
    </g>
  </g>
  <g
     id="inactive-center">
    <rect
       id="rect4225"
       width="22"
       height="22"
       x="28"
       y="0"
       style="opacity:0.00100002;fill:#000000;fill-opacity:1;fill-rule:nonzero;stroke:none;stroke-width:2;stroke-linecap:round;stroke-linejoin:round;stroke-miterlimit:4;stroke-dasharray:none;stroke-opacity:1" />
    <path
       inkscape:connector-curvature="0"
       id="rect966"
       d="m 32.989257,4.2822265 -0.707031,0.707031 6.011719,6.0117195 -6.011719,6.009765 0.707031,0.707031 6.011719,-6.009765 6.009766,6.009765 0.707031,-0.707031 -6.009766,-6.009765 6.009766,-6.0117195 -0.707031,-0.707031 -6.009766,6.0117195 z"
       style="opacity:0.3;fill:#eaeaea;fill-opacity:1;fill-rule:evenodd;stroke:none;stroke-width:0.48989797;stroke-linecap:round;stroke-linejoin:miter;stroke-miterlimit:4;stroke-dasharray:none;stroke-dashoffset:3;stroke-opacity:1;paint-order:stroke fill markers" />
  </g>
  <g
     id="hover-center">
    <rect
       y="27"
       x="0"
       height="22"
       width="22"
       id="rect6348"
       style="display:inline;opacity:1;fill:none;fill-opacity:1;stroke:none;stroke-width:1.375;stroke-linecap:butt;stroke-linejoin:miter;stroke-miterlimit:4;stroke-dasharray:none;stroke-dashoffset:0;stroke-opacity:0" />
    <rect
       ry="5"
       y="27"
       x="0"
       height="22"
       width="22"
       id="rect997"
       style="opacity:1;fill:#ff6464;fill-opacity:1;stroke:none;stroke-width:1.22222221;stroke-linecap:round;stroke-miterlimit:4;stroke-dasharray:none;stroke-opacity:1" />
    <g
       id="g986"
       transform="translate(27.282485,27.282486)">
      <rect
         style="opacity:1;fill:#eaeaea;fill-opacity:1;fill-rule:evenodd;stroke:none;stroke-width:0.48989797;stroke-linecap:round;stroke-linejoin:miter;stroke-miterlimit:4;stroke-dasharray:none;stroke-dashoffset:3;stroke-opacity:1;paint-order:stroke fill markers"
         id="rect982"
         width="1"
         height="18"
         x="-19.591883"
         y="-12.935029"
         ry="0"
         transform="rotate(-45)" />
      <rect
         transform="matrix(-0.70710678,-0.70710678,-0.70710678,0.70710678,0,0)"
         ry="0"
         y="10.091883"
         x="3.435029"
         height="18"
         width="1"
         id="rect984"
         style="opacity:1;fill:#eaeaea;fill-opacity:1;fill-rule:evenodd;stroke:none;stroke-width:0.48989797;stroke-linecap:round;stroke-linejoin:miter;stroke-miterlimit:4;stroke-dasharray:none;stroke-dashoffset:3;stroke-opacity:1;paint-order:stroke fill markers" />
    </g>
  </g>
  <g
     id="deactivated-center"
     transform="translate(-0.662323)">
    <rect
       style="opacity:0.00100002;fill:#000000;fill-opacity:1;fill-rule:nonzero;stroke:none;stroke-width:2;stroke-linecap:round;stroke-linejoin:round;stroke-miterlimit:4;stroke-dasharray:none;stroke-opacity:1"
       y="1.1971283e-09"
       x="57.662323"
       height="22"
       width="22"
       id="rect1082" />
    <path
       inkscape:connector-curvature="0"
       style="opacity:0.3;fill:#eaeaea;fill-opacity:1;fill-rule:evenodd;stroke:none;stroke-width:0.48989797;stroke-linecap:round;stroke-linejoin:miter;stroke-miterlimit:4;stroke-dasharray:none;stroke-dashoffset:3;stroke-opacity:1;paint-order:stroke fill markers"
       d="m 62.65158,4.2822265 -0.707031,0.707031 6.011719,6.0117195 -6.011719,6.009766 0.707031,0.707031 6.011719,-6.009766 6.009765,6.009766 0.707032,-0.707031 -6.009766,-6.009766 6.009766,-6.0117195 -0.707032,-0.707031 -6.009765,6.0117195 z"
       id="path991" />
  </g>
  <g
     id="pressed-center"
     transform="translate(-0.01040722,29.989592)">
    <rect
       style="display:inline;opacity:1;fill:none;fill-opacity:1;stroke:none;stroke-width:1.375;stroke-linecap:butt;stroke-linejoin:miter;stroke-miterlimit:4;stroke-dasharray:none;stroke-dashoffset:0;stroke-opacity:0"
       id="rect1043"
       width="22"
       height="22"
       x="0"
       y="27" />
    <rect
       style="opacity:1;fill:#e16464;fill-opacity:1;stroke:none;stroke-width:1.22222221;stroke-linecap:round;stroke-miterlimit:4;stroke-dasharray:none;stroke-opacity:1"
       id="rect1045"
       width="22"
       height="22"
       x="0"
       y="27"
       ry="5.0104079" />
    <g
       transform="translate(27.282485,27.282486)"
       id="g1051">
      <rect
         transform="rotate(-45)"
         ry="0"
         y="-12.935029"
         x="-19.591883"
         height="18"
         width="1"
         id="rect1047"
         style="opacity:1;fill:#eaeaea;fill-opacity:1;fill-rule:evenodd;stroke:none;stroke-width:0.48989797;stroke-linecap:round;stroke-linejoin:miter;stroke-miterlimit:4;stroke-dasharray:none;stroke-dashoffset:3;stroke-opacity:1;paint-order:stroke fill markers" />
      <rect
         style="opacity:1;fill:#eaeaea;fill-opacity:1;fill-rule:evenodd;stroke:none;stroke-width:0.48989797;stroke-linecap:round;stroke-linejoin:miter;stroke-miterlimit:4;stroke-dasharray:none;stroke-dashoffset:3;stroke-opacity:1;paint-order:stroke fill markers"
         id="rect1049"
         width="1"
         height="18"
         x="3.435029"
         y="10.091883"
         ry="0"
         transform="matrix(-0.70710678,-0.70710678,-0.70710678,0.70710678,0,0)" />
    </g>
  </g>
</svg>
