<?xml version="1.0" encoding="UTF-8" standalone="no"?>
<svg
   inkscape:version="1.2.2 (b0a8486541, 2022-12-01)"
   sodipodi:docname="close.svg"
   style="enable-background:new"
   version="1.1"
   height="28"
   width="44"
   id="svg4306"
   xmlns:inkscape="http://www.inkscape.org/namespaces/inkscape"
   xmlns:sodipodi="http://sodipodi.sourceforge.net/DTD/sodipodi-0.dtd"
   xmlns="http://www.w3.org/2000/svg"
   xmlns:svg="http://www.w3.org/2000/svg"
   xmlns:rdf="http://www.w3.org/1999/02/22-rdf-syntax-ns#"
   xmlns:cc="http://creativecommons.org/ns#"
   xmlns:dc="http://purl.org/dc/elements/1.1/">
  <metadata
     id="metadata31">
    <rdf:RDF>
      <cc:Work
         rdf:about="">
        <dc:format>image/svg+xml</dc:format>
        <dc:type
           rdf:resource="http://purl.org/dc/dcmitype/StillImage" />
      </cc:Work>
    </rdf:RDF>
  </metadata>
  <defs
     id="defs29">
    <filter
       id="filter11290"
       x="-0.024"
       y="-0.024"
       width="1.048"
       height="1.048"
       color-interpolation-filters="sRGB">
      <feGaussianBlur
         stdDeviation="0.15875313"
         id="feGaussianBlur880" />
    </filter>
    <linearGradient
       id="linearGradient1005"
       x1="2.9667001"
       x2="16.101"
       y1="14.069"
       y2="0.93425"
       gradientTransform="translate(-0.0080452,-5.0139e-5)"
       gradientUnits="userSpaceOnUse">
      <stop
         stop-color="#ff7d50"
         offset="0"
         id="stop883" />
      <stop
         stop-color="#fa4b5a"
         offset=".51596"
         id="stop885" />
      <stop
         stop-color="#ff509b"
         offset="1"
         id="stop887" />
    </linearGradient>
    <clipPath
       id="aw">
      <path
         d="m 481,318 h 22 v 22 h -22 z"
         id="path890" />
    </clipPath>
    <clipPath
       id="av">
      <path
         d="m 507,318 h 22 v 22 h -22 z"
         id="path893" />
    </clipPath>
    <clipPath
       id="au">
      <path
         d="m 530,318 h 22 v 22 h -22 z"
         id="path896" />
    </clipPath>
    <clipPath
       id="at">
      <path
         d="m 672,1064 c 0,-1.105 4.925,-2 11,-2 6.075,0 11,0.895 11,2 0,1.105 -4.925,2 -11,2 -6.075,0 -11,-0.895 -11,-2"
         id="path899" />
    </clipPath>
    <clipPath
       id="as">
      <path
         d="m 660,1057 h 51 v 65.001 h -51 z"
         id="path902" />
    </clipPath>
    <clipPath
       id="ar">
      <path
         d="m 659,517 h 53 v 18 h -53 z"
         id="path905" />
    </clipPath>
    <clipPath
       id="aq">
      <path
         d="m 659,500 h 53 v 18 h -53 z"
         id="path908" />
    </clipPath>
    <clipPath
       id="ap">
      <path
         d="m 648,112 h 73 v 60 h -73 z"
         id="path911" />
    </clipPath>
    <clipPath
       id="ao">
      <path
         d="m 826,1056 h 59 v 60 h -59 z"
         id="path914" />
    </clipPath>
    <clipPath
       id="an">
      <path
         d="M 805,276 H 905 V 376 H 805 Z"
         id="path917" />
    </clipPath>
    <clipPath
       id="am">
      <path
         d="m 145,1063.8 h 74.152 v 45.21 H 145 Z"
         id="path920" />
    </clipPath>
    <clipPath
       id="al">
      <path
         d="m 151,667 h 57 v 57 h -57 z"
         id="path923" />
    </clipPath>
    <clipPath
       id="ak">
      <path
         d="m 154,697 h 51 v 51 h -51 z"
         id="path926" />
    </clipPath>
    <clipPath
       id="aj">
      <path
         d="m 500.04,864.45 h 36.012 v 67.52 H 500.04 Z"
         id="path929" />
    </clipPath>
    <clipPath
       id="ai">
      <path
         d="m 836,870.54 h 47 v 55.539 h -47 z"
         id="path932" />
    </clipPath>
    <clipPath
       id="ah">
      <path
         d="m 318.03,702.35 h 62.848 v 37.991 H 318.03 Z"
         id="path935" />
    </clipPath>
    <clipPath
       id="ag">
      <path
         d="m 485.03,133.35 h 62.847 v 37.991 H 485.03 Z"
         id="path938" />
    </clipPath>
    <clipPath
       id="af">
      <path
         d="m 493.37,677.93 h 45.643 v 68.067 H 493.37 Z"
         id="path941" />
    </clipPath>
    <clipPath
       id="ae">
      <path
         d="m 144.34,1018.2 h 71.467 v 78 H 144.34 Z"
         id="path944" />
    </clipPath>
    <clipPath
       id="ad">
      <path
         d="m 293.21,1068.6 66.323,-38.292 36.047,62.435 -66.323,38.292 z"
         id="path947" />
    </clipPath>
    <clipPath
       id="ac">
      <path
         d="m 488.86,1054.5 h 10 v 10.706 h -10 z"
         id="path950" />
    </clipPath>
    <clipPath
       id="ab">
      <path
         d="m 508,1066.8 h 10.001 v 10.705 H 508 Z"
         id="path953" />
    </clipPath>
    <clipPath
       id="aa">
      <path
         d="m 525,1045.8 h 10 v 10.706 h -10 z"
         id="path956" />
    </clipPath>
    <clipPath
       id="z">
      <path
         d="m 836,1043.7 h 25.5 v 31.5 H 836 Z"
         id="path959" />
    </clipPath>
    <clipPath
       id="y">
      <path
         d="m 838,1062.2 h 24 v 24 h -24 z"
         id="path962" />
    </clipPath>
    <clipPath
       id="x">
      <path
         d="m 134,489.24 h 7 v 6 h -7 z"
         id="path965" />
    </clipPath>
    <clipPath
       id="w">
      <path
         d="m 216,489.24 h 7 v 6 h -7 z"
         id="path968" />
    </clipPath>
    <clipPath
       id="v">
      <path
         d="m 838,477.24 h 22 v 22 h -22 z"
         id="path971" />
    </clipPath>
    <clipPath
       id="u">
      <path
         d="m 704,1061.2 h 25 v 25 h -25 z"
         id="path974" />
    </clipPath>
    <clipPath
       id="t">
      <path
         d="m 663.04,1078.6 -1.808,-3.514 -21.07,-47.453 c 13.336,-18.439 48.336,-26.938 73.836,-3.439 0.842,0 6.476,6.246 6,7 l -18.386,25.895 c -0.483,0.765 -1.453,0.946 -2.177,0.431 l -15.505,-11.011 c -0.359,-0.255 -0.847,-0.153 -1.07,0.238 l -18.272,31.869 c -0.218,0.384 -0.502,0.578 -0.782,0.578 -0.282,0 -0.561,-0.197 -0.766,-0.594"
         id="path977" />
    </clipPath>
    <clipPath
       id="s">
      <path
         d="m 127,820.24 h 100 v 100 H 127 Z"
         id="path980" />
    </clipPath>
    <clipPath
       id="r">
      <path
         d="m 809,680.24 c 0,-22.092 17.908,-40 40,-40 22.092,0 40,17.908 40,40 0,22.091 -17.908,40 -40,40 -22.092,0 -40,-17.909 -40,-40"
         id="path983" />
    </clipPath>
    <clipPath
       id="q">
      <path
         d="m 658,469.24 h 44 v 45 h -44 z"
         id="path986" />
    </clipPath>
    <clipPath
       id="p">
      <path
         d="m 651,271.24 h 58 v 58 h -58 z"
         id="path989" />
    </clipPath>
    <clipPath
       id="o">
      <path
         d="m 662,307.24 h 38 v 8 h -38 z"
         id="path992" />
    </clipPath>
    <clipPath
       id="n">
      <path
         d="m 858.98,137.24 c 0.013,-0.101 0.021,-0.203 0.021,-0.307 v -6.693 h 15.75 c 1.237,0 2.25,-1.013 2.25,-2.25 v -11.25 l -27,-4.5 -27,4.5 v -2.25 l 27,-4.5 27,4.5 v -27 c 0,-1.237 -1.013,-2.25 -2.25,-2.25 h -49.5 c -1.237,0 -2.25,1.013 -2.25,2.25 v -4.25 h 54 v 54 z m -35.979,0 v -9.25 c 0,1.237 1.013,2.25 2.25,2.25 h 15.75 v 6.693 c 0,0.104 0.007,0.207 0.02,0.307 z m 22.5,-7 h 9 v 4.5 h -9 z m 1.125,-9 c -0.62,0 -1.125,-0.506 -1.125,-1.125 v -2.25 c 0,-0.619 0.505,-1.125 1.125,-1.125 h 6.75 c 0.619,0 1.125,0.506 1.125,1.125 v 2.25 c 0,0.619 -0.506,1.125 -1.125,1.125 z"
         id="path995" />
    </clipPath>
    <clipPath
       id="m">
      <path
         d="m 531.27,136.24 c 6.325,-2.29 10.727,-8.277 10.727,-15.484 0,-11.316 -10.2,-20.563 -25.65,-34.575 l -4.35,-3.941 -4.35,3.941 c -15.45,14.012 -25.65,23.259 -25.65,34.575 V 81.24 h 60 v 55 z m -26.983,0 c 2.995,-1.052 5.686,-2.883 7.71,-5.25 2.024,2.367 4.715,4.198 7.71,5.25 z m -22.29,0 v -15.484 c 0,7.207 4.402,13.194 10.727,15.484 z"
         id="path998" />
    </clipPath>
    <clipPath
       id="l">
      <path
         d="m 648,79.241 h 64 v 64 h -64 z"
         id="path1001" />
    </clipPath>
    <clipPath
       id="k">
      <path
         d="m 500,691.74 c 0,-3.037 2.463,-5.5 5.5,-5.5 3.037,0 5.5,2.463 5.5,5.5 0,3.037 -2.463,5.5 -5.5,5.5 -3.037,0 -5.5,-2.463 -5.5,-5.5"
         id="path1004" />
    </clipPath>
    <clipPath
       id="j">
      <path
         d="m 500,669.74 c 0,-3.037 2.463,-5.5 5.5,-5.5 3.037,0 5.5,2.463 5.5,5.5 0,3.038 -2.463,5.5 -5.5,5.5 -3.037,0 -5.5,-2.462 -5.5,-5.5"
         id="path1007" />
    </clipPath>
    <clipPath
       id="i">
      <path
         d="m 494,680.74 c 0,-3.037 2.462,-5.5 5.5,-5.5 3.038,0 5.5,2.463 5.5,5.5 0,3.038 -2.462,5.5 -5.5,5.5 -3.038,0 -5.5,-2.462 -5.5,-5.5"
         id="path1010" />
    </clipPath>
    <clipPath
       id="h">
      <path
         d="m 513,691.74 c 0,-3.037 2.463,-5.5 5.5,-5.5 3.037,0 5.5,2.463 5.5,5.5 0,3.037 -2.463,5.5 -5.5,5.5 -3.037,0 -5.5,-2.463 -5.5,-5.5"
         id="path1013" />
    </clipPath>
    <clipPath
       id="g">
      <path
         d="m 513,669.74 c 0,-3.037 2.463,-5.5 5.5,-5.5 3.037,0 5.5,2.463 5.5,5.5 0,3.038 -2.463,5.5 -5.5,5.5 -3.037,0 -5.5,-2.462 -5.5,-5.5"
         id="path1016" />
    </clipPath>
    <clipPath
       id="f-0">
      <path
         d="m 507,680.74 c 0,-3.037 2.463,-5.5 5.5,-5.5 3.037,0 5.5,2.463 5.5,5.5 0,3.038 -2.463,5.5 -5.5,5.5 -3.037,0 -5.5,-2.462 -5.5,-5.5"
         id="path1019" />
    </clipPath>
    <clipPath
       id="e-7">
      <path
         d="m 520,680.74 c 0,-3.037 2.463,-5.5 5.5,-5.5 3.037,0 5.5,2.463 5.5,5.5 0,3.038 -2.463,5.5 -5.5,5.5 -3.037,0 -5.5,-2.462 -5.5,-5.5"
         id="path1022" />
    </clipPath>
    <clipPath
       id="d-8">
      <path
         d="m 321,322.24 c -4.97,0 -9,-4.029 -9,-9 0,-4.97 4.03,-9 9,-9 h 45 c 4.971,0 9,4.03 9,9 0,4.971 -4.029,9 -9,9 z"
         id="path1025" />
    </clipPath>
    <clipPath
       id="c">
      <path
         d="m 322,297.24 c -4.971,0 -9,-4.029 -9,-9 0,-4.97 4.029,-9 9,-9 h 45 c 4.971,0 9,4.03 9,9 0,4.971 -4.029,9 -9,9 z"
         id="path1028" />
    </clipPath>
    <clipPath
       id="b-6">
      <path
         d="m 155,83.24 h 44 v 53 h -44 z"
         id="path1031" />
    </clipPath>
    <filter
       id="filter2174"
       x="-0.15989"
       y="-0.094876997"
       width="1.3198"
       height="1.1898"
       color-interpolation-filters="sRGB">
      <feGaussianBlur
         stdDeviation="0.25608494"
         id="feGaussianBlur1034" />
    </filter>
  </defs>
  <sodipodi:namedview
     inkscape:document-rotation="0"
     inkscape:bbox-nodes="true"
     inkscape:snap-bbox="true"
     inkscape:current-layer="svg4306"
     inkscape:window-maximized="1"
     inkscape:window-y="0"
     inkscape:window-x="0"
     inkscape:cy="84.676033"
     inkscape:cx="-20.329319"
     inkscape:zoom="5.6568545"
     showgrid="true"
     id="namedview27"
     inkscape:window-height="1048"
     inkscape:window-width="1920"
     inkscape:pageshadow="2"
     inkscape:pageopacity="0"
     guidetolerance="10"
     gridtolerance="10"
     objecttolerance="10"
     borderopacity="1"
     bordercolor="#666666"
     pagecolor="#c8c8c8"
     inkscape:snap-bbox-edge-midpoints="true"
     inkscape:showpageshadow="0"
     inkscape:pagecheckerboard="0"
     inkscape:deskcolor="#c8c8c8">
    <inkscape:grid
       id="grid878"
       type="xygrid"
       originx="0"
       originy="0" />
  </sodipodi:namedview>
  <g
     transform="matrix(3.7795276,0,0,3.7795276,3.5000049,-0.99999877)"
     id="active-center"
     style="enable-background:new">
    <g
       transform="matrix(1.1578947,0,0,0.87500005,-1.538762,8.8304688)"
       id="use1626">
      <rect
         y="-9.7895832"
         x="0.52916652"
         height="8.4666662"
         width="10.054167"
         id="rect715"
         style="opacity:0.003;fill:#000000;fill-opacity:1;stroke-width:0.348723" />
    </g>
    <g
       transform="translate(-19.446877,20.6375)"
       id="use1638">
      <rect
         y="-19.579166"
         x="21.431252"
         height="5.8208332"
         width="5.8208332"
         id="rect709"
         style="opacity:0.003;fill:#000000;fill-opacity:1;stroke-width:0.220007" />
      <path
         class="ColorScheme-Text"
         id="path711"
         style="color:#232629;fill:#ffffff;fill-opacity:1;stroke-width:1.40004"
         d="m 26.007247,-18.520834 c -0.04756,0 -0.09547,0.01787 -0.131674,0.05427 l -1.535971,1.535972 -1.537419,-1.535972 c -0.07207,-0.07088 -0.187659,-0.07088 -0.259733,0 -0.07088,0.07207 -0.07088,0.18766 0,0.259734 l 1.538142,1.538142 -1.535972,1.537418 c -0.07088,0.07207 -0.07088,0.187662 0,0.259733 0.07207,0.07088 0.187661,0.07088 0.259733,0 l 1.537419,-1.535971 1.535971,1.535971 c 0.07241,0.07279 0.190218,0.07279 0.262628,0 0.07088,-0.07207 0.07088,-0.187661 0,-0.259733 l -1.537418,-1.537418 1.535247,-1.538142 c 0.07088,-0.07207 0.07088,-0.18766 0,-0.259734 -0.03621,-0.0364 -0.0834,-0.05427 -0.130946,-0.05427 z" />
    </g>
  </g>
  <g
     id="inactive-center"
     style="enable-background:new">
    <g
       transform="matrix(4.376295,0,0,3.3070868,41.684212,32.375002)"
       id="use1624">
      <rect
         y="-9.7895832"
         x="0.52916652"
         height="8.4666662"
         width="10.054167"
         id="rect4383"
         style="opacity:0.003;fill:#000000;fill-opacity:1;stroke-width:0.348723" />
    </g>
    <g
       transform="matrix(3.7795276,0,0,3.7795276,-26.000003,76.999998)"
       id="use1644">
      <rect
         y="-19.579166"
         x="21.431252"
         height="5.8208332"
         width="5.8208332"
         id="rect4387"
         style="opacity:0.003;fill:#000000;fill-opacity:1;stroke-width:0.220007" />
      <path
         class="ColorScheme-Text"
         id="path4389"
         style="color:#232629;opacity:0.4;fill:#ffffff;fill-opacity:1;stroke-width:1.40004"
         d="m 26.007246,-18.520833 c -0.04756,0 -0.09547,0.01787 -0.131674,0.05427 l -1.53597,1.535971 -1.537418,-1.535971 c -0.07207,-0.07088 -0.187659,-0.07088 -0.259733,0 -0.07088,0.07207 -0.07088,0.18766 0,0.259734 l 1.538141,1.538141 -1.535971,1.537417 c -0.07088,0.07207 -0.07088,0.187662 0,0.259733 0.07207,0.07088 0.187661,0.07088 0.259733,0 l 1.537418,-1.53597 1.53597,1.53597 c 0.07241,0.07279 0.190218,0.07279 0.262628,0 0.07088,-0.07207 0.07088,-0.187661 0,-0.259733 l -1.537417,-1.537417 1.535246,-1.538141 c 0.07088,-0.07207 0.07088,-0.18766 0,-0.259734 -0.0362,-0.0364 -0.0834,-0.05427 -0.130946,-0.05427 z" />
    </g>
  </g>
  <g
     id="deactivated-center"
     transform="translate(43.999999)"
     style="enable-background:new">
    <g
       transform="matrix(4.376295,0,0,3.3070868,41.684212,32.375002)"
       id="g7325">
      <rect
         y="-9.7895832"
         x="0.52916652"
         height="8.4666662"
         width="10.054167"
         id="rect7323"
         style="opacity:0.003;fill:#000000;fill-opacity:1;stroke-width:0.348723" />
    </g>
    <g
       transform="matrix(3.7795276,0,0,3.7795276,-26.000003,76.999998)"
       id="g7331">
      <rect
         y="-19.579166"
         x="21.431252"
         height="5.8208332"
         width="5.8208332"
         id="rect7327"
         style="opacity:0.003;fill:#000000;fill-opacity:1;stroke-width:0.220007" />
      <path
         class="ColorScheme-Text"
         id="path7329"
         style="color:#232629;opacity:0.4;fill:#ffffff;fill-opacity:1;stroke-width:1.40004"
         d="m 26.007246,-18.520833 c -0.04756,0 -0.09547,0.01787 -0.131674,0.05427 l -1.53597,1.535971 -1.537418,-1.535971 c -0.07207,-0.07088 -0.187659,-0.07088 -0.259733,0 -0.07088,0.07207 -0.07088,0.18766 0,0.259734 l 1.538141,1.538141 -1.535971,1.537417 c -0.07088,0.07207 -0.07088,0.187662 0,0.259733 0.07207,0.07088 0.187661,0.07088 0.259733,0 l 1.537418,-1.53597 1.53597,1.53597 c 0.07241,0.07279 0.190218,0.07279 0.262628,0 0.07088,-0.07207 0.07088,-0.187661 0,-0.259733 l -1.537417,-1.537417 1.535246,-1.538141 c 0.07088,-0.07207 0.07088,-0.18766 0,-0.259734 -0.0362,-0.0364 -0.0834,-0.05427 -0.130946,-0.05427 z" />
    </g>
  </g>
  <g
     id="hover-center">
    <rect
       style="opacity:0.7;fill:#ff3232;fill-opacity:1;stroke:none;stroke-width:1.94999;stroke-linecap:round;stroke-miterlimit:4;stroke-dasharray:none;stroke-opacity:1"
       id="rect997"
       width="44"
       height="28"
       x="0"
       y="28"
       ry="4" />
    <path
       d="m 28.296042,35 c -0.179753,0 -0.360828,0.06752 -0.497666,0.205098 l -5.805252,5.805257 -5.810728,-5.805257 c -0.272406,-0.267908 -0.709262,-0.267908 -0.981668,0 -0.267909,0.272406 -0.267909,0.709267 0,0.981673 l 5.813459,5.813459 -5.805257,5.810722 c -0.267908,0.272407 -0.267908,0.709273 0,0.98167 0.272406,0.267908 0.709272,0.267908 0.981669,0 l 5.810727,-5.805252 5.805251,5.805252 c 0.273676,0.275104 0.718936,0.275104 0.992612,0 0.267908,-0.272408 0.267908,-0.709273 0,-0.98167 l -5.810723,-5.810722 5.802516,-5.813459 c 0.267908,-0.272406 0.267908,-0.709267 0,-0.981673 C 28.654142,35.067516 28.475767,35 28.296067,35 Z"
       style="color:#232629;fill:#ffffff;fill-opacity:1;stroke-width:5.2915"
       id="path8986"
       class="ColorScheme-Text" />
    <path
       id="rect6737"
       style="opacity:0.7;fill:#ff3232;fill-opacity:1;stroke:none;stroke-width:1.94999;stroke-linecap:round;stroke-miterlimit:4;stroke-dasharray:none;stroke-opacity:1"
       d="M 3.8183594 28 C 1.7030887 28 0 29.703089 0 31.818359 L 0 52.181641 C 0 54.296911 1.7030887 56 3.8183594 56 L 40.181641 56 C 42.296911 56 44 54.296911 44 52.181641 L 44 31.818359 C 44 29.703089 42.296911 28 40.181641 28 L 3.8183594 28 z M 4 29 L 40 29 C 41.661998 29 43 30.338002 43 32 L 43 52 C 43 53.661998 41.661998 55 40 55 L 4 55 C 2.3380017 55 1 53.661998 1 52 L 1 32 C 1 30.338002 2.3380017 29 4 29 z " />
  </g>
  <g
     id="pressed-center"
     transform="translate(0,28)">
    <rect
       style="opacity:0.5;fill:#ff3232;fill-opacity:1;stroke:none;stroke-width:1.94999;stroke-linecap:round;stroke-miterlimit:4;stroke-dasharray:none;stroke-opacity:1"
       id="rect7473"
       width="44"
       height="28"
       x="0"
       y="28"
       ry="4" />
    <path
       d="m 28.296042,35 c -0.179753,0 -0.360828,0.06752 -0.497666,0.205098 l -5.805252,5.805257 -5.810728,-5.805257 c -0.272406,-0.267908 -0.709262,-0.267908 -0.981668,0 -0.267909,0.272406 -0.267909,0.709267 0,0.981673 l 5.813459,5.813459 -5.805257,5.810722 c -0.267908,0.272407 -0.267908,0.709273 0,0.98167 0.272406,0.267908 0.709272,0.267908 0.981669,0 l 5.810727,-5.805252 5.805251,5.805252 c 0.273676,0.275104 0.718936,0.275104 0.992612,0 0.267908,-0.272408 0.267908,-0.709273 0,-0.98167 l -5.810723,-5.810722 5.802516,-5.813459 c 0.267908,-0.272406 0.267908,-0.709267 0,-0.981673 C 28.654142,35.067516 28.475767,35 28.296067,35 Z"
       style="color:#232629;fill:#ffffff;fill-opacity:1;stroke-width:5.2915"
       id="path7475"
       class="ColorScheme-Text" />
    <path
       id="path7477"
       style="opacity:0.7;fill:#ff3232;fill-opacity:1;stroke:none;stroke-width:1.94999;stroke-linecap:round;stroke-miterlimit:4;stroke-dasharray:none;stroke-opacity:1"
       d="M 3.8183594,28 C 1.7030887,28 0,29.703089 0,31.818359 V 52.181641 C 0,54.296911 1.7030887,56 3.8183594,56 H 40.181641 C 42.296911,56 44,54.296911 44,52.181641 V 31.818359 C 44,29.703089 42.296911,28 40.181641,28 Z M 4,29 h 36 c 1.661998,0 3,1.338002 3,3 v 20 c 0,1.661998 -1.338002,3 -3,3 H 4 C 2.3380017,55 1,53.661998 1,52 V 32 c 0,-1.661998 1.3380017,-3 3,-3 z" />
  </g>
</svg>
