<?xml version="1.0" encoding="UTF-8" standalone="no"?>
<svg
   version="1.0"
   id="svg3642"
   height="310"
   width="355"
   xmlns:xlink="http://www.w3.org/1999/xlink"
   xmlns="http://www.w3.org/2000/svg"
   xmlns:svg="http://www.w3.org/2000/svg"
   xmlns:rdf="http://www.w3.org/1999/02/22-rdf-syntax-ns#"
   xmlns:cc="http://creativecommons.org/ns#"
   xmlns:dc="http://purl.org/dc/elements/1.1/">
  <defs
     id="defs3644">
    <linearGradient
       id="shadow_active">
      <stop
         style="stop-color:#000000;stop-opacity:0.92168677;"
         offset="0"
         id="stop7028" />
      <stop
         style="stop-color:#000000;stop-opacity:0.74096388;"
         offset="0.125"
         id="stop7026" />
      <stop
         style="stop-color:#000000;stop-opacity:0.60240966;"
         offset="0.25"
         id="stop6834" />
      <stop
         style="stop-color:#000000;stop-opacity:0.33132529;"
         offset="0.5"
         id="stop6832" />
      <stop
         id="stop6836"
         offset="0.75"
         style="stop-color:#000000;stop-opacity:0.10843374;" />
      <stop
         style="stop-color:#000000;stop-opacity:0.03921569;"
         offset="0.875"
         id="stop6894" />
      <stop
         style="stop-color:#000000;stop-opacity:0;"
         offset="1"
         id="stop6721" />
    </linearGradient>
    <linearGradient
       y2="181.6279"
       x2="398"
       y1="138.13953"
       x1="398"
       gradientTransform="matrix(1,0,0,1.0117647,-215,56.2353)"
       gradientUnits="userSpaceOnUse"
       id="linearGradient5688"
       xlink:href="#shadow_active" />
    <linearGradient
       y2="15.555537"
       x2="396"
       y1="64.166748"
       x1="396"
       gradientTransform="matrix(1,0,0,1.0285694,-215,50.00005)"
       gradientUnits="userSpaceOnUse"
       id="linearGradient6612"
       xlink:href="#shadow_active" />
    <linearGradient
       y2="166.80234"
       x2="398"
       y1="138.13954"
       x1="398"
       gradientTransform="matrix(1,0,0,1.0117647,145,56.23529)"
       gradientUnits="userSpaceOnUse"
       id="linearGradient5688-2"
       xlink:href="#shadow_inactive" />
    <linearGradient
       id="shadow_inactive">
      <stop
         id="stop6719-25"
         offset="0"
         style="stop-color:#000000;stop-opacity:1;" />
      <stop
         style="stop-color:#000000;stop-opacity:0.63855422;"
         offset="0.25"
         id="stop6834-1" />
      <stop
         style="stop-color:#000000;stop-opacity:0.33734939;"
         offset="0.5"
         id="stop6832-0" />
      <stop
         id="stop6836-0"
         offset="0.75"
         style="stop-color:#000000;stop-opacity:0.10843374;" />
      <stop
         style="stop-color:#000000;stop-opacity:0.03921569;"
         offset="0.875"
         id="stop6894-7" />
      <stop
         style="stop-color:#000000;stop-opacity:0;"
         offset="1"
         id="stop6721-4" />
    </linearGradient>
    <linearGradient
       y2="30"
       x2="396"
       y1="66"
       x1="396"
       gradientTransform="translate(145,44)"
       gradientUnits="userSpaceOnUse"
       id="linearGradient6612-5"
       xlink:href="#shadow_inactive" />
    <linearGradient
       y2="99"
       x2="289.2829"
       y1="99"
       x1="348.49344"
       gradientTransform="matrix(1.0133333,0,0,1,-243.14001,53)"
       gradientUnits="userSpaceOnUse"
       id="linearGradient1126"
       xlink:href="#shadow_active" />
    <radialGradient
       r="17.5"
       fy="80.416679"
       fx="296.47726"
       cy="80.416679"
       cx="296.47726"
       gradientTransform="matrix(8.1359764e-7,-2.8571323,3.4285708,1.1278823e-6,-165.71453,957.07448)"
       gradientUnits="userSpaceOnUse"
       id="radialGradient1306"
       xlink:href="#shadow_active" />
    <linearGradient
       y2="99.01548"
       x2="304.08554"
       y1="99.01548"
       x1="348.49344"
       gradientTransform="matrix(1.0133333,0,0,1,116.85999,52.98452)"
       gradientUnits="userSpaceOnUse"
       id="linearGradient1389"
       xlink:href="#shadow_inactive" />
    <radialGradient
       r="17.5"
       fy="178.72313"
       fx="48.27084"
       cy="178.72313"
       cx="48.27084"
       gradientTransform="matrix(-3.4285723,1.6634773e-6,0,-2.5142855,275.50008,645.36091)"
       gradientUnits="userSpaceOnUse"
       id="radialGradient965"
       xlink:href="#shadow_active" />
    <radialGradient
       r="17.5"
       fy="181.17691"
       fx="48.270844"
       cy="181.17691"
       cx="48.270844"
       gradientTransform="matrix(-2.5714291,7.4376771e-7,-2.0148289e-7,-1.6571424,594.12508,496.23591)"
       gradientUnits="userSpaceOnUse"
       id="radialGradient967"
       xlink:href="#shadow_inactive" />
    <radialGradient
       r="17.5"
       fy="80.416672"
       fx="296.45123"
       cy="80.416672"
       cx="296.45123"
       gradientTransform="matrix(-3.7607938e-7,-2.0571166,2.5714318,-5.1233137e-7,263.21413,719.83432)"
       gradientUnits="userSpaceOnUse"
       id="radialGradient969"
       xlink:href="#shadow_inactive" />
    <linearGradient
       y2="99"
       x2="289.2829"
       y1="99"
       x1="348.49344"
       gradientTransform="matrix(-1.0133333,0,0,1,608.14001,53)"
       gradientUnits="userSpaceOnUse"
       id="linearGradient968"
       xlink:href="#shadow_active" />
    <linearGradient
       y2="99.01548"
       x2="304.08554"
       y1="99.01548"
       x1="348.49344"
       gradientTransform="matrix(-1.0133333,0,0,1,968.14001,52.98452)"
       gradientUnits="userSpaceOnUse"
       id="linearGradient1012"
       xlink:href="#shadow_inactive" />
    <radialGradient
       r="17.5"
       fy="80.416672"
       fx="296.45123"
       cy="80.416672"
       cx="296.45123"
       gradientTransform="matrix(-3.7607938e-7,-2.0571166,2.5714318,-5.1233137e-7,263.21413,719.83432)"
       gradientUnits="userSpaceOnUse"
       id="radialGradient544"
       xlink:href="#shadow_inactive" />
    <radialGradient
       r="17.5"
       fy="80.416672"
       fx="296.45123"
       cy="80.416672"
       cx="296.45123"
       gradientTransform="matrix(-3.7607938e-7,-2.0571166,2.5714318,-5.1233137e-7,263.21413,719.83432)"
       gradientUnits="userSpaceOnUse"
       id="radialGradient560"
       xlink:href="#shadow_inactive" />
    <radialGradient
       r="17.5"
       fy="181.17691"
       fx="48.270844"
       cy="181.17691"
       cx="48.270844"
       gradientTransform="matrix(-2.5714291,7.4376771e-7,-2.0148289e-7,-1.6571424,594.12508,496.23591)"
       gradientUnits="userSpaceOnUse"
       id="radialGradient621"
       xlink:href="#shadow_inactive" />
    <radialGradient
       r="17.5"
       fy="181.17691"
       fx="48.270844"
       cy="181.17691"
       cx="48.270844"
       gradientTransform="matrix(-2.5714291,7.4376771e-7,-2.0148289e-7,-1.6571424,594.12508,496.23591)"
       gradientUnits="userSpaceOnUse"
       id="radialGradient652"
       xlink:href="#shadow_inactive" />
  </defs>
  <metadata
     id="metadata3647">
    <rdf:RDF>
      <cc:Work
         rdf:about="">
        <dc:format>image/svg+xml</dc:format>
        <dc:type
           rdf:resource="http://purl.org/dc/dcmitype/StillImage" />
      </cc:Work>
      <cc:Work
         rdf:about="">
        <dc:format>image/svg+xml</dc:format>
        <dc:type
           rdf:resource="http://purl.org/dc/dcmitype/StillImage" />
      </cc:Work>
    </rdf:RDF>
  </metadata>
  <g
     id="decoration-right"
     transform="matrix(-1,0,0,1,604.875,-87)">
    <path
       id="path960"
       style="opacity:0.5;fill:url(#linearGradient968);fill-opacity:1;stroke:none;stroke-width:1.00664"
       d="M 285 110 L 285 196 L 360 196 L 360 110 L 285 110 z "
       transform="matrix(-1,0,0,1,604.875,87)" />
    <path
       id="path964"
       style="opacity:0.67;fill:#000000;fill-opacity:1;stroke:none"
       d="M 255 110 L 255 196 L 284 196 L 285 196 L 285 110 L 284 110 L 255 110 z "
       transform="matrix(-1,0,0,1,604.875,87)" />
  </g>
  <g
     transform="translate(-215,-81)"
     id="decoration-bottom">
    <path
       id="path6217-8"
       style="opacity:0.5;fill:url(#linearGradient5688);fill-opacity:1;stroke:none;stroke-width:1.0058651"
       d="M 110 209 L 110 294 L 255 294 L 255 209 L 110 209 z "
       transform="translate(215,81)" />
    <path
       id="path6211-7"
       style="opacity:0.67;fill:#000000;fill-opacity:1;stroke:none;stroke-width:1.41421"
       d="M 110 196 L 110 208 L 110 209 L 255 209 L 255 208 L 255 196 L 110 196 z "
       transform="translate(215,81)" />
  </g>
  <path
     id="decoration-center"
     d="m 110,200 v 86 h 145 v -86 z"
     style="opacity:0.67;fill:#000000;fill-opacity:1;stroke:none"
     transform="translate(0,-90)" />
  <g
     transform="translate(-215,-95.99995)"
     id="decoration-top">
    <path
       transform="translate(215,89.99995)"
       d="M 110,50 V 86 H 255 V 50 Z"
       style="opacity:0.5;fill:url(#linearGradient6612);fill-opacity:1;stroke:none;stroke-width:1.01418"
       id="path6055-5" />
    <path
       id="path6092-3"
       style="opacity:0.67;fill:#000000;fill-opacity:1;stroke:none;stroke-width:1"
       d="M 110 79 L 110 80 L 110 110 L 255 110 L 255 80 L 255 79 L 110 79 z "
       transform="translate(215,95.99995)" />
  </g>
  <g
     transform="translate(-239.875,-87)"
     id="decoration-left">
    <path
       id="path6345-1"
       style="opacity:0.5;fill:url(#linearGradient1126);fill-opacity:1;stroke:none;stroke-width:1.00664"
       d="M 5 110 L 5 196 L 80 196 L 80 110 L 5 110 z "
       transform="translate(239.875,87)" />
    <path
       id="path6339-9"
       style="opacity:0.67;fill:#000000;fill-opacity:1;stroke:none"
       d="M 80 110 L 80 196 L 81 196 L 110 196 L 110 110 L 81 110 L 80 110 z "
       transform="translate(239.875,87)" />
  </g>
  <g
     transform="translate(145,-80.92202)"
     id="decoration-inactive-bottom">
    <path
       id="path6217-8-2"
       style="opacity:0.2;fill:url(#linearGradient5688-2);fill-opacity:1;stroke:none;stroke-width:1.0058651"
       d="M 470 209 L 470 294 L 615 294 L 615 209 L 470 209 z "
       transform="translate(-145,80.92202)" />
    <path
       id="path6211-7-5"
       style="opacity:0.57;fill:#000000;fill-opacity:1;stroke:none;stroke-width:1.41421"
       d="M 470 196 L 470 208 L 470 209 L 615 209 L 615 208 L 615 196 L 470 196 z "
       transform="translate(-145,80.92202)" />
  </g>
  <path
     id="decoration-inactive-center"
     d="m 470,200 v 86 h 145 v -86 z"
     style="opacity:0.57;fill:#000000;fill-opacity:1;stroke:none"
     transform="translate(0,-90)" />
  <g
     transform="translate(145,-96)"
     id="decoration-inactive-top">
    <path
       id="path6055-5-5"
       style="opacity:0.2;fill:url(#linearGradient6612-5);fill-opacity:1;stroke:none"
       d="M 470 44 L 470 79 L 615 79 L 615 44 L 470 44 z "
       transform="translate(-145,96)" />
    <path
       id="path6092-3-3"
       style="opacity:0.57;fill:#000000;fill-opacity:1;stroke:none;stroke-width:1"
       d="M 470 79 L 470 80 L 470 110 L 615 110 L 615 80 L 615 79 L 470 79 z "
       transform="translate(-145,96)" />
  </g>
  <g
     transform="translate(140,-121.063)"
     id="decoration-inactive-topleft">
    <path
       id="rect6520-3-2-6"
       style="opacity:0.2;fill:url(#radialGradient969);fill-opacity:1;stroke:none"
       d="M 365 44 L 365 110 L 440 110 L 440 104 L 440 100 L 440 85 C 440 81.676 442.676 79 446 79 L 470 79 L 470 44 L 365 44 z "
       transform="translate(-140,121.063)" />
    <path
       id="rect5073-4-9-6"
       style="opacity:0.57;fill:#000000;fill-opacity:1;stroke:none;stroke-width:1"
       d="M 446 79 C 442.676 79 440 81.676 440 85 L 440 100 L 440 104 L 440 110 L 446 110 L 470 110 L 470 80 L 470 79 L 446 79 z "
       transform="translate(-140,121.063)" />
  </g>
  <g
     transform="translate(120.125,-87.01548)"
     id="decoration-inactive-left">
    <path
       id="path6345-1-1"
       style="opacity:0.2;fill:url(#linearGradient1389);fill-opacity:1;stroke:none;stroke-width:1.00664"
       d="M 365 110 L 365 196 L 440 195.98438 L 440 110 L 365 110 z "
       transform="translate(-120.125,87.01548)" />
    <path
       id="path6339-9-9"
       style="opacity:0.57;fill:#000000;fill-opacity:1;stroke:none"
       d="M 440 110 L 440 196 L 441 196 L 470 196 L 470 110 L 441 110 L 440 110 z "
       transform="translate(-120.125,87.01548)" />
  </g>
  <g
     id="decoration-bottomleft"
     transform="translate(-385,-94.000015)">
    <path
       id="rect7023-1"
       style="opacity:0.67;fill:#000000;fill-opacity:1;stroke:none;stroke-width:1.00001"
       d="M 80 196 L 80 203 C 80 206.324 82.676 209 86 209 L 110 209 L 110 208 L 110 196 L 81 196 L 80 196 z "
       transform="translate(385,94.000015)" />
    <path
       id="rect5099-9-5"
       style="opacity:0.5;fill:url(#radialGradient965);fill-opacity:1;stroke:none"
       d="M 5 196 L 5 294 L 110 294 L 110 209 L 86 209 C 82.676 209 80 206.324 80 203 L 80 196 L 5 196 z "
       transform="translate(385,94.000015)" />
  </g>
  <g
     id="decoration-inactive-bottomleft"
     transform="translate(0,-90)">
    <path
       id="path4207"
       style="opacity:0.57;fill:#000000;fill-opacity:1;stroke:none;stroke-width:1.41421"
       d="M 440 196 L 440 203 C 440 206.324 442.676 209 446 209 L 470 209 L 470 208 L 470 196 L 441 196 L 440 196 z "
       transform="translate(0,90)" />
    <path
       id="rect5099-9-6"
       style="opacity:0.2;fill:url(#radialGradient967);fill-opacity:1;stroke:none"
       d="M 365 196 L 365 294 L 470 294 L 470 209 L 446 209 C 442.676 209 440 206.324 440 203 L 440 196 L 365 196 z "
       transform="translate(0,90)" />
  </g>
  <rect
     y="134.00005"
     x="174"
     height="35.999897"
     width="4"
     id="shadow-hint-top-margin"
     style="opacity:1;fill:#ff00ff;fill-opacity:1;stroke:none;stroke-width:0.447214"
     transform="translate(0,-90)" />
  <rect
     y="298.00003"
     x="175"
     height="85.999969"
     width="4"
     id="shadow-hint-bottom-margin"
     style="opacity:1;fill:#ff00ff;fill-opacity:1;stroke:none;stroke-width:1.18321598"
     transform="translate(0,-90)" />
  <rect
     y="230"
     x="284"
     height="4"
     width="76"
     id="shadow-hint-right-margin"
     style="opacity:1;fill:#ff00ff;fill-opacity:1;stroke:none;stroke-width:0.707107"
     transform="translate(0,-90)" />
  <rect
     y="224"
     x="5"
     height="4"
     width="76"
     id="shadow-hint-left-margin"
     style="opacity:1;fill:#ff00ff;fill-opacity:1;stroke:none;stroke-width:0.707107"
     transform="translate(0,-90)" />
  <rect
     style="fill:#00ff29;fill-opacity:1;stroke:none;stroke-width:1.08465"
     y="134"
     x="186"
     height="66"
     width="4"
     id="hint-top-margin"
     transform="translate(0,-90)" />
  <rect
     style="fill:#00ff29;fill-opacity:1;stroke:none;stroke-width:1.11946"
     y="286"
     x="187"
     height="97.999992"
     width="4"
     id="hint-bottom-margin"
     transform="translate(0,-90)" />
  <rect
     style="fill:#00ff29;fill-opacity:1;stroke:none;stroke-width:1.08465"
     transform="rotate(90,45,-45)"
     y="-360"
     x="219"
     height="105"
     width="4"
     id="hint-right-margin" />
  <rect
     style="fill:#00ff29;fill-opacity:1;stroke:none;stroke-width:1.0853"
     transform="rotate(90,45,-45)"
     y="-110"
     x="216"
     height="105"
     width="4"
     id="hint-left-margin" />
  <g
     id="decoration-topleft"
     transform="matrix(-1,0,0,1,535,-121.0625)">
    <path
       id="path1019"
       style="opacity:0.5;fill:url(#radialGradient1306);fill-opacity:1;stroke:none"
       d="M 5 44 L 5 110 L 80 110 L 80 104 L 80 100 L 80 85 C 80 81.676 82.676 79 86 79 L 110 79 L 110 44 L 5 44 z "
       transform="matrix(-1,0,0,1,535,121.0625)" />
    <path
       id="path1023"
       style="opacity:0.67;fill:#000000;fill-opacity:1;stroke:none;stroke-width:1"
       d="M 86 79 C 82.676 79 80 81.676 80 85 L 80 100 L 80 104 L 80 110 L 86 110 L 110 110 L 110 80 L 110 79 L 86 79 z "
       transform="matrix(-1,0,0,1,535,121.0625)" />
  </g>
  <g
     id="decoration-inactive-right"
     transform="matrix(-1,0,0,1,964.875,-87.01548)"
     style="display:inline">
    <path
       id="path1004"
       style="opacity:0.2;fill:url(#linearGradient1012);fill-opacity:1;stroke:none;stroke-width:1.00664"
       d="m 645,110 v 85.98438 L 720,196 v -86 z"
       transform="matrix(-1,0,0,1,964.875,87.01548)" />
    <path
       id="path1008"
       style="opacity:0.57;fill:#000000;fill-opacity:1;stroke:none"
       d="m 615,110 v 86 h 29 1 v -86 h -1 z"
       transform="matrix(-1,0,0,1,964.875,87.01548)" />
  </g>
  <use
     height="100%"
     width="100%"
     transform="matrix(-1,0,0,1,365,0)"
     id="decoration-topright"
     xlink:href="#decoration-topleft"
     y="0"
     x="0" />
  <use
     height="100%"
     width="100%"
     transform="matrix(-1,0,0,1,1085,0)"
     id="decoration-inactive-topright"
     xlink:href="#decoration-inactive-topleft"
     y="0"
     x="0" />
  <use
     height="100%"
     width="100%"
     transform="matrix(-1,0,0,1,365,0)"
     id="decoration-bottomright"
     xlink:href="#decoration-bottomleft"
     y="0"
     x="0" />
  <use
     height="100%"
     width="100%"
     transform="matrix(-1,0,0,1,1085,0)"
     id="decoration-inactive-bottomright"
     xlink:href="#decoration-inactive-bottomleft"
     y="0"
     x="0" />
  <g
     transform="translate(507.84914,-82.25253)"
     id="mask-bottom">
    <path
       id="path6217-8-2-1"
       style="opacity:0"
       d="m 470,209 v 85 h 145 v -85 z"
       transform="translate(-145,80.92202)" />
    <path
       id="path6211-7-5-2"
       style="opacity:1;fill:#000000;fill-opacity:1;stroke:none;stroke-width:1.41421"
       d="m 470,196 v 12 1 h 145 v -1 -12 z"
       transform="translate(-145,80.92202)" />
  </g>
  <path
     id="mask-center"
     d="m 839.80056,201.28699 v 86 h 145.00005 v -86 z"
     style="opacity:1;fill:#000000;fill-opacity:1;stroke:none"
     transform="translate(-6.951423,-92.617496)" />
  <g
     transform="translate(507.84914,-97.33051)"
     id="mask-top">
    <path
       id="path6055-5-5-9"
       style="opacity:0"
       d="M 470,44 V 79 H 615 V 44 Z"
       transform="translate(-145,96)" />
    <path
       id="path6092-3-3-3"
       style="fill:#000000;fill-opacity:1;stroke:none;stroke-width:1"
       d="m 470,79 v 1 30 H 615 V 80 79 Z"
       transform="translate(-145,96)" />
  </g>
  <g
     transform="translate(502.84914,-122.39351)"
     id="mask-topleft">
    <path
       id="rect6520-3-2-6-0"
       style="opacity:0"
       d="m 365,44 v 66 h 75 v -6 -4 -15 c 0,-3.324 2.676,-6 6,-6 h 24 V 44 Z"
       transform="translate(-140,121.063)" />
    <path
       id="rect5073-4-9-6-6"
       style="fill:#000000;fill-opacity:1;stroke:none;stroke-width:1"
       d="m 446,79 c -3.324,0 -6,2.676 -6,6 v 15 4 6 h 6 24 V 80 79 Z"
       transform="translate(-140,121.063)" />
  </g>
  <g
     transform="translate(482.97414,-88.34599)"
     id="mask-left">
    <path
       id="path6345-1-1-6"
       style="opacity:0"
       d="m 365,110 v 86 l 75,-0.0156 V 110 Z"
       transform="translate(-120.125,87.01548)" />
    <path
       id="path6339-9-9-1"
       style="fill:#000000;fill-opacity:1;stroke:none;stroke-width:1"
       d="m 440,110 v 86 h 1 29 v -86 h -29 z"
       transform="translate(-120.125,87.01548)" />
  </g>
  <g
     id="mask-bottomleft"
     transform="translate(362.84914,-91.33051)">
    <path
       id="path4207-7"
       style="opacity:1;fill:#000000;fill-opacity:1;stroke:none;stroke-width:1.41421"
       d="m 440,196 v 7 c 0,3.324 2.676,6 6,6 h 24 v -1 -12 h -29 z"
       transform="translate(0,90)" />
    <path
       id="rect5099-9-6-9"
       style="opacity:0"
       d="m 365,196 v 98 h 105 v -85 h -24 c -3.324,0 -6,-2.676 -6,-6 v -7 z"
       transform="translate(0,90)" />
  </g>
  <g
     id="mask-right"
     transform="matrix(-1,0,0,1,1327.7242,-88.34599)"
     style="display:inline">
    <path
       id="path1004-0"
       style="opacity:0"
       d="m 645,110 v 85.98438 L 720,196 v -86 z"
       transform="matrix(-1,0,0,1,964.875,87.01548)" />
    <path
       id="path1008-2"
       style="fill:#000000;fill-opacity:1;stroke:none;stroke-width:1"
       d="m 615,110 v 86 h 29 1 v -86 h -1 z"
       transform="matrix(-1,0,0,1,964.875,87.01548)" />
  </g>
  <use
     height="100%"
     width="100%"
     transform="matrix(-1,0,0,1,1810.6984,0)"
     id="mask-topright"
     xlink:href="#mask-topleft"
     y="0"
     x="0" />
  <use
     height="100%"
     width="100%"
     transform="matrix(-1,0,0,1,1810.6984,0)"
     id="mask-bottomright"
     xlink:href="#mask-bottomleft"
     y="0"
     x="0" />
</svg>
