<?xml version="1.0" encoding="UTF-8" standalone="no"?>
<svg
   xmlns:dc="http://purl.org/dc/elements/1.1/"
   xmlns:cc="http://creativecommons.org/ns#"
   xmlns:rdf="http://www.w3.org/1999/02/22-rdf-syntax-ns#"
   xmlns:svg="http://www.w3.org/2000/svg"
   xmlns="http://www.w3.org/2000/svg"
   xmlns:xlink="http://www.w3.org/1999/xlink"
   xmlns:sodipodi="http://sodipodi.sourceforge.net/DTD/sodipodi-0.dtd"
   xmlns:inkscape="http://www.inkscape.org/namespaces/inkscape"
   inkscape:export-ydpi="90"
   inkscape:export-xdpi="90"
   inkscape:export-filename="/home/diau/svn/playground-plasma/desktoptheme/air/widgets/background.png"
   version="1.0"
   inkscape:output_extension="org.inkscape.output.svg.inkscape"
   sodipodi:docname="decoration.svg"
   inkscape:version="1.0.1 (3bc2e813f5, 2020-09-07)"
   sodipodi:version="0.32"
   id="svg3642"
   height="310"
   width="355">
  <sodipodi:namedview
     inkscape:document-rotation="0"
     inkscape:snap-nodes="true"
     inkscape:object-paths="true"
     inkscape:snap-intersection-paths="true"
     inkscape:snap-smooth-nodes="true"
     inkscape:snap-midpoints="true"
     inkscape:snap-bbox-edge-midpoints="true"
     inkscape:bbox-paths="true"
     inkscape:bbox-nodes="true"
     inkscape:snap-bbox="true"
     inkscape:snap-global="true"
     inkscape:window-maximized="1"
     gridtolerance="13"
     objecttolerance="9"
     inkscape:guide-bbox="true"
     showguides="false"
     height="48px"
     width="48px"
     inkscape:window-y="52"
     inkscape:window-x="0"
     inkscape:window-height="933"
     inkscape:window-width="1920"
     inkscape:document-units="px"
     inkscape:grid-bbox="true"
     showgrid="false"
     inkscape:current-layer="layer1"
     inkscape:cy="169.69902"
     inkscape:cx="130.61984"
     inkscape:zoom="2.8284274"
     inkscape:pageshadow="2"
     inkscape:pageopacity="1"
     borderopacity="1.0"
     bordercolor="#666666"
     pagecolor="#585858"
     id="base">
    <inkscape:grid
       empopacity="0.25098039"
       empcolor="#6decff"
       opacity="0.1254902"
       color="#8f8fff"
       snapvisiblegridlinesonly="true"
       empspacing="5"
       visible="true"
       enabled="true"
       id="grid2555"
       type="xygrid" />
  </sodipodi:namedview>
  <defs
     id="defs3644">
    <linearGradient
       id="shadow_active">
      <stop
         style="stop-color:#000000;stop-opacity:0.92168677;"
         offset="0"
         id="stop7028" />
      <stop
         style="stop-color:#000000;stop-opacity:0.74096388;"
         offset="0.125"
         id="stop7026" />
      <stop
         style="stop-color:#000000;stop-opacity:0.60240966;"
         offset="0.25"
         id="stop6834" />
      <stop
         style="stop-color:#000000;stop-opacity:0.33132529;"
         offset="0.5"
         id="stop6832" />
      <stop
         id="stop6836"
         offset="0.75"
         style="stop-color:#000000;stop-opacity:0.10843374;" />
      <stop
         style="stop-color:#000000;stop-opacity:0.03921569;"
         offset="0.875"
         id="stop6894" />
      <stop
         style="stop-color:#000000;stop-opacity:0;"
         offset="1"
         id="stop6721" />
    </linearGradient>
    <linearGradient
       y2="181.6279"
       x2="398"
       y1="138.13953"
       x1="398"
       gradientTransform="matrix(1,0,0,1.0117647,-215,56.2353)"
       gradientUnits="userSpaceOnUse"
       id="linearGradient5688"
       xlink:href="#shadow_active"
       inkscape:collect="always" />
    <linearGradient
       y2="15.555537"
       x2="396"
       y1="64.166748"
       x1="396"
       gradientTransform="matrix(1,0,0,1.0285694,-215,50.00005)"
       gradientUnits="userSpaceOnUse"
       id="linearGradient6612"
       xlink:href="#shadow_active"
       inkscape:collect="always" />
    <linearGradient
       y2="166.80234"
       x2="398"
       y1="138.13954"
       x1="398"
       gradientTransform="matrix(1,0,0,1.0117647,145,56.23529)"
       gradientUnits="userSpaceOnUse"
       id="linearGradient5688-2"
       xlink:href="#shadow_inactive"
       inkscape:collect="always" />
    <linearGradient
       id="shadow_inactive">
      <stop
         id="stop6719-25"
         offset="0"
         style="stop-color:#000000;stop-opacity:1;" />
      <stop
         style="stop-color:#000000;stop-opacity:0.63855422;"
         offset="0.25"
         id="stop6834-1" />
      <stop
         style="stop-color:#000000;stop-opacity:0.33734939;"
         offset="0.5"
         id="stop6832-0" />
      <stop
         id="stop6836-0"
         offset="0.75"
         style="stop-color:#000000;stop-opacity:0.10843374;" />
      <stop
         style="stop-color:#000000;stop-opacity:0.03921569;"
         offset="0.875"
         id="stop6894-7" />
      <stop
         style="stop-color:#000000;stop-opacity:0;"
         offset="1"
         id="stop6721-4" />
    </linearGradient>
    <linearGradient
       y2="30"
       x2="396"
       y1="66"
       x1="396"
       gradientTransform="translate(145,44)"
       gradientUnits="userSpaceOnUse"
       id="linearGradient6612-5"
       xlink:href="#shadow_inactive"
       inkscape:collect="always" />
    <linearGradient
       y2="99"
       x2="289.2829"
       y1="99"
       x1="348.49344"
       gradientTransform="matrix(1.0133333,0,0,1,-243.14001,53)"
       gradientUnits="userSpaceOnUse"
       id="linearGradient1126"
       xlink:href="#shadow_active"
       inkscape:collect="always" />
    <radialGradient
       r="17.5"
       fy="80.416679"
       fx="296.47726"
       cy="80.416679"
       cx="296.47726"
       gradientTransform="matrix(8.1359764e-7,-2.8571323,3.4285708,1.1278823e-6,-165.71453,957.07448)"
       gradientUnits="userSpaceOnUse"
       id="radialGradient1306"
       xlink:href="#shadow_active"
       inkscape:collect="always" />
    <linearGradient
       y2="99.01548"
       x2="304.08554"
       y1="99.01548"
       x1="348.49344"
       gradientTransform="matrix(1.0133333,0,0,1,116.85999,52.98452)"
       gradientUnits="userSpaceOnUse"
       id="linearGradient1389"
       xlink:href="#shadow_inactive"
       inkscape:collect="always" />
    <radialGradient
       r="17.5"
       fy="178.72313"
       fx="48.27084"
       cy="178.72313"
       cx="48.27084"
       gradientTransform="matrix(-3.4285723,1.6634773e-6,0,-2.5142855,275.50008,645.36091)"
       gradientUnits="userSpaceOnUse"
       id="radialGradient965"
       xlink:href="#shadow_active"
       inkscape:collect="always" />
    <radialGradient
       r="17.5"
       fy="181.17691"
       fx="48.270844"
       cy="181.17691"
       cx="48.270844"
       gradientTransform="matrix(-2.5714291,7.4376771e-7,-2.0148289e-7,-1.6571424,594.12508,496.23591)"
       gradientUnits="userSpaceOnUse"
       id="radialGradient967"
       xlink:href="#shadow_inactive"
       inkscape:collect="always" />
    <radialGradient
       r="17.5"
       fy="80.416672"
       fx="296.45123"
       cy="80.416672"
       cx="296.45123"
       gradientTransform="matrix(-3.7607938e-7,-2.0571166,2.5714318,-5.1233137e-7,263.21413,719.83432)"
       gradientUnits="userSpaceOnUse"
       id="radialGradient969"
       xlink:href="#shadow_inactive"
       inkscape:collect="always" />
    <linearGradient
       y2="99"
       x2="289.2829"
       y1="99"
       x1="348.49344"
       gradientTransform="matrix(-1.0133333,0,0,1,608.14001,53)"
       gradientUnits="userSpaceOnUse"
       id="linearGradient968"
       xlink:href="#shadow_active"
       inkscape:collect="always" />
    <linearGradient
       y2="99.01548"
       x2="304.08554"
       y1="99.01548"
       x1="348.49344"
       gradientTransform="matrix(-1.0133333,0,0,1,968.14001,52.98452)"
       gradientUnits="userSpaceOnUse"
       id="linearGradient1012"
       xlink:href="#shadow_inactive"
       inkscape:collect="always" />
  </defs>
  <metadata
     id="metadata3647">
    <rdf:RDF>
      <cc:Work
         rdf:about="">
        <dc:format>image/svg+xml</dc:format>
        <dc:type
           rdf:resource="http://purl.org/dc/dcmitype/StillImage" />
        <dc:title />
      </cc:Work>
      <cc:Work
         rdf:about="">
        <dc:format>image/svg+xml</dc:format>
        <dc:type
           rdf:resource="http://purl.org/dc/dcmitype/StillImage" />
      </cc:Work>
    </rdf:RDF>
  </metadata>
  <g
     transform="translate(0,-90)"
     inkscape:groupmode="layer"
     inkscape:label="Layer 1"
     id="layer1">
    <g
       transform="translate(140,-31.063)"
       inkscape:label="#decoration-inactive-topleft"
       id="decoration-inactive-topleft">
      <path
         id="rect6520-3-2-6"
         style="opacity:0.2;fill:url(#radialGradient969);fill-opacity:1;stroke:none"
         d="M 365 44 L 365 110 L 440 110 L 440 104 L 440 100 L 440 85 C 440 81.676 442.676 79 446 79 L 470 79 L 470 44 L 365 44 z "
         transform="translate(-140,121.063)" />
      <g
         id="6utrh-9"
         inkscape:label="#g5343">
        <g
           transform="translate(0,1)"
           inkscape:label="#g5253"
           id="decoration-toplefthaerty-5">
          <g
             id="49093u-9"
             transform="translate(-19,25)"
             inkscape:label="#g6458">
            <path
               id="rect5073-4-9-6"
               style="opacity:0.57;fill:#000000;fill-opacity:1;stroke:none;stroke-width:1"
               d="M 446 79 C 442.676 79 440 81.676 440 85 L 440 100 L 440 104 L 440 110 L 446 110 L 470 110 L 470 80 L 470 79 L 446 79 z "
               transform="translate(-121,95.063)" />
          </g>
        </g>
      </g>
    </g>
    <g
       id="decoration-right"
       transform="matrix(-1,0,0,1,604.875,3)"
       inkscape:label="#decoration-left">
      <path
         id="path960"
         style="opacity:0.5;fill:url(#linearGradient968);fill-opacity:1;stroke:none;stroke-width:1.00664"
         d="M 285 110 L 285 196 L 360 196 L 360 110 L 285 110 z "
         transform="matrix(-1,0,0,1,604.875,87)" />
      <path
         id="path964"
         style="opacity:0.67;fill:#000000;fill-opacity:1;stroke:none"
         d="M 255 110 L 255 196 L 284 196 L 285 196 L 285 110 L 284 110 L 255 110 z "
         transform="matrix(-1,0,0,1,604.875,87)" />
    </g>
    <g
       id="g4418"
       style="display:none"
       inkscape:label="layer1"
       transform="translate(-1453.4451,-465.21909)" />
    <g
       id="layer2"
       style="display:inline"
       inkscape:label="glow"
       transform="translate(-1453.4451,-465.21909)" />
    <g
       transform="translate(975.61592,-1945.0985)"
       id="g2424"
       style="display:none"
       inkscape:label="layer1" />
    <g
       transform="translate(975.61592,-1945.0985)"
       id="g2426"
       style="display:inline"
       inkscape:label="glow" />
    <g
       transform="translate(1021.5937,-976.23581)"
       id="g3429"
       inkscape:label="Layer 1" />
    <g
       transform="translate(2807.8842,-592.77773)"
       id="g19758"
       inkscape:label="Layer 1" />
    <g
       transform="translate(3912.7094,-1471.0471)"
       id="g3935"
       inkscape:label="Layer 1" />
    <g
       transform="translate(1514.8397,-1486.3943)"
       id="g8459"
       inkscape:label="Layer 1" />
    <g
       transform="translate(164.02222,-157.78265)"
       id="g28391"
       inkscape:label="Layer 1" />
    <g
       transform="translate(1268.8474,-1036.052)"
       id="g28393"
       inkscape:label="Layer 1" />
    <g
       transform="translate(-1129.0223,-1051.3992)"
       id="g28395"
       inkscape:label="Layer 1" />
    <g
       transform="translate(2310.5222,-165.78265)"
       id="g6598"
       inkscape:label="Layer 1" />
    <g
       transform="translate(3415.3474,-1044.052)"
       id="g6640"
       inkscape:label="Layer 1" />
    <g
       transform="translate(1017.4777,-1059.3992)"
       id="g6716"
       inkscape:label="Layer 1" />
    <g
       style="opacity:0.45945943"
       transform="matrix(1,0,0,-1,-153.44508,295.17435)"
       id="g6850" />
    <g
       transform="translate(-1919.565,-153.36219)"
       inkscape:label="layer1"
       style="display:none"
       id="g4240" />
    <g
       transform="translate(-1919.565,-153.36219)"
       inkscape:label="glow"
       style="display:inline"
       id="g4242" />
    <g
       inkscape:label="layer1"
       style="display:none"
       id="g4244"
       transform="translate(509.49601,-1633.2416)" />
    <g
       inkscape:label="glow"
       style="display:inline"
       id="g4246"
       transform="translate(509.49601,-1633.2416)" />
    <g
       inkscape:label="Layer 1"
       id="g4248"
       transform="translate(555.47381,-664.37887)" />
    <g
       inkscape:label="Layer 1"
       id="g4250"
       transform="translate(2341.7643,-280.92083)" />
    <g
       inkscape:label="Layer 1"
       id="g4252"
       transform="translate(3446.5895,-1159.1902)" />
    <g
       inkscape:label="Layer 1"
       id="g4254"
       transform="translate(1048.7198,-1174.5374)" />
    <g
       inkscape:label="Layer 1"
       id="g4256"
       transform="translate(-302.09768,154.07425)" />
    <g
       inkscape:label="Layer 1"
       id="g4258"
       transform="translate(802.72751,-724.19507)" />
    <g
       inkscape:label="Layer 1"
       id="g4260"
       transform="translate(-1595.1422,-739.54227)" />
    <g
       inkscape:label="Layer 1"
       id="g4262"
       transform="translate(1844.4023,146.07425)" />
    <g
       inkscape:label="Layer 1"
       id="g4264"
       transform="translate(2949.2275,-732.19507)" />
    <g
       inkscape:label="Layer 1"
       id="g4266"
       transform="translate(551.35781,-747.54227)" />
    <g
       id="g4268"
       transform="matrix(1,0,0,-1,-619.56498,607.03125)"
       style="opacity:0.45945943" />
    <g
       inkscape:label="#decoration-bottom"
       transform="translate(-215,9)"
       id="decoration-bottom">
      <path
         id="path6217-8"
         style="opacity:0.5;fill:url(#linearGradient5688);fill-opacity:1;stroke:none;stroke-width:1.0058651"
         d="M 110 209 L 110 294 L 255 294 L 255 209 L 110 209 z "
         transform="translate(215,81)" />
      <path
         id="path6211-7"
         style="opacity:0.67;fill:#000000;fill-opacity:1;stroke:none;stroke-width:1.41421"
         d="M 110 196 L 110 208 L 110 209 L 255 209 L 255 208 L 255 196 L 110 196 z "
         transform="translate(215,81)" />
    </g>
    <path
       inkscape:label="#decoration-center"
       inkscape:connector-curvature="0"
       id="decoration-center"
       d="m 110,200 v 86 h 145 v -86 z"
       style="opacity:0.67;fill:#000000;fill-opacity:1;stroke:none" />
    <g
       inkscape:label="#decoration-top"
       transform="translate(-215,-5.99995)"
       id="decoration-top">
      <path
         transform="translate(215,89.99995)"
         d="M 110,50 V 86 H 255 V 50 Z"
         style="opacity:0.5;fill:url(#linearGradient6612);fill-opacity:1;stroke:none;stroke-width:1.01418"
         id="path6055-5" />
      <path
         id="path6092-3"
         style="opacity:0.67;fill:#000000;fill-opacity:1;stroke:none;stroke-width:1"
         d="M 110 79 L 110 80 L 110 110 L 255 110 L 255 80 L 255 79 L 110 79 z "
         transform="translate(215,95.99995)" />
    </g>
    <g
       inkscape:label="#decoration-left"
       transform="translate(-239.875,3)"
       id="decoration-left">
      <path
         id="path6345-1"
         style="opacity:0.5;fill:url(#linearGradient1126);fill-opacity:1;stroke:none;stroke-width:1.00664"
         d="M 5 110 L 5 196 L 80 196 L 80 110 L 5 110 z "
         transform="translate(239.875,87)" />
      <path
         id="path6339-9"
         style="opacity:0.67;fill:#000000;fill-opacity:1;stroke:none"
         d="M 80 110 L 80 196 L 81 196 L 110 196 L 110 110 L 81 110 L 80 110 z "
         transform="translate(239.875,87)" />
    </g>
    <g
       inkscape:label="#decoration-inactive-bottom"
       transform="translate(145,9.07798)"
       id="decoration-inactive-bottom">
      <path
         id="path6217-8-2"
         style="opacity:0.2;fill:url(#linearGradient5688-2);fill-opacity:1;stroke:none;stroke-width:1.0058651"
         d="M 470 209 L 470 294 L 615 294 L 615 209 L 470 209 z "
         transform="translate(-145,80.92202)" />
      <path
         id="path6211-7-5"
         style="opacity:0.57;fill:#000000;fill-opacity:1;stroke:none;stroke-width:1.41421"
         d="M 470 196 L 470 208 L 470 209 L 615 209 L 615 208 L 615 196 L 470 196 z "
         transform="translate(-145,80.92202)" />
    </g>
    <path
       inkscape:label="#decoration-inactive-center"
       inkscape:connector-curvature="0"
       id="decoration-inactive-center"
       d="m 470,200 v 86 h 145 v -86 z"
       style="opacity:0.57;fill:#000000;fill-opacity:1;stroke:none" />
    <g
       inkscape:label="#decoration-inactive-top"
       transform="translate(145,-6)"
       id="decoration-inactive-top">
      <path
         id="path6055-5-5"
         style="opacity:0.2;fill:url(#linearGradient6612-5);fill-opacity:1;stroke:none"
         d="M 470 44 L 470 79 L 615 79 L 615 44 L 470 44 z "
         transform="translate(-145,96)" />
      <path
         id="path6092-3-3"
         style="opacity:0.57;fill:#000000;fill-opacity:1;stroke:none;stroke-width:1"
         d="M 470 79 L 470 80 L 470 110 L 615 110 L 615 80 L 615 79 L 470 79 z "
         transform="translate(-145,96)" />
    </g>
    <g
       inkscape:label="#decoration-inactive-left"
       transform="translate(120.125,2.98452)"
       id="decoration-inactive-left">
      <path
         id="path6345-1-1"
         style="opacity:0.2;fill:url(#linearGradient1389);fill-opacity:1;stroke:none;stroke-width:1.00664"
         d="M 365 110 L 365 196 L 440 195.98438 L 440 110 L 365 110 z "
         transform="translate(-120.125,87.01548)" />
      <path
         id="path6339-9-9"
         style="opacity:0.57;fill:#000000;fill-opacity:1;stroke:none"
         d="M 440 110 L 440 196 L 441 196 L 470 196 L 470 110 L 441 110 L 440 110 z "
         transform="translate(-120.125,87.01548)" />
    </g>
    <g
       inkscape:label="#decoration-bottomleft"
       id="decoration-bottomleft"
       transform="translate(-385,-4.000015)">
      <path
         id="rect7023-1"
         style="opacity:0.67;fill:#000000;fill-opacity:1;stroke:none;stroke-width:1.00001"
         d="M 80 196 L 80 203 C 80 206.324 82.676 209 86 209 L 110 209 L 110 208 L 110 196 L 81 196 L 80 196 z "
         transform="translate(385,94.000015)" />
      <g
         id="hrh-6"
         inkscape:label="#g5246"
         transform="matrix(1,0,0,0.99932111,165,-10.666582)">
        <path
           id="rect5099-9-5"
           style="opacity:0.5;fill:url(#radialGradient965);fill-opacity:1;stroke:none"
           d="M 5 196 L 5 294 L 110 294 L 110 209 L 86 209 C 82.676 209 80 206.324 80 203 L 80 196 L 5 196 z "
           transform="matrix(1,0,0,1.0006794,220,104.7377)" />
        <g
           inkscape:label="#g6297"
           transform="translate(-20,24)"
           id="decoration-bottomleft57547-54-5">
          <g
             id="g6659-3-3-0" />
        </g>
      </g>
    </g>
    <g
       id="decoration-inactive-bottomleft">
      <path
         id="path4207"
         style="opacity:0.57;fill:#000000;fill-opacity:1;stroke:none;stroke-width:1.41421"
         d="M 440 196 L 440 203 C 440 206.324 442.676 209 446 209 L 470 209 L 470 208 L 470 196 L 441 196 L 440 196 z "
         transform="translate(0,90)" />
      <g
         id="hrh-3"
         inkscape:label="#g5246"
         transform="matrix(1,0,0,0.99932111,140,-14.604092)">
        <path
           id="rect5099-9-6"
           style="opacity:0.2;fill:url(#radialGradient967);fill-opacity:1;stroke:none"
           d="M 365 196 L 365 294 L 470 294 L 470 209 L 446 209 C 442.676 209 440 206.324 440 203 L 440 196 L 365 196 z "
           transform="matrix(1,0,0,1.0006794,-140,104.67515)" />
        <g
           inkscape:label="#g6297"
           transform="translate(-20,24)"
           id="decoration-bottomleft57547-54-2">
          <g
             id="g6659-3-3-4" />
        </g>
      </g>
    </g>
    <rect
       y="134.00005"
       x="174"
       height="35.999897"
       width="4"
       id="shadow-hint-top-margin"
       style="opacity:1;fill:#ff00ff;fill-opacity:1;stroke:none;stroke-width:0.447214" />
    <rect
       y="298.00003"
       x="175"
       height="85.999969"
       width="4"
       id="shadow-hint-bottom-margin"
       style="opacity:1;fill:#ff00ff;fill-opacity:1;stroke:none;stroke-width:1.18321598" />
    <rect
       y="230"
       x="284"
       height="4"
       width="76"
       id="shadow-hint-right-margin"
       style="opacity:1;fill:#ff00ff;fill-opacity:1;stroke:none;stroke-width:0.707107" />
    <rect
       y="224"
       x="5"
       height="4"
       width="76"
       id="shadow-hint-left-margin"
       style="opacity:1;fill:#ff00ff;fill-opacity:1;stroke:none;stroke-width:0.707107" />
    <rect
       style="fill:#00ff29;fill-opacity:1;stroke:none;stroke-width:1.08465"
       y="134"
       x="186"
       height="66"
       width="4"
       id="hint-top-margin" />
    <rect
       style="fill:#00ff29;fill-opacity:1;stroke:none;stroke-width:1.11946"
       y="286"
       x="187"
       height="97.999992"
       width="4"
       id="hint-bottom-margin" />
    <rect
       style="fill:#00ff29;fill-opacity:1;stroke:none;stroke-width:1.08465"
       transform="rotate(90)"
       y="-360"
       x="219"
       height="105"
       width="4"
       id="hint-right-margin" />
    <rect
       style="fill:#00ff29;fill-opacity:1;stroke:none;stroke-width:1.0853"
       transform="rotate(90)"
       y="-110"
       x="216"
       height="105"
       width="4"
       id="hint-left-margin" />
    <g
       id="decoration-topleft"
       inkscape:label="#decoration-topleft"
       transform="matrix(-1,0,0,1,535,-31.0625)">
      <path
         id="path1019"
         style="opacity:0.5;fill:url(#radialGradient1306);fill-opacity:1;stroke:none"
         d="M 5 44 L 5 110 L 80 110 L 80 104 L 80 100 L 80 85 C 80 81.676 82.676 79 86 79 L 110 79 L 110 44 L 5 44 z "
         transform="matrix(-1,0,0,1,535,121.0625)" />
      <g
         inkscape:label="#g6067"
         id="g1027"
         transform="translate(250)">
        <g
           transform="matrix(-1,0,0,1,524,26)"
           id="g1025"
           inkscape:label="#g6458-7">
          <path
             id="path1023"
             style="opacity:0.67;fill:#000000;fill-opacity:1;stroke:none;stroke-width:1"
             d="M 86 79 C 82.676 79 80 81.676 80 85 L 80 100 L 80 104 L 80 110 L 86 110 L 110 110 L 110 80 L 110 79 L 86 79 z "
             transform="translate(239,95.0625)" />
        </g>
      </g>
    </g>
    <g
       id="decoration-inactive-right"
       transform="matrix(-1,0,0,1,964.875,2.98452)"
       inkscape:label="#decoration-inactive-left">
      <path
         id="path1004"
         style="opacity:0.2;fill:url(#linearGradient1012);fill-opacity:1;stroke:none;stroke-width:1.00664"
         d="M 645 110 L 645 195.98438 L 720 196 L 720 110 L 645 110 z "
         transform="matrix(-1,0,0,1,964.875,87.01548)" />
      <path
         id="path1008"
         style="opacity:0.57;fill:#000000;fill-opacity:1;stroke:none"
         d="M 615 110 L 615 196 L 644 196 L 645 196 L 645 110 L 644 110 L 615 110 z "
         transform="matrix(-1,0,0,1,964.875,87.01548)" />
    </g>
    <use
       height="100%"
       width="100%"
       transform="matrix(-1,0,0,1,365,0)"
       id="decoration-topright"
       xlink:href="#decoration-topleft"
       y="0"
       x="0" />
    <use
       height="100%"
       width="100%"
       transform="matrix(-1,0,0,1,1085,0)"
       id="decoration-inactive-topright"
       xlink:href="#decoration-inactive-topleft"
       y="0"
       x="0" />
    <use
       height="100%"
       width="100%"
       transform="matrix(-1,0,0,1,365,0)"
       id="decoration-bottomright"
       xlink:href="#decoration-bottomleft"
       y="0"
       x="0" />
    <use
       height="100%"
       width="100%"
       transform="matrix(-1,0,0,1,1085,0)"
       id="decoration-inactive-bottomright"
       xlink:href="#decoration-inactive-bottomleft"
       y="0"
       x="0" />
  </g>
</svg>
