<?xml version="1.0" encoding="UTF-8" standalone="no"?>
<svg
   width="171.00006"
   height="185"
   id="svg2"
   version="1.1"
   inkscape:version="1.2.2 (b0a8486541, 2022-12-01)"
   sodipodi:docname="decoration.svg"
   xmlns:inkscape="http://www.inkscape.org/namespaces/inkscape"
   xmlns:sodipodi="http://sodipodi.sourceforge.net/DTD/sodipodi-0.dtd"
   xmlns:xlink="http://www.w3.org/1999/xlink"
   xmlns="http://www.w3.org/2000/svg"
   xmlns:svg="http://www.w3.org/2000/svg"
   xmlns:rdf="http://www.w3.org/1999/02/22-rdf-syntax-ns#"
   xmlns:cc="http://creativecommons.org/ns#"
   xmlns:dc="http://purl.org/dc/elements/1.1/">
  <sodipodi:namedview
     id="base"
     pagecolor="#c8c8c8"
     bordercolor="#666666"
     borderopacity="1.0"
     inkscape:pageopacity="1"
     inkscape:pageshadow="2"
     inkscape:zoom="0.98994949"
     inkscape:cx="20.203051"
     inkscape:cy="-24.748737"
     inkscape:document-units="px"
     inkscape:current-layer="g5090"
     showgrid="true"
     showguides="true"
     inkscape:guide-bbox="true"
     inkscape:window-width="1920"
     inkscape:window-height="1051"
     inkscape:window-x="0"
     inkscape:window-y="0"
     inkscape:window-maximized="1"
     inkscape:document-rotation="0"
     inkscape:snap-bbox="true"
     inkscape:bbox-nodes="true"
     fit-margin-top="0"
     fit-margin-left="0"
     fit-margin-right="0"
     fit-margin-bottom="0"
     inkscape:pagecheckerboard="0"
     inkscape:showpageshadow="0"
     inkscape:deskcolor="#c8c8c8">
    <inkscape:grid
       type="xygrid"
       id="grid2816"
       empspacing="5"
       visible="true"
       enabled="true"
       snapvisiblegridlinesonly="true"
       originx="207.00003"
       originy="-316" />
    <inkscape:grid
       type="xygrid"
       id="grid5107"
       empspacing="5"
       visible="true"
       enabled="false"
       snapvisiblegridlinesonly="true"
       color="#ff0000"
       opacity="0.1254902"
       spacingx="0.5"
       spacingy="0.5"
       originx="207.00003"
       originy="-316" />
  </sodipodi:namedview>
  <defs
     id="defs4">
    <linearGradient
       id="linearGradient1060"
       inkscape:collect="always">
      <stop
         id="stop1056"
         offset="0"
         style="stop-color:#000000;stop-opacity:1" />
      <stop
         style="stop-color:#000000;stop-opacity:0.30945057"
         offset="0.48684219"
         id="stop1083" />
      <stop
         id="stop1058"
         offset="1"
         style="stop-color:#000000;stop-opacity:0" />
    </linearGradient>
    <linearGradient
       inkscape:collect="always"
       id="linearGradient1164">
      <stop
         style="stop-color:#000000;stop-opacity:0.18000001"
         offset="0"
         id="stop1158" />
      <stop
         style="stop-color:#000000;stop-opacity:0"
         offset="1"
         id="stop1162" />
    </linearGradient>
    <radialGradient
       r="6.2177086"
       fy="104.37812"
       fx="74.083336"
       cy="104.37812"
       cx="74.083336"
       gradientTransform="matrix(-1.4141583e-5,-17.208926,11.579826,-9.8158207e-6,-1028.6793,1894.8957)"
       gradientUnits="userSpaceOnUse"
       id="radialGradient1292-3-7-3-2"
       xlink:href="#linearGradient1060"
       inkscape:collect="always" />
    <radialGradient
       r="6.2177086"
       fy="104.37812"
       fx="74.083336"
       cy="104.37812"
       cx="74.083336"
       gradientTransform="matrix(-9.1772334e-7,12.223142,-11.579822,-3.8617832e-7,1028.6803,-285.16885)"
       gradientUnits="userSpaceOnUse"
       id="radialGradient1288-6-9-4-0"
       xlink:href="#linearGradient1060"
       inkscape:collect="always" />
    <radialGradient
       inkscape:collect="always"
       xlink:href="#linearGradient1060"
       id="radialGradient1248-4-6"
       gradientUnits="userSpaceOnUse"
       gradientTransform="matrix(-4.1297171e-6,17.208913,-11.579826,-2.6580692e-6,1018.6808,-1986.1795)"
       cx="72.393738"
       cy="104.37812"
       fx="72.393738"
       fy="104.37812"
       r="6.2177086" />
    <radialGradient
       inkscape:collect="always"
       xlink:href="#linearGradient1060"
       id="radialGradient1296-7-66-1"
       gradientUnits="userSpaceOnUse"
       gradientTransform="matrix(-1.2067691e-5,-17.208914,11.579839,-7.7426556e-6,-1056.979,1912.6663)"
       cx="69.014549"
       cy="107.68542"
       fx="69.014549"
       fy="107.68542"
       r="6.2177086" />
    <linearGradient
       inkscape:collect="always"
       xlink:href="#linearGradient1164"
       id="linearGradient1861"
       gradientUnits="userSpaceOnUse"
       gradientTransform="matrix(9.448818,0,0,3.7795275,-469.99997,-330.3622)"
       x1="73.025002"
       y1="-84.666664"
       x2="73.025002"
       y2="-76.199997" />
    <linearGradient
       inkscape:collect="always"
       xlink:href="#linearGradient1060"
       id="linearGradient1863"
       gradientUnits="userSpaceOnUse"
       gradientTransform="matrix(1.5748032,0,0,3.7795275,107.5,410.36221)"
       x1="59.53125"
       y1="55.5625"
       x2="59.53125"
       y2="75.67083" />
    <linearGradient
       id="linearGradient948">
      <stop
         id="stop944"
         stop-opacity=".65"
         offset="0" />
      <stop
         id="stop946"
         stop-opacity="0"
         offset="1" />
    </linearGradient>
    <radialGradient
       inkscape:collect="always"
       xlink:href="#linearGradient948"
       id="radialGradient1621"
       gradientUnits="userSpaceOnUse"
       gradientTransform="matrix(0,-1.4085479,1.4470223,0,-1275.1064,1555.9838)"
       cx="984"
       cy="905.35999"
       fx="984"
       fy="905.35999"
       r="8.5" />
    <radialGradient
       inkscape:collect="always"
       xlink:href="#linearGradient948"
       id="radialGradient1629"
       gradientUnits="userSpaceOnUse"
       gradientTransform="matrix(0,-1.4085479,1.4470223,0,-1275.1064,1555.9838)"
       cx="984"
       cy="905.35999"
       fx="984"
       fy="905.35999"
       r="8.5" />
    <radialGradient
       inkscape:collect="always"
       xlink:href="#linearGradient948"
       id="radialGradient1637"
       gradientUnits="userSpaceOnUse"
       gradientTransform="matrix(7.8051429e-6,-1.643834,1.4470083,6.8705883e-6,-1275.1016,1787.4991)"
       cx="984"
       cy="905.35999"
       fx="984"
       fy="905.35999"
       r="8.5" />
    <radialGradient
       inkscape:collect="always"
       xlink:href="#linearGradient948"
       id="radialGradient1645"
       gradientUnits="userSpaceOnUse"
       gradientTransform="matrix(7.8051429e-6,-1.643834,1.4470083,6.8705883e-6,-1275.1016,1787.4991)"
       cx="984"
       cy="905.35999"
       fx="984"
       fy="905.35999"
       r="8.5" />
    <linearGradient
       inkscape:collect="always"
       xlink:href="#linearGradient1164"
       id="linearGradient1216"
       gradientUnits="userSpaceOnUse"
       gradientTransform="matrix(9.448818,0,0,3.7795275,-469.99997,-330.3622)"
       x1="73.025002"
       y1="-84.666664"
       x2="73.025002"
       y2="-76.199997" />
    <radialGradient
       inkscape:collect="always"
       xlink:href="#linearGradient1060"
       id="radialGradient1218"
       gradientUnits="userSpaceOnUse"
       gradientTransform="matrix(-1.2067691e-5,-17.208914,11.579839,-7.7426556e-6,-1056.979,1912.6663)"
       cx="69.014549"
       cy="107.68542"
       fx="69.014549"
       fy="107.68542"
       r="6.2177086" />
    <radialGradient
       inkscape:collect="always"
       xlink:href="#linearGradient1060"
       id="radialGradient1220"
       gradientUnits="userSpaceOnUse"
       gradientTransform="matrix(-4.1297171e-6,17.208913,-11.579826,-2.6580692e-6,1018.6808,-1986.1795)"
       cx="72.393738"
       cy="104.37812"
       fx="72.393738"
       fy="104.37812"
       r="6.2177086" />
    <linearGradient
       inkscape:collect="always"
       xlink:href="#linearGradient1060"
       id="linearGradient1222"
       gradientUnits="userSpaceOnUse"
       gradientTransform="matrix(1.5748032,0,0,3.7795275,107.5,410.36221)"
       x1="59.53125"
       y1="55.5625"
       x2="59.53125"
       y2="75.67083" />
    <radialGradient
       inkscape:collect="always"
       xlink:href="#linearGradient1060"
       id="radialGradient1224"
       gradientUnits="userSpaceOnUse"
       gradientTransform="matrix(-1.4141583e-5,-17.208926,11.579826,-9.8158207e-6,-1028.6793,1894.8957)"
       cx="74.083336"
       cy="104.37812"
       fx="74.083336"
       fy="104.37812"
       r="6.2177086" />
    <radialGradient
       inkscape:collect="always"
       xlink:href="#linearGradient1060"
       id="radialGradient1226"
       gradientUnits="userSpaceOnUse"
       gradientTransform="matrix(9.1772334e-7,12.223142,11.579822,-3.8617832e-7,-949.68027,-796.53103)"
       cx="74.083336"
       cy="104.37812"
       fx="74.083336"
       fy="104.37812"
       r="6.2177086" />
    <radialGradient
       inkscape:collect="always"
       xlink:href="#linearGradient1060"
       id="radialGradient2479"
       gradientUnits="userSpaceOnUse"
       gradientTransform="matrix(-1.4141583e-5,-17.208926,11.579826,-9.8158207e-6,-1028.6793,1894.8957)"
       cx="74.083336"
       cy="104.37812"
       fx="74.083336"
       fy="104.37812"
       r="6.2177086" />
    <radialGradient
       inkscape:collect="always"
       xlink:href="#linearGradient1060"
       id="radialGradient2481"
       gradientUnits="userSpaceOnUse"
       gradientTransform="matrix(9.1772334e-7,12.223142,11.579822,-3.8617832e-7,-949.68027,-796.53103)"
       cx="74.083336"
       cy="104.37812"
       fx="74.083336"
       fy="104.37812"
       r="6.2177086" />
    <radialGradient
       inkscape:collect="always"
       xlink:href="#linearGradient1060"
       id="radialGradient1187"
       gradientUnits="userSpaceOnUse"
       gradientTransform="matrix(-1.2067691e-5,-17.208914,11.579839,-7.7426556e-6,-1056.979,1912.6663)"
       cx="69.014549"
       cy="107.68542"
       fx="69.014549"
       fy="107.68542"
       r="6.2177086" />
    <radialGradient
       inkscape:collect="always"
       xlink:href="#linearGradient1060"
       id="radialGradient1277"
       gradientUnits="userSpaceOnUse"
       gradientTransform="matrix(-4.1297171e-6,17.208913,-11.579826,-2.6580692e-6,1018.6808,-1986.1795)"
       cx="72.393738"
       cy="104.37812"
       fx="72.393738"
       fy="104.37812"
       r="6.2177086" />
  </defs>
  <metadata
     id="metadata7">
    <rdf:RDF>
      <cc:Work
         rdf:about="">
        <dc:format>image/svg+xml</dc:format>
        <dc:type
           rdf:resource="http://purl.org/dc/dcmitype/StillImage" />
      </cc:Work>
    </rdf:RDF>
  </metadata>
  <g
     inkscape:label="Layer 1"
     inkscape:groupmode="layer"
     id="g5090"
     transform="translate(207.00003,-316.36218)">
    <use
       height="1052"
       width="744"
       transform="matrix(-1,0,0,1,-243,2.62e-6)"
       id="decoration-topright"
       xlink:href="#decoration-topleft"
       y="0"
       x="0" />
    <use
       height="1052"
       width="744"
       transform="matrix(-1,0,0,1,-243,1.86e-6)"
       id="decoration-bottomright"
       xlink:href="#decoration-bottomleft"
       y="0"
       x="0" />
    <use
       height="1052"
       width="744"
       transform="matrix(-1,0,0,1,-243,-7.6281248e-7)"
       id="decoration-right"
       xlink:href="#decoration-left"
       y="0"
       x="0" />
    <g
       transform="translate(-315,-195)"
       id="decoration-bottomleft">
      <path
         d="m 108,595 v 25 h 53 c -3.324,0 -6,-2.676 -6,-6 v -19 z"
         style="opacity:0.3;fill:url(#radialGradient1292-3-7-3-2);fill-opacity:1;stroke-width:1.25585;stroke-linejoin:round"
         id="rect1290-3-2-0-9"
         transform="translate(0,0.36218262)" />
      <path
         sodipodi:nodetypes="cssccc"
         d="m 180,620.36218 h -19 c -3.324,0 -6,-2.676 -6,-6 v -19 h 25 z"
         style="opacity:0.67;fill:#000000;fill-opacity:1;stroke:none;stroke-width:3.33334;stroke-linejoin:round;stroke-miterlimit:4;stroke-dasharray:none;stroke-opacity:1"
         id="rect1037-1-0-5-0-7-0" />
      <rect
         style="opacity:0.3;fill:url(#radialGradient1288-6-9-4-0);fill-opacity:1;stroke-width:1.14143;stroke-linejoin:round"
         id="rect1286-2-3-8-9"
         width="72"
         height="75.999992"
         x="-180"
         y="620.36218"
         transform="scale(-1,1)" />
      <path
         id="path1952"
         style="opacity:0.5;fill:#ffffff;fill-opacity:1;stroke:none;stroke-width:3.33334;stroke-linejoin:round;stroke-miterlimit:4;stroke-dasharray:none;stroke-opacity:1"
         d="m -161,400 v 19 c -0.20382,3.87264 3.122,7 7,7 h 19 v -1 h -19 c -3.324,0 -6,-2.676 -6,-6 v -19 z"
         transform="translate(315,195.36218)" />
    </g>
    <g
       transform="translate(-329,-195)"
       id="decoration-bottom">
      <rect
         y="595.36218"
         x="195"
         height="25"
         width="25"
         id="rect1037-1-0-5-0-6-3-7"
         style="opacity:0.67;fill:#000000;fill-opacity:1;stroke:none;stroke-width:3.33334;stroke-linejoin:round;stroke-miterlimit:4;stroke-dasharray:none;stroke-opacity:1" />
      <rect
         style="opacity:0.3;fill:url(#linearGradient1863);fill-opacity:1;stroke-width:0.672596;stroke-linejoin:round"
         id="rect1054-7-2-6-7-1-7"
         width="25"
         height="75.999992"
         x="195"
         y="620.36218" />
      <rect
         style="opacity:0.5;fill:#ffffff;fill-opacity:1;stroke:none;stroke-width:0.666668;stroke-linejoin:round;stroke-miterlimit:4;stroke-dasharray:none;stroke-opacity:1"
         id="rect1950"
         width="25"
         height="1"
         x="195"
         y="620.36218" />
    </g>
    <g
       id="decoration-left"
       transform="translate(-325,-316)">
      <rect
         transform="scale(-1)"
         style="opacity:0.3;fill:url(#radialGradient1248-4-6);fill-opacity:1;stroke-width:1.25585;stroke-linejoin:round"
         id="rect1246-68-1"
         width="47.000031"
         height="25"
         x="-165"
         y="-715.36218" />
      <rect
         y="690.36218"
         x="165"
         height="25"
         width="25"
         id="rect1037-1-0-5-0-8-92-5"
         style="opacity:0.67;fill:#000000;fill-opacity:1;stroke:none;stroke-width:3.33334;stroke-linejoin:round;stroke-miterlimit:4;stroke-dasharray:none;stroke-opacity:1" />
      <rect
         style="opacity:0.5;fill:#ffffff;fill-opacity:1;stroke:none;stroke-width:0.666668;stroke-linejoin:round;stroke-miterlimit:4;stroke-dasharray:none;stroke-opacity:1"
         id="rect1948"
         width="1"
         height="25"
         x="164"
         y="690.36218" />
    </g>
    <g
       id="decoration-topleft"
       transform="translate(-325,-302)">
      <path
         d="m 118,618 v 57 h 47 v -19 c 0,-3.324 2.676,-6 6,-6 h 19 v -32 z"
         style="opacity:0.2;fill:url(#radialGradient1296-7-66-1);fill-opacity:1;stroke-width:1.01466;stroke-linejoin:round"
         id="rect1294-2-0-7"
         transform="translate(0,0.36218262)" />
      <path
         sodipodi:nodetypes="scccss"
         d="m 171,650.36218 h 19 v 25 h -25 v -19 c 0,-3.324 2.676,-6 6,-6 z"
         style="opacity:0.67;fill:#000000;fill-opacity:1;stroke:none;stroke-width:3.33334;stroke-linejoin:round;stroke-miterlimit:4;stroke-dasharray:none;stroke-opacity:1"
         id="rect1037-1-0-5-0-8-9-4-7" />
      <path
         d="m 190,649.36218 h -19 c -3.87264,-0.20382 -7,3.122 -7,7 v 19 h 1 v -19 c 0,-3.324 2.676,-6 6,-6 h 19 z"
         style="opacity:0.5;fill:#ffffff;fill-opacity:1;stroke:none;stroke-width:3.33334;stroke-linejoin:round;stroke-miterlimit:4;stroke-dasharray:none;stroke-opacity:1"
         id="path1952-1" />
    </g>
    <g
       id="decoration-top"
       transform="translate(-339,-302)">
      <rect
         y="650.36218"
         x="205"
         height="25"
         width="25"
         id="rect1037-1-0-5-0-8-9-0-7-7"
         style="opacity:0.67;fill:#000000;fill-opacity:1;stroke:none;stroke-width:3.33334;stroke-linejoin:round;stroke-miterlimit:4;stroke-dasharray:none;stroke-opacity:1" />
      <rect
         transform="scale(1,-1)"
         style="opacity:0.125387;fill:url(#linearGradient1861);fill-opacity:1;stroke-width:0.436436;stroke-linejoin:round"
         id="rect1150-2-0-2-3"
         width="25"
         height="31.999998"
         x="205"
         y="-650.36218" />
      <rect
         y="-650.36218"
         x="205"
         height="1"
         width="25"
         id="rect1931"
         style="opacity:0.5;fill:#ffffff;fill-opacity:1;stroke-width:0.436436;stroke-linejoin:round"
         transform="scale(1,-1)" />
    </g>
    <rect
       style="opacity:0.67;fill:#000000;fill-opacity:1;stroke:none;stroke-width:3.33334;stroke-linejoin:round;stroke-miterlimit:4;stroke-dasharray:none;stroke-opacity:1"
       id="decoration-center"
       width="25"
       height="25"
       x="-134"
       y="374.36218" />
    <rect
       rx="0"
       ry="0"
       y="316.36218"
       x="-124"
       height="32"
       width="2"
       id="rect2840-4-5"
       style="opacity:0.5;fill:#ff00ff;fill-opacity:1;stroke-width:1.33333" />
    <rect
       transform="rotate(-90)"
       rx="0"
       ry="0"
       y="-207"
       x="-389.36218"
       height="47"
       width="2"
       id="rect2840-4-1-6"
       style="opacity:0.5;fill:#ff00ff;fill-opacity:1;stroke-width:1.61589" />
    <rect
       transform="scale(-1)"
       rx="0"
       ry="0"
       y="-501.36218"
       x="122"
       height="76"
       width="2"
       id="rect2840-4-1-0-3"
       style="opacity:0.5;fill:#ff00ff;fill-opacity:1;stroke-width:2.05481" />
    <rect
       style="opacity:0.5;fill:#ff00ff;fill-opacity:1;stroke-width:1.66667"
       id="hint-stretch-borders"
       width="10"
       height="10"
       x="208"
       y="-315.36218"
       ry="0"
       rx="0"
       transform="scale(-1)" />
    <g
       transform="translate(-128,-195)"
       id="decoration-inactive-bottomleft">
      <path
         d="m 108,595 v 25 h 53 c -3.324,0 -6,-2.676 -6,-6 v -19 z"
         style="opacity:0.1;fill:url(#radialGradient1224);fill-opacity:1;stroke-width:1.25585;stroke-linejoin:round"
         id="path1166"
         transform="translate(0,0.36218262)" />
      <path
         sodipodi:nodetypes="cssccc"
         d="m 180,620.36218 h -19 c -3.324,0 -6,-2.676 -6,-6 v -19 h 25 z"
         style="opacity:0.57;fill:#000000;fill-opacity:1;stroke:none;stroke-width:3.33334;stroke-linejoin:round;stroke-miterlimit:4;stroke-dasharray:none;stroke-opacity:1"
         id="path1168" />
      <path
         id="rect1170"
         style="opacity:0.1;fill:url(#radialGradient1226);fill-opacity:1;stroke-width:1.14143;stroke-linejoin:round"
         d="M 187 109 L 187 185 L 259 185 L 259 109 L 187 109 z "
         transform="translate(-79.00003,511.36218)" />
      <path
         id="path1172"
         style="opacity:0.3;fill:#ffffff;fill-opacity:1;stroke:none;stroke-width:3.33334;stroke-linejoin:round;stroke-miterlimit:4;stroke-dasharray:none;stroke-opacity:1"
         d="m -161,400 v 19 c -0.20382,3.87264 3.122,7 7,7 h 19 v -1 h -19 c -3.324,0 -6,-2.676 -6,-6 v -19 z"
         transform="translate(315,195.36218)" />
    </g>
    <g
       transform="translate(-142,-195)"
       id="decoration-inactive-bottom">
      <rect
         y="595.36218"
         x="195"
         height="25"
         width="25"
         id="rect1176"
         style="opacity:0.57;fill:#000000;fill-opacity:1;stroke:none;stroke-width:3.33334;stroke-linejoin:round;stroke-miterlimit:4;stroke-dasharray:none;stroke-opacity:1" />
      <rect
         style="opacity:0.1;fill:url(#linearGradient1222);fill-opacity:1;stroke-width:0.672596;stroke-linejoin:round"
         id="rect1178"
         width="25"
         height="75.999992"
         x="195"
         y="620.36218" />
      <rect
         style="opacity:0.3;fill:#ffffff;fill-opacity:1;stroke:none;stroke-width:0.666668;stroke-linejoin:round;stroke-miterlimit:4;stroke-dasharray:none;stroke-opacity:1"
         id="rect1180"
         width="25"
         height="1"
         x="195"
         y="620.36218" />
    </g>
    <g
       id="decoration-inactive-left"
       transform="translate(-138,-316)">
      <rect
         transform="scale(-1)"
         style="opacity:0.1;fill:url(#radialGradient1220);fill-opacity:1;stroke-width:1.25585;stroke-linejoin:round"
         id="rect1184"
         width="47.000031"
         height="25"
         x="-165"
         y="-715.36218" />
      <rect
         y="690.36218"
         x="165"
         height="25"
         width="25"
         id="rect1186"
         style="opacity:0.57;fill:#000000;fill-opacity:1;stroke:none;stroke-width:3.33334;stroke-linejoin:round;stroke-miterlimit:4;stroke-dasharray:none;stroke-opacity:1" />
      <rect
         style="opacity:0.3;fill:#ffffff;fill-opacity:1;stroke:none;stroke-width:0.666668;stroke-linejoin:round;stroke-miterlimit:4;stroke-dasharray:none;stroke-opacity:1"
         id="rect1188"
         width="1"
         height="25"
         x="164"
         y="690.36218" />
    </g>
    <g
       id="decoration-inactive-topleft"
       transform="translate(-138,-302)">
      <path
         d="m 118,618 v 57 h 47 v -19 c 0,-3.324 2.676,-6 6,-6 h 19 v -32 z"
         style="opacity:0.1;fill:url(#radialGradient1218);fill-opacity:1;stroke-width:1.01466;stroke-linejoin:round"
         id="path1192"
         transform="translate(0,0.36218262)" />
      <path
         sodipodi:nodetypes="scccss"
         d="m 171,650.36218 h 19 v 25 h -25 v -19 c 0,-3.324 2.676,-6 6,-6 z"
         style="opacity:0.57;fill:#000000;fill-opacity:1;stroke:none;stroke-width:3.33334;stroke-linejoin:round;stroke-miterlimit:4;stroke-dasharray:none;stroke-opacity:1"
         id="path1194" />
      <path
         d="m 190,649.36218 h -19 c -3.87264,-0.20382 -7,3.122 -7,7 v 19 h 1 v -19 c 0,-3.324 2.676,-6 6,-6 h 19 z"
         style="opacity:0.3;fill:#ffffff;fill-opacity:1;stroke:none;stroke-width:3.33334;stroke-linejoin:round;stroke-miterlimit:4;stroke-dasharray:none;stroke-opacity:1"
         id="path1196" />
    </g>
    <g
       id="decoration-inactive-top"
       transform="translate(-152,-302)">
      <rect
         y="650.36218"
         x="205"
         height="25"
         width="25"
         id="rect1200"
         style="opacity:0.57;fill:#000000;fill-opacity:1;stroke:none;stroke-width:3.33334;stroke-linejoin:round;stroke-miterlimit:4;stroke-dasharray:none;stroke-opacity:1" />
      <rect
         transform="scale(1,-1)"
         style="opacity:0.125387;fill:url(#linearGradient1216);fill-opacity:1;stroke-width:0.436436;stroke-linejoin:round"
         id="rect1202"
         width="25"
         height="31.999998"
         x="205"
         y="-650.36218" />
      <rect
         y="-650.36218"
         x="205"
         height="1"
         width="25"
         id="rect1204"
         style="opacity:0.3;fill:#ffffff;fill-opacity:1;stroke-width:0.436436;stroke-linejoin:round"
         transform="scale(1,-1)" />
    </g>
    <rect
       style="opacity:0.57;fill:#000000;fill-opacity:1;stroke:none;stroke-width:3.33334;stroke-linejoin:round;stroke-miterlimit:4;stroke-dasharray:none;stroke-opacity:1"
       id="decoration-inactive-center"
       width="25"
       height="25"
       x="53"
       y="374.36218" />
    <rect
       rx="0"
       ry="0"
       y="316.36218"
       x="63"
       height="32"
       width="2"
       id="rect1210"
       style="opacity:0.5;fill:#ff00ff;fill-opacity:1;stroke-width:1.33333" />
    <rect
       transform="rotate(-90)"
       rx="0"
       ry="0"
       y="-20"
       x="-389.36218"
       height="47"
       width="2"
       id="rect1212"
       style="opacity:0.5;fill:#ff00ff;fill-opacity:1;stroke-width:1.61589" />
    <rect
       transform="scale(-1)"
       rx="0"
       ry="0"
       y="-501.36218"
       x="-65"
       height="76"
       width="2"
       id="rect1214"
       style="opacity:0.5;fill:#ff00ff;fill-opacity:1;stroke-width:2.05481" />
    <g
       transform="matrix(-1,0,0,1,259,-195)"
       id="decoration-inactive-bottomright">
      <path
         d="m 108,595 v 25 h 53 c -3.324,0 -6,-2.676 -6,-6 v -19 z"
         style="opacity:0.1;fill:url(#radialGradient2479);fill-opacity:1;stroke-width:1.25585;stroke-linejoin:round"
         id="path2469"
         transform="translate(0,0.36218262)" />
      <path
         sodipodi:nodetypes="cssccc"
         d="m 180,620.36218 h -19 c -3.324,0 -6,-2.676 -6,-6 v -19 h 25 z"
         style="opacity:0.57;fill:#000000;fill-opacity:1;stroke:none;stroke-width:3.33334;stroke-linejoin:round;stroke-miterlimit:4;stroke-dasharray:none;stroke-opacity:1"
         id="path2471" />
      <path
         id="path2473"
         style="opacity:0.1;fill:url(#radialGradient2481);fill-opacity:1;stroke-width:1.14143;stroke-linejoin:round"
         d="m 187,109 v 76 h 72 v -76 z"
         transform="translate(-79.00003,511.36218)" />
      <path
         id="path2475"
         style="opacity:0.3;fill:#ffffff;fill-opacity:1;stroke:none;stroke-width:3.33334;stroke-linejoin:round;stroke-miterlimit:4;stroke-dasharray:none;stroke-opacity:1"
         d="m -161,400 v 19 c -0.20382,3.87264 3.122,7 7,7 h 19 v -1 h -19 c -3.324,0 -6,-2.676 -6,-6 v -19 z"
         transform="translate(315,195.36218)" />
    </g>
    <g
       id="decoration-inactive-topright"
       transform="matrix(-1,0,0,1,269,-302)">
      <path
         d="m 118,618 v 57 h 47 v -19 c 0,-3.324 2.676,-6 6,-6 h 19 v -32 z"
         style="opacity:0.1;fill:url(#radialGradient1187);fill-opacity:1;stroke-width:1.01466;stroke-linejoin:round"
         id="path1179"
         transform="translate(0,0.36218262)" />
      <path
         sodipodi:nodetypes="scccss"
         d="m 171,650.36218 h 19 v 25 h -25 v -19 c 0,-3.324 2.676,-6 6,-6 z"
         style="opacity:0.57;fill:#000000;fill-opacity:1;stroke:none;stroke-width:3.33334;stroke-linejoin:round;stroke-miterlimit:4;stroke-dasharray:none;stroke-opacity:1"
         id="path1181" />
      <path
         d="m 190,649.36218 h -19 c -3.87264,-0.20382 -7,3.122 -7,7 v 19 h 1 v -19 c 0,-3.324 2.676,-6 6,-6 h 19 z"
         style="opacity:0.3;fill:#ffffff;fill-opacity:1;stroke:none;stroke-width:3.33334;stroke-linejoin:round;stroke-miterlimit:4;stroke-dasharray:none;stroke-opacity:1"
         id="path1183" />
    </g>
    <g
       id="decoration-inactive-right"
       transform="matrix(-1,0,0,1,269,-316)">
      <rect
         transform="scale(-1)"
         style="opacity:0.1;fill:url(#radialGradient1277);fill-opacity:1;stroke-width:1.25585;stroke-linejoin:round"
         id="rect1269"
         width="47.000031"
         height="25"
         x="-165"
         y="-715.36218" />
      <rect
         y="690.36218"
         x="165"
         height="25"
         width="25"
         id="rect1271"
         style="opacity:0.57;fill:#000000;fill-opacity:1;stroke:none;stroke-width:3.33334;stroke-linejoin:round;stroke-miterlimit:4;stroke-dasharray:none;stroke-opacity:1" />
      <rect
         style="opacity:0.3;fill:#ffffff;fill-opacity:1;stroke:none;stroke-width:0.666668;stroke-linejoin:round;stroke-miterlimit:4;stroke-dasharray:none;stroke-opacity:1"
         id="rect1273"
         width="1"
         height="25"
         x="164"
         y="690.36218" />
    </g>
    <rect
       id="mask-center"
       x="39.999908"
       y="159.3622"
       width="50"
       height="50" />
    <g
       id="mask-left"
       transform="matrix(1.0588235,0,0,1,21.99993,142.36217)">
      <rect
         id="rect31-1-5"
         transform="matrix(0,-1,-1,0,0,0)"
         x="-67"
         y="-9.444458"
         width="50"
         height="9.4444447"
         style="fill:none" />
      <path
         id="path71-7-2"
         d="M 9.4444447,17 V 67 H 17 V 17 Z" />
    </g>
    <g
       id="mask-bottom"
       transform="translate(22.99993,143.3622)">
      <rect
         id="rect39-6-1"
         x="17"
         y="74"
         width="50"
         height="10"
         style="fill:none" />
      <path
         id="path95-6-7"
         d="m 17,66 v 8 h 50 v -8 z" />
    </g>
    <g
       id="mask-top"
       transform="translate(22.99993,142.36217)">
      <rect
         id="rect51-9-9"
         transform="scale(1,-1)"
         x="17"
         y="-9"
         width="50"
         height="10"
         style="fill:none" />
      <path
         id="path111-0-6"
         d="m 17,9 v 8 H 67 V 9 Z" />
    </g>
    <g
       id="mask-topleft"
       transform="matrix(1.0588225,0,0,1.0588225,21.99993,141.36222)">
      <path
         d="m 17,152 v 18 h 10 c 0,-4.432 3.568,-8 8,-8 v -10 z"
         transform="matrix(0.94444536,0,0,0.94444536,-16.055571,-143.55571)"
         id="shadow-topleft-7-6"
         style="fill:none" />
      <path
         d="m 35,162 c -4.432,0 -8,3.568 -8,8 h 8 z"
         transform="matrix(0.94444536,0,0,0.94444536,-16.055571,-143.55571)"
         id="path63-5-2" />
    </g>
    <g
       transform="matrix(1.0588225,0,0,-1.0588225,21.99993,227.36216)"
       id="mask-bottomleft">
      <path
         id="path928-1"
         transform="matrix(0.94444536,0,0,0.94444536,-16.055571,-143.55571)"
         d="m 17,152 v 18 h 10 c 0,-4.432 3.568,-8 8,-8 v -10 z"
         style="fill:none" />
      <path
         id="path930-8"
         transform="matrix(0.94444536,0,0,0.94444536,-16.055571,-143.55571)"
         d="m 35,162 c -4.432,0 -8,3.568 -8,8 h 8 z" />
    </g>
    <g
       transform="matrix(-1.0588225,0,0,-1.0588225,107.99991,227.36216)"
       id="mask-bottomright">
      <path
         id="path829"
         transform="matrix(0.94444536,0,0,0.94444536,-16.055571,-143.55571)"
         d="m 17,152 v 18 h 10 c 0,-4.432 3.568,-8 8,-8 v -10 z"
         style="fill:none" />
      <path
         id="path831"
         transform="matrix(0.94444536,0,0,0.94444536,-16.055571,-143.55571)"
         d="m 35,162 c -4.432,0 -8,3.568 -8,8 h 8 z" />
    </g>
    <g
       id="mask-right"
       transform="matrix(-1.0588235,0,0,1,107.99991,142.36217)">
      <rect
         id="rect837"
         transform="matrix(0,-1,-1,0,0,0)"
         x="-67"
         y="-9.444458"
         width="50"
         height="9.4444447"
         style="fill:none" />
      <path
         id="path843"
         d="M 9.4444447,17 V 67 H 17 V 17 Z" />
    </g>
    <g
       id="mask-topright"
       transform="matrix(-1.0588225,0,0,1.0588225,107.99991,141.36222)">
      <path
         d="m 17,152 v 18 h 10 c 0,-4.432 3.568,-8 8,-8 v -10 z"
         transform="matrix(0.94444536,0,0,0.94444536,-16.055571,-143.55571)"
         id="path849"
         style="fill:none" />
      <path
         d="m 35,162 c -4.432,0 -8,3.568 -8,8 h 8 z"
         transform="matrix(0.94444536,0,0,0.94444536,-16.055571,-143.55571)"
         id="path851" />
    </g>
  </g>
</svg>
