<?xml version="1.0" encoding="UTF-8" standalone="no"?>
<svg
   id="svg4306"
   width="44"
   height="28"
   version="1.1"
   style="enable-background:new"
   sodipodi:docname="minimize.svg"
   inkscape:version="1.2.2 (b0a8486541, 2022-12-01)"
   xmlns:inkscape="http://www.inkscape.org/namespaces/inkscape"
   xmlns:sodipodi="http://sodipodi.sourceforge.net/DTD/sodipodi-0.dtd"
   xmlns:xlink="http://www.w3.org/1999/xlink"
   xmlns="http://www.w3.org/2000/svg"
   xmlns:svg="http://www.w3.org/2000/svg"
   xmlns:rdf="http://www.w3.org/1999/02/22-rdf-syntax-ns#"
   xmlns:cc="http://creativecommons.org/ns#"
   xmlns:dc="http://purl.org/dc/elements/1.1/">
  <metadata
     id="metadata26">
    <rdf:RDF>
      <cc:Work
         rdf:about="">
        <dc:format>image/svg+xml</dc:format>
        <dc:type
           rdf:resource="http://purl.org/dc/dcmitype/StillImage" />
      </cc:Work>
    </rdf:RDF>
  </metadata>
  <defs
     id="defs24">
    <filter
       color-interpolation-filters="sRGB"
       height="1.048"
       width="1.048"
       y="-0.024"
       x="-0.024"
       id="filter11290">
      <feGaussianBlur
         id="feGaussianBlur879"
         stdDeviation="0.15875313" />
    </filter>
    <linearGradient
       gradientUnits="userSpaceOnUse"
       gradientTransform="translate(-0.0078552,-5.0139e-5)"
       y2="0.89802998"
       y1="16.296"
       x2="16.136999"
       x1="0.73910999"
       id="linearGradient1005">
      <stop
         id="stop882"
         offset="0"
         stop-color="#ff963c" />
      <stop
         id="stop884"
         offset="1"
         stop-color="#ffdc55" />
    </linearGradient>
    <filter
       color-interpolation-filters="sRGB"
       height="1.1658"
       width="1.1702"
       y="-0.082921997"
       x="-0.085106999"
       id="filter1223">
      <feGaussianBlur
         id="feGaussianBlur887"
         stdDeviation="0.33551144" />
    </filter>
  </defs>
  <sodipodi:namedview
     pagecolor="#c8c8c8"
     bordercolor="#666666"
     borderopacity="1"
     objecttolerance="10"
     gridtolerance="10"
     guidetolerance="10"
     inkscape:pageopacity="0"
     inkscape:pageshadow="2"
     inkscape:window-width="1920"
     inkscape:window-height="1048"
     id="namedview22"
     showgrid="true"
     inkscape:zoom="4"
     inkscape:cx="39"
     inkscape:cy="31"
     inkscape:window-x="0"
     inkscape:window-y="0"
     inkscape:window-maximized="1"
     inkscape:current-layer="svg4306"
     inkscape:document-rotation="0"
     inkscape:snap-bbox="true"
     inkscape:bbox-nodes="true"
     inkscape:snap-bbox-edge-midpoints="true"
     inkscape:showpageshadow="0"
     inkscape:pagecheckerboard="0"
     inkscape:deskcolor="#c8c8c8">
    <inkscape:grid
       type="xygrid"
       id="grid949"
       originx="0"
       originy="0" />
  </sodipodi:namedview>
  <use
     x="0"
     y="0"
     xlink:href="#g1051"
     id="use1053"
     transform="translate(27.966102)"
     width="100%"
     height="100%" />
  <g
     transform="matrix(3.7795276,0,0,3.7795276,3.5000031,-1.0000045)"
     id="active-center"
     style="enable-background:new">
    <g
       transform="matrix(1.1578947,0,0,0.87500005,-1.538762,8.8304688)"
       id="use1626">
      <rect
         y="-9.7895832"
         x="0.52916652"
         height="8.4666662"
         width="10.054167"
         id="rect13196"
         style="opacity:0.003;fill:#000000;fill-opacity:1;stroke-width:0.348723" />
    </g>
    <g
       transform="translate(-19.446877,20.6375)"
       id="use1638">
      <rect
         y="-19.579166"
         x="21.431252"
         height="5.8208332"
         width="5.8208332"
         id="rect13190"
         style="opacity:0.003;fill:#000000;fill-opacity:1;stroke-width:0.220007" />
      <rect
         class="ColorScheme-Text"
         ry="0.13229166"
         rx="0"
         y="-16.668749"
         x="22.489584"
         height="0.26458332"
         width="3.7041667"
         id="rect13192"
         style="color:#232629;fill:#ffffff;fill-opacity:1;stroke-width:1.18322" />
    </g>
  </g>
  <g
     transform="matrix(3.7795276,0,0,3.7795276,47.500003,-45.000007)"
     id="inactive-center"
     style="enable-background:new">
    <g
       transform="matrix(1.1578947,0,0,0.87500005,-1.538762,20.472136)"
       id="use1624">
      <rect
         y="-9.7895832"
         x="0.52916652"
         height="8.4666662"
         width="10.054167"
         id="rect13301"
         style="opacity:0.003;fill:#000000;fill-opacity:1;stroke-width:0.348723" />
    </g>
    <g
       transform="translate(-19.446877,32.279166)"
       id="use1644">
      <rect
         y="-19.579166"
         x="21.431252"
         height="5.8208332"
         width="5.8208332"
         id="rect13291"
         style="opacity:0.003;fill:#000000;fill-opacity:1;stroke-width:0.220007" />
      <rect
         class="ColorScheme-Text"
         ry="0.13229166"
         rx="0"
         y="-16.668749"
         x="22.489584"
         height="0.26458332"
         width="3.7041667"
         id="rect13293"
         style="color:#232629;opacity:0.4;fill:#ffffff;fill-opacity:1;stroke-width:1.18322" />
    </g>
  </g>
  <g
     transform="matrix(3.7795276,0,0,3.7795276,91.500009,-45.000007)"
     id="deactivated-center"
     style="enable-background:new">
    <g
       transform="matrix(1.1578947,0,0,0.87500005,-1.538762,20.472136)"
       id="g15892">
      <rect
         y="-9.7895832"
         x="0.52916652"
         height="8.4666662"
         width="10.054167"
         id="rect15890"
         style="opacity:0.003;fill:#000000;fill-opacity:1;stroke-width:0.348723" />
    </g>
    <g
       transform="translate(-19.446877,32.279166)"
       id="g15898">
      <rect
         y="-19.579166"
         x="21.431252"
         height="5.8208332"
         width="5.8208332"
         id="rect15894"
         style="opacity:0.003;fill:#000000;fill-opacity:1;stroke-width:0.220007" />
      <rect
         class="ColorScheme-Text"
         ry="0.13229166"
         rx="0"
         y="-16.668749"
         x="22.489588"
         height="0.26458332"
         width="3.7041616"
         id="rect15896"
         style="color:#232629;opacity:0.4;fill:#ffffff;fill-opacity:1;stroke-width:1.18322" />
    </g>
  </g>
  <g
     id="hover-center">
    <rect
       style="color:#232629;opacity:0.15;fill:#ffffff;fill-opacity:1;stroke-width:3.80431"
       id="rect13204"
       width="44"
       height="28"
       x="0"
       y="28"
       class="ColorScheme-Text"
       ry="4.0000019" />
    <path
       id="rect20212"
       style="color:#232629;opacity:0.6;fill:#ffffff;fill-opacity:1;stroke-width:3.80431"
       class="ColorScheme-Text"
       d="m 4,28 c -2.215999,0 -4,1.784001 -4,4 v 20 c 0,2.215999 1.784001,4 4,4 h 36 c 2.216,0 4,-1.784001 4,-4 V 32 c 0,-2.215999 -1.784,-4 -4,-4 z m 0,1 h 36 c 1.662,0 3,1.338002 3,3 v 20 c 0,1.661998 -1.338,3 -3,3 H 4 C 2.338002,55 1,53.661998 1,52 V 32 c 0,-1.661998 1.338002,-3 3,-3 z" />
    <rect
       style="color:#232629;fill:#ffffff;fill-opacity:1;stroke-width:4.472"
       id="rect17445"
       width="14.000004"
       height="0.99999994"
       x="14.999996"
       y="41.999989"
       rx="0"
       ry="0.49999997"
       class="ColorScheme-Text" />
  </g>
  <g
     id="pressed-center"
     transform="translate(0,28)">
    <rect
       style="color:#232629;opacity:0.25;fill:#ffffff;fill-opacity:1;stroke-width:3.80431"
       id="rect42665"
       width="44"
       height="28"
       x="0"
       y="28"
       class="ColorScheme-Text"
       ry="4.0000019" />
    <path
       id="path42667"
       style="color:#232629;opacity:0.6;fill:#ffffff;fill-opacity:1;stroke-width:3.80431"
       class="ColorScheme-Text"
       d="m 4,28 c -2.215999,0 -4,1.784001 -4,4 v 20 c 0,2.215999 1.784001,4 4,4 h 36 c 2.216,0 4,-1.784001 4,-4 V 32 c 0,-2.215999 -1.784,-4 -4,-4 z m 0,1 h 36 c 1.662,0 3,1.338002 3,3 v 20 c 0,1.661998 -1.338,3 -3,3 H 4 C 2.338002,55 1,53.661998 1,52 V 32 c 0,-1.661998 1.338002,-3 3,-3 z" />
    <rect
       style="color:#232629;fill:#ffffff;fill-opacity:1;stroke-width:4.472"
       id="rect42669"
       width="14.000004"
       height="0.99999994"
       x="14.999996"
       y="41.999989"
       rx="0"
       ry="0.49999997"
       class="ColorScheme-Text" />
  </g>
</svg>
