<?xml version="1.0" encoding="UTF-8" standalone="no"?>
<svg
   id="svg4306"
   width="44"
   height="28"
   version="1.1"
   style="enable-background:new"
   sodipodi:docname="restore.svg"
   inkscape:version="1.2.2 (b0a8486541, 2022-12-01)"
   xmlns:inkscape="http://www.inkscape.org/namespaces/inkscape"
   xmlns:sodipodi="http://sodipodi.sourceforge.net/DTD/sodipodi-0.dtd"
   xmlns:xlink="http://www.w3.org/1999/xlink"
   xmlns="http://www.w3.org/2000/svg"
   xmlns:svg="http://www.w3.org/2000/svg"
   xmlns:rdf="http://www.w3.org/1999/02/22-rdf-syntax-ns#"
   xmlns:cc="http://creativecommons.org/ns#"
   xmlns:dc="http://purl.org/dc/elements/1.1/">
  <metadata
     id="metadata24">
    <rdf:RDF>
      <cc:Work
         rdf:about="">
        <dc:format>image/svg+xml</dc:format>
        <dc:type
           rdf:resource="http://purl.org/dc/dcmitype/StillImage" />
      </cc:Work>
    </rdf:RDF>
  </metadata>
  <defs
     id="defs22" />
  <sodipodi:namedview
     pagecolor="#c8c8c8"
     bordercolor="#666666"
     borderopacity="1"
     objecttolerance="10"
     gridtolerance="10"
     guidetolerance="10"
     inkscape:pageopacity="0"
     inkscape:pageshadow="2"
     inkscape:window-width="1920"
     inkscape:window-height="1048"
     id="namedview20"
     showgrid="true"
     inkscape:zoom="5.3636365"
     inkscape:cx="-31.694914"
     inkscape:cy="61.152541"
     inkscape:window-x="0"
     inkscape:window-y="0"
     inkscape:window-maximized="1"
     inkscape:current-layer="svg4306"
     inkscape:document-rotation="0"
     inkscape:snap-bbox="true"
     inkscape:bbox-nodes="true"
     inkscape:snap-bbox-edge-midpoints="true"
     inkscape:showpageshadow="0"
     inkscape:pagecheckerboard="0"
     inkscape:deskcolor="#c8c8c8">
    <inkscape:grid
       type="xygrid"
       id="grid74"
       originx="0"
       originy="0" />
  </sodipodi:namedview>
  <use
     x="0"
     y="0"
     xlink:href="#g1000"
     id="use1002"
     transform="translate(28.476029)"
     width="100%"
     height="100%" />
  <g
     id="active-center"
     transform="matrix(3.7795276,0,0,3.7795276,3.5000015,-1.0000027)"
     style="enable-background:new">
    <g
       id="use1626"
       transform="matrix(1.1578947,0,0,0.87500005,-1.538762,8.8304688)">
      <rect
         style="opacity:0.003;fill:#000000;fill-opacity:1;stroke-width:0.348723"
         id="rect17516"
         width="10.054167"
         height="8.4666662"
         x="0.52916652"
         y="-9.7895832" />
    </g>
    <g
       id="use1638"
       transform="translate(-19.446877,20.6375)">
      <rect
         style="opacity:0.003;fill:#000000;fill-opacity:1;stroke-width:0.220007"
         id="rect17510"
         width="5.8208332"
         height="5.8208332"
         x="21.431252"
         y="-19.579166" />
      <path
         id="path17512"
         style="color:#232629;fill:#ffffff;fill-opacity:1"
         d="m 82,-92 c -0.741067,0 -1.379047,0.404199 -1.724609,1 H 89 c 1.107999,0 2,0.892001 2,2 v 8.724609 C 91.595797,-80.620953 92,-81.258925 92,-82 v -7 c 0,-1.661998 -1.337998,-3 -3,-3 z m -3,3 c -1.107999,0 -2,0.891997 -2,2 v 8 c 0,1.108003 0.892001,2 2,2 h 8 c 1.108003,0 2,-0.891997 2,-2 v -8 c 0,-1.108003 -0.891997,-2 -2,-2 z m 0,1 h 8 c 0.554003,0 1,0.446001 1,1 v 8 c 0,0.554003 -0.445997,1 -1,1 h -8 c -0.553999,0 -1,-0.445997 -1,-1 v -8 c 0,-0.553999 0.446001,-1 1,-1 z"
         transform="matrix(0.26458333,0,0,0.26458333,2.1166685,5.5562504)"
         class="ColorScheme-Text"
         sodipodi:nodetypes="scsscssssssssssssssssssssss" />
    </g>
  </g>
  <g
     id="inactive-center"
     style="enable-background:new">
    <g
       id="use1624"
       transform="matrix(4.376295,0,0,3.3070868,41.684208,32.375002)">
      <rect
         style="opacity:0.003;fill:#000000;fill-opacity:1;stroke-width:0.348723"
         id="rect17618"
         width="10.054167"
         height="8.4666662"
         x="0.52916652"
         y="-9.7895832" />
    </g>
    <g
       id="use1644"
       transform="matrix(3.7795276,0,0,3.7795276,-26.000007,76.999998)"
       style="opacity:1">
      <rect
         style="opacity:0.003;fill:#000000;fill-opacity:1;stroke-width:0.220007"
         id="rect17622"
         width="5.8208332"
         height="5.8208332"
         x="21.431252"
         y="-19.579166" />
      <path
         id="path17624"
         style="color:#232629;opacity:0.4;fill:#ffffff;fill-opacity:1"
         d="m 82,-92 c -0.741067,0 -1.379047,0.404199 -1.724609,1 H 89 c 1.107999,0 2,0.892001 2,2 v 8.724609 C 91.595797,-80.620953 92,-81.258925 92,-82 v -7 c 0,-1.661998 -1.337998,-3 -3,-3 z m -3,3 c -1.107999,0 -2,0.891997 -2,2 v 8 c 0,1.108003 0.892001,2 2,2 h 8 c 1.108003,0 2,-0.891997 2,-2 v -8 c 0,-1.108003 -0.891997,-2 -2,-2 z m 0,1 h 8 c 0.554003,0 1,0.446001 1,1 v 8 c 0,0.554003 -0.445997,1 -1,1 h -8 c -0.553999,0 -1,-0.445997 -1,-1 v -8 c 0,-0.553999 0.446001,-1 1,-1 z"
         transform="matrix(0.26458333,0,0,0.26458333,2.1166685,5.5562504)"
         class="ColorScheme-Text"
         sodipodi:nodetypes="scsscssssssssssssssssssssss" />
    </g>
  </g>
  <g
     id="deactivated-center"
     transform="translate(43.999996)"
     style="enable-background:new">
    <g
       id="g21014"
       transform="matrix(4.376295,0,0,3.3070868,41.684208,32.375002)">
      <rect
         style="opacity:0.003;fill:#000000;fill-opacity:1;stroke-width:0.348723"
         id="rect21012"
         width="10.054167"
         height="8.4666662"
         x="0.52916652"
         y="-9.7895832" />
    </g>
    <g
       id="g21020"
       transform="matrix(3.7795276,0,0,3.7795276,-26.000007,76.999998)"
       style="opacity:1">
      <rect
         style="opacity:0.003;fill:#000000;fill-opacity:1;stroke-width:0.220007"
         id="rect21016"
         width="5.8208332"
         height="5.8208332"
         x="21.431252"
         y="-19.579166" />
      <path
         id="path21018"
         style="color:#232629;opacity:0.4;fill:#ffffff;fill-opacity:1"
         d="m 82.000004,-92 c -0.741067,0 -1.379047,0.404199 -1.724609,1 h 8.724609 c 1.107999,0 2,0.892001 2,2 v 8.724609 c 0.595797,-0.345562 1,-0.983534 1,-1.724609 v -7 c 0,-1.661998 -1.337998,-3 -3,-3 z m -3,3 c -1.107999,0 -2,0.891997 -2,2 v 8 c 0,1.108003 0.892001,2 2,2 h 8 c 1.108003,0 2,-0.891997 2,-2 v -8 c 0,-1.108003 -0.891997,-2 -2,-2 z m 0,1 h 8 c 0.554003,0 1,0.446001 1,1 v 8 c 0,0.554003 -0.445997,1 -1,1 h -8 c -0.553999,0 -1,-0.445997 -1,-1 v -8 c 0,-0.553999 0.446001,-1 1,-1 z"
         transform="matrix(0.26458333,0,0,0.26458333,2.1166685,5.5562504)"
         class="ColorScheme-Text"
         sodipodi:nodetypes="scsscssssssssssssssssssssss" />
    </g>
  </g>
  <g
     id="hover-center">
    <rect
       style="color:#232629;opacity:0.15;fill:#ffffff;fill-opacity:1;stroke-width:3.80431"
       id="rect13204"
       width="44"
       height="28"
       x="9.5367432e-07"
       y="27.999996"
       class="ColorScheme-Text"
       ry="4.0000019" />
    <path
       id="rect20212"
       style="color:#232629;opacity:0.6;fill:#ffffff;fill-opacity:1;stroke-width:3.80431"
       class="ColorScheme-Text"
       d="m 4,28 c -2.215999,0 -4,1.784001 -4,4 v 19.999998 c 0,2.216 1.784001,4 4,4 h 36 c 2.215999,0 4,-1.784 4,-4 V 32 c 0,-2.215999 -1.784001,-4 -4,-4 z m 0,1 h 36 c 1.661998,0 3,1.338002 3,3 v 19.999998 c 0,1.662 -1.338002,3 -3,3 H 4 c -1.661998,0 -3,-1.338 -3,-3 V 32 c 0,-1.661998 1.338002,-3 3,-3 z" />
    <path
       class="ColorScheme-Text"
       d="m 19.999999,34.000002 c -0.741067,0 -1.379047,0.404197 -1.72461,0.999998 L 27,34.999998 c 1.107999,0 2.000002,0.892003 2.000002,2.000002 l -3e-6,8.72461 c 0.595797,-0.345563 0.999998,-0.983532 0.999998,-1.724606 L 30,37 c 1e-6,-1.661999 -1.337998,-3 -3,-3 z m -3,2.999995 c -1.107999,0 -1.999998,0.891999 -1.999998,2.000001 l -3e-6,8.000003 c 0,1.108003 0.891999,2.000001 1.999998,2.000001 L 25,49 c 1.108002,0 1.999997,-0.891998 1.999997,-2.000001 L 27,38.999996 c 0,-1.108002 -0.891995,-2.000001 -1.999997,-2.000001 z m 0,1.000003 8.000004,-2e-6 c 0.554003,0 0.999998,0.445999 0.999998,0.999998 l -3e-6,8.000003 c 0,0.554003 -0.445995,1.000003 -0.999998,1.000003 l -8.000004,2e-6 c -0.553999,0 -0.999999,-0.446 -0.999999,-1.000003 L 16,38.999998 C 16,38.445999 16.446,38 16.999999,38 Z"
       style="color:#232629;fill:#ffffff;fill-opacity:1;stroke-width:3.77953"
       id="path22568"
       sodipodi:nodetypes="scsscssssssssssssssssssssss" />
  </g>
  <g
     id="pressed-center"
     transform="translate(0,28)">
    <rect
       style="color:#232629;opacity:0.25;fill:#ffffff;fill-opacity:1;stroke-width:3.80431"
       id="rect29842"
       width="44"
       height="28"
       x="9.5367432e-07"
       y="27.999996"
       class="ColorScheme-Text"
       ry="4.0000019" />
    <path
       id="path29844"
       style="color:#232629;opacity:0.6;fill:#ffffff;fill-opacity:1;stroke-width:3.80431"
       class="ColorScheme-Text"
       d="m 4,28 c -2.215999,0 -4,1.784001 -4,4 v 19.999998 c 0,2.216 1.784001,4 4,4 h 36 c 2.215999,0 4,-1.784 4,-4 V 32 c 0,-2.215999 -1.784001,-4 -4,-4 z m 0,1 h 36 c 1.661998,0 3,1.338002 3,3 v 19.999998 c 0,1.662 -1.338002,3 -3,3 H 4 c -1.661998,0 -3,-1.338 -3,-3 V 32 c 0,-1.661998 1.338002,-3 3,-3 z" />
    <path
       class="ColorScheme-Text"
       d="m 19.999999,34.000002 c -0.741067,0 -1.379047,0.404197 -1.72461,0.999998 L 27,34.999998 c 1.107999,0 2.000002,0.892003 2.000002,2.000002 l -3e-6,8.72461 c 0.595797,-0.345563 0.999998,-0.983532 0.999998,-1.724606 L 30,37 c 1e-6,-1.661999 -1.337998,-3 -3,-3 z m -3,2.999995 c -1.107999,0 -1.999998,0.891999 -1.999998,2.000001 l -3e-6,8.000003 c 0,1.108003 0.891999,2.000001 1.999998,2.000001 L 25,49 c 1.108002,0 1.999997,-0.891998 1.999997,-2.000001 L 27,38.999996 c 0,-1.108002 -0.891995,-2.000001 -1.999997,-2.000001 z m 0,1.000003 8.000004,-2e-6 c 0.554003,0 0.999998,0.445999 0.999998,0.999998 l -3e-6,8.000003 c 0,0.554003 -0.445995,1.000003 -0.999998,1.000003 l -8.000004,2e-6 c -0.553999,0 -0.999999,-0.446 -0.999999,-1.000003 L 16,38.999998 C 16,38.445999 16.446,38 16.999999,38 Z"
       style="color:#232629;fill:#ffffff;fill-opacity:1;stroke-width:3.77953"
       id="path29846"
       sodipodi:nodetypes="scsscssssssssssssssssssssss" />
  </g>
</svg>
