<?xml version="1.0" encoding="UTF-8" standalone="no"?>
<svg
   xmlns:dc="http://purl.org/dc/elements/1.1/"
   xmlns:cc="http://creativecommons.org/ns#"
   xmlns:rdf="http://www.w3.org/1999/02/22-rdf-syntax-ns#"
   xmlns:svg="http://www.w3.org/2000/svg"
   xmlns="http://www.w3.org/2000/svg"
   xmlns:sodipodi="http://sodipodi.sourceforge.net/DTD/sodipodi-0.dtd"
   xmlns:inkscape="http://www.inkscape.org/namespaces/inkscape"
   id="svg"
   inkscape:version="1.0.2 (e86c870879, 2021-01-15)"
   sodipodi:docname="phone.svg"
   version="1.1"
   viewBox="0 0 22 22">
  <metadata
     id="metadata46">
    <rdf:RDF>
      <cc:Work
         rdf:about="">
        <dc:format>image/svg+xml</dc:format>
        <dc:type
           rdf:resource="http://purl.org/dc/dcmitype/StillImage" />
        <dc:title />
      </cc:Work>
    </rdf:RDF>
  </metadata>
  <sodipodi:namedview
     id="namedview26"
     bordercolor="#666666"
     borderopacity="1"
     gridtolerance="10"
     guidetolerance="10"
     inkscape:current-layer="svg"
     inkscape:cx="43.276046"
     inkscape:cy="10.137261"
     inkscape:pageopacity="0"
     inkscape:pageshadow="2"
     inkscape:window-height="936"
     inkscape:window-maximized="1"
     inkscape:window-width="1920"
     inkscape:window-x="0"
     inkscape:window-y="38"
     inkscape:zoom="7.4519916"
     objecttolerance="10"
     pagecolor="#c8c8c8"
     showgrid="true"
     inkscape:document-rotation="0">
    <inkscape:grid
       id="grid835"
       type="xygrid" />
  </sodipodi:namedview>
  <defs
     id="defs81">
    <style
       id="current-color-scheme"
       type="text/css">.ColorScheme-Text { color:#dedede; } .ColorScheme-Highlight { color:#5294e2; } .ColorScheme-ButtonBackground { color:#dedede; }</style>
    <style
       id="current-color-scheme-9"
       type="text/css">.ColorScheme-Text { color:#dedede; } .ColorScheme-Highlight { color:#5294e2; } .ColorScheme-ButtonBackground { color:#dedede; }</style>
    <style
       id="current-color-scheme-3"
       type="text/css">
      .ColorScheme-Text {
        color:#31363b;
      }
      .ColorScheme-Background {
        color:#eff0f1;
      }
      .ColorScheme-Highlight {
        color:#3daee9;
      }
      .ColorScheme-ViewText {
        color:#31363b;
      }
      .ColorScheme-ViewBackground {
        color:#fcfcfc;
      }
      .ColorScheme-ViewHover {
        color:#93cee9;
      }
      .ColorScheme-ViewFocus{
        color:#3daee9;
      }
      .ColorScheme-ButtonText {
        color:#31363b;
      }
      .ColorScheme-ButtonBackground {
        color:#eff0f1;
      }
      .ColorScheme-ButtonHover {
        color:#93cee9;
      }
      .ColorScheme-ButtonFocus{
        color:#3daee9;
      }
      </style>
  </defs>
  <g
     id="phone"
     transform="translate(-321,-564.36218)">
    <rect
       y="529.36218"
       x="321"
       height="32"
       width="32"
       id="rect4436"
       style="opacity:1;fill:none;fill-opacity:1;stroke:none;stroke-width:0.1;stroke-linecap:square;stroke-linejoin:miter;stroke-miterlimit:4;stroke-dasharray:none;stroke-dashoffset:0;stroke-opacity:1" />
    <g
       transform="translate(-46)"
       id="g855">
      <path
         style="opacity:1;fill:#000000;fill-opacity:1;stroke:none;stroke-width:1;stroke-miterlimit:4;stroke-dasharray:none;stroke-opacity:1"
         d="m 376,531.36218 c -0.55401,0 -1,0.44599 -1,1 v 26 c 0,0.55401 0.44599,1 1,1 h 14 c 0.55401,0 1,-0.44599 1,-1 v -26 c 0,-0.55401 -0.44599,-1 -1,-1 z m 0,1 h 14 v 26 h -14 z"
         id="rect846"
         inkscape:connector-curvature="0" />
      <rect
         style="opacity:1;fill:#000000;fill-opacity:1;stroke:none;stroke-width:1.09545;stroke-miterlimit:4;stroke-dasharray:none;stroke-opacity:1"
         id="rect851"
         width="6"
         height="1"
         x="380"
         y="556.36218" />
    </g>
  </g>
  <g
     id="22-22-phone"
     transform="translate(-355,-534.36218)">
    <rect
       style="opacity:1;fill:none;fill-opacity:1;stroke:none;stroke-width:0.138587;stroke-linecap:square;stroke-linejoin:miter;stroke-miterlimit:4;stroke-dasharray:none;stroke-dashoffset:0;stroke-opacity:1"
       id="rect4444"
       width="22"
       height="22"
       x="355"
       y="534.36218" />
    <g
       transform="translate(-14)"
       id="g874">
      <path
         style="opacity:1;fill:#000000;fill-opacity:1;stroke:none;stroke-width:1;stroke-miterlimit:4;stroke-dasharray:none;stroke-opacity:1"
         d="m 375,537.36218 v 16 h 10 v -16 z m 1,1 h 8 v 14 h -8 z"
         id="rect865"
         inkscape:connector-curvature="0" />
      <rect
         style="opacity:1;fill:#000000;fill-opacity:1;stroke:none;stroke-width:1.22474;stroke-miterlimit:4;stroke-dasharray:none;stroke-opacity:1"
         id="rect870"
         width="3"
         height="1"
         x="378.5"
         y="550.36218" />
    </g>
  </g>
  <g
     id="16-16-phone"
     transform="translate(-303,-511.36218)">
    <rect
       y="537.36218"
       x="303"
       height="16"
       width="16"
       id="rect4442"
       style="opacity:1;fill:none;fill-opacity:1;stroke:none;stroke-width:0.10079;stroke-linecap:square;stroke-linejoin:miter;stroke-miterlimit:4;stroke-dasharray:none;stroke-dashoffset:0;stroke-opacity:1" />
    <g
       id="g893">
      <path
         inkscape:connector-curvature="0"
         style="opacity:1;fill:#000000;fill-opacity:1;stroke:none;stroke-width:1;stroke-miterlimit:4;stroke-dasharray:none;stroke-opacity:1"
         d="m -14,10 v 12 h 8 V 10 Z m 1,1 h 6 v 10 h -6 z"
         transform="translate(321,529.36218)"
         id="rect884-3" />
      <rect
         style="opacity:1;fill:#000000;fill-opacity:1;stroke:none;stroke-width:1;stroke-miterlimit:4;stroke-dasharray:none;stroke-opacity:1"
         id="rect889-6"
         width="2"
         height="1"
         x="310"
         y="548.36218" />
    </g>
  </g>
  <g
     id="phone-battery">
    <g
       id="g4600"
       transform="rotate(-90,-122.98,270.52)">
      <path
         id="path4472"
         transform="translate(214.54,404.5)"
         d="m -48,37 a 3,3 0 0 0 -2.826,2 H -52 v 2 h 1.176 A 3,3 0 0 0 -48,43 v -1 h 2 v -1 h -2 v -2 h 2 v -1 h -2 z"
         fill="#4caf50"
         inkscape:connector-curvature="0"
         style="fill:#3278ff;fill-opacity:1" />
    </g>
    <rect
       y="-34.999996"
       x="35"
       height="32"
       width="32"
       id="rect932"
       style="fill:none;fill-opacity:1;stroke:none;stroke-width:0.1;stroke-linecap:square;stroke-linejoin:miter;stroke-miterlimit:4;stroke-dasharray:none;stroke-dashoffset:0;stroke-opacity:1" />
    <g
       transform="translate(-332,-564.36218)"
       id="g938">
      <path
         style="opacity:1;fill:#000000;fill-opacity:1;stroke:none;stroke-width:1;stroke-miterlimit:4;stroke-dasharray:none;stroke-opacity:1"
         d="m 376,531.36218 c -0.55401,0 -1,0.44599 -1,1 v 26 c 0,0.55401 0.44599,1 1,1 h 14 c 0.55401,0 1,-0.44599 1,-1 v -26 c 0,-0.55401 -0.44599,-1 -1,-1 z m 0,1 h 14 v 26 h -14 z"
         id="path934"
         inkscape:connector-curvature="0" />
      <rect
         style="opacity:1;fill:#000000;fill-opacity:1;stroke:none;stroke-width:1.09545;stroke-miterlimit:4;stroke-dasharray:none;stroke-opacity:1"
         id="rect936"
         width="6"
         height="1"
         x="380"
         y="556.36218" />
    </g>
  </g>
  <g
     id="22-22-phone-battery">
    <rect
       style="fill:none;fill-opacity:1;stroke:none;stroke-width:0.138587;stroke-linecap:square;stroke-linejoin:miter;stroke-miterlimit:4;stroke-dasharray:none;stroke-dashoffset:0;stroke-opacity:1"
       id="rect961"
       width="22"
       height="22"
       x="40"
       y="2.6171874e-06" />
    <g
       id="g984">
      <path
         id="path4600"
         d="m 48,10 a 3,3 0 0 0 2,2.826 V 14 h 2 V 12.824 A 3,3 0 0 0 54,10 H 53 V 8 h -1 v 2 H 50 V 8 h -1 v 2 z"
         fill="#4caf50"
         inkscape:connector-curvature="0"
         style="fill:#3278ff;fill-opacity:1" />
      <g
         transform="translate(-329,-534.36218)"
         id="g967">
        <path
           style="opacity:1;fill:#000000;fill-opacity:1;stroke:none;stroke-width:1;stroke-miterlimit:4;stroke-dasharray:none;stroke-opacity:1"
           d="m 375,537.36218 v 16 h 10 v -16 z m 1,1 h 8 v 14 h -8 z"
           id="path963"
           inkscape:connector-curvature="0" />
        <rect
           style="opacity:1;fill:#000000;fill-opacity:1;stroke:none;stroke-width:1.22474;stroke-miterlimit:4;stroke-dasharray:none;stroke-opacity:1"
           id="rect965"
           width="3"
           height="1"
           x="378.5"
           y="550.36218" />
      </g>
    </g>
  </g>
  <g
     id="16-16-phone-battery">
    <rect
       y="26.000002"
       x="40"
       height="16"
       width="16"
       id="rect994"
       style="fill:none;fill-opacity:1;stroke:none;stroke-width:0.10079;stroke-linecap:square;stroke-linejoin:miter;stroke-miterlimit:4;stroke-dasharray:none;stroke-dashoffset:0;stroke-opacity:1" />
    <g
       id="g1018">
      <path
         id="path936"
         d="m 46,33.333333 a 2,2 0 0 0 1.333333,1.884 V 36 h 1.333334 V 35.216 A 2,2 0 0 0 50,33.333333 H 49.333333 V 32 h -0.666666 v 1.333333 H 47.333333 V 32 h -0.666666 v 1.333333 z"
         fill="#4caf50"
         inkscape:connector-curvature="0"
         style="fill:#3278ff;fill-opacity:1;stroke-width:0.666667" />
      <g
         id="g1000"
         transform="translate(-263,-511.36218)">
        <path
           inkscape:connector-curvature="0"
           style="opacity:1;fill:#000000;fill-opacity:1;stroke:none;stroke-width:1;stroke-miterlimit:4;stroke-dasharray:none;stroke-opacity:1"
           d="m -14,10 v 12 h 8 V 10 Z m 1,1 h 6 v 10 h -6 z"
           transform="translate(321,529.36218)"
           id="path996" />
        <rect
           style="opacity:1;fill:#000000;fill-opacity:1;stroke:none;stroke-width:1;stroke-miterlimit:4;stroke-dasharray:none;stroke-opacity:1"
           id="rect998"
           width="2"
           height="1"
           x="310"
           y="548.36218" />
      </g>
    </g>
  </g>
</svg>
