<?xml version="1.0" encoding="UTF-8" standalone="no"?>
<svg
   xmlns:dc="http://purl.org/dc/elements/1.1/"
   xmlns:cc="http://creativecommons.org/ns#"
   xmlns:rdf="http://www.w3.org/1999/02/22-rdf-syntax-ns#"
   xmlns:svg="http://www.w3.org/2000/svg"
   xmlns="http://www.w3.org/2000/svg"
   xmlns:sodipodi="http://sodipodi.sourceforge.net/DTD/sodipodi-0.dtd"
   xmlns:inkscape="http://www.inkscape.org/namespaces/inkscape"
   id="svg"
   version="1.1"
   viewBox="0 0 22 22"
   sodipodi:docname="slc.svg"
   inkscape:version="1.0.2 (e86c870879, 2021-01-15)">
  <metadata
     id="metadata23">
    <rdf:RDF>
      <cc:Work
         rdf:about="">
        <dc:format>image/svg+xml</dc:format>
        <dc:type
           rdf:resource="http://purl.org/dc/dcmitype/StillImage" />
        <dc:title />
      </cc:Work>
    </rdf:RDF>
  </metadata>
  <sodipodi:namedview
     pagecolor="#c8c8c8"
     bordercolor="#666666"
     borderopacity="1"
     objecttolerance="10"
     gridtolerance="10"
     guidetolerance="10"
     inkscape:pageopacity="0"
     inkscape:pageshadow="2"
     inkscape:window-width="1920"
     inkscape:window-height="935"
     id="namedview21"
     showgrid="true"
     inkscape:zoom="5.3636365"
     inkscape:cx="6.2256769"
     inkscape:cy="-15.745749"
     inkscape:window-x="0"
     inkscape:window-y="38"
     inkscape:window-maximized="1"
     inkscape:current-layer="svg"
     inkscape:document-rotation="0">
    <inkscape:grid
       type="xygrid"
       id="grid830" />
  </sodipodi:namedview>
  <defs
     id="defs3">
    <style
       id="current-color-scheme"
       type="text/css">.ColorScheme-Text { color:#dedede; } .ColorScheme-Highlight { color:#5294e2; } .ColorScheme-ButtonBackground { color:#dedede; }</style>
  </defs>
  <g
     id="slc-like"
     transform="translate(-1,-41)">
    <rect
       class="ColorScheme-Text"
       x="1"
       y="1"
       width="22"
       height="22"
       fill-opacity="0"
       id="rect5" />
    <path
       style="color:#dedede;font-style:normal;font-variant:normal;font-weight:normal;font-stretch:normal;font-size:medium;line-height:normal;font-family:sans-serif;font-variant-ligatures:normal;font-variant-position:normal;font-variant-caps:normal;font-variant-numeric:normal;font-variant-alternates:normal;font-variant-east-asian:normal;font-feature-settings:normal;font-variation-settings:normal;text-indent:0;text-align:start;text-decoration:none;text-decoration-line:none;text-decoration-style:solid;text-decoration-color:#000000;letter-spacing:normal;word-spacing:normal;text-transform:none;writing-mode:lr-tb;direction:ltr;text-orientation:mixed;dominant-baseline:auto;baseline-shift:baseline;text-anchor:start;white-space:normal;shape-padding:0;shape-margin:0;inline-size:0;clip-rule:nonzero;display:inline;overflow:visible;visibility:visible;isolation:auto;mix-blend-mode:normal;color-interpolation:sRGB;color-interpolation-filters:linearRGB;solid-color:#000000;solid-opacity:1;vector-effect:none;fill:#000000;fill-opacity:1;fill-rule:nonzero;stroke-width:1;stroke-linecap:butt;stroke-linejoin:miter;stroke-miterlimit:4;stroke-dasharray:none;stroke-dashoffset:0;stroke-opacity:1;color-rendering:auto;image-rendering:auto;shape-rendering:auto;text-rendering:auto;enable-background:accumulate;stop-color:#000000;stop-opacity:1;stroke:none;opacity:1"
       d="M 8,4 C 5.2386,4 3,6.2386 3,9 c 0,5 7,9 9,11 2,-2 9,-6 9,-11 C 21,6.2386 18.7614,4 16,4 14.3604,4 12.9118,4.78077 12,6 11.08819,4.7808 9.6396,4 8,4 Z"
       id="path7" />
  </g>
  <g
     id="slc-share"
     transform="translate(39,-1)">
    <rect
       class="ColorScheme-Text"
       x="1"
       y="1"
       width="22"
       height="22"
       fill-opacity="0"
       id="rect10" />
    <path
       style="color:#dedede;font-style:normal;font-variant:normal;font-weight:normal;font-stretch:normal;font-size:medium;line-height:normal;font-family:sans-serif;font-variant-ligatures:normal;font-variant-position:normal;font-variant-caps:normal;font-variant-numeric:normal;font-variant-alternates:normal;font-variant-east-asian:normal;font-feature-settings:normal;font-variation-settings:normal;text-indent:0;text-align:start;text-decoration:none;text-decoration-line:none;text-decoration-style:solid;text-decoration-color:#000000;letter-spacing:normal;word-spacing:normal;text-transform:none;writing-mode:lr-tb;direction:ltr;text-orientation:mixed;dominant-baseline:auto;baseline-shift:baseline;text-anchor:start;white-space:normal;shape-padding:0;shape-margin:0;inline-size:0;clip-rule:nonzero;display:inline;overflow:visible;visibility:visible;isolation:auto;mix-blend-mode:normal;color-interpolation:sRGB;color-interpolation-filters:linearRGB;solid-color:#000000;solid-opacity:1;vector-effect:none;fill:#000000;fill-opacity:1;fill-rule:nonzero;stroke-width:1;stroke-linecap:butt;stroke-linejoin:miter;stroke-miterlimit:4;stroke-dasharray:none;stroke-dashoffset:0;stroke-opacity:1;color-rendering:auto;image-rendering:auto;shape-rendering:auto;text-rendering:auto;enable-background:accumulate;stop-color:#000000;stop-opacity:1;stroke:none;opacity:1"
       d="m 18,4 c -1.6569,0 -3,1.3431 -3,3 0,0.087383 0.02393,0.16451 0.03125,0.25 l -6.75,2.8125 C 7.73097,9.41522 6.91615,9 6.00005,9 c -1.6569,0 -3,1.3431 -3,3 0,1.6569 1.3431,3 3,3 0.91614,0 1.731,-0.41522 2.2812,-1.0625 l 6.75,2.8125 C 15.02395,16.83548 15,16.91262 15,17 c 0,1.6569 1.3431,3 3,3 1.6569,0 3,-1.3431 3,-3 0,-1.6569 -1.3431,-3 -3,-3 -0.91614,0 -1.731,0.41522 -2.2812,1.0625 L 8.9688,12.25 C 8.97612,12.16451 9.00005,12.08738 9.00005,12 c 0,-0.08739 -0.023929,-0.16452 -0.031249,-0.25 l 6.75,-2.8125 c 0.55028,0.64728 1.3651,1.0625 2.2812,1.0625 1.6569,0 3,-1.3431 3,-3 0,-1.6569 -1.3431,-3 -3.000001,-3 z m 0,2 c 0.55229,0 1,0.44772 1,1 0,0.55228 -0.44771,1 -1,1 C 17.44772,8 17,7.55228 17,7 17,6.44772 17.44772,6 18,6 Z M 6,11 c 0.55228,0 1,0.44771 1,1 0,0.55228 -0.44772,1 -1,1 -0.55228,0 -1,-0.44772 -1,-1 0,-0.55229 0.44772,-1 1,-1 z m 12,5 c 0.55229,0 1,0.44771 1,1 0,0.55229 -0.44771,1 -1,1 -0.55228,0 -1,-0.44771 -1,-1 0,-0.55228 0.44772,-1 1,-1 z"
       id="path12" />
  </g>
  <g
     id="slc-connect"
     transform="translate(-1,-1)">
    <rect
       class="ColorScheme-Text"
       x="1"
       y="1"
       width="22"
       height="22"
       fill-opacity="0"
       id="rect15" />
    <path
       style="color:#dedede;font-style:normal;font-variant:normal;font-weight:normal;font-stretch:normal;font-size:medium;line-height:normal;font-family:sans-serif;font-variant-ligatures:normal;font-variant-position:normal;font-variant-caps:normal;font-variant-numeric:normal;font-variant-alternates:normal;font-variant-east-asian:normal;font-feature-settings:normal;font-variation-settings:normal;text-indent:0;text-align:start;text-decoration:none;text-decoration-line:none;text-decoration-style:solid;text-decoration-color:#000000;letter-spacing:normal;word-spacing:normal;text-transform:none;writing-mode:lr-tb;direction:ltr;text-orientation:mixed;dominant-baseline:auto;baseline-shift:baseline;text-anchor:start;white-space:normal;shape-padding:0;shape-margin:0;inline-size:0;clip-rule:nonzero;display:inline;overflow:visible;visibility:visible;isolation:auto;mix-blend-mode:normal;color-interpolation:sRGB;color-interpolation-filters:linearRGB;solid-color:#000000;solid-opacity:1;vector-effect:none;fill:#000000;fill-opacity:1;fill-rule:nonzero;stroke-width:1;stroke-linecap:butt;stroke-linejoin:miter;stroke-miterlimit:4;stroke-dasharray:none;stroke-dashoffset:0;stroke-opacity:1;color-rendering:auto;image-rendering:auto;shape-rendering:auto;text-rendering:auto;enable-background:accumulate;stop-color:#000000;stop-opacity:1;stroke:none;opacity:1"
       d="m 14,4 c -0.7785,0.7785 -0.93671,2.1687 -0.03125,3.6875 l -4.25,2.8438 c -0.5284,-0.21321 -1.0956,-0.37218 -1.6562,-0.375 -0.72876,-0.0037 -1.4375,0.21875 -2.0625,0.84375 l 3,3 -4,4 -1,2 2,-1 4,-4 3,3 c 1.107,-1.107 0.96475,-2.5078 0.46875,-3.7188 l 2.8438,-4.25 C 17.8314,10.93671 19.2216,10.7785 20.0001,10 Z"
       id="path17" />
  </g>
</svg>
