<?xml version="1.0" encoding="UTF-8" standalone="no"?>
<svg
   xmlns:dc="http://purl.org/dc/elements/1.1/"
   xmlns:cc="http://creativecommons.org/ns#"
   xmlns:rdf="http://www.w3.org/1999/02/22-rdf-syntax-ns#"
   xmlns:svg="http://www.w3.org/2000/svg"
   xmlns="http://www.w3.org/2000/svg"
   xmlns:sodipodi="http://sodipodi.sourceforge.net/DTD/sodipodi-0.dtd"
   xmlns:inkscape="http://www.inkscape.org/namespaces/inkscape"
   width="32"
   height="32"
   version="1.1"
   id="svg60"
   sodipodi:docname="computer.svg"
   inkscape:version="0.92.4 5da689c313, 2019-01-14">
  <metadata
     id="metadata64">
    <rdf:RDF>
      <cc:Work
         rdf:about="">
        <dc:format>image/svg+xml</dc:format>
        <dc:type
           rdf:resource="http://purl.org/dc/dcmitype/StillImage" />
        <dc:title />
      </cc:Work>
    </rdf:RDF>
  </metadata>
  <sodipodi:namedview
     pagecolor="#c8c8c8"
     bordercolor="#666666"
     borderopacity="1"
     objecttolerance="10"
     gridtolerance="10"
     guidetolerance="10"
     inkscape:pageopacity="0"
     inkscape:pageshadow="2"
     inkscape:window-width="1920"
     inkscape:window-height="1007"
     id="namedview62"
     showgrid="true"
     inkscape:snap-bbox="true"
     inkscape:bbox-nodes="true"
     inkscape:snap-bbox-edge-midpoints="true"
     inkscape:snap-nodes="true"
     inkscape:object-paths="false"
     inkscape:zoom="5.6568542"
     inkscape:cx="1.0817573"
     inkscape:cy="8.9118194"
     inkscape:window-x="0"
     inkscape:window-y="0"
     inkscape:window-maximized="1"
     inkscape:current-layer="svg60"
     inkscape:snap-intersection-paths="false"
     inkscape:snap-bbox-midpoints="true"
     inkscape:snap-smooth-nodes="false"
     inkscape:snap-midpoints="false"
     inkscape:object-nodes="false"
     inkscape:snap-others="false">
    <inkscape:grid
       type="xygrid"
       id="grid879" />
  </sodipodi:namedview>
  <defs
     id="defs6">
    <style
       id="current-color-scheme"
       type="text/css">.ColorScheme-Text { color:#dedede; } .ColorScheme-Highlight { color:#5294e2; } .ColorScheme-ButtonBackground { color:#dedede; }</style>
    <filter
       id="a"
       x="-0.035999998"
       y="-0.035999998"
       width="1.072"
       height="1.072"
       style="color-interpolation-filters:sRGB">
      <feGaussianBlur
         stdDeviation="0.435"
         id="feGaussianBlur3" />
    </filter>
    <style
       id="style883"
       type="text/css" />
  </defs>
  <g
     id="22-22-computer">
    <rect
       style="color:#bebebe;opacity:0;stroke-width:2"
       y="37.983051"
       id="rect23"
       transform="scale(-1,1)"
       x="-27"
       width="22"
       height="22" />
    <g
       transform="translate(26,-1.0169487)"
       id="g1030">
      <path
         inkscape:connector-curvature="0"
         style="opacity:1;fill:#eaeaea;fill-opacity:1;stroke:none;stroke-width:0.6794576;stroke-miterlimit:4;stroke-dasharray:none;stroke-opacity:1"
         d="m -19,41.016949 c -0.554,0 -1,0.446 -1,1 v 13 c 0,0.554 0.446,1 1,1 h 17 c 0.554,0 1,-0.446 1,-1 v -13 c 0,-0.554 -0.446,-1 -1,-1 z m 0,1 h 17 v 12 h -17 z"
         id="rect921" />
      <g
         id="g996"
         transform="translate(0.5)">
        <rect
           y="56.016949"
           x="-12.5"
           height="3"
           width="1"
           id="rect986"
           style="opacity:1;fill:#eaeaea;fill-opacity:1;stroke:none;stroke-width:1.22474492;stroke-miterlimit:4;stroke-dasharray:none;stroke-opacity:1" />
        <rect
           style="opacity:1;fill:#eaeaea;fill-opacity:1;stroke:none;stroke-width:1.22474492;stroke-miterlimit:4;stroke-dasharray:none;stroke-opacity:1"
           id="rect990"
           width="1"
           height="3"
           x="-10.5"
           y="56.016949" />
      </g>
      <rect
         style="opacity:1;fill:#eaeaea;fill-opacity:1;stroke:none;stroke-width:1.34164083;stroke-miterlimit:4;stroke-dasharray:none;stroke-opacity:1"
         id="rect992"
         width="9"
         height="1"
         x="-15"
         y="59.016949" />
    </g>
  </g>
  <g
     id="16-16-computer">
    <rect
       style="color:#bebebe;fill:none"
       id="rect16"
       transform="scale(-1,1)"
       x="-24"
       y="65.991524"
       width="16"
       height="16" />
    <rect
       style="color:#bebebe;opacity:0;stroke-width:3"
       id="rect18"
       transform="scale(-1,1)"
       x="-24"
       y="65.991524"
       width="16"
       height="16" />
    <g
       transform="translate(19)"
       id="g1067">
      <path
         inkscape:connector-curvature="0"
         style="opacity:1;fill:#eaeaea;fill-opacity:1;stroke:none;stroke-width:0.53997815;stroke-miterlimit:4;stroke-dasharray:none;stroke-opacity:1"
         d="M -9.0175781,67 C -9.5621884,67 -10,67.437812 -10,67.982422 V 78.017578 C -10,78.562188 -9.5621884,79 -9.0175781,79 H 4.0175781 C 4.5621884,79 5,78.562188 5,78.017578 V 67.982422 C 5,67.437812 4.5621884,67 4.0175781,67 Z M -9,68 H 4 v 9 H -9 Z"
         id="rect982" />
      <g
         id="g1060">
        <rect
           y="79"
           x="-4"
           height="2"
           width="1"
           id="rect1052"
           style="opacity:1;fill:#eaeaea;fill-opacity:1;stroke:none;stroke-width:1;stroke-miterlimit:4;stroke-dasharray:none;stroke-opacity:1" />
        <rect
           y="79"
           x="-2"
           height="2"
           width="1"
           id="rect1054"
           style="opacity:1;fill:#eaeaea;fill-opacity:1;stroke:none;stroke-width:1;stroke-miterlimit:4;stroke-dasharray:none;stroke-opacity:1" />
      </g>
      <rect
         style="opacity:1;fill:#eaeaea;fill-opacity:1;stroke:none;stroke-width:1.26491106;stroke-miterlimit:4;stroke-dasharray:none;stroke-opacity:1"
         id="rect1056"
         width="8"
         height="1"
         x="-6.5"
         y="81" />
    </g>
  </g>
  <g
     id="22-22-computer-laptop"
     transform="translate(-3)">
    <rect
       style="color:#bebebe;opacity:0;stroke-width:2"
       y="37.983051"
       id="rect893"
       transform="scale(-1,1)"
       x="-78"
       width="22"
       height="22" />
    <g
       transform="translate(-24.5,-0.0169487)"
       id="g1113">
      <path
         inkscape:connector-curvature="0"
         style="opacity:1;fill:#eaeaea;fill-opacity:1;stroke:none;stroke-width:0.6794576;stroke-miterlimit:4;stroke-dasharray:none;stroke-opacity:1"
         d="m 83.5,40 c -0.554,0 -1,0.446 -1,1 v 13 c 0,0.554 0.446,1 1,1 h 17 c 0.554,0 1,-0.446 1,-1 V 41 c 0,-0.554 -0.446,-1 -1,-1 z m 0,1 h 17 v 12 h -17 z"
         id="rect1085" />
      <rect
         style="opacity:1;fill:#eaeaea;fill-opacity:1;stroke:none;stroke-width:0.71307385;stroke-miterlimit:4;stroke-dasharray:none;stroke-opacity:1"
         id="rect1109"
         width="19"
         height="1.0169487"
         x="82.5"
         y="56"
         ry="0" />
    </g>
  </g>
  <g
     id="16-16-computer-laptop">
    <rect
       style="color:#bebebe;fill:none"
       id="rect922"
       transform="scale(-1,1)"
       x="-72"
       y="65.991524"
       width="16"
       height="16" />
    <rect
       style="color:#bebebe;opacity:0;stroke-width:3"
       id="rect924"
       transform="scale(-1,1)"
       x="-72"
       y="65.991524"
       width="16"
       height="16" />
    <g
       transform="translate(-18.5,0.99152374)"
       id="g1131">
      <path
         inkscape:connector-curvature="0"
         style="opacity:1;fill:#eaeaea;fill-opacity:1;stroke:none;stroke-width:0.53997815;stroke-miterlimit:4;stroke-dasharray:none;stroke-opacity:1"
         d="m 76.5,66 c -0.554,0 -1,0.446 -1,1 v 10 c 0,0.554 0.446,1 1,1 h 13 c 0.554,0 1,-0.446 1,-1 V 67 c 0,-0.554 -0.446,-1 -1,-1 z m 0,1 h 13 v 9 h -13 z"
         id="rect1104" />
      <rect
         style="opacity:1;fill:#eaeaea;fill-opacity:1;stroke:none;stroke-width:1;stroke-miterlimit:4;stroke-dasharray:none;stroke-opacity:1"
         id="rect1127"
         width="15"
         height="1"
         x="75.5"
         y="79"
         ry="0" />
    </g>
  </g>
  <g
     id="computer">
    <rect
       x="0"
       y="-3.0004884e-07"
       width="32"
       height="32"
       rx="0"
       ry="0"
       style="opacity:0;stroke-width:2;paint-order:fill markers stroke"
       id="rect38" />
    <g
       transform="matrix(1,0,0,1.3333333,0.5,38.333333)"
       id="g865">
      <rect
         style="opacity:1;fill:#eaeaea;fill-opacity:1;stroke:none;stroke-width:1.22474492;stroke-miterlimit:4;stroke-dasharray:none;stroke-opacity:1"
         id="rect859"
         width="1"
         height="3"
         x="13.5"
         y="-10" />
      <rect
         y="-10"
         x="16.5"
         height="3"
         width="1"
         id="rect861"
         style="opacity:1;fill:#eaeaea;fill-opacity:1;stroke:none;stroke-width:1.22474492;stroke-miterlimit:4;stroke-dasharray:none;stroke-opacity:1" />
    </g>
    <rect
       y="29"
       x="9"
       height="1"
       width="14"
       id="rect867"
       style="opacity:1;fill:#eaeaea;fill-opacity:1;stroke:none;stroke-width:1.18321598;stroke-miterlimit:4;stroke-dasharray:none;stroke-opacity:1" />
    <path
       inkscape:connector-curvature="0"
       id="rect860"
       d="M 4,4 C 3.446,4 3,4.446 3,5 v 19 c 0,0.554 0.446,1 1,1 h 24 c 0.554,0 1,-0.446 1,-1 V 5 C 29,4.446 28.554,4 28,4 Z M 4,5 H 28 V 23 H 4 Z"
       style="opacity:1;fill:#eaeaea;fill-opacity:1;stroke:none;stroke-width:1;stroke-miterlimit:4;stroke-dasharray:none;stroke-opacity:1" />
  </g>
  <g
     id="computer-laptop">
    <rect
       id="rect928"
       style="opacity:0;stroke-width:2;paint-order:fill markers stroke"
       ry="0"
       rx="0"
       height="32"
       width="32"
       y="0.9999997"
       x="48" />
    <rect
       ry="0"
       y="28"
       x="51"
       height="1"
       width="26"
       id="rect1090"
       style="opacity:1;fill:#eaeaea;fill-opacity:1;stroke:none;stroke-width:0.70710677;stroke-miterlimit:4;stroke-dasharray:none;stroke-opacity:1" />
    <path
       inkscape:connector-curvature="0"
       id="rect866"
       d="m 52,5 c -0.554,0 -1,0.446 -1,1 v 19 c 0,0.554 0.446,1 1,1 h 24 c 0.554,0 1,-0.446 1,-1 V 6 C 77,5.446 76.554,5 76,5 Z m 0,1 H 76 V 24 H 52 Z"
       style="opacity:1;fill:#eaeaea;fill-opacity:1;stroke:none;stroke-width:1;stroke-miterlimit:4;stroke-dasharray:none;stroke-opacity:1" />
  </g>
</svg>
