<?xml version="1.0" encoding="UTF-8" standalone="no"?>
<svg
   width="15.344"
   height="23"
   version="1"
   id="svg31"
   sodipodi:docname="pager.svg"
   inkscape:version="1.1.1 (3bf5ae0d25, 2021-09-20)"
   xmlns:inkscape="http://www.inkscape.org/namespaces/inkscape"
   xmlns:sodipodi="http://sodipodi.sourceforge.net/DTD/sodipodi-0.dtd"
   xmlns="http://www.w3.org/2000/svg"
   xmlns:svg="http://www.w3.org/2000/svg">
  <defs
     id="defs35" />
  <sodipodi:namedview
     id="namedview33"
     pagecolor="#c8c8c8"
     bordercolor="#999999"
     borderopacity="1"
     inkscape:pageshadow="0"
     inkscape:pageopacity="0"
     inkscape:pagecheckerboard="0"
     showgrid="true"
     inkscape:zoom="17.782609"
     inkscape:cx="8.1821516"
     inkscape:cy="14.621027"
     inkscape:window-width="1920"
     inkscape:window-height="999"
     inkscape:window-x="0"
     inkscape:window-y="0"
     inkscape:window-maximized="1"
     inkscape:current-layer="svg31">
    <inkscape:grid
       type="xygrid"
       id="grid852" />
  </sodipodi:namedview>
  <path
     id="normal-left"
     style="opacity:0.1;fill:#dfdfdf"
     d="m 9.5e-6,1 0,4.999999 1,0 0,-4.999999 -1,0 z" />
  <path
     id="normal-right"
     style="opacity:0.1;fill:#dfdfdf"
     d="m 13.000009,1 0,4.999999 -1,0 0,-4.999999 1,0 z" />
  <rect
     id="normal-bottom"
     style="opacity:0.1;fill:#dfdfdf"
     width="11"
     height="1"
     x="1"
     y="6" />
  <path
     id="normal-top"
     style="opacity:0.1;fill:#dfdfdf"
     d="m 1.0000095,0 0,1 10.9999735,0 0,-1 -10.9999735,0 z" />
  <path
     id="hover-left"
     style="opacity:0.32;fill:#00a0c8"
     d="m 9.5e-6,9.000001 0,4.999999 1,0 0,-4.999999 -1,0 z" />
  <path
     id="hover-right"
     style="opacity:0.32;fill:#00a0c8"
     d="m 13.000009,9.000001 0,4.999999 -1,0 0,-4.999999 1,0 z" />
  <path
     id="hover-top"
     style="opacity:0.32;fill:#00a0c8"
     d="m 1.0000095,8 0,0.998752 10.9999785,0 0,-0.998752 -10.9999785,0 z" />
  <path
     id="active-left"
     style="opacity:0.45;fill:#00a0c8"
     d="m 0,17 0,4.999999 1,0 L 1,17 0,17 z" />
  <path
     id="active-right"
     style="opacity:0.45;fill:#00a0c8"
     d="m 12.999999,17 0,4.999999 -1,0 0,-4.999999 1,0 z" />
  <rect
     id="active-bottom"
     style="opacity:0.45;fill:#00a0c8"
     width="11"
     height="1.001"
     x="1"
     y="22" />
  <path
     id="active-top"
     style="opacity:0.45;fill:#00a0c8"
     d="m 1,16 0,1 10.999977,0 0,-1 L 1,16 z" />
  <rect
     id="normal-center"
     style="opacity:0.1;fill:#dfdfdf"
     width="11"
     height="5"
     x="1"
     y="-6"
     transform="scale(1,-1)" />
  <rect
     id="active-center"
     style="opacity:0.45;fill:#00a0c8"
     width="11"
     height="5"
     x="1"
     y="-22"
     transform="scale(1,-1)" />
  <rect
     id="hover-center"
     style="opacity:0.32;fill:#00a0c8"
     width="11"
     height="5"
     x="1"
     y="-14"
     transform="scale(1,-1)" />
  <g
     id="hover-bottom"
     transform="matrix(2.1999957,0,0,0.99875155,-1.1999862,-2.446941)">
    <rect
       style="opacity:0.32;fill:#00a0c8"
       width="5"
       height="1.001"
       x="1"
       y="16.47"
       id="rect16" />
  </g>
  <path
     id="hover-bottomleft"
     style="opacity:0.32;fill:#00a0c8"
     d="M 0 14 L 0 15 L 1 15 L 1 14 L 0 14 z " />
  <path
     id="hover-topleft"
     style="opacity:0.32;fill:#00a0c8"
     d="M 0 8 L 0 9 L 1 9 L 1 8 L 0 8 z " />
  <path
     id="hover-topright"
     style="opacity:0.32;fill:#00a0c8"
     d="M 12 8 L 12 9 L 13 9 L 13 8 L 12 8 z " />
  <path
     id="hover-bottomright"
     style="opacity:0.32;fill:#00a0c8"
     d="M 12 14 L 12 15 L 13 15 L 13 14 L 12 14 z " />
  <path
     id="normal-bottomleft"
     style="opacity:0.1;fill:#dfdfdf"
     d="M 0 6 L 0 7 L 1 7 L 1 6 L 0 6 z " />
  <path
     id="normal-topleft"
     style="opacity:0.1;fill:#dfdfdf"
     d="M 0 0 L 0 1 L 1 1 L 1 0 L 0 0 z " />
  <path
     id="normal-topright"
     style="opacity:0.1;fill:#dfdfdf"
     d="M 12 0 L 12 1 L 13 1 L 13 0 L 12 0 z " />
  <path
     id="normal-bottomright"
     style="opacity:0.1;fill:#dfdfdf"
     d="M 12 6 L 12 7 L 13 7 L 13 6 L 12 6 z " />
  <path
     id="active-bottomleft"
     style="opacity:0.45;fill:#00a0c8"
     d="M 0 22 L 0 23 L 1 23 L 1 22 L 0 22 z " />
  <path
     id="active-topleft"
     style="opacity:0.45;fill:#00a0c8"
     d="M 0 16 L 0 17 L 1 17 L 1 16 L 0 16 z " />
  <path
     id="active-topright"
     style="opacity:0.45;fill:#00a0c8"
     d="M 12 16 L 12 17 L 13 17 L 13 16 L 12 16 z " />
  <path
     id="active-bottomright"
     style="opacity:0.45;fill:#00a0c8"
     d="M 12 22 L 12 23 L 13 23 L 13 22 L 12 22 z " />
</svg>
