<?xml version="1.0" encoding="UTF-8" standalone="no"?>
<svg
   width="22"
   height="22"
   version="1.1"
   id="svg8"
   sodipodi:docname="kleopatra.svg"
   inkscape:version="1.1.1 (3bf5ae0d25, 2021-09-20, custom)"
   xmlns:inkscape="http://www.inkscape.org/namespaces/inkscape"
   xmlns:sodipodi="http://sodipodi.sourceforge.net/DTD/sodipodi-0.dtd"
   xmlns="http://www.w3.org/2000/svg"
   xmlns:svg="http://www.w3.org/2000/svg"
   xmlns:rdf="http://www.w3.org/1999/02/22-rdf-syntax-ns#"
   xmlns:cc="http://creativecommons.org/ns#"
   xmlns:dc="http://purl.org/dc/elements/1.1/">
  <metadata
     id="metadata14">
    <rdf:RDF>
      <cc:Work
         rdf:about="">
        <dc:format>image/svg+xml</dc:format>
        <dc:type
           rdf:resource="http://purl.org/dc/dcmitype/StillImage" />
      </cc:Work>
    </rdf:RDF>
  </metadata>
  <defs
     id="defs12" />
  <sodipodi:namedview
     pagecolor="#c8c8c8"
     bordercolor="#666666"
     borderopacity="1"
     objecttolerance="10"
     gridtolerance="10"
     guidetolerance="10"
     inkscape:pageopacity="0"
     inkscape:pageshadow="2"
     inkscape:window-width="1920"
     inkscape:window-height="936"
     id="namedview10"
     showgrid="true"
     inkscape:zoom="15.170655"
     inkscape:cx="2.9992113"
     inkscape:cy="11.963887"
     inkscape:window-x="0"
     inkscape:window-y="40"
     inkscape:window-maximized="1"
     inkscape:current-layer="svg8"
     inkscape:pagecheckerboard="0">
    <inkscape:grid
       type="xygrid"
       id="grid938" />
  </sodipodi:namedview>
  <g
     id="kleopatra">
    <path
       id="rect855"
       style="fill:#fbfbfb;fill-rule:evenodd;stroke-width:0.5;stroke-linecap:round;stroke-linejoin:round;paint-order:stroke fill markers"
       d="m 11.000975,6.0000002 c -3.6934006,0 -6.9434533,2.673647 -7.7207033,6.3984368 -0.0564,0.2703 0.1163987,0.533344 0.3867187,0.589844 0.27032,0.0564 0.5353869,-0.116319 0.5917969,-0.386719 0.68345,-3.2752098 3.5365571,-5.6015618 6.7421877,-5.6015618 3.2057,0 6.056734,2.326342 6.740234,5.6015618 0.0565,0.2704 0.321497,0.443119 0.591797,0.386719 0.2704,-0.0565 0.443119,-0.319544 0.386719,-0.589844 -0.7774,-3.7247798 -4.02535,-6.3984368 -7.71875,-6.3984368 z m 0,3 C 9.0679744,9.0000002 7.5009748,10.567 7.5009748,12.5 c 0,1.933 1.5669996,3.5 3.5000002,3.5 1.933,0 3.5,-1.567 3.5,-3.5 0,-1.933 -1.567,-3.4999998 -3.5,-3.4999998 z m 0,0.9999998 c 1.3807,0 2.5,1.1193 2.5,2.5 0,1.3807 -1.1193,2.5 -2.5,2.5 -1.3807102,0 -2.5000002,-1.1193 -2.5000002,-2.5 0,-1.3807 1.11929,-2.5 2.5000002,-2.5 z" />
    <rect
       style="fill:none;fill-opacity:1;stroke:none;stroke-width:1;stroke-linecap:round;stroke-linejoin:round;stroke-miterlimit:4;stroke-dasharray:none;stroke-opacity:1"
       id="rect4764"
       width="22"
       height="22"
       x="0"
       y="-1.7382812e-05" />
  </g>
</svg>
