<?xml version="1.0" encoding="UTF-8" standalone="no"?>
<svg
   width="22"
   height="22"
   version="1.1"
   id="svg21"
   sodipodi:docname="pamac.svg"
   inkscape:version="1.1.1 (3bf5ae0d25, 2021-09-20, custom)"
   xmlns:inkscape="http://www.inkscape.org/namespaces/inkscape"
   xmlns:sodipodi="http://sodipodi.sourceforge.net/DTD/sodipodi-0.dtd"
   xmlns="http://www.w3.org/2000/svg"
   xmlns:svg="http://www.w3.org/2000/svg">
  <sodipodi:namedview
     id="namedview23"
     pagecolor="#c8c8c8"
     bordercolor="#666666"
     borderopacity="1.0"
     inkscape:pageshadow="2"
     inkscape:pageopacity="0"
     inkscape:pagecheckerboard="0"
     showgrid="true"
     inkscape:snap-bbox="true"
     inkscape:bbox-nodes="true"
     inkscape:snap-bbox-edge-midpoints="true"
     inkscape:snap-nodes="true"
     inkscape:zoom="8"
     inkscape:cx="19.8125"
     inkscape:cy="25"
     inkscape:window-width="1920"
     inkscape:window-height="1005"
     inkscape:window-x="0"
     inkscape:window-y="0"
     inkscape:window-maximized="1"
     inkscape:current-layer="svg21"
     inkscape:object-paths="true"
     inkscape:snap-intersection-paths="true">
    <inkscape:grid
       type="xygrid"
       id="grid1777" />
  </sodipodi:namedview>
  <defs
     id="defs3">
    <style
       id="current-color-scheme"
       type="text/css">.ColorScheme-Text{color:#dfdfdf;}.ColorScheme-Highlight{color:#5294e2;}</style>
  </defs>
  <defs
     id="defs7">
    <style
       type="text/css"
       id="style5" />
  </defs>
  <g
     id="pamac-tray-no-update">
    <rect
       style="fill:none;fill-opacity:1;stroke:none;stroke-width:2.11786;stroke-linecap:round;stroke-linejoin:round;stroke-miterlimit:4;stroke-dasharray:none;stroke-opacity:1;paint-order:stroke fill markers;stop-color:#000000"
       id="rect1079"
       width="32"
       height="32"
       x="-5"
       y="30.050793"
       rx="0"
       ry="0" />
    <g
       id="g1217"
       transform="translate(26,0.05079395)">
      <path
         d="m -14.99989,33.949203 a 3.7775009,3.7643125 0 0 1 1.638541,0.374958 l 6.6840761,3.22942 a 2.9924229,2.9819755 0 0 1 1.6772699,2.667932 v 4.988416 A 13.357592,13.310957 0 0 1 -14.01192,57.7822 l -0.08078,0.02639 a 2.9876341,2.9772034 0 0 1 -1.814666,0 l -0.06994,-0.02281 A 13.359282,13.312641 0 0 1 -24.999997,45.21 v -4.988417 a 2.9924934,2.9820457 0 0 1 1.677266,-2.667931 l 6.684086,-3.229421 a 3.7775009,3.7643125 0 0 1 1.638741,-0.375028 z m 0,22.737458 a 1.7053685,1.6994145 0 0 0 0.520287,-0.08091 c 4.9339257,-1.69373 8.2121229,-6.266205 8.2121229,-11.395818 v -4.98835 A 1.7175516,1.7115551 0 0 0 -7.2301652,38.690314 L -13.91452,35.460823 a 2.4881224,2.4794356 0 0 0 -2.17108,0 l -6.684076,3.229491 a 1.7175516,1.7115551 0 0 0 -0.962691,1.531269 v 4.988416 a 12.088566,12.046361 0 0 0 8.160219,11.379046 1.8017074,1.7954171 0 0 0 0.572258,0.09762 z"
         p-id="1538"
         id="path6-3"
         style="fill:#fbfbfb;fill-opacity:1;stroke-width:0.027461" />
      <g
         id="g1209"
         transform="matrix(1.4285713,0,0,1.3333333,2.1428556,32.724464)">
        <rect
           style="opacity:1;fill:#fbfbfb;fill-opacity:1;fill-rule:evenodd;stroke:none;stroke-width:3.16273;stroke-linecap:round;stroke-linejoin:round;paint-order:stroke fill markers"
           id="rect1201"
           width="6.6685567"
           height="1"
           x="-13.668557"
           y="-12.5"
           ry="0.5"
           transform="rotate(-90)" />
        <g
           id="g1207"
           transform="translate(0.70710691)">
          <rect
             style="opacity:1;fill:#fbfbfb;fill-opacity:1;fill-rule:evenodd;stroke:none;stroke-width:2.73861;stroke-linecap:round;stroke-linejoin:round;paint-order:stroke fill markers"
             id="rect1203"
             width="5"
             height="1"
             x="-18.227922"
             y="-4.7426405"
             ry="0.5"
             transform="rotate(-45)" />
          <rect
             style="opacity:1;fill:#fbfbfb;fill-opacity:1;fill-rule:evenodd;stroke:none;stroke-width:2.73861;stroke-linecap:round;stroke-linejoin:round;paint-order:stroke fill markers"
             id="rect1205"
             width="5"
             height="1"
             x="-0.2573595"
             y="13.227922"
             ry="0.5"
             transform="matrix(-0.70710678,-0.70710678,-0.70710678,0.70710678,0,0)" />
        </g>
      </g>
    </g>
  </g>
  <g
     id="pamac-tray-update">
    <rect
       style="fill:none;fill-opacity:1;stroke:none;stroke-width:2.11786;stroke-linecap:round;stroke-linejoin:round;stroke-miterlimit:4;stroke-dasharray:none;stroke-opacity:1;paint-order:stroke fill markers;stop-color:#000000"
       id="rect3729"
       width="32"
       height="32"
       x="35.000004"
       y="30.050793"
       rx="0"
       ry="0" />
    <circle
       style="fill:#00a0ff;fill-opacity:1;fill-rule:evenodd;stroke:none;stroke-width:3;stroke-linecap:round;stroke-linejoin:round;paint-order:stroke fill markers"
       id="path3769"
       cx="58.500004"
       cy="55.5"
       r="2.5" />
    <g
       id="g3330"
       transform="translate(-26,-1.3548956e-4)">
      <g
         id="g1231"
         transform="translate(91.999997)">
        <path
           id="path1219"
           style="fill:#fbfbfb;fill-opacity:1;stroke-width:0.027461"
           d="m 77,34 a 3.7775009,3.7643125 0 0 0 -1.638672,0.375 l -6.683594,3.228516 A 2.9924934,2.9820457 0 0 0 67,40.271484 v 4.990235 a 13.359282,13.312641 0 0 0 9.023438,12.574219 l 0.06836,0.02344 a 2.9876341,2.9772034 0 0 0 1.816406,0 l 0.08008,-0.02734 A 13.357592,13.310957 0 0 0 81.097656,56.279297 3.5,3.5 0 0 1 81,55.5 3.5,3.5 0 0 1 81.09766,54.716797 c -1.053332,0.82293 -2.255634,1.485465 -3.578125,1.939453 A 1.7053685,1.6994145 0 0 1 77,56.738281 1.8017074,1.7954171 0 0 1 76.427734,56.640625 12.088566,12.046361 0 0 1 68.267578,45.261719 v -4.990235 a 1.7175516,1.7115551 0 0 1 0.962891,-1.53125 l 6.683593,-3.228515 a 2.4881224,2.4794356 0 0 1 2.171876,0 l 6.683593,3.228515 a 1.7175516,1.7115551 0 0 1 0.962891,1.53125 v 4.988282 c 0,2.516514 -0.791347,4.898825 -2.177734,6.873046 A 3.5,3.5 0 0 1 84.5,52 3.5,3.5 0 0 1 85.095703,52.050781 13.357592,13.310957 0 0 0 87,45.259766 V 40.271484 A 2.9924229,2.9819755 0 0 0 85.322266,37.603516 L 78.638672,34.375 A 3.7775009,3.7643125 0 0 0 77,34 Z"
           transform="translate(-91.999997)" />
        <g
           id="g1229"
           transform="matrix(1.4285713,0,0,1.3333333,2.1428556,32.724464)">
          <rect
             style="opacity:1;fill:#fbfbfb;fill-opacity:1;fill-rule:evenodd;stroke:none;stroke-width:3.10458;stroke-linecap:round;stroke-linejoin:round;paint-order:stroke fill markers"
             id="rect1221"
             width="6.7066522"
             height="0.95809317"
             x="-13.706653"
             y="-12.479047"
             ry="0.47904658"
             transform="rotate(-90)" />
          <g
             id="g1227"
             transform="translate(0.70710691)">
            <rect
               style="opacity:1;fill:#fbfbfb;fill-opacity:1;fill-rule:evenodd;stroke:none;stroke-width:2.73861;stroke-linecap:round;stroke-linejoin:round;paint-order:stroke fill markers"
               id="rect1223"
               width="5"
               height="1"
               x="-18.227922"
               y="-4.7426405"
               ry="0.5"
               transform="rotate(-45)" />
            <rect
               style="opacity:1;fill:#fbfbfb;fill-opacity:1;fill-rule:evenodd;stroke:none;stroke-width:2.73861;stroke-linecap:round;stroke-linejoin:round;paint-order:stroke fill markers"
               id="rect1225"
               width="5"
               height="1"
               x="-0.2573595"
               y="13.227922"
               ry="0.5"
               transform="matrix(-0.70710678,-0.70710678,-0.70710678,0.70710678,0,0)" />
          </g>
        </g>
      </g>
    </g>
  </g>
  <g
     id="22-22-pamac-tray-no-update">
    <rect
       width="22"
       height="22"
       opacity="0"
       id="rect9"
       x="0"
       y="0" />
    <g
       id="g4122"
       transform="translate(20.5)">
      <path
         d="m -9.4999101,2 a 3.0220009,2.823234 0 0 1 1.3108328,0.2812185 l 5.3472607,2.4220647 A 2.3939385,2.2364813 0 0 1 -1.5,6.7042319 v 3.7413111 a 10.686075,9.9832165 0 0 1 -7.2095345,9.429203 l -0.064631,0.01979 a 2.3901074,2.2329023 0 0 1 -1.4517325,0 l -0.05596,-0.01711 A 10.687426,9.9844795 0 0 1 -17.5,10.445597 V 6.7042844 a 2.3939948,2.236534 0 0 1 1.341812,-2.000948 l 5.34727,-2.4220654 A 3.0220009,2.823234 0 0 1 -9.4999262,2 Z m 0,17.053091 a 1.3642948,1.2745607 0 0 0 0.4162287,-0.06068 c 3.9471413,-1.270297 6.5696995,-4.699653 6.5696995,-8.546863 V 6.7042864 A 1.3740414,1.2836662 0 0 0 -3.28413,5.5558348 l -5.3474845,-2.422118 a 1.990498,1.8595765 0 0 0 -1.7368645,0 l -5.347262,2.422118 a 1.3740414,1.2836662 0 0 0 -0.770152,1.1484516 v 3.7413116 a 9.670853,9.0347696 0 0 0 6.5281765,8.534283 1.4413661,1.3465627 0 0 0 0.4578064,0.07321 z"
         p-id="1538"
         id="path871"
         style="fill:#fbfbfb;fill-opacity:1;stroke-width:0.0212711" />
      <g
         id="g3757"
         transform="translate(2.5,0.79334765)">
        <rect
           style="opacity:1;fill:#fbfbfb;fill-opacity:1;fill-rule:evenodd;stroke:none;stroke-width:3.24037;stroke-linecap:round;stroke-linejoin:round;paint-order:stroke fill markers"
           id="rect3749"
           width="7"
           height="1"
           x="-14.206653"
           y="-12.5"
           ry="0.5"
           transform="rotate(-90)" />
        <g
           id="g3755"
           transform="translate(0.70710691)">
          <rect
             style="opacity:1;fill:#fbfbfb;fill-opacity:1;fill-rule:evenodd;stroke:none;stroke-width:2.73861;stroke-linecap:round;stroke-linejoin:round;paint-order:stroke fill markers"
             id="rect3751"
             width="5"
             height="1"
             x="-18.227922"
             y="-4.7426405"
             ry="0.5"
             transform="rotate(-45)" />
          <rect
             style="opacity:1;fill:#fbfbfb;fill-opacity:1;fill-rule:evenodd;stroke:none;stroke-width:2.73861;stroke-linecap:round;stroke-linejoin:round;paint-order:stroke fill markers"
             id="rect3753"
             width="5"
             height="1"
             x="-0.2573595"
             y="13.227922"
             ry="0.5"
             transform="matrix(-0.70710678,-0.70710678,-0.70710678,0.70710678,0,0)" />
        </g>
      </g>
    </g>
  </g>
  <g
     id="22-22-pamac-tray-update">
    <rect
       width="22"
       height="22"
       opacity="0"
       id="rect2428"
       x="38"
       y="0" />
    <g
       id="g5550"
       transform="translate(-27)">
      <g
         id="g4483"
         transform="translate(85.5)">
        <path
           id="path4471"
           style="fill:#fbfbfb;fill-opacity:1;stroke-width:0.0212711"
           d="M 76,2 A 3.0220009,2.823234 0 0 0 74.689453,2.28125 L 69.341797,4.703125 A 2.3939948,2.236534 0 0 0 68,6.7050781 v 3.7402339 a 10.687426,9.9844795 0 0 0 7.21875,9.431641 l 0.05469,0.01758 a 2.3901074,2.2329023 0 0 0 1.453124,0 L 76.791016,19.875 A 10.686075,9.9832165 0 0 0 79.115234,18.816406 3,3 0 0 1 79,18 3,3 0 0 1 79.01953,17.720703 c -0.779256,0.532607 -1.652206,0.965327 -2.603515,1.271485 A 1.3642948,1.2745607 0 0 1 76,19.052734 1.4413661,1.3465627 0 0 1 75.542969,18.980469 9.670853,9.0347696 0 0 1 69.013672,10.445312 V 6.7050781 a 1.3740414,1.2836662 0 0 1 0.771484,-1.1484375 l 5.345703,-2.4238281 a 1.990498,1.8595765 0 0 1 1.738282,0 l 5.347656,2.4238281 a 1.3740414,1.2836662 0 0 1 0.769531,1.1484375 v 3.7402339 c 0,1.649359 -0.483942,3.221522 -1.345703,4.580079 A 3,3 0 0 1 82,15 3,3 0 0 1 82.755859,15.097656 10.686075,9.9832165 0 0 0 84,10.445312 V 6.7050781 A 2.3939385,2.2364813 0 0 0 82.658203,4.703125 L 77.310547,2.28125 A 3.0220009,2.823234 0 0 0 76,2 Z"
           transform="translate(-85.5)" />
        <g
           id="g4481"
           transform="translate(2.5,0.79334765)">
          <rect
             style="opacity:1;fill:#fbfbfb;fill-opacity:1;fill-rule:evenodd;stroke:none;stroke-width:3.24037;stroke-linecap:round;stroke-linejoin:round;paint-order:stroke fill markers"
             id="rect4473"
             width="7"
             height="1"
             x="-14.206653"
             y="-12.5"
             ry="0.5"
             transform="rotate(-90)" />
          <g
             id="g4479"
             transform="translate(0.70710691)">
            <rect
               style="opacity:1;fill:#fbfbfb;fill-opacity:1;fill-rule:evenodd;stroke:none;stroke-width:2.73861;stroke-linecap:round;stroke-linejoin:round;paint-order:stroke fill markers"
               id="rect4475"
               width="5"
               height="1"
               x="-18.227922"
               y="-4.7426405"
               ry="0.5"
               transform="rotate(-45)" />
            <rect
               style="opacity:1;fill:#fbfbfb;fill-opacity:1;fill-rule:evenodd;stroke:none;stroke-width:2.73861;stroke-linecap:round;stroke-linejoin:round;paint-order:stroke fill markers"
               id="rect4477"
               width="5"
               height="1"
               x="-0.2573595"
               y="13.227922"
               ry="0.5"
               transform="matrix(-0.70710678,-0.70710678,-0.70710678,0.70710678,0,0)" />
          </g>
        </g>
      </g>
      <circle
         style="fill:#00a0ff;fill-opacity:1;fill-rule:evenodd;stroke-width:3;stroke-linecap:round;stroke-linejoin:round;paint-order:stroke fill markers"
         id="path4597"
         cx="82"
         cy="18"
         r="2" />
    </g>
  </g>
</svg>
