<?xml version="1.0" encoding="UTF-8" standalone="no"?>
<svg
   id="svg2"
   sodipodi:version="0.32"
   inkscape:version="1.2 (dc2aedaf03, 2022-05-15)"
   width="80"
   height="80"
   sodipodi:docname="lineedit.svg"
   inkscape:output_extension="org.inkscape.output.svgz.inkscape"
   inkscape:export-filename="/home/pinheiro/Documents/pics/estilo/plasma/wether.png"
   inkscape:export-xdpi="90"
   inkscape:export-ydpi="90"
   version="1.0"
   xmlns:inkscape="http://www.inkscape.org/namespaces/inkscape"
   xmlns:sodipodi="http://sodipodi.sourceforge.net/DTD/sodipodi-0.dtd"
   xmlns:xlink="http://www.w3.org/1999/xlink"
   xmlns="http://www.w3.org/2000/svg"
   xmlns:svg="http://www.w3.org/2000/svg"
   xmlns:rdf="http://www.w3.org/1999/02/22-rdf-syntax-ns#"
   xmlns:cc="http://creativecommons.org/ns#"
   xmlns:dc="http://purl.org/dc/elements/1.1/">
  <sodipodi:namedview
     inkscape:window-height="1000"
     inkscape:window-width="1920"
     inkscape:pageshadow="2"
     inkscape:pageopacity="1"
     guidetolerance="10.0"
     gridtolerance="10.0"
     objecttolerance="10.0"
     borderopacity="1.0"
     bordercolor="#666666"
     pagecolor="#3a3a3a"
     id="base"
     inkscape:zoom="7.9999996"
     inkscape:cx="32.250001"
     inkscape:cy="34.125002"
     inkscape:window-x="0"
     inkscape:window-y="0"
     inkscape:current-layer="svg2"
     showgrid="true"
     showguides="true"
     inkscape:guide-bbox="true"
     inkscape:snap-guide="false"
     inkscape:snap-bbox="true"
     inkscape:object-paths="true"
     inkscape:bbox-nodes="true"
     inkscape:snap-global="true"
     inkscape:object-nodes="true"
     inkscape:window-maximized="1"
     inkscape:snap-bbox-edge-midpoints="true"
     inkscape:snap-nodes="false"
     inkscape:document-rotation="0"
     inkscape:showpageshadow="0"
     inkscape:pagecheckerboard="0"
     inkscape:deskcolor="#3a3a3a">
    <inkscape:grid
       type="xygrid"
       id="grid5592"
       visible="true"
       enabled="true"
       empspacing="5"
       snapvisiblegridlinesonly="true"
       color="#8d8dff"
       opacity="0.04705882"
       empcolor="#ffffff"
       empopacity="0.09411765" />
  </sodipodi:namedview>
  <metadata
     id="metadata7">
    <rdf:RDF>
      <cc:Work
         rdf:about="">
        <dc:format>image/svg+xml</dc:format>
        <dc:type
           rdf:resource="http://purl.org/dc/dcmitype/StillImage" />
        <dc:title />
      </cc:Work>
      <cc:Work
         rdf:about="">
        <dc:format>image/svg+xml</dc:format>
        <dc:type
           rdf:resource="http://purl.org/dc/dcmitype/StillImage" />
      </cc:Work>
    </rdf:RDF>
  </metadata>
  <defs
     id="defs5">
    <linearGradient
       id="linearGradient4119">
      <stop
         style="stop-color:#3daee9;stop-opacity:0.40000001;"
         offset="0"
         id="stop4121" />
      <stop
         style="stop-color:#3daee9;stop-opacity:0;"
         offset="1"
         id="stop4123" />
    </linearGradient>
    <linearGradient
       id="linearGradient4079">
      <stop
         id="stop4081"
         offset="0"
         style="stop-color:#3daee9;stop-opacity:0.80000001;" />
      <stop
         id="stop4083"
         offset="1"
         style="stop-color:#3daee9;stop-opacity:0;" />
    </linearGradient>
    <linearGradient
       id="linearGradient3990">
      <stop
         style="stop-color:#232629;stop-opacity:0.2;"
         offset="0"
         id="stop3992" />
      <stop
         style="stop-color:#232629;stop-opacity:0;"
         offset="1"
         id="stop3994" />
    </linearGradient>
    <linearGradient
       id="linearGradient6038">
      <stop
         style="stop-color:#0626a8;stop-opacity:0.79607844;"
         offset="0"
         id="stop6040" />
      <stop
         style="stop-color:#0626a8;stop-opacity:0;"
         offset="1"
         id="stop6042" />
    </linearGradient>
    <linearGradient
       id="linearGradient5085">
      <stop
         id="stop5087"
         offset="0"
         style="stop-color:#71dbff;stop-opacity:0.58823532;" />
      <stop
         id="stop5089"
         offset="1"
         style="stop-color:#71dbff;stop-opacity:0;" />
    </linearGradient>
    <linearGradient
       id="linearGradient4932">
      <stop
         style="stop-color:#000000;stop-opacity:0.00392157;"
         offset="0"
         id="stop4934" />
      <stop
         style="stop-color:#000000;stop-opacity:0;"
         offset="1"
         id="stop4936" />
    </linearGradient>
    <linearGradient
       id="linearGradient8746">
      <stop
         id="stop8748"
         offset="0"
         style="stop-color:#ffffff;stop-opacity:0.83464569;" />
      <stop
         id="stop8750"
         offset="1"
         style="stop-color:#ffffff;stop-opacity:0.43307087;" />
    </linearGradient>
    <linearGradient
       id="linearGradient8734"
       inkscape:collect="always">
      <stop
         id="stop8736"
         offset="0"
         style="stop-color:#ffffff;stop-opacity:1;" />
      <stop
         id="stop8738"
         offset="1"
         style="stop-color:#ffffff;stop-opacity:0;" />
    </linearGradient>
    <radialGradient
       inkscape:collect="always"
       xlink:href="#linearGradient8734"
       id="radialGradient4717"
       gradientUnits="userSpaceOnUse"
       gradientTransform="matrix(0.9448618,0,0,0.2065601,-7.370926,65.82164)"
       cx="354.30826"
       cy="132.71753"
       fx="356.92679"
       fy="134.42079"
       r="70" />
    <radialGradient
       inkscape:collect="always"
       xlink:href="#linearGradient8734"
       id="radialGradient4729"
       gradientUnits="userSpaceOnUse"
       gradientTransform="matrix(0.03606343,0,0,0.2065601,253.64233,65.82164)"
       cx="354.30826"
       cy="132.71753"
       fx="356.92679"
       fy="134.42079"
       r="70" />
    <mask
       maskUnits="userSpaceOnUse"
       id="mask3902">
      <rect
         rx="2.077126"
         ry="2.077126"
         y="10"
         x="-55"
         height="17"
         width="32"
         id="rect3904"
         style="fill:#ffffff;fill-opacity:1;fill-rule:nonzero;stroke:none" />
    </mask>
    <linearGradient
       y2="210.10277"
       x2="333.51367"
       y1="149.98631"
       x1="333.51367"
       gradientTransform="translate(-285,-161)"
       gradientUnits="userSpaceOnUse"
       id="linearGradient5007"
       xlink:href="#linearGradient8746"
       inkscape:collect="always" />
    <radialGradient
       r="70"
       fy="231.10249"
       fx="355.5"
       cy="231.10249"
       cx="355.5"
       gradientTransform="matrix(1.7796094,-1.5772391e-7,2.5458663e-8,0.2845765,-562.13461,-41.27396)"
       gradientUnits="userSpaceOnUse"
       id="radialGradient5009"
       xlink:href="#linearGradient8734"
       inkscape:collect="always" />
    <radialGradient
       r="70"
       fy="134.42079"
       fx="356.92679"
       cy="132.71753"
       cx="354.30826"
       gradientTransform="matrix(0.9448618,0,0,0.2065601,-266.37093,-33.17836)"
       gradientUnits="userSpaceOnUse"
       id="radialGradient5011"
       xlink:href="#linearGradient8734"
       inkscape:collect="always" />
    <linearGradient
       inkscape:collect="always"
       xlink:href="#linearGradient5085"
       id="linearGradient5614"
       gradientUnits="userSpaceOnUse"
       x1="34"
       y1="27"
       x2="34"
       y2="36" />
    <linearGradient
       inkscape:collect="always"
       xlink:href="#linearGradient5085"
       id="linearGradient5616"
       gradientUnits="userSpaceOnUse"
       x1="34"
       y1="27"
       x2="34"
       y2="36" />
    <linearGradient
       inkscape:collect="always"
       xlink:href="#linearGradient4119"
       id="linearGradient4117"
       gradientUnits="userSpaceOnUse"
       x1="186"
       y1="-35"
       x2="186"
       y2="-33" />
    <style
       id="current-color-scheme"
       type="text/css">      .ColorScheme-Text {
        color:#31363b;
      }
      .ColorScheme-Background{
        color:#eff0f1;
      }
      .ColorScheme-ViewText {
        color:#31363b;
      }
      .ColorScheme-ViewBackground{
        color:#fcfcfc;
      }
      .ColorScheme-ViewHover {
        color:#3daee9;
      }
      .ColorScheme-ViewFocus{
        color:#3daee9;
      }
      .ColorScheme-ButtonText {
        color:#31363b;
      }
      .ColorScheme-ButtonBackground{
        color:#eff0f1;
      }
      .ColorScheme-ButtonHover {
        color:#3daee9;
      }
      .ColorScheme-ButtonFocus{
        color:#3daee9;
      }</style>
    <linearGradient
       id="linearGradient4932-7">
      <stop
         style="stop-color:#000000;stop-opacity:0.25098041;"
         offset="0"
         id="stop4934-5" />
      <stop
         style="stop-color:#000000;stop-opacity:0;"
         offset="1"
         id="stop4936-1" />
    </linearGradient>
    <linearGradient
       id="linearGradient4932-6">
      <stop
         style="stop-color:#000000;stop-opacity:0.25098041;"
         offset="0"
         id="stop4934-1" />
      <stop
         style="stop-color:#000000;stop-opacity:0;"
         offset="1"
         id="stop4936-2" />
    </linearGradient>
  </defs>
  <rect
     ry="2.077126"
     rx="0"
     y="-37.000069"
     x="-110.03297"
     height="2.077126"
     width="2.0329318"
     id="hint-tile-center"
     style="opacity:1;fill:#4e9a06;fill-opacity:1;fill-rule:nonzero;stroke:none;stroke-width:6;stroke-linecap:round;stroke-linejoin:round;stroke-miterlimit:4;stroke-dasharray:none;stroke-dashoffset:0;stroke-opacity:1" />
  <rect
     width="2.0329318"
     height="2.077126"
     rx="0"
     ry="2.077126"
     x="-110.03297"
     y="-31.000071"
     id="hint-focus-over-base"
     style="opacity:0.99;fill:#4e9a06;fill-opacity:1;fill-rule:nonzero;stroke:none" />
  <path
     style="color:#3daee6;opacity:0.15;fill:#ffffff;fill-opacity:1;stroke-width:0.866024"
     inkscape:connector-curvature="0"
     d="M -61.000008,22.100002 V 58.09992 h 48 V 22.100002 Z"
     class="ColorScheme-Highlight"
     id="hover-center" />
  <g
     transform="translate(-252.14004,-808.86007)"
     id="hover-topleft"
     style="opacity:1">
    <path
       style="color:#3daee6;opacity:0.15;fill:#ffffff;fill-opacity:1;stroke-width:1.25"
       d="m 190.14,824.86 c -2.77,0 -5,2.23 -5,5 h 5 z"
       id="path5201"
       inkscape:connector-curvature="0" />
    <path
       inkscape:connector-curvature="0"
       style="color:#3daee6;opacity:1;fill:none;stroke-width:1.5"
       d="m 109,65 c -3.324,0 -6,2.676 -6,6 h 2 c 0,-2.216 1.784,-4 4,-4 z"
       transform="translate(81.139996,758.86)"
       id="path2151" />
    <path
       inkscape:connector-curvature="0"
       style="color:#3daee6;opacity:0.4;fill:#000000;fill-opacity:1;stroke-width:1.25"
       d="m 109,66 c -2.77,0 -5,2.23 -5,5 h 2 c 0,-1.662 1.338,-3 3,-3 z"
       transform="translate(81.139996,758.86)"
       id="path10-91" />
  </g>
  <g
     transform="matrix(0.3664122,0,0,0.99999999,-130.66963,-808.86003)"
     id="hover-top"
     style="opacity:1">
    <path
       style="color:#3daee6;opacity:0.15;fill:#ffffff;fill-opacity:1"
       inkscape:connector-curvature="0"
       id="path13-26"
       d="m 190.14,825.86 v 4 h 131 v -4 z"
       class="ColorScheme-Highlight" />
    <path
       class="ColorScheme-Highlight"
       d="M 190.14,823.85997 V 825.86 h 131 v -2.00003 z"
       id="path2149"
       inkscape:connector-curvature="0"
       style="color:#3daee6;opacity:1;fill:none;stroke-width:0.707112" />
    <path
       style="color:#3daee6;opacity:0.4;fill:#000000;fill-opacity:1;stroke-width:0.707112"
       inkscape:connector-curvature="0"
       id="path4403"
       d="m 190.14,824.85994 v 2.00003 h 131 v -2.00003 z"
       class="ColorScheme-Highlight" />
  </g>
  <use
     x="0"
     y="0"
     xlink:href="#hover-topleft"
     id="hover-topright"
     transform="matrix(-1,0,0,1,-74.00008,0)"
     width="100%"
     height="100%" />
  <use
     x="0"
     y="0"
     xlink:href="#hover-top"
     id="hover-left"
     transform="matrix(0,-0.74999998,1,0,-82.999989,12.349912)"
     width="100%"
     height="100%" />
  <use
     x="0"
     y="0"
     xlink:href="#hover-top"
     id="hover-right"
     transform="matrix(0,0.74999992,-1,0,8.999912,67.84993)"
     width="100%"
     height="100%" />
  <use
     x="0"
     y="0"
     xlink:href="#hover-top"
     id="hover-bottom"
     transform="matrix(1,0,0,-1,-2e-5,80.099882)"
     width="100%"
     height="100%" />
  <use
     x="0"
     y="0"
     xlink:href="#hover-topleft"
     id="hover-bottomleft"
     transform="matrix(1,0,0,-1,0,80.099852)"
     width="100%"
     height="100%" />
  <use
     x="0"
     y="0"
     xlink:href="#hover-topleft"
     id="hover-bottomright"
     transform="rotate(180,-37.000038,40.049922)"
     width="100%"
     height="100%" />
  <path
     style="color:#3daee6;opacity:0.15;fill:#ffffff;fill-opacity:1;stroke-width:0.866024"
     inkscape:connector-curvature="0"
     d="M 15,22 V 57.999922 H 63 V 22 Z"
     class="ColorScheme-Highlight"
     id="focus-center" />
  <g
     transform="translate(-176.14004,-808.86007)"
     id="focus-topleft"
     style="opacity:1">
    <path
       style="color:#3daee6;opacity:0.15;fill:#ffffff;fill-opacity:1;stroke-width:1.25"
       d="m 190.14,824.86 c -2.77,0 -5,2.23 -5,5 h 5 z"
       id="path5201-5"
       inkscape:connector-curvature="0" />
    <path
       inkscape:connector-curvature="0"
       style="color:#3daee6;opacity:1;fill:none;stroke-width:1.5"
       d="m 109,65 c -3.324,0 -6,2.676 -6,6 h 2 c 0,-2.216 1.784,-4 4,-4 z"
       transform="translate(81.139996,758.86)"
       id="path2151-9" />
    <path
       inkscape:connector-curvature="0"
       style="color:#3daee6;opacity:1;fill:#00beff;fill-opacity:1;stroke-width:1.25"
       d="m 109,66 c -2.77,0 -5,2.23 -5,5 h 2 c 0,-1.662 1.338,-3 3,-3 z"
       transform="translate(81.139996,758.86)"
       id="path10-91-4" />
  </g>
  <g
     transform="matrix(0.3664122,0,0,0.99999999,-54.669636,-808.86003)"
     id="focus-top"
     style="opacity:1">
    <path
       style="color:#3daee6;opacity:0.15;fill:#ffffff;fill-opacity:1"
       inkscape:connector-curvature="0"
       id="path13-26-7"
       d="m 190.14,825.86 v 4 h 131 v -4 z"
       class="ColorScheme-Highlight" />
    <path
       class="ColorScheme-Highlight"
       d="M 190.14,823.85997 V 825.86 h 131 v -2.00003 z"
       id="path2149-6"
       inkscape:connector-curvature="0"
       style="color:#3daee6;opacity:1;fill:none;stroke-width:0.707112" />
    <path
       style="color:#3daee6;opacity:1;fill:#00beff;fill-opacity:1;stroke-width:0.707112"
       inkscape:connector-curvature="0"
       id="path4403-5"
       d="m 190.14,824.85994 v 2.00003 h 131 v -2.00003 z"
       class="ColorScheme-Highlight" />
  </g>
  <g
     style="opacity:1"
     id="focus-topright"
     transform="matrix(-0.99999999,0,0,0.99999999,254.13996,-808.86008)">
    <path
       inkscape:connector-curvature="0"
       id="path1691"
       d="m 190.14,824.86 c -2.77,0 -5,2.23 -5,5 h 5 z"
       style="color:#3daee6;opacity:0.15;fill:#ffffff;fill-opacity:1;stroke-width:1.25" />
    <path
       id="path1693"
       transform="translate(81.139996,758.86)"
       d="m 109,65 c -3.324,0 -6,2.676 -6,6 h 2 c 0,-2.216 1.784,-4 4,-4 z"
       style="color:#3daee6;opacity:1;fill:none;stroke-width:1.5"
       inkscape:connector-curvature="0" />
    <path
       id="path1695"
       transform="translate(81.139996,758.86)"
       d="m 109,66 c -2.77,0 -5,2.23 -5,5 h 2 c 0,-1.662 1.338,-3 3,-3 z"
       style="color:#3daee6;opacity:1;fill:#00beff;fill-opacity:1;stroke-width:1.25"
       inkscape:connector-curvature="0" />
  </g>
  <g
     style="opacity:1"
     id="focus-left"
     transform="matrix(0,-0.27480905,0.99999999,0,-815.86001,110.2521)">
    <path
       class="ColorScheme-Highlight"
       d="m 190.14,825.86 v 4 h 131 v -4 z"
       id="path1675"
       inkscape:connector-curvature="0"
       style="color:#3daee6;opacity:0.15;fill:#ffffff;fill-opacity:1" />
    <path
       style="color:#3daee6;opacity:1;fill:none;stroke-width:0.707112"
       inkscape:connector-curvature="0"
       id="path1677"
       d="M 190.14,823.85997 V 825.86 h 131 v -2.00003 z"
       class="ColorScheme-Highlight" />
    <path
       class="ColorScheme-Highlight"
       d="m 190.14,824.85994 v 2.00003 h 131 v -2.00003 z"
       id="path1679"
       inkscape:connector-curvature="0"
       style="color:#3daee6;opacity:1;fill:#00beff;fill-opacity:1;stroke-width:0.707112" />
  </g>
  <g
     style="opacity:1"
     id="focus-right"
     transform="matrix(0,0.27480899,-0.99999999,0,893.85986,-30.252248)">
    <path
       class="ColorScheme-Highlight"
       d="m 190.14,825.86 v 4 h 131 v -4 z"
       id="path1683"
       inkscape:connector-curvature="0"
       style="color:#3daee6;opacity:0.15;fill:#ffffff;fill-opacity:1" />
    <path
       style="color:#3daee6;opacity:1;fill:none;stroke-width:0.707112"
       inkscape:connector-curvature="0"
       id="path1685"
       d="M 190.14,823.85997 V 825.86 h 131 v -2.00003 z"
       class="ColorScheme-Highlight" />
    <path
       class="ColorScheme-Highlight"
       d="m 190.14,824.85994 v 2.00003 h 131 v -2.00003 z"
       id="path1687"
       inkscape:connector-curvature="0"
       style="color:#3daee6;opacity:1;fill:#00beff;fill-opacity:1;stroke-width:0.707112" />
  </g>
  <g
     style="opacity:1"
     id="focus-bottom"
     transform="matrix(0.3664122,0,0,-0.99999999,-54.669656,888.85988)">
    <path
       class="ColorScheme-Highlight"
       d="m 190.14,825.86 v 4 h 131 v -4 z"
       id="path1657"
       inkscape:connector-curvature="0"
       style="color:#3daee6;opacity:0.15;fill:#ffffff;fill-opacity:1" />
    <path
       style="color:#3daee6;opacity:1;fill:none;stroke-width:0.707112"
       inkscape:connector-curvature="0"
       id="path1659"
       d="M 190.14,823.85997 V 825.86 h 131 v -2.00003 z"
       class="ColorScheme-Highlight" />
    <path
       class="ColorScheme-Highlight"
       d="m 190.14,824.85994 v 2.00003 h 131 v -2.00003 z"
       id="path1661"
       inkscape:connector-curvature="0"
       style="color:#3daee6;opacity:1;fill:#00beff;fill-opacity:1;stroke-width:0.707112" />
  </g>
  <g
     style="opacity:1"
     id="focus-bottomleft"
     transform="matrix(0.99999999,0,0,-0.99999999,-176.14004,888.85988)">
    <path
       inkscape:connector-curvature="0"
       id="path1665"
       d="m 190.14,824.86 c -2.77,0 -5,2.23 -5,5 h 5 z"
       style="color:#3daee6;opacity:0.15;fill:#ffffff;fill-opacity:1;stroke-width:1.25" />
    <path
       id="path1667"
       transform="translate(81.139996,758.86)"
       d="m 109,65 c -3.324,0 -6,2.676 -6,6 h 2 c 0,-2.216 1.784,-4 4,-4 z"
       style="color:#3daee6;opacity:1;fill:none;stroke-width:1.5"
       inkscape:connector-curvature="0" />
    <path
       id="path1669"
       transform="translate(81.139996,758.86)"
       d="m 109,66 c -2.77,0 -5,2.23 -5,5 h 2 c 0,-1.662 1.338,-3 3,-3 z"
       style="color:#3daee6;opacity:1;fill:#00beff;fill-opacity:1;stroke-width:1.25"
       inkscape:connector-curvature="0" />
  </g>
  <g
     style="opacity:1"
     id="focus-bottomright"
     transform="rotate(180,127.06999,444.42994)">
    <path
       inkscape:connector-curvature="0"
       id="path1647"
       d="m 190.14,824.86 c -2.77,0 -5,2.23 -5,5 h 5 z"
       style="color:#3daee6;opacity:0.15;fill:#ffffff;fill-opacity:1;stroke-width:1.25" />
    <path
       id="path1649"
       transform="translate(81.139996,758.86)"
       d="m 109,65 c -3.324,0 -6,2.676 -6,6 h 2 c 0,-2.216 1.784,-4 4,-4 z"
       style="color:#3daee6;opacity:1;fill:none;stroke-width:1.5"
       inkscape:connector-curvature="0" />
    <path
       id="path1651"
       transform="translate(81.139996,758.86)"
       d="m 109,66 c -2.77,0 -5,2.23 -5,5 h 2 c 0,-1.662 1.338,-3 3,-3 z"
       style="color:#3daee6;opacity:1;fill:#00beff;fill-opacity:1;stroke-width:1.25"
       inkscape:connector-curvature="0" />
  </g>
  <path
     style="color:#3daee6;opacity:0.7;fill:#ffffff;fill-opacity:1;stroke-width:0.866024"
     inkscape:connector-curvature="0"
     d="m -61.00001,-47.999956 v 35.999922 h 48.00002 v -35.999922 z"
     class="ColorScheme-Highlight"
     id="base-center" />
  <g
     transform="translate(-252.14003,-878.86003)"
     id="base-topleft"
     style="opacity:1">
    <path
       style="color:#3daee6;opacity:0.7;fill:#ffffff;fill-opacity:1;stroke-width:1.25001"
       d="m 190.14,824.85996 c -2.77002,0 -5.00004,2.23002 -5.00004,5.00004 H 190.14 Z"
       id="path5201-0"
       inkscape:connector-curvature="0" />
    <path
       inkscape:connector-curvature="0"
       style="color:#3daee6;opacity:1;fill:none;stroke-width:1.5"
       d="m 109,65 c -3.324,0 -6,2.676 -6,6 h 2 c 0,-2.216 1.784,-4 4,-4 z"
       transform="translate(81.139996,758.86)"
       id="path2151-5" />
    <path
       inkscape:connector-curvature="0"
       style="color:#3daee6;opacity:1;fill:none;fill-opacity:1;stroke-width:1.25"
       d="m 109,66 c -2.77,0 -5,2.23 -5,5 h 2 c 0,-1.662 1.338,-3 3,-3 z"
       transform="translate(81.139996,758.86)"
       id="path10-91-2" />
  </g>
  <g
     transform="matrix(0.3664122,0,0,0.99999999,-130.66964,-878.85999)"
     id="base-top"
     style="opacity:1">
    <path
       style="color:#3daee6;opacity:0.7;fill:#ffffff;fill-opacity:1;stroke-width:1.11804"
       inkscape:connector-curvature="0"
       id="path13-26-0"
       d="M 190.14,824.85993 V 829.86 h 131 v -5.00007 z"
       class="ColorScheme-Highlight" />
    <path
       class="ColorScheme-Highlight"
       d="M 190.14,823.85997 V 825.86 h 131 v -2.00003 z"
       id="path2149-4"
       inkscape:connector-curvature="0"
       style="color:#3daee6;opacity:1;fill:none;stroke-width:0.707112" />
    <path
       style="color:#3daee6;opacity:1;fill:none;fill-opacity:1;stroke-width:0.707112"
       inkscape:connector-curvature="0"
       id="path4403-9"
       d="m 190.14,824.85994 v 2.00003 h 131 v -2.00003 z"
       class="ColorScheme-Highlight" />
  </g>
  <g
     style="opacity:1"
     id="base-topright"
     transform="matrix(-0.99999999,0,0,0.99999999,178.13997,-878.86004)">
    <path
       inkscape:connector-curvature="0"
       id="path1691-2"
       d="m 190.14,824.85998 c -2.77001,0 -5.00002,2.23001 -5.00002,5.00002 H 190.14 Z"
       style="color:#3daee6;opacity:0.7;fill:#ffffff;fill-opacity:1;stroke-width:1.25" />
    <path
       id="path1693-3"
       transform="translate(81.139996,758.86)"
       d="m 109,65 c -3.324,0 -6,2.676 -6,6 h 2 c 0,-2.216 1.784,-4 4,-4 z"
       style="color:#3daee6;opacity:1;fill:none;stroke-width:1.5"
       inkscape:connector-curvature="0" />
    <path
       id="path1695-4"
       transform="translate(81.139996,758.86)"
       d="m 109,66 c -2.77,0 -5,2.23 -5,5 h 2 c 0,-1.662 1.338,-3 3,-3 z"
       style="color:#3daee6;opacity:1;fill:none;fill-opacity:1;stroke-width:1.25"
       inkscape:connector-curvature="0" />
  </g>
  <g
     style="opacity:1"
     id="base-left"
     transform="matrix(0,-0.27480905,0.99999999,0,-891.86,40.252145)">
    <path
       class="ColorScheme-Highlight"
       d="M 190.14,824.85994 V 829.86 h 131 v -5.00006 z"
       id="path1675-1"
       inkscape:connector-curvature="0"
       style="color:#3daee6;opacity:0.7;fill:#ffffff;fill-opacity:1;stroke-width:1.11804" />
    <path
       style="color:#3daee6;opacity:1;fill:none;stroke-width:0.707112"
       inkscape:connector-curvature="0"
       id="path1677-9"
       d="M 190.14,823.85997 V 825.86 h 131 v -2.00003 z"
       class="ColorScheme-Highlight" />
    <path
       class="ColorScheme-Highlight"
       d="m 190.14,824.85994 v 2.00003 h 131 v -2.00003 z"
       id="path1679-4"
       inkscape:connector-curvature="0"
       style="color:#3daee6;opacity:1;fill:none;fill-opacity:1;stroke-width:0.707112" />
  </g>
  <g
     style="opacity:1"
     id="base-right"
     transform="matrix(0,0.27480899,-0.99999999,0,817.85996,-100.2522)">
    <path
       class="ColorScheme-Highlight"
       d="M 190.14,824.85994 V 829.86 h 131 v -5.00006 z"
       id="path1683-9"
       inkscape:connector-curvature="0"
       style="color:#3daee6;opacity:0.7;fill:#ffffff;fill-opacity:1;stroke-width:1.11804" />
    <path
       style="color:#3daee6;opacity:1;fill:none;stroke-width:0.707112"
       inkscape:connector-curvature="0"
       id="path1685-8"
       d="M 190.14,823.85997 V 825.86 h 131 v -2.00003 z"
       class="ColorScheme-Highlight" />
    <path
       class="ColorScheme-Highlight"
       d="m 190.14,824.85994 v 2.00003 h 131 v -2.00003 z"
       id="path1687-6"
       inkscape:connector-curvature="0"
       style="color:#3daee6;opacity:1;fill:none;fill-opacity:1;stroke-width:0.707112" />
  </g>
  <g
     style="opacity:1"
     id="base-bottom"
     transform="matrix(0.3664122,0,0,-0.99999999,-130.66966,818.85992)">
    <path
       class="ColorScheme-Highlight"
       d="m 190.14,824.86 v 5 h 131 v -5 z"
       id="path1657-3"
       inkscape:connector-curvature="0"
       style="color:#3daee6;opacity:0.7;fill:#ffffff;fill-opacity:1;stroke-width:1.11803" />
    <path
       style="color:#3daee6;opacity:1;fill:none;stroke-width:0.707112"
       inkscape:connector-curvature="0"
       id="path1659-2"
       d="M 190.14,823.85997 V 825.86 h 131 v -2.00003 z"
       class="ColorScheme-Highlight" />
    <path
       class="ColorScheme-Highlight"
       d="m 190.14,824.85994 v 2.00003 h 131 v -2.00003 z"
       id="path1661-1"
       inkscape:connector-curvature="0"
       style="color:#3daee6;opacity:1;fill:none;fill-opacity:1;stroke-width:0.707112" />
  </g>
  <g
     style="opacity:1"
     id="base-bottomleft"
     transform="matrix(0.99999999,0,0,-0.99999999,-252.14003,818.85992)">
    <path
       inkscape:connector-curvature="0"
       id="path1665-1"
       d="m 190.14,824.86 c -2.77,0 -5,2.23 -5,5 h 5 z"
       style="color:#3daee6;opacity:0.7;fill:#ffffff;fill-opacity:1;stroke-width:1.25" />
    <path
       id="path1667-5"
       transform="translate(81.139996,758.86)"
       d="m 109,65 c -3.324,0 -6,2.676 -6,6 h 2 c 0,-2.216 1.784,-4 4,-4 z"
       style="color:#3daee6;opacity:1;fill:none;stroke-width:1.5"
       inkscape:connector-curvature="0" />
    <path
       id="path1669-4"
       transform="translate(81.139996,758.86)"
       d="m 109,66 c -2.77,0 -5,2.23 -5,5 h 2 c 0,-1.662 1.338,-3 3,-3 z"
       style="color:#3daee6;opacity:1;fill:none;fill-opacity:1;stroke-width:1.25"
       inkscape:connector-curvature="0" />
  </g>
  <g
     style="opacity:1"
     id="base-bottomright"
     transform="rotate(180,89.06999,409.42996)">
    <path
       inkscape:connector-curvature="0"
       id="path1647-0"
       d="m 190.14,824.86 c -2.77,0 -5,2.23 -5,5 h 5 z"
       style="color:#3daee6;opacity:0.7;fill:#ffffff;fill-opacity:1;stroke-width:1.25" />
    <path
       id="path1649-6"
       transform="translate(81.139996,758.86)"
       d="m 109,65 c -3.324,0 -6,2.676 -6,6 h 2 c 0,-2.216 1.784,-4 4,-4 z"
       style="color:#3daee6;opacity:1;fill:none;stroke-width:1.5"
       inkscape:connector-curvature="0" />
    <path
       id="path1651-0"
       transform="translate(81.139996,758.86)"
       d="m 109,66 c -2.77,0 -5,2.23 -5,5 h 2 c 0,-1.662 1.338,-3 3,-3 z"
       style="color:#3daee6;opacity:1;fill:none;fill-opacity:1;stroke-width:1.25"
       inkscape:connector-curvature="0" />
  </g>
  <rect
     style="fill:#9a06ff;stroke-width:0.316228"
     height="0.1"
     width="2"
     y="14.899927"
     x="37.999962"
     id="hover-hint-top-margin" />
  <rect
     style="fill:#9a06ff;stroke-width:0.223607"
     height="0.1"
     width="2"
     y="70.999962"
     x="-40.999931"
     transform="rotate(-90)"
     id="hover-hint-right-margin" />
  <rect
     style="fill:#9a06ff;stroke-width:0.223607"
     height="0.1"
     width="2"
     y="7.9999599"
     x="-41.999931"
     transform="rotate(-90)"
     id="hover-hint-left-margin" />
  <rect
     style="fill:#9a06ff;stroke-width:0.182574"
     id="hover-hint-bottom-margin"
     x="37.999962"
     y="64.899933"
     width="2"
     height="0.1" />
  <rect
     style="fill:#9a06ff;stroke-width:0.316228"
     height="0.1"
     width="1.9999999"
     y="14.899931"
     x="-38.000038"
     id="focus-hint-top-margin" />
  <rect
     style="fill:#9a06ff;stroke-width:0.223607"
     height="0.1"
     width="1.9999999"
     y="-6.0000401"
     x="-42.09993"
     transform="rotate(-90)"
     id="focus-hint-right-margin" />
  <rect
     style="fill:#9a06ff;stroke-width:0.223607"
     height="0.1"
     width="1.9999999"
     y="-68.000038"
     x="-42.09993"
     transform="rotate(-90)"
     id="focus-hint-left-margin" />
  <rect
     style="fill:#9a06ff;stroke-width:0.182574"
     id="focus-hint-bottom-margin"
     x="-38.000038"
     y="64.999931"
     width="2"
     height="0.1" />
  <rect
     style="fill:#4e9a06;fill-opacity:1;fill-rule:nonzero;stroke:none"
     id="base-hint-top-margin"
     width="2"
     height="6.0000038"
     x="-37.000038"
     y="-55.000069" />
  <rect
     y="-31.000071"
     x="-68.000038"
     height="1.9999999"
     width="6"
     id="base-hint-left-margin"
     style="fill:#4e9a06;fill-opacity:1;fill-rule:nonzero;stroke:none" />
  <rect
     style="fill:#4e9a06;fill-opacity:1;fill-rule:nonzero;stroke:none"
     id="base-hint-right-margin"
     width="5.9999914"
     height="2"
     x="-12.00004"
     y="-31.000071" />
  <rect
     y="-11.000071"
     x="-37.000038"
     height="6.0000062"
     width="2"
     id="base-hint-bottom-margin"
     style="fill:#4e9a06;fill-opacity:1;fill-rule:nonzero;stroke:none" />
</svg>
