<?xml version="1.0" encoding="UTF-8" standalone="no"?>
<svg
   xmlns:dc="http://purl.org/dc/elements/1.1/"
   xmlns:cc="http://creativecommons.org/ns#"
   xmlns:rdf="http://www.w3.org/1999/02/22-rdf-syntax-ns#"
   xmlns:svg="http://www.w3.org/2000/svg"
   xmlns="http://www.w3.org/2000/svg"
   xmlns:sodipodi="http://sodipodi.sourceforge.net/DTD/sodipodi-0.dtd"
   xmlns:inkscape="http://www.inkscape.org/namespaces/inkscape"
   inkscape:version="1.0.2 (e86c870879, 2021-01-15)"
   sodipodi:docname="tabbar.svg"
   id="svg112"
   version="1.1"
   height="300"
   width="500">
  <metadata
     id="metadata116">
    <rdf:RDF>
      <cc:Work
         rdf:about="">
        <dc:format>image/svg+xml</dc:format>
        <dc:type
           rdf:resource="http://purl.org/dc/dcmitype/StillImage" />
        <dc:title />
      </cc:Work>
    </rdf:RDF>
  </metadata>
  <sodipodi:namedview
     inkscape:document-rotation="0"
     inkscape:bbox-nodes="true"
     inkscape:snap-bbox-edge-midpoints="true"
     inkscape:snap-bbox="true"
     inkscape:current-layer="svg112"
     inkscape:window-maximized="1"
     inkscape:window-y="38"
     inkscape:window-x="0"
     inkscape:cy="61.252263"
     inkscape:cx="235.29556"
     inkscape:zoom="3.5879896"
     inkscape:guide-bbox="true"
     showguides="true"
     showgrid="true"
     id="namedview114"
     inkscape:window-height="935"
     inkscape:window-width="1920"
     inkscape:pageshadow="2"
     inkscape:pageopacity="0"
     guidetolerance="10"
     gridtolerance="10"
     objecttolerance="10"
     borderopacity="1"
     bordercolor="#666666"
     pagecolor="#3a3a3a">
    <inkscape:grid
       id="grid943"
       type="xygrid" />
  </sodipodi:namedview>
  <defs
     id="defs3">
    <style
       type="text/css"
       id="current-color-scheme">.ColorScheme-Text {
        color:#31363b;
      }
      .ColorScheme-Background{
        color:#eff0f1;
      }
      .ColorScheme-ViewText {
        color:#31363b;
      }
      .ColorScheme-ViewBackground{
        color:#fcfcfc;
      }
      .ColorScheme-ViewHover {
        color:#3daee9;
      }
      .ColorScheme-ViewFocus{
        color:#3daee9;
      }
      .ColorScheme-ButtonText {
        color:#31363b;
      }
      .ColorScheme-ButtonBackground{
        color:#eff0f1;
      }
      .ColorScheme-ButtonHover {
        color:#3daee9;
      }
      .ColorScheme-ButtonFocus{
        color:#3daee9;
      }</style>
  </defs>
  <g
     transform="matrix(0.81250094,0,0,1.6666698,290.56249,-1450.2732)"
     id="north-active-tab-top">
    <rect
       class="ColorScheme-Background"
       transform="matrix(0,-1,-1,0,0,0)"
       style="color:#eff0f1;opacity:0.15;fill:#ffffff;fill-opacity:1;stroke:none"
       id="rect4152"
       width="6"
       height="32"
       x="-916.36218"
       y="-50.999985" />
    <rect
       class="ColorScheme-Background"
       transform="matrix(0,-1,-1,0,0,0)"
       style="color:#eff0f1;opacity:1;fill:#ffffff;fill-opacity:1;stroke:none;stroke-width:0.316234"
       id="rect970"
       width="0.60002476"
       height="32"
       x="-910.96222"
       y="-50.999985" />
  </g>
  <g
     transform="matrix(0.83333453,0,0,0.83333453,283.16668,-691.63644)"
     id="north-active-tab-topleft">
    <path
       inkscape:connector-curvature="0"
       id="rect4159"
       d="m 25,910.36218 c -6.647974,0 -12,5.35203 -12,12 h 8 2 2 v -2 -8 z"
       style="opacity:0.15;fill:#ffffff;fill-opacity:1;stroke:none;stroke-width:2" />
    <path
       id="path944"
       style="opacity:1;fill:#ffffff;fill-opacity:1;stroke:none;stroke-width:1.66667"
       d="M 304 67 C 298.46001 67 294 71.460017 294 77 L 295 77 C 295 72.014126 299.01412 68 304 68 L 304 67 z "
       transform="matrix(1.1999983,0,0,1.1999983,-339.79953,829.96254)" />
  </g>
  <g
     transform="matrix(0.83333731,0,0,0.83333731,296.49976,-691.63894)"
     id="north-active-tab-topright">
    <path
       inkscape:connector-curvature="0"
       id="rect4177"
       d="m 45.00004,910.36218 v 1.99999 7.99998 1.99999 h 1.999994 1.999993 5.99998 H 57 c 0,-6.64795 -5.352008,-11.99996 -11.99996,-11.99996 z"
       style="opacity:0.15;fill:#ffffff;fill-opacity:1;stroke:none;stroke-width:1.99999332" />
    <path
       id="path965"
       style="opacity:1;fill:#ffffff;fill-opacity:1;stroke:none;stroke-width:1.66667"
       d="M 334 67 L 334 68 C 338.98589 68 343 72.01411 343 77 L 344 77 C 344 71.460015 339.53999 67 334 67 z "
       transform="matrix(1.1999943,0,0,1.1999943,-355.79801,829.96277)" />
  </g>
  <g
     transform="matrix(0.81250094,0,0,1.6666612,290.56249,-1479.5986)"
     id="north-active-tab-bottom">
    <rect
       class="ColorScheme-Background"
       y="-50.999985"
       x="948.36218"
       height="32"
       width="6"
       id="rect4148"
       style="color:#eff0f1;opacity:0.15;fill:#ffffff;fill-opacity:1;stroke:none"
       transform="rotate(90)" />
    <rect
       class="ColorScheme-Background"
       y="-50.999985"
       x="953.76227"
       height="32"
       width="0.59989429"
       id="rect956"
       style="color:#eff0f1;opacity:1;fill:#ffffff;fill-opacity:1;stroke:none;stroke-width:0.3162"
       transform="rotate(90)" />
  </g>
  <g
     transform="matrix(0.83333074,0,0,0.83333074,283.16673,-684.29954)"
     id="north-active-tab-bottomleft">
    <path
       inkscape:connector-curvature="0"
       id="path5048"
       d="m 13,942.36216 c 0,6.64798 5.352035,12.00002 12.00002,12.00002 v -2 -8.00002 -2 h -2.000003 -2.000004 -6.00001 z"
       style="opacity:0.15;fill:#ffffff;fill-opacity:1;stroke:none;stroke-width:2.00000334" />
    <path
       id="path951"
       style="opacity:1;fill:#ffffff;fill-opacity:1;stroke:none;stroke-width:1.66666"
       d="M 294 101 C 294 106.53997 298.46003 111 304 111 L 304 110 C 299.01392 110 295 105.98608 295 101 L 294 101 z "
       transform="matrix(1.2000037,0,0,1.2000037,-339.80113,821.162)" />
  </g>
  <g
     transform="matrix(0.83333074,0,0,0.83333074,296.50014,-684.29954)"
     id="north-active-tab-bottomright">
    <path
       inkscape:connector-curvature="0"
       id="rect4177-6"
       d="m 44.99998,942.36216 v 2 8.00002 2 C 51.647965,954.36218 57,949.01014 57,942.36216 h -2.000003 -6.00001 -2.000004 z"
       style="opacity:0.15;fill:#ffffff;fill-opacity:1;stroke:none;stroke-width:2.00000334" />
    <path
       id="path958"
       style="opacity:1;fill:#ffffff;fill-opacity:1;stroke:none;stroke-width:1.66666"
       d="M 343 101 C 343 105.98598 338.98598 110 334 110 L 334 111 C 339.53997 111 344 106.53997 344 101 L 343 101 z "
       transform="matrix(1.2000037,0,0,1.2000037,-355.80128,821.162)" />
  </g>
  <g
     transform="matrix(1.6666667,0,0,0.62499857,272.33336,-493.72514)"
     id="north-active-tab-left">
    <rect
       class="ColorScheme-Background"
       y="916.36218"
       x="-19.000004"
       height="32"
       width="5.9999995"
       id="rect4144"
       style="color:#eff0f1;opacity:0.15;fill:#ffffff;fill-opacity:1;stroke:none"
       transform="scale(-1,1)" />
    <rect
       class="ColorScheme-Background"
       y="916.36218"
       x="-13.599984"
       height="32"
       width="0.59997946"
       id="rect949"
       style="color:#eff0f1;opacity:1;fill:#ffffff;fill-opacity:1;stroke:none;stroke-width:0.316222"
       transform="scale(-1,1)" />
  </g>
  <g
     transform="matrix(1.6666578,0,0,0.62499857,249.00051,-493.72514)"
     id="north-active-tab-right">
    <rect
       class="ColorScheme-Background"
       style="color:#eff0f1;opacity:0.15;fill:#ffffff;fill-opacity:1;stroke:none"
       id="rect4140"
       width="5.9999995"
       height="32"
       x="50.999985"
       y="916.36218" />
    <rect
       class="ColorScheme-Background"
       style="color:#eff0f1;opacity:1;fill:#ffffff;fill-opacity:1;stroke:none;stroke-width:0.316225"
       id="rect963"
       width="0.59999019"
       height="32"
       x="56.399994"
       y="916.36218" />
  </g>
  <rect
     style="color:#eff0f1;opacity:0.15;fill:#ffffff;fill-opacity:1;stroke:none;stroke-width:0.71260923"
     id="north-active-tab-center"
     width="25.999981"
     height="19.999992"
     x="306.00003"
     y="78.999863"
     class="ColorScheme-Background" />
  <rect
     style="opacity:0.875;fill:#008000"
     height="41.120998"
     width="41.362999"
     y="120"
     x="40"
     id="hint-tile-center" />
  <rect
     style="fill:#4e9a06;stroke-width:1.09544516"
     height="2"
     width="18"
     y="-89.999863"
     x="-344.00003"
     transform="scale(-1)"
     id="north-focus-hint-right-margin" />
  <rect
     style="fill:#4e9a06;stroke-width:1.09544516"
     height="2"
     width="18"
     y="-89.999863"
     x="-312.00003"
     transform="scale(-1)"
     id="north-focus-hint-left-margin" />
  <rect
     style="fill:#4e9a06;stroke-width:0.77459669"
     height="12"
     width="2"
     y="-110.99986"
     x="-320.00003"
     transform="scale(-1)"
     id="north-focus-hint-bottom-margin" />
  <rect
     style="fill:#4e9a06;stroke-width:1.09544516"
     height="12"
     width="2"
     y="-78.999863"
     x="-320.00003"
     transform="scale(-1)"
     id="north-focus-hint-top-margin" />
  <g
     transform="matrix(0.81250095,0,0,1.6666698,290.56249,-1340.2732)"
     id="south-active-tab-top">
    <rect
       class="ColorScheme-Background"
       transform="matrix(0,-1,-1,0,0,0)"
       style="color:#eff0f1;opacity:0.15;fill:#ffffff;fill-opacity:1;stroke:none"
       id="rect4152-3"
       width="6"
       height="32"
       x="-916.36218"
       y="-50.999985" />
    <rect
       class="ColorScheme-Background"
       transform="matrix(0,-1,-1,0,0,0)"
       style="color:#eff0f1;opacity:1;fill:#ffffff;fill-opacity:1;stroke:none;stroke-width:0.316234"
       id="rect942"
       width="0.60002476"
       height="32"
       x="-910.96222"
       y="-50.999985" />
  </g>
  <g
     transform="matrix(0.83333454,0,0,0.83333454,283.16668,-581.63644)"
     id="south-active-tab-topleft">
    <path
       inkscape:connector-curvature="0"
       id="rect4159-6"
       d="m 25,910.36218 c -6.647974,0 -12,5.35203 -12,12 h 8 2 2 v -2 -8 z"
       style="opacity:0.15;fill:#ffffff;fill-opacity:1;stroke:none;stroke-width:2" />
    <path
       id="path916"
       style="opacity:1;fill:#ffffff;fill-opacity:1;stroke:none;stroke-width:1.66667"
       d="M 304 177 C 298.46001 177 294 181.46002 294 187 L 295 187 C 295 182.01412 299.01412 178 304 178 L 304 177 z "
       transform="matrix(1.1999983,0,0,1.1999983,-339.79952,697.96272)" />
  </g>
  <g
     transform="matrix(0.8333373,0,0,0.8333373,296.49976,-581.63884)"
     id="south-active-tab-topright">
    <path
       inkscape:connector-curvature="0"
       id="rect4177-7"
       d="m 45.00004,910.36218 v 1.99999 7.99998 1.99999 h 1.999994 1.999993 5.99998 H 57 c 0,-6.64795 -5.352008,-11.99996 -11.99996,-11.99996 z"
       style="opacity:0.15;fill:#ffffff;fill-opacity:1;stroke:none;stroke-width:1.99999332" />
    <path
       id="path937"
       style="opacity:1;fill:#ffffff;fill-opacity:1;stroke:none;stroke-width:1.66667"
       d="M 334 177 L 334 178 C 338.98594 178 343 182.01406 343 187 L 344 187 C 344 181.46002 339.53999 177 334 177 z "
       transform="matrix(1.1999943,0,0,1.1999943,-355.79802,697.96329)" />
  </g>
  <g
     transform="matrix(0.81250095,0,0,1.6666612,290.56249,-1369.5987)"
     id="south-active-tab-bottom">
    <rect
       class="ColorScheme-Background"
       y="-50.999985"
       x="948.36218"
       height="32"
       width="6"
       id="rect4148-5"
       style="color:#eff0f1;opacity:0.15;fill:#ffffff;fill-opacity:1;stroke:none"
       transform="rotate(90)" />
    <rect
       class="ColorScheme-Background"
       y="-50.999985"
       x="953.76233"
       height="32"
       width="0.59983426"
       id="rect928"
       style="color:#eff0f1;opacity:1;fill:#ffffff;fill-opacity:1;stroke:none;stroke-width:0.316184"
       transform="rotate(90)" />
  </g>
  <g
     transform="matrix(0.83333072,0,0,0.83333072,283.16673,-574.29944)"
     id="south-active-tab-bottomleft">
    <path
       inkscape:connector-curvature="0"
       id="path5048-3"
       d="m 13,942.36216 c 0,6.64798 5.352035,12.00002 12.00002,12.00002 v -2 -8.00002 -2 h -2.000003 -2.000004 -6.00001 z"
       style="opacity:0.15;fill:#ffffff;fill-opacity:1;stroke:none;stroke-width:2.00000334" />
    <path
       id="path923"
       style="opacity:1;fill:#ffffff;fill-opacity:1;stroke:none;stroke-width:1.66666"
       d="M 294 211 C 294 216.53997 298.46003 221 304 221 L 304 220 C 299.01396 220 295 215.98603 295 211 L 294 211 z "
       transform="matrix(1.2000038,0,0,1.2000038,-339.80114,689.16149)" />
  </g>
  <g
     transform="matrix(0.83333072,0,0,0.83333072,296.50014,-574.29944)"
     id="south-active-tab-bottomright">
    <path
       inkscape:connector-curvature="0"
       id="rect4177-6-5"
       d="m 44.99998,942.36216 v 2 8.00002 2 C 51.647965,954.36218 57,949.01014 57,942.36216 h -2.000003 -6.00001 -2.000004 z"
       style="opacity:0.15;fill:#ffffff;fill-opacity:1;stroke:none;stroke-width:2.00000334" />
    <path
       id="path930"
       style="opacity:1;fill:#ffffff;fill-opacity:1;stroke:none;stroke-width:1.66666"
       d="M 343 211 C 343 215.98598 338.98598 220 334 220 L 334 221 C 339.53997 221 344 216.53997 344 211 L 343 211 z "
       transform="matrix(1.2000038,0,0,1.2000038,-355.80128,689.16149)" />
  </g>
  <g
     transform="matrix(1.6666667,0,0,0.62499855,272.33336,-383.72514)"
     id="south-active-tab-left">
    <rect
       class="ColorScheme-Background"
       y="916.36218"
       x="-19.000004"
       height="32"
       width="5.9999995"
       id="rect4144-6"
       style="color:#eff0f1;opacity:0.15;fill:#ffffff;fill-opacity:1;stroke:none"
       transform="scale(-1,1)" />
    <rect
       class="ColorScheme-Background"
       y="916.36218"
       x="-13.599984"
       height="32"
       width="0.59997946"
       id="rect921"
       style="color:#eff0f1;opacity:1;fill:#ffffff;fill-opacity:1;stroke:none;stroke-width:0.316222"
       transform="scale(-1,1)" />
  </g>
  <g
     transform="matrix(1.6666578,0,0,0.62499855,249.00051,-383.72514)"
     id="south-active-tab-right">
    <rect
       class="ColorScheme-Background"
       style="color:#eff0f1;opacity:0.15;fill:#ffffff;fill-opacity:1;stroke:none"
       id="rect4140-2"
       width="5.9999995"
       height="32"
       x="50.999985"
       y="916.36218" />
    <rect
       class="ColorScheme-Background"
       style="color:#eff0f1;opacity:1;fill:#ffffff;fill-opacity:1;stroke:none;stroke-width:0.316225"
       id="rect935"
       width="0.59999019"
       height="32"
       x="56.399994"
       y="916.36218" />
  </g>
  <rect
     style="color:#eff0f1;opacity:0.15;fill:#ffffff;fill-opacity:1;stroke:none;stroke-width:0.71260923"
     id="south-active-tab-center"
     width="25.999983"
     height="19.999992"
     x="306.00003"
     y="188.99986"
     class="ColorScheme-Background" />
  <rect
     style="fill:#4e9a06;stroke-width:1.09544516"
     height="1.9999999"
     width="18"
     y="-199.99986"
     x="-344.00003"
     transform="scale(-1)"
     id="south-focus-hint-right-margin" />
  <rect
     style="fill:#4e9a06;stroke-width:1.09544516"
     height="1.9999999"
     width="18"
     y="-199.99986"
     x="-312.00003"
     transform="scale(-1)"
     id="south-focus-hint-left-margin" />
  <rect
     style="fill:#4e9a06;stroke-width:0.77459669"
     height="12"
     width="1.9999999"
     y="-220.99986"
     x="-320.00003"
     transform="scale(-1)"
     id="south-focus-hint-bottom-margin" />
  <rect
     style="fill:#4e9a06;stroke-width:1.09544516"
     height="12"
     width="1.9999999"
     y="-188.99986"
     x="-320.00003"
     transform="scale(-1)"
     id="south-focus-hint-top-margin" />
  <g
     transform="matrix(0.81250095,0,0,1.6666698,209.56249,-1392.2732)"
     id="west-active-tab-top">
    <rect
       class="ColorScheme-Background"
       transform="matrix(0,-1,-1,0,0,0)"
       style="color:#eff0f1;opacity:0.15;fill:#ffffff;fill-opacity:1;stroke:none"
       id="rect4152-9"
       width="6"
       height="32"
       x="-916.36218"
       y="-50.999985" />
    <rect
       class="ColorScheme-Background"
       transform="matrix(0,-1,-1,0,0,0)"
       style="color:#eff0f1;opacity:1;fill:#ffffff;fill-opacity:1;stroke:none;stroke-width:0.316234"
       id="rect998"
       width="0.60002476"
       height="32"
       x="-910.96222"
       y="-50.999985" />
  </g>
  <g
     transform="matrix(0.83333454,0,0,0.83333454,202.16668,-633.63644)"
     id="west-active-tab-topleft">
    <path
       inkscape:connector-curvature="0"
       id="rect4159-1"
       d="m 25,910.36218 c -6.647974,0 -12,5.35203 -12,12 h 8 2 2 v -2 -8 z"
       style="opacity:0.15;fill:#ffffff;fill-opacity:1;stroke:none;stroke-width:2" />
    <path
       id="path972"
       style="opacity:1;fill:#ffffff;fill-opacity:1;stroke:none;stroke-width:1.66667"
       d="M 223 125 C 217.46001 125 213 129.46002 213 135 L 214 135 C 214 130.01412 218.01412 126 223 126 L 223 125 z "
       transform="matrix(1.1999983,0,0,1.1999983,-242.59966,760.36263)" />
  </g>
  <g
     transform="matrix(0.8333373,0,0,0.8333373,215.49976,-633.63884)"
     id="west-active-tab-topright">
    <path
       inkscape:connector-curvature="0"
       id="rect4177-2"
       d="m 45.00004,910.36218 v 1.99999 7.99998 1.99999 h 1.999994 1.999993 5.99998 H 57 c 0,-6.64795 -5.352008,-11.99996 -11.99996,-11.99996 z"
       style="opacity:0.15;fill:#ffffff;fill-opacity:1;stroke:none;stroke-width:1.99999332" />
    <path
       id="path993"
       style="opacity:1;fill:#ffffff;fill-opacity:1;stroke:none;stroke-width:1.66667"
       d="M 253 125 L 253 126 C 257.98594 126 262 130.01406 262 135 L 263 135 C 263 129.46002 258.53999 125 253 125 z "
       transform="matrix(1.1999943,0,0,1.1999943,-258.59848,760.36299)" />
  </g>
  <g
     transform="matrix(0.81250095,0,0,1.6666612,209.56249,-1421.5987)"
     id="west-active-tab-bottom">
    <rect
       class="ColorScheme-Background"
       y="-50.999985"
       x="948.36218"
       height="32"
       width="6"
       id="rect4148-7"
       style="color:#eff0f1;opacity:0.15;fill:#ffffff;fill-opacity:1;stroke:none"
       transform="rotate(90)" />
    <rect
       class="ColorScheme-Background"
       y="-50.999985"
       x="953.76233"
       height="32"
       width="0.59983426"
       id="rect984"
       style="color:#eff0f1;opacity:1;fill:#ffffff;fill-opacity:1;stroke:none;stroke-width:0.316184"
       transform="rotate(90)" />
  </g>
  <g
     transform="matrix(0.83333072,0,0,0.83333072,202.16673,-626.29944)"
     id="west-active-tab-bottomleft">
    <path
       inkscape:connector-curvature="0"
       id="path5048-0"
       d="m 13,942.36216 c 0,6.64798 5.352035,12.00002 12.00002,12.00002 v -2 -8.00002 -2 h -2.000003 -2.000004 -6.00001 z"
       style="opacity:0.15;fill:#ffffff;fill-opacity:1;stroke:none;stroke-width:2.00000334" />
    <path
       id="path979"
       style="opacity:1;fill:#ffffff;fill-opacity:1;stroke:none;stroke-width:1.66666"
       d="M 213 159 C 213 164.53997 217.46003 169 223 169 L 223 168 C 218.01401 168 214 163.98598 214 159 L 213 159 z "
       transform="matrix(1.2000038,0,0,1.2000038,-242.60084,751.56168)" />
  </g>
  <g
     transform="matrix(0.83333072,0,0,0.83333072,215.50014,-626.29944)"
     id="west-active-tab-bottomright">
    <path
       inkscape:connector-curvature="0"
       id="rect4177-6-9"
       d="m 44.99998,942.36216 v 2 8.00002 2 C 51.647965,954.36218 57,949.01014 57,942.36216 h -2.000003 -6.00001 -2.000004 z"
       style="opacity:0.15;fill:#ffffff;fill-opacity:1;stroke:none;stroke-width:2.00000334" />
    <path
       id="path986"
       style="opacity:1;fill:#ffffff;fill-opacity:1;stroke:none;stroke-width:1.66666"
       d="M 262 159 C 262 163.98598 257.98598 168 253 168 L 253 169 C 258.53997 169 263 164.53997 263 159 L 262 159 z "
       transform="matrix(1.2000038,0,0,1.2000038,-258.60098,751.56168)" />
  </g>
  <g
     transform="matrix(1.6666667,0,0,0.62499855,191.33336,-435.72514)"
     id="west-active-tab-left">
    <rect
       class="ColorScheme-Background"
       y="916.36218"
       x="-19.000004"
       height="32"
       width="5.9999995"
       id="rect4144-3"
       style="color:#eff0f1;opacity:0.15;fill:#ffffff;fill-opacity:1;stroke:none"
       transform="scale(-1,1)" />
    <rect
       class="ColorScheme-Background"
       y="916.36218"
       x="-13.599984"
       height="32"
       width="0.59997946"
       id="rect977"
       style="color:#eff0f1;opacity:1;fill:#ffffff;fill-opacity:1;stroke:none;stroke-width:0.316222"
       transform="scale(-1,1)" />
  </g>
  <g
     transform="matrix(1.6666578,0,0,0.62499855,168.00051,-435.72514)"
     id="west-active-tab-right">
    <rect
       class="ColorScheme-Background"
       style="color:#eff0f1;opacity:0.15;fill:#ffffff;fill-opacity:1;stroke:none"
       id="rect4140-6"
       width="5.9999995"
       height="32"
       x="50.999985"
       y="916.36218" />
    <rect
       class="ColorScheme-Background"
       style="color:#eff0f1;opacity:1;fill:#ffffff;fill-opacity:1;stroke:none;stroke-width:0.316225"
       id="rect991"
       width="0.59999019"
       height="32"
       x="56.399994"
       y="916.36218" />
  </g>
  <rect
     style="color:#eff0f1;opacity:0.15;fill:#ffffff;fill-opacity:1;stroke:none;stroke-width:0.71260923"
     id="west-active-tab-center"
     width="25.999983"
     height="19.999992"
     x="225.00005"
     y="136.99986"
     class="ColorScheme-Background" />
  <rect
     style="fill:#4e9a06;stroke-width:0.89442724"
     height="1.9999999"
     width="12"
     y="-147.99986"
     x="-263.00003"
     transform="scale(-1)"
     id="west-focus-hint-right-margin" />
  <rect
     style="fill:#4e9a06;stroke-width:0.89442664"
     height="1.9999999"
     width="11.999985"
     y="-147.99986"
     x="-225.00005"
     transform="scale(-1)"
     id="west-focus-hint-left-margin" />
  <rect
     style="fill:#4e9a06;stroke-width:0.77459669"
     height="12"
     width="1.9999999"
     y="-168.99986"
     x="-239.00005"
     transform="scale(-1)"
     id="west-focus-hint-bottom-margin" />
  <rect
     style="fill:#4e9a06;stroke-width:1.09544516"
     height="12"
     width="1.9999999"
     y="-136.99986"
     x="-239.00005"
     transform="scale(-1)"
     id="west-focus-hint-top-margin" />
  <g
     transform="matrix(0.81250095,0,0,1.6666698,373.56248,-1394.2731)"
     id="east-active-tab-top">
    <rect
       class="ColorScheme-Background"
       transform="matrix(0,-1,-1,0,0,0)"
       style="color:#eff0f1;opacity:0.15;fill:#ffffff;fill-opacity:1;stroke:none"
       id="rect4152-0"
       width="6"
       height="32"
       x="-916.36218"
       y="-50.999985" />
    <rect
       class="ColorScheme-Background"
       transform="matrix(0,-1,-1,0,0,0)"
       style="color:#eff0f1;opacity:1;fill:#ffffff;fill-opacity:1;stroke:none;stroke-width:0.316218"
       id="rect1026"
       width="0.5999648"
       height="32"
       x="-910.96216"
       y="-50.999985" />
  </g>
  <g
     transform="matrix(0.83333454,0,0,0.83333454,366.16667,-635.63632)"
     id="east-active-tab-topleft">
    <path
       inkscape:connector-curvature="0"
       id="rect4159-62"
       d="m 25,910.36218 c -6.647974,0 -12,5.35203 -12,12 h 8 2 2 v -2 -8 z"
       style="opacity:0.15;fill:#ffffff;fill-opacity:1;stroke:none;stroke-width:2" />
    <path
       id="path1000"
       style="opacity:1;fill:#ffffff;fill-opacity:1;stroke:none;stroke-width:1.66667"
       d="M 387 123 C 381.46001 123 377 127.46002 377 133 L 378 133 C 378 128.01405 382.01405 124 387 124 L 387 123 z "
       transform="matrix(1.1999983,0,0,1.1999983,-439.39937,762.76248)" />
  </g>
  <g
     transform="matrix(0.8333373,0,0,0.8333373,379.49975,-635.63882)"
     id="east-active-tab-topright">
    <path
       inkscape:connector-curvature="0"
       id="rect4177-61"
       d="m 45.00004,910.36218 v 1.99999 7.99998 1.99999 h 1.999994 1.999993 5.99998 H 57 c 0,-6.64795 -5.352008,-11.99996 -11.99996,-11.99996 z"
       style="opacity:0.15;fill:#ffffff;fill-opacity:1;stroke:none;stroke-width:1.99999332" />
    <path
       id="path1021"
       style="opacity:1;fill:#ffffff;fill-opacity:1;stroke:none;stroke-width:1.66667"
       d="M 417 123 L 417 124 C 421.98596 124 426 128.01404 426 133 L 427 133 C 427 127.46002 422.53999 123 417 123 z "
       transform="matrix(1.1999943,0,0,1.1999943,-455.39753,762.76295)" />
  </g>
  <g
     transform="matrix(0.81250095,0,0,1.6666612,373.56248,-1423.5986)"
     id="east-active-tab-bottom">
    <rect
       class="ColorScheme-Background"
       y="-50.999985"
       x="948.36218"
       height="32"
       width="6"
       id="rect4148-8"
       style="color:#eff0f1;opacity:0.15;fill:#ffffff;fill-opacity:1;stroke:none"
       transform="rotate(90)" />
    <rect
       class="ColorScheme-Background"
       y="-50.999985"
       x="953.76227"
       height="32"
       width="0.59989429"
       id="rect1012"
       style="color:#eff0f1;opacity:1;fill:#ffffff;fill-opacity:1;stroke:none;stroke-width:0.3162"
       transform="rotate(90)" />
  </g>
  <g
     transform="matrix(0.83333072,0,0,0.83333072,366.16672,-628.29932)"
     id="east-active-tab-bottomleft">
    <path
       inkscape:connector-curvature="0"
       id="path5048-7"
       d="m 13,942.36216 c 0,6.64798 5.352035,12.00002 12.00002,12.00002 v -2 -8.00002 -2 h -2.000003 -2.000004 -6.00001 z"
       style="opacity:0.15;fill:#ffffff;fill-opacity:1;stroke:none;stroke-width:2.00000334" />
    <path
       id="path1007"
       style="opacity:1;fill:#ffffff;fill-opacity:1;stroke:none;stroke-width:1.66666"
       d="M 377 157 C 377 162.53997 381.46003 167 387 167 L 387 166 C 382.01403 166 378 161.98597 378 157 L 377 157 z "
       transform="matrix(1.2000038,0,0,1.2000038,-439.40144,753.96155)" />
  </g>
  <g
     transform="matrix(0.83333072,0,0,0.83333072,379.50013,-628.29932)"
     id="east-active-tab-bottomright">
    <path
       inkscape:connector-curvature="0"
       id="rect4177-6-92"
       d="m 44.99998,942.36216 v 2 8.00002 2 C 51.647965,954.36218 57,949.01014 57,942.36216 h -2.000003 -6.00001 -2.000004 z"
       style="opacity:0.15;fill:#ffffff;fill-opacity:1;stroke:none;stroke-width:2.00000334" />
    <path
       id="path1014"
       style="opacity:1;fill:#ffffff;fill-opacity:1;stroke:none;stroke-width:1.66666"
       d="M 426 157 C 426 161.98597 421.98597 166 417 166 L 417 167 C 422.53997 167 427 162.53997 427 157 L 426 157 z "
       transform="matrix(1.2000038,0,0,1.2000038,-455.40158,753.96155)" />
  </g>
  <g
     transform="matrix(1.6666667,0,0,0.62499855,355.33335,-437.72502)"
     id="east-active-tab-left">
    <rect
       class="ColorScheme-Background"
       y="916.36218"
       x="-19.000004"
       height="32"
       width="5.9999995"
       id="rect4144-0"
       style="color:#eff0f1;opacity:0.15;fill:#ffffff;fill-opacity:1;stroke:none"
       transform="scale(-1,1)" />
    <rect
       class="ColorScheme-Background"
       y="916.36218"
       x="-13.59999"
       height="32"
       width="0.59998542"
       id="rect1005"
       style="color:#eff0f1;opacity:1;fill:#ffffff;fill-opacity:1;stroke:none;stroke-width:0.316224"
       transform="scale(-1,1)" />
  </g>
  <g
     transform="matrix(1.6666578,0,0,0.62499855,332.0005,-437.72502)"
     id="east-active-tab-right">
    <rect
       class="ColorScheme-Background"
       style="color:#eff0f1;opacity:0.15;fill:#ffffff;fill-opacity:1;stroke:none"
       id="rect4140-23"
       width="5.9999995"
       height="32"
       x="50.999985"
       y="916.36218" />
    <rect
       class="ColorScheme-Background"
       style="color:#eff0f1;opacity:1;fill:#ffffff;fill-opacity:1;stroke:none;stroke-width:0.316224"
       id="rect1019"
       width="0.59998423"
       height="32"
       x="56.400002"
       y="916.36218" />
  </g>
  <rect
     style="color:#eff0f1;opacity:0.15;fill:#ffffff;fill-opacity:1;stroke:none;stroke-width:0.71260923"
     id="east-active-tab-center"
     width="25.999983"
     height="19.999992"
     x="389.00003"
     y="134.99998"
     class="ColorScheme-Background" />
  <rect
     style="fill:#4e9a06;stroke-width:0.89442724"
     height="1.9999999"
     width="12"
     y="-145.99998"
     x="-427.00003"
     transform="scale(-1)"
     id="east-focus-hint-right-margin" />
  <rect
     style="fill:#4e9a06;stroke-width:0.89442724"
     height="1.9999999"
     width="12"
     y="-145.99998"
     x="-389.00003"
     transform="scale(-1)"
     id="east-focus-hint-left-margin" />
  <rect
     style="fill:#4e9a06;stroke-width:0.77459669"
     height="12"
     width="1.9999999"
     y="-166.99998"
     x="-403.00003"
     transform="scale(-1)"
     id="east-focus-hint-bottom-margin" />
  <rect
     style="fill:#4e9a06;stroke-width:1.09544516"
     height="12"
     width="1.9999999"
     y="-134.99998"
     x="-403.00003"
     transform="scale(-1)"
     id="east-focus-hint-top-margin" />
</svg>
