<?xml version="1.0" encoding="UTF-8" standalone="no"?>
<svg
   xmlns:dc="http://purl.org/dc/elements/1.1/"
   xmlns:cc="http://creativecommons.org/ns#"
   xmlns:rdf="http://www.w3.org/1999/02/22-rdf-syntax-ns#"
   xmlns:svg="http://www.w3.org/2000/svg"
   xmlns="http://www.w3.org/2000/svg"
   xmlns:sodipodi="http://sodipodi.sourceforge.net/DTD/sodipodi-0.dtd"
   xmlns:inkscape="http://www.inkscape.org/namespaces/inkscape"
   id="svg4379"
   width="200"
   height="200"
   inkscape:version="1.0.1 (3bc2e813f5, 2020-09-07)"
   sodipodi:docname="kde.svg"
   version="1.1"
   viewBox="0 0 200 200">
  <metadata
     id="metadata10">
    <rdf:RDF>
      <cc:Work
         rdf:about="">
        <dc:format>image/svg+xml</dc:format>
        <dc:type
           rdf:resource="http://purl.org/dc/dcmitype/StillImage" />
      </cc:Work>
    </rdf:RDF>
  </metadata>
  <defs
     id="defs8" />
  <sodipodi:namedview
     id="namedview39"
     bordercolor="#666666"
     borderopacity="1"
     gridtolerance="10"
     guidetolerance="10"
     inkscape:current-layer="svg4379"
     inkscape:cx="26.735309"
     inkscape:cy="84.74632"
     inkscape:pageopacity="0"
     inkscape:pageshadow="2"
     inkscape:window-height="985"
     inkscape:window-maximized="1"
     inkscape:window-width="1920"
     inkscape:window-x="0"
     inkscape:window-y="0"
     inkscape:zoom="2.8248916"
     objecttolerance="10"
     pagecolor="#dfe2e4"
     showgrid="true"
     inkscape:snap-bbox="true"
     inkscape:bbox-nodes="true"
     inkscape:snap-bbox-edge-midpoints="true"
     inkscape:document-rotation="0">
    <inkscape:grid
       id="grid839"
       type="xygrid" />
  </sodipodi:namedview>
  <g
     transform="matrix(3.8537213,0,0,3.8076702,36.757209,-8.0977535)"
     id="g1053"
     style="fill:#ffffff;fill-opacity:1">
    <path
       inkscape:connector-curvature="0"
       style="fill:#000000;fill-opacity:1;stroke-width:0.333109"
       id="path1045"
       d="M 4.4876124,6.4792104 C 4.2007497,6.5284804 3.9343856,6.5971795 3.7443799,6.7871698 3.5544653,6.9771683 3.4364607,7.3500899 3.4364607,7.6412946 V 15 H 14.248425 V 5.107669 l -2.10245,0.266916 z"
       sodipodi:nodetypes="ccsccccc" />
    <path
       inkscape:connector-curvature="0"
       style="fill:#000000;fill-opacity:1;stroke-width:0.341137"
       id="path1047"
       d="M 15.329631,4.9640982 V 15 H 29.385309 V 4.496747 c 0,-0.2911941 -0.123753,-0.5532268 -0.322921,-0.7432656 C 28.863215,3.5634864 28.585676,3.4077476 28.28288,3.4455221 L 17.534637,4.6968123 Z"
       sodipodi:nodetypes="cccscccc" />
    <path
       inkscape:connector-curvature="0"
       style="fill:#000000;fill-opacity:1;stroke-width:0.333109"
       id="path1049"
       d="m 3.4363646,16 v 7.358707 c 0,0.29119 0.1180046,0.684638 0.3079228,0.874677 0.1899146,0.189995 0.4545261,0.270054 0.7432655,0.307959 l 7.6584231,1.104056 2.102449,0.262782 v -9.907987 z"
       sodipodi:nodetypes="cscccccc" />
    <path
       inkscape:connector-curvature="0"
       style="fill:#000000;fill-opacity:1;stroke-width:0.341137"
       id="path1051"
       d="m 15.329631,16 v 10.048227 l 2.204913,0.275105 10.748242,1.185034 c 0.302926,0.03775 0.580209,-0.117964 0.779474,-0.307959 0.19917,-0.189995 0.322923,-0.452062 0.322923,-0.743266 V 15.999857 Z"
       sodipodi:nodetypes="cccccscc" />
  </g>
</svg>
