<?xml version="1.0" encoding="UTF-8" standalone="no"?>
<svg
   viewBox="0 0 22 22"
   inkscape:output_extension="org.inkscape.output.svgz.inkscape"
   sodipodi:docname="battery.svg"
   version="1.0"
   inkscape:version="1.1.1 (3bf5ae0d25, 2021-09-20)"
   sodipodi:version="0.32"
   id="svg7229"
   height="22"
   width="22"
   xmlns:inkscape="http://www.inkscape.org/namespaces/inkscape"
   xmlns:sodipodi="http://sodipodi.sourceforge.net/DTD/sodipodi-0.dtd"
   xmlns="http://www.w3.org/2000/svg"
   xmlns:svg="http://www.w3.org/2000/svg"
   xmlns:rdf="http://www.w3.org/1999/02/22-rdf-syntax-ns#"
   xmlns:cc="http://creativecommons.org/ns#"
   xmlns:dc="http://purl.org/dc/elements/1.1/">
  <defs
     id="defs7231">
    <style
       type="text/css"
       id="current-color-scheme">
      .ColorScheme-Text {
        color:#fbfbfb;
      }
      .ColorScheme-Background{
        color:#eff0f1;
      }
      .ColorScheme-ViewText {
        color:#fbfbfb;
      }
      .ColorScheme-ViewBackground{
        color:#ffffff;
      }
      .ColorScheme-ViewHover {
        color:#000000;
      }
      .ColorScheme-ViewFocus{
        color:#5a5a5a;
      }
      .ColorScheme-ButtonText {
        color:#fbfbfb;
      }
      .ColorScheme-ButtonBackground{
        color:#E9E8E8;
      }
      .ColorScheme-ButtonHover {
        color:#1489ff;
      }
      .ColorScheme-ButtonFocus{
        color:#2B74C7;
      }
</style>
    <style
       id="style5"
       type="text/css">
      .ColorScheme-Text {
        color:#fbfbfb;
      }
      .ColorScheme-Background {
        color:#eff0f1;
      }
      .ColorScheme-Highlight {
        color:#3daee9;
      }
      .ColorScheme-ViewText {
        color:#fbfbfb;
      }
      .ColorScheme-ViewBackground {
        color:#fcfcfc;
      }
      .ColorScheme-ViewHover {
        color:#93cee9;
      }
      .ColorScheme-ViewFocus{
        color:#3daee9;
      }
      .ColorScheme-ButtonText {
        color:#fbfbfb;
      }
      .ColorScheme-ButtonBackground {
        color:#eff0f1;
      }
      .ColorScheme-ButtonHover {
        color:#93cee9;
      }
      .ColorScheme-ButtonFocus{
        color:#3daee9;
      }
      </style>
  </defs>
  <sodipodi:namedview
     inkscape:document-rotation="0"
     inkscape:object-nodes="true"
     borderlayer="true"
     inkscape:showpageshadow="false"
     inkscape:snap-bbox="true"
     inkscape:window-maximized="1"
     gridtolerance="10000"
     inkscape:guide-bbox="true"
     showguides="true"
     inkscape:window-y="40"
     inkscape:window-x="0"
     inkscape:window-height="959"
     inkscape:window-width="1920"
     showgrid="true"
     inkscape:current-layer="layer1"
     inkscape:document-units="px"
     inkscape:cy="37.562502"
     inkscape:cx="22.906251"
     inkscape:zoom="15.999999"
     inkscape:pageshadow="2"
     inkscape:pageopacity="0"
     borderopacity="1.0"
     bordercolor="#666666"
     pagecolor="#c8c8c8"
     id="base"
     inkscape:pagecheckerboard="0">
    <inkscape:grid
       snapvisiblegridlinesonly="true"
       enabled="true"
       visible="true"
       empspacing="5"
       id="grid3780"
       type="xygrid" />
    <sodipodi:guide
       id="guide4222"
       orientation="32,0"
       position="-31.999999,30.000005"
       inkscape:locked="false" />
    <sodipodi:guide
       id="guide4224"
       orientation="0,32"
       position="-31.999999,-1.9999954"
       inkscape:locked="false" />
    <sodipodi:guide
       id="guide4226"
       orientation="-32,0"
       position="8.2519531e-07,-1.9999954"
       inkscape:locked="false" />
    <sodipodi:guide
       id="guide4230"
       orientation="24,0"
       position="-27.999999,26.000005"
       inkscape:locked="false" />
    <sodipodi:guide
       id="guide4232"
       orientation="0,24"
       position="-27.999999,2.0000046"
       inkscape:locked="false" />
    <sodipodi:guide
       id="guide4234"
       orientation="-24,0"
       position="-3.9999992,2.0000046"
       inkscape:locked="false" />
    <sodipodi:guide
       id="guide4236"
       orientation="0,-24"
       position="-3.9999992,26.000005"
       inkscape:locked="false" />
  </sodipodi:namedview>
  <metadata
     id="metadata7234">
    <rdf:RDF>
      <cc:Work
         rdf:about="">
        <dc:format>image/svg+xml</dc:format>
        <dc:type
           rdf:resource="http://purl.org/dc/dcmitype/StillImage" />
        <dc:title />
      </cc:Work>
    </rdf:RDF>
  </metadata>
  <g
     transform="translate(-214.53572,-404.50504)"
     id="layer1"
     inkscape:groupmode="layer"
     inkscape:label="Camada 1">
    <path
       class="ColorScheme-Text"
       style="opacity:1;fill:currentColor;fill-opacity:1;stroke:none"
       d="m 153.53572,438.50504 v 12 h 25 v -3 c 0.554,0 1,-0.446 1,-1 v -4 c 0,-0.554 -0.446,-1 -1,-1 v -3 z m 1,1 h 23 v 3 4 3 h -23 z"
       id="path4635"
       inkscape:connector-curvature="0"
       sodipodi:nodetypes="ccccsscccccccccc" />
    <rect
       class="ColorScheme-Text"
       y="440.50504"
       x="155.53572"
       height="8"
       width="21"
       id="rect4637"
       style="opacity:1;fill:currentColor;fill-opacity:1;stroke:none" />
    <g
       id="22-22-Battery">
      <rect
         style="opacity:1;fill:none;fill-opacity:1;stroke:none;stroke-width:0.1;stroke-linecap:square;stroke-linejoin:miter;stroke-miterlimit:4;stroke-dasharray:none;stroke-dashoffset:0;stroke-opacity:1"
         id="rect4185"
         width="22"
         height="22"
         x="214.53572"
         y="404.50504" />
      <path
         sodipodi:nodetypes="ccccccccccsssc"
         class="ColorScheme-Text"
         inkscape:connector-curvature="0"
         id="rect4168"
         d="m 217.53572,412.50504 v 12 h 15 v -4 h 2 v -4 h -2 v -4 z m 1,1 h 13 v 10 h -13 z"
         style="opacity:1;fill:#fefefe;fill-opacity:1;stroke:none;stroke-width:0.001375;stroke-linecap:square;stroke-linejoin:miter;stroke-miterlimit:4;stroke-dasharray:none;stroke-dashoffset:0;stroke-opacity:1" />
    </g>
    <g
       id="22-22-Fill100">
      <rect
         y="404.50504"
         x="236.53572"
         height="22"
         width="22"
         id="rect4193"
         style="opacity:1;fill:none;fill-opacity:1;stroke:none;stroke-width:0.1;stroke-linecap:square;stroke-linejoin:miter;stroke-miterlimit:4;stroke-dasharray:none;stroke-dashoffset:0;stroke-opacity:1" />
      <path
         sodipodi:nodetypes="ccccccccccsssc"
         class="ColorScheme-Text"
         inkscape:connector-curvature="0"
         id="path4191"
         d="m 239.53572,412.50504 v 12 h 15 v -4 h 2 v -4 h -2 v -4 z m 1,1 h 13 v 10 h -13 z"
         style="opacity:1;fill:#fefefe;fill-opacity:1;stroke:none;stroke-width:0.1;stroke-linecap:square;stroke-linejoin:miter;stroke-miterlimit:4;stroke-dasharray:none;stroke-dashoffset:0;stroke-opacity:1" />
      <path
         sodipodi:nodetypes="ccccc"
         class="ColorScheme-Text"
         style="fill:#fefefe;fill-opacity:1;fill-rule:evenodd;stroke:none;stroke-width:1.26491px;stroke-linecap:butt;stroke-linejoin:miter;stroke-opacity:1"
         d="m 241.53572,422.50504 v -8 h 11 v 8 z"
         id="path4199"
         inkscape:connector-curvature="0" />
    </g>
    <g
       id="22-22-battery-ups">
      <rect
         y="426.50504"
         x="214.53572"
         height="22"
         width="22"
         id="rect4416"
         style="opacity:1;fill:none;fill-opacity:1;stroke:none;stroke-width:0.1;stroke-linecap:square;stroke-linejoin:miter;stroke-miterlimit:4;stroke-dasharray:none;stroke-dashoffset:0;stroke-opacity:1" />
      <path
         class="ColorScheme-Text"
         inkscape:connector-curvature="0"
         style="opacity:1;fill:currentColor;fill-opacity:1;stroke:none;stroke-width:0.1;stroke-linecap:square;stroke-linejoin:miter;stroke-miterlimit:4;stroke-dasharray:none;stroke-dashoffset:0;stroke-opacity:1"
         d="M 5,25 V 41 H 17 V 25 Z m 1,1 H 16 V 40 H 6 Z m 5,1 -2,5 h 2 v 3 l 2,-5 H 11 Z M 7,37 v 2 h 1 v -2 z m 2,0 v 2 h 1 v -2 z m 2,0 v 2 h 1 v -2 z m 3,0 a 1,1 0 0 0 -1,1 1,1 0 0 0 1,1 1,1 0 0 0 1,-1 1,1 0 0 0 -1,-1 z"
         transform="translate(214.53572,404.50504)"
         id="rect4552" />
    </g>
    <g
       id="Battery">
      <rect
         style="opacity:1;fill:none;fill-opacity:1;stroke:none"
         id="rect4246"
         width="32"
         height="32"
         x="182.53572"
         y="396.50504"
         ry="0" />
      <path
         class="ColorScheme-Text"
         style="opacity:1;fill:currentColor;fill-opacity:1;stroke:none"
         d="m 185.53572,406.50504 v 12 h 25 v -3 c 0.554,0 1,-0.446 1,-1 v -4 c 0,-0.55401 -0.446,-1 -1,-1 v -3 z m 1,1 h 23 v 3 4 3 h -23 z"
         id="rect4238"
         inkscape:connector-curvature="0"
         sodipodi:nodetypes="ccccsscccccccccc" />
    </g>
    <g
       id="Fill100">
      <rect
         ry="0"
         y="396.50504"
         x="150.53572"
         height="32"
         width="32"
         id="rect4248"
         style="opacity:1;fill:none;fill-opacity:1;stroke:none" />
      <path
         class="ColorScheme-Text"
         sodipodi:nodetypes="ccccsscccccccccc"
         inkscape:connector-curvature="0"
         id="path4250"
         d="m 153.53572,406.50504 v 12 h 25 v -3 c 0.554,0 1,-0.446 1,-1 v -4 c 0,-0.554 -0.446,-1 -1,-1 v -3 z m 1,1 h 23 v 3 4 3 h -23 z"
         style="opacity:1;fill:currentColor;fill-opacity:1;stroke:none" />
      <rect
         class="ColorScheme-Text"
         style="opacity:1;fill:currentColor;fill-opacity:1;stroke:none"
         id="rect4254"
         width="21"
         height="8"
         x="155.53572"
         y="408.50504" />
    </g>
    <g
       id="Fill90">
      <rect
         style="opacity:1;fill:none;fill-opacity:1;stroke:none"
         id="rect4256"
         width="32"
         height="32"
         x="118.53572"
         y="396.50504"
         ry="0" />
      <path
         class="ColorScheme-Text"
         style="opacity:1;fill:currentColor;fill-opacity:1;stroke:none"
         d="m 121.53572,406.50504 v 12 h 25 v -3 c 0.554,0 1,-0.446 1,-1 v -4 c 0,-0.554 -0.446,-1 -1,-1 v -3 z m 1,1 h 23 v 3 4 3 h -23 z"
         id="path4260"
         inkscape:connector-curvature="0"
         sodipodi:nodetypes="ccccsscccccccccc" />
      <path
         class="ColorScheme-Text"
         style="opacity:1;fill:currentColor;fill-opacity:1;stroke:none"
         d="m 123.53572,408.50504 h 19 l 2,8 h -21 z"
         id="rect4262"
         inkscape:connector-curvature="0"
         sodipodi:nodetypes="ccccc" />
    </g>
    <g
       id="Fill80">
      <rect
         ry="0"
         y="396.50504"
         x="86.535721"
         height="32"
         width="32"
         id="rect4265"
         style="opacity:1;fill:none;fill-opacity:1;stroke:none" />
      <path
         class="ColorScheme-Text"
         sodipodi:nodetypes="ccccsscccccccccc"
         inkscape:connector-curvature="0"
         id="path4269"
         d="m 89.53572,406.50504 v 12 h 25 v -3 c 0.554,0 1,-0.446 1,-1 v -4 c 0,-0.554 -0.446,-1 -1,-1 v -3 z m 1,1 h 23 v 3 4 3 h -23 z"
         style="opacity:1;fill:currentColor;fill-opacity:1;stroke:none" />
      <path
         class="ColorScheme-Text"
         sodipodi:nodetypes="ccccc"
         inkscape:connector-curvature="0"
         id="path4271"
         d="m 91.53572,408.50504 h 17 l 2,8 h -19 z"
         style="opacity:1;fill:currentColor;fill-opacity:1;stroke:none" />
    </g>
    <g
       id="Fill70">
      <rect
         style="opacity:1;fill:none;fill-opacity:1;stroke:none"
         id="rect4273"
         width="32"
         height="32"
         x="56.535721"
         y="396.50504"
         ry="0" />
      <path
         class="ColorScheme-Text"
         style="opacity:1;fill:currentColor;fill-opacity:1;stroke:none"
         d="m 59.53572,406.50504 v 12 h 25 v -3 c 0.554,0 1,-0.446 1,-1 v -4 c 0,-0.554 -0.446,-1 -1,-1 v -3 z m 1,1 h 23 v 3 4 3 h -23 z"
         id="path4277"
         inkscape:connector-curvature="0"
         sodipodi:nodetypes="ccccsscccccccccc" />
      <path
         class="ColorScheme-Text"
         style="opacity:1;fill:currentColor;fill-opacity:1;stroke:none"
         d="m 61.53572,408.50504 h 15 l 2,8 h -17 z"
         id="path4279"
         inkscape:connector-curvature="0"
         sodipodi:nodetypes="ccccc" />
    </g>
    <g
       id="Fill60">
      <rect
         ry="0"
         y="396.50504"
         x="24.535721"
         height="32"
         width="32"
         id="rect4281"
         style="opacity:1;fill:none;fill-opacity:1;stroke:none" />
      <path
         class="ColorScheme-Text"
         sodipodi:nodetypes="ccccsscccccccccc"
         inkscape:connector-curvature="0"
         id="path4285"
         d="m 27.53572,406.50504 v 12 h 25 v -3 c 0.554,0 1,-0.446 1,-1 v -4 c 0,-0.554 -0.446,-1 -1,-1 v -3 z m 1,1 h 23 v 3 4 3 h -23 z"
         style="opacity:1;fill:currentColor;fill-opacity:1;stroke:none" />
      <path
         class="ColorScheme-Text"
         sodipodi:nodetypes="ccccc"
         inkscape:connector-curvature="0"
         id="path4287"
         d="m 29.53572,408.50504 h 13 l 2,8 h -15 z"
         style="opacity:1;fill:currentColor;fill-opacity:1;stroke:none" />
    </g>
    <g
       id="Fill50">
      <rect
         style="opacity:1;fill:none;fill-opacity:1;stroke:none"
         id="rect4289"
         width="32"
         height="32"
         x="-7.4642792"
         y="396.50504"
         ry="0" />
      <path
         class="ColorScheme-Text"
         style="opacity:1;fill:currentColor;fill-opacity:1;stroke:none"
         d="m -4.46428,406.50504 v 12 h 25 v -3 c 0.554,0 1,-0.446 1,-1 v -4 c 0,-0.554 -0.446,-1 -1,-1 v -3 z m 1,1 h 23 v 3 4 3 h -23 z"
         id="path4293"
         inkscape:connector-curvature="0"
         sodipodi:nodetypes="ccccsscccccccccc" />
      <path
         class="ColorScheme-Text"
         style="opacity:1;fill:currentColor;fill-opacity:1;stroke:none"
         d="m -2.46428,408.50504 h 11 l 2,8 h -13 z"
         id="path4295"
         inkscape:connector-curvature="0"
         sodipodi:nodetypes="ccccc" />
    </g>
    <g
       id="Fill40">
      <rect
         ry="0"
         y="396.50504"
         x="-39.464279"
         height="32"
         width="32"
         id="rect4297"
         style="opacity:1;fill:none;fill-opacity:1;stroke:none" />
      <path
         class="ColorScheme-Text"
         sodipodi:nodetypes="ccccsscccccccccc"
         inkscape:connector-curvature="0"
         id="path4301"
         d="m -36.46428,406.50504 v 12 h 25 v -3 c 0.554,0 1,-0.446 1,-1 v -4 c 0,-0.554 -0.446,-1 -1,-1 v -3 z m 1,1 h 23 v 3 4 3 h -23 z"
         style="opacity:1;fill:currentColor;fill-opacity:1;stroke:none" />
      <path
         class="ColorScheme-Text"
         sodipodi:nodetypes="ccccc"
         inkscape:connector-curvature="0"
         id="path4303"
         d="m -34.46428,408.50504 h 9 l 2,8 h -11 z"
         style="opacity:1;fill:currentColor;fill-opacity:1;stroke:none" />
    </g>
    <g
       id="Fill30">
      <rect
         style="opacity:1;fill:none;fill-opacity:1;stroke:none"
         id="rect4321"
         width="32"
         height="32"
         x="-71.464279"
         y="396.50504"
         ry="0" />
      <path
         class="ColorScheme-Text"
         style="fill:currentColor;fill-opacity:1;stroke:none"
         d="m -68.46428,406.50504 v 12 h 25 v -3 c 0.554,0 1,-0.446 1,-1 v -4 c 0,-0.554 -0.446,-1 -1,-1 v -3 z m 1,1 h 23 v 3 4 3 h -23 z"
         id="path4325"
         inkscape:connector-curvature="0"
         sodipodi:nodetypes="ccccsscccccccccc" />
      <path
         class="ColorScheme-Text"
         style="fill:currentColor;fill-opacity:1;stroke:none"
         d="m -66.46428,408.50504 h 5 l 2,8 h -7 z"
         id="path4327"
         inkscape:connector-curvature="0"
         sodipodi:nodetypes="ccccc" />
    </g>
    <g
       id="Fill20">
      <rect
         ry="0"
         y="396.50504"
         x="-103.46428"
         height="32"
         width="32"
         id="rect4329"
         style="opacity:1;fill:none;fill-opacity:1;stroke:none" />
      <path
         class="ColorScheme-Text"
         sodipodi:nodetypes="ccccsscccccccccc"
         inkscape:connector-curvature="0"
         id="path4333"
         d="m -100.46428,406.50504 v 12 h 25 v -3 c 0.554,0 1,-0.446 1,-1 v -4 c 0,-0.554 -0.446,-1 -1,-1 v -3 z m 1,1 h 23 v 3 4 3 h -23 z"
         style="fill:currentColor;fill-opacity:1;stroke:none" />
      <path
         class="ColorScheme-Text"
         sodipodi:nodetypes="ccccc"
         inkscape:connector-curvature="0"
         id="path4335"
         d="m -98.46428,408.50504 h 3 l 2,8 h -5 z"
         style="fill:currentColor;fill-opacity:1;stroke:none" />
    </g>
    <g
       id="Fill10">
      <rect
         style="opacity:1;fill:none;fill-opacity:1;stroke:none"
         id="rect4337"
         width="32"
         height="32"
         x="-135.46428"
         y="396.50504"
         ry="0" />
      <path
         style="opacity:1;fill:#da4453;fill-opacity:1;stroke:none"
         d="m -132.46428,406.50504 v 12 h 25 v -3 c 0.554,0 1,-0.446 1,-1 v -4 c 0,-0.554 -0.446,-1 -1,-1 v -3 z m 1,1 h 23 v 3 4 3 h -23 z"
         id="path4341"
         inkscape:connector-curvature="0"
         sodipodi:nodetypes="ccccsscccccccccc" />
      <path
         style="opacity:1;fill:#da4453;fill-opacity:1;stroke:none"
         d="m -130.46428,408.50504 h 1 l 2,8 h -3 z"
         id="path4343"
         inkscape:connector-curvature="0"
         sodipodi:nodetypes="ccccc" />
    </g>
    <g
       id="Fill0">
      <rect
         ry="0"
         y="396.50504"
         x="-167.46428"
         height="32"
         width="32"
         id="rect4345"
         style="opacity:1;fill:none;fill-opacity:1;stroke:none" />
      <path
         sodipodi:nodetypes="ccccsscccccccccc"
         inkscape:connector-curvature="0"
         id="path4349"
         d="m -164.46428,406.50504 v 12 h 25 v -3 c 0.554,0 1,-0.446 1,-1 v -4 c 0,-0.554 -0.446,-1 -1,-1 v -3 z m 1,1 h 23 v 3 4 3 h -23 z"
         style="opacity:1;fill:#da4453;fill-opacity:1;stroke:none" />
    </g>
    <g
       id="battery-ups">
      <rect
         style="opacity:1;fill:none;fill-opacity:1;stroke:none"
         id="rect4447"
         width="31.999998"
         height="31.999998"
         x="182.53572"
         y="428.50504" />
      <path
         class="ColorScheme-Text"
         style="opacity:1;fill:currentColor;fill-opacity:1;stroke:none"
         d="m 190.53572,432.50504 v 24 h 16 v -24 z m 1,1 h 14 v 22 h -14 z m 7,2 -3,7 h 3 v 4 l 3,-7 h -3 z m -6,15 v 3 h 1 v -3 z m 2,0 v 3 h 1 v -3 z m 2,0 v 3 h 1 v -3 z m 2,0 v 3 h 1 v -3 z m 4.5,0 a 1.5,1.5 0 0 0 -1.5,1.5 1.5,1.5 0 0 0 1.5,1.5 1.5,1.5 0 0 0 1.5,-1.5 1.5,1.5 0 0 0 -1.5,-1.5 z"
         id="rect4411"
         inkscape:connector-curvature="0" />
    </g>
    <g
       id="AcAdapter">
      <rect
         y="428.505"
         x="150.53575"
         height="32"
         width="32"
         id="rect4470"
         style="opacity:1;fill:none;fill-opacity:1;stroke:none;stroke-width:0.1;stroke-linecap:square;stroke-linejoin:miter;stroke-miterlimit:4;stroke-dasharray:none;stroke-dashoffset:0;stroke-opacity:1" />
      <g
         id="g4600">
        <path
           inkscape:connector-curvature="0"
           id="path4472"
           transform="translate(214.53572,404.50504)"
           d="m -48,37 a 3,3 0 0 0 -2.826172,2 H -52 v 2 h 1.175781 A 3,3 0 0 0 -48,43 v -1 h 2 v -1 h -2 V 40.900391 39 h 2 v -1 h -2 z"
           class="ColorScheme-Text"
           style="opacity:1;fill:currentColor;fill-opacity:1;stroke:none" />
      </g>
    </g>
    <path
       class="ColorScheme-Text"
       sodipodi:nodetypes="ccccsscccccccccc"
       inkscape:connector-curvature="0"
       id="path4250-0"
       d="m 88.535689,438.50504 v 12 h 25.000001 v -3 c 0.554,0 1,-0.446 1,-1 v -4 c 0,-0.554 -0.446,-1 -1,-1 v -3 z m 1,1 h 23.000001 v 3 4 3 H 89.535689 Z"
       style="opacity:1;fill:currentColor;fill-opacity:1;stroke:none" />
    <rect
       class="ColorScheme-Text"
       style="opacity:1;fill:currentColor;fill-opacity:1;stroke:none"
       id="rect4254-4"
       width="21"
       height="8"
       x="90.535675"
       y="440.50504" />
    <g
       transform="translate(-33.000031)"
       id="Unavailable">
      <rect
         style="opacity:1;fill:none;fill-opacity:1;stroke:none;stroke-width:0.1;stroke-linecap:square;stroke-linejoin:miter;stroke-miterlimit:4;stroke-dasharray:none;stroke-dashoffset:0;stroke-opacity:1"
         id="rect4480"
         width="32"
         height="32"
         x="118.53575"
         y="428.505" />
      <g
         id="g4580">
        <rect
           style="opacity:1;fill:#da4453;fill-opacity:1;stroke:none"
           id="rect4577"
           width="10"
           height="10"
           x="141.53572"
           y="446.50504"
           ry="1.0000046" />
        <path
           class="ColorScheme-Background"
           inkscape:connector-curvature="0"
           style="opacity:1;fill:currentColor;fill-opacity:1;stroke:none;stroke-width:0.111692;stroke-linecap:square;stroke-linejoin:miter;stroke-miterlimit:4;stroke-dasharray:none;stroke-dashoffset:0;stroke-opacity:1"
           d="m 144.24275,448.505 -0.70703,0.70703 2.29297,2.29297 -2.29297,2.29297 0.70703,0.70703 2.29297,-2.29297 2.29297,2.29297 0.70703,-0.70703 -2.29297,-2.29297 2.29297,-2.29297 -0.70703,-0.70703 -2.29297,2.29297 z"
           id="rect4622-0" />
      </g>
    </g>
    <g
       id="22-22-Fill90"
       transform="translate(22)">
      <rect
         y="404.50504"
         x="236.53572"
         height="22"
         width="22"
         id="rect963"
         style="opacity:1;fill:none;fill-opacity:1;stroke:none;stroke-width:0.1;stroke-linecap:square;stroke-linejoin:miter;stroke-miterlimit:4;stroke-dasharray:none;stroke-dashoffset:0;stroke-opacity:1" />
      <path
         sodipodi:nodetypes="ccccccccccsssc"
         class="ColorScheme-Text"
         inkscape:connector-curvature="0"
         id="path965"
         d="m 239.53572,412.50504 v 12 h 15 v -4 h 2 v -4 h -2 v -4 z m 1,1 h 13 v 10 h -13 z"
         style="opacity:1;fill:#fefefe;fill-opacity:1;stroke:none;stroke-width:0.1;stroke-linecap:square;stroke-linejoin:miter;stroke-miterlimit:4;stroke-dasharray:none;stroke-dashoffset:0;stroke-opacity:1" />
      <path
         sodipodi:nodetypes="ccccc"
         class="ColorScheme-Text"
         style="fill:#fefefe;fill-opacity:1;fill-rule:evenodd;stroke:none;stroke-width:1.20604px;stroke-linecap:butt;stroke-linejoin:miter;stroke-opacity:1"
         d="m 241.53572,422.50504 v -8 h 10 v 8 z"
         id="path967"
         inkscape:connector-curvature="0" />
    </g>
    <g
       id="22-22-Fill80"
       transform="translate(44)">
      <rect
         y="404.50504"
         x="236.53572"
         height="22"
         width="22"
         id="rect1070"
         style="opacity:1;fill:none;fill-opacity:1;stroke:none;stroke-width:0.1;stroke-linecap:square;stroke-linejoin:miter;stroke-miterlimit:4;stroke-dasharray:none;stroke-dashoffset:0;stroke-opacity:1" />
      <path
         sodipodi:nodetypes="ccccccccccsssc"
         class="ColorScheme-Text"
         inkscape:connector-curvature="0"
         id="path1072"
         d="m 239.53572,412.50504 v 12 h 15 v -4 h 2 v -4 h -2 v -4 z m 1,1 h 13 v 10 h -13 z"
         style="opacity:1;fill:#fefefe;fill-opacity:1;stroke:none;stroke-width:0.1;stroke-linecap:square;stroke-linejoin:miter;stroke-miterlimit:4;stroke-dasharray:none;stroke-dashoffset:0;stroke-opacity:1" />
      <path
         sodipodi:nodetypes="ccccc"
         class="ColorScheme-Text"
         style="fill:#fefefe;fill-opacity:1;fill-rule:evenodd;stroke:none;stroke-width:1.14415px;stroke-linecap:butt;stroke-linejoin:miter;stroke-opacity:1"
         d="m 241.53572,422.50504 v -8 h 9 v 8 z"
         id="path1074"
         inkscape:connector-curvature="0" />
    </g>
    <g
       id="22-22-Fill70"
       transform="translate(66)">
      <rect
         y="404.50504"
         x="236.53572"
         height="22"
         width="22"
         id="rect1107"
         style="opacity:1;fill:none;fill-opacity:1;stroke:none;stroke-width:0.1;stroke-linecap:square;stroke-linejoin:miter;stroke-miterlimit:4;stroke-dasharray:none;stroke-dashoffset:0;stroke-opacity:1" />
      <path
         sodipodi:nodetypes="ccccccccccsssc"
         class="ColorScheme-Text"
         inkscape:connector-curvature="0"
         id="path1109"
         d="m 239.53572,412.50504 v 12 h 15 v -4 h 2 v -4 h -2 v -4 z m 1,1 h 13 v 10 h -13 z"
         style="opacity:1;fill:#fefefe;fill-opacity:1;stroke:none;stroke-width:0.1;stroke-linecap:square;stroke-linejoin:miter;stroke-miterlimit:4;stroke-dasharray:none;stroke-dashoffset:0;stroke-opacity:1" />
      <path
         sodipodi:nodetypes="ccccc"
         class="ColorScheme-Text"
         style="fill:#fefefe;fill-opacity:1;fill-rule:evenodd;stroke:none;stroke-width:1.07871px;stroke-linecap:butt;stroke-linejoin:miter;stroke-opacity:1"
         d="m 241.53572,422.50504 v -8 h 8 v 8 z"
         id="path1111"
         inkscape:connector-curvature="0" />
    </g>
    <g
       id="22-22-Fill60"
       transform="translate(88)">
      <rect
         y="404.50504"
         x="236.53572"
         height="22"
         width="22"
         id="rect1115"
         style="opacity:1;fill:none;fill-opacity:1;stroke:none;stroke-width:0.1;stroke-linecap:square;stroke-linejoin:miter;stroke-miterlimit:4;stroke-dasharray:none;stroke-dashoffset:0;stroke-opacity:1" />
      <path
         sodipodi:nodetypes="ccccccccccsssc"
         class="ColorScheme-Text"
         inkscape:connector-curvature="0"
         id="path1117"
         d="m 239.53572,412.50504 v 12 h 15 v -4 h 2 v -4 h -2 v -4 z m 1,1 h 13 v 10 h -13 z"
         style="opacity:1;fill:#fefefe;fill-opacity:1;stroke:none;stroke-width:0.1;stroke-linecap:square;stroke-linejoin:miter;stroke-miterlimit:4;stroke-dasharray:none;stroke-dashoffset:0;stroke-opacity:1" />
      <path
         sodipodi:nodetypes="ccccc"
         class="ColorScheme-Text"
         style="fill:#fefefe;fill-opacity:1;fill-rule:evenodd;stroke:none;stroke-width:1.00904px;stroke-linecap:butt;stroke-linejoin:miter;stroke-opacity:1"
         d="m 241.53572,422.50504 v -8 h 7 v 8 z"
         id="path1119"
         inkscape:connector-curvature="0" />
    </g>
    <g
       id="22-22-Fill50"
       transform="translate(110)">
      <rect
         y="404.50504"
         x="236.53572"
         height="22"
         width="22"
         id="rect1123"
         style="opacity:1;fill:none;fill-opacity:1;stroke:none;stroke-width:0.1;stroke-linecap:square;stroke-linejoin:miter;stroke-miterlimit:4;stroke-dasharray:none;stroke-dashoffset:0;stroke-opacity:1" />
      <path
         sodipodi:nodetypes="ccccccccccsssc"
         class="ColorScheme-Text"
         inkscape:connector-curvature="0"
         id="path1125"
         d="m 239.53572,412.50504 v 12 h 15 v -4 h 2 v -4 h -2 v -4 z m 1,1 h 13 v 10 h -13 z"
         style="opacity:1;fill:#fefefe;fill-opacity:1;stroke:none;stroke-width:0.1;stroke-linecap:square;stroke-linejoin:miter;stroke-miterlimit:4;stroke-dasharray:none;stroke-dashoffset:0;stroke-opacity:1" />
      <path
         sodipodi:nodetypes="ccccc"
         class="ColorScheme-Text"
         style="fill:#fefefe;fill-opacity:1;fill-rule:evenodd;stroke:none;stroke-width:0.934189px;stroke-linecap:butt;stroke-linejoin:miter;stroke-opacity:1"
         d="m 241.53572,422.50504 v -8 h 6 v 8 z"
         id="path1127"
         inkscape:connector-curvature="0" />
    </g>
    <g
       id="22-22-Fill40"
       transform="translate(132)">
      <rect
         y="404.50504"
         x="236.53572"
         height="22"
         width="22"
         id="rect1131"
         style="opacity:1;fill:none;fill-opacity:1;stroke:none;stroke-width:0.1;stroke-linecap:square;stroke-linejoin:miter;stroke-miterlimit:4;stroke-dasharray:none;stroke-dashoffset:0;stroke-opacity:1" />
      <path
         sodipodi:nodetypes="ccccccccccsssc"
         class="ColorScheme-Text"
         inkscape:connector-curvature="0"
         id="path1133"
         d="m 239.53572,412.50504 v 12 h 15 v -4 h 2 v -4 h -2 v -4 z m 1,1 h 13 v 10 h -13 z"
         style="opacity:1;fill:#fefefe;fill-opacity:1;stroke:none;stroke-width:0.1;stroke-linecap:square;stroke-linejoin:miter;stroke-miterlimit:4;stroke-dasharray:none;stroke-dashoffset:0;stroke-opacity:1" />
      <path
         sodipodi:nodetypes="ccccc"
         class="ColorScheme-Text"
         style="fill:#fefefe;fill-opacity:1;fill-rule:evenodd;stroke:none;stroke-width:0.852794px;stroke-linecap:butt;stroke-linejoin:miter;stroke-opacity:1"
         d="m 241.53572,422.50504 v -8 h 5 v 8 z"
         id="path1135"
         inkscape:connector-curvature="0" />
    </g>
    <g
       id="22-22-Fill30"
       transform="translate(154)">
      <rect
         y="404.50504"
         x="236.53572"
         height="22"
         width="22"
         id="rect1139"
         style="opacity:1;fill:none;fill-opacity:1;stroke:none;stroke-width:0.1;stroke-linecap:square;stroke-linejoin:miter;stroke-miterlimit:4;stroke-dasharray:none;stroke-dashoffset:0;stroke-opacity:1" />
      <path
         sodipodi:nodetypes="ccccccccccsssc"
         class="ColorScheme-Text"
         inkscape:connector-curvature="0"
         id="path1141"
         d="m 239.53572,412.50504 v 12 h 15 v -4 h 2 v -4 h -2 v -4 z m 1,1 h 13 v 10 h -13 z"
         style="opacity:1;fill:#fefefe;fill-opacity:1;stroke:none;stroke-width:0.1;stroke-linecap:square;stroke-linejoin:miter;stroke-miterlimit:4;stroke-dasharray:none;stroke-dashoffset:0;stroke-opacity:1" />
      <path
         sodipodi:nodetypes="ccccc"
         class="ColorScheme-Text"
         style="fill:#fefefe;fill-opacity:1;fill-rule:evenodd;stroke:none;stroke-width:0.762762px;stroke-linecap:butt;stroke-linejoin:miter;stroke-opacity:1"
         d="m 241.53572,422.50504 v -8 h 4 v 8 z"
         id="path1143"
         inkscape:connector-curvature="0" />
    </g>
    <g
       id="22-22-Fill20"
       transform="translate(176)">
      <rect
         y="404.50504"
         x="236.53572"
         height="22"
         width="22"
         id="rect1147"
         style="opacity:1;fill:none;fill-opacity:1;stroke:none;stroke-width:0.1;stroke-linecap:square;stroke-linejoin:miter;stroke-miterlimit:4;stroke-dasharray:none;stroke-dashoffset:0;stroke-opacity:1" />
      <path
         sodipodi:nodetypes="ccccccccccsssc"
         class="ColorScheme-Text"
         inkscape:connector-curvature="0"
         id="path1149"
         d="m 239.53572,412.50504 v 12 h 15 v -4 h 2 v -4 h -2 v -4 z m 1,1 h 13 v 10 h -13 z"
         style="opacity:1;fill:#fefefe;fill-opacity:1;stroke:none;stroke-width:0.1;stroke-linecap:square;stroke-linejoin:miter;stroke-miterlimit:4;stroke-dasharray:none;stroke-dashoffset:0;stroke-opacity:1" />
      <path
         sodipodi:nodetypes="ccccc"
         class="ColorScheme-Text"
         style="fill:#fefefe;fill-opacity:1;fill-rule:evenodd;stroke:none;stroke-width:0.660571px;stroke-linecap:butt;stroke-linejoin:miter;stroke-opacity:1"
         d="m 241.53572,422.50504 v -8 h 3 v 8 z"
         id="path1151"
         inkscape:connector-curvature="0" />
    </g>
    <g
       id="22-22-Fill10"
       transform="translate(198)">
      <rect
         y="404.50504"
         x="236.53572"
         height="22"
         width="22"
         id="rect1155"
         style="opacity:1;fill:none;fill-opacity:1;stroke:none;stroke-width:0.1;stroke-linecap:square;stroke-linejoin:miter;stroke-miterlimit:4;stroke-dasharray:none;stroke-dashoffset:0;stroke-opacity:1" />
      <path
         sodipodi:nodetypes="ccccccccccsssc"
         class="ColorScheme-Text"
         inkscape:connector-curvature="0"
         id="path1157"
         d="m 239.53572,412.50504 v 12 h 15 v -4 h 2 v -4 h -2 v -4 z m 1,1 h 13 v 10 h -13 z"
         style="opacity:1;fill:#da4453;fill-opacity:1;stroke:none;stroke-width:0.1;stroke-linecap:square;stroke-linejoin:miter;stroke-miterlimit:4;stroke-dasharray:none;stroke-dashoffset:0;stroke-opacity:1" />
      <path
         sodipodi:nodetypes="ccccc"
         class="ColorScheme-Text"
         style="fill:#da4453;fill-opacity:1;fill-rule:evenodd;stroke:none;stroke-width:0.539354px;stroke-linecap:butt;stroke-linejoin:miter;stroke-opacity:1"
         d="m 241.53572,422.50504 v -8 h 2 v 8 z"
         id="path1159"
         inkscape:connector-curvature="0" />
    </g>
    <g
       id="22-22-Fill0"
       transform="translate(220)">
      <rect
         y="404.50504"
         x="236.53572"
         height="22"
         width="22"
         id="rect1163"
         style="opacity:1;fill:none;fill-opacity:1;stroke:none;stroke-width:0.1;stroke-linecap:square;stroke-linejoin:miter;stroke-miterlimit:4;stroke-dasharray:none;stroke-dashoffset:0;stroke-opacity:1" />
      <path
         sodipodi:nodetypes="ccccccccccsssc"
         class="ColorScheme-Text"
         inkscape:connector-curvature="0"
         id="path1165"
         d="m 239.53572,412.50504 v 12 h 15 v -4 h 2 v -4 h -2 v -4 z m 1,1 h 13 v 10 h -13 z"
         style="opacity:1;fill:#da4453;fill-opacity:1;stroke:none;stroke-width:0.1;stroke-linecap:square;stroke-linejoin:miter;stroke-miterlimit:4;stroke-dasharray:none;stroke-dashoffset:0;stroke-opacity:1" />
      <path
         sodipodi:nodetypes="ccccc"
         class="ColorScheme-Text"
         style="fill:#da4453;fill-opacity:1;fill-rule:evenodd;stroke:none;stroke-width:0.381381px;stroke-linecap:butt;stroke-linejoin:miter;stroke-opacity:1"
         d="m 241.53572,422.50504 v -8 h 1 v 8 z"
         id="path1167"
         inkscape:connector-curvature="0" />
    </g>
    <g
       id="g4741"
       transform="translate(0,22)">
      <rect
         y="404.50504"
         x="236.53572"
         height="22"
         width="22"
         id="rect4735"
         style="opacity:1;fill:none;fill-opacity:1;stroke:none;stroke-width:0.1;stroke-linecap:square;stroke-linejoin:miter;stroke-miterlimit:4;stroke-dasharray:none;stroke-dashoffset:0;stroke-opacity:1" />
      <path
         sodipodi:nodetypes="ccccccccccsssc"
         class="ColorScheme-Text"
         inkscape:connector-curvature="0"
         id="path4737"
         d="m 239.53572,412.50504 v 12 h 15 v -4 h 2 v -4 h -2 v -4 z m 1,1 h 13 v 10 h -13 z"
         style="opacity:1;fill:#fefefe;fill-opacity:1;stroke:none;stroke-width:0.1;stroke-linecap:square;stroke-linejoin:miter;stroke-miterlimit:4;stroke-dasharray:none;stroke-dashoffset:0;stroke-opacity:1" />
      <path
         sodipodi:nodetypes="ccccc"
         class="ColorScheme-Text"
         style="fill:#fefefe;fill-opacity:1;fill-rule:evenodd;stroke:none;stroke-width:1.26491px;stroke-linecap:butt;stroke-linejoin:miter;stroke-opacity:1"
         d="m 241.53572,422.50504 v -8 h 11 v 8 z"
         id="path4739"
         inkscape:connector-curvature="0" />
    </g>
    <g
       id="22-22-AcAdapter">
      <rect
         style="fill:none;fill-opacity:1;stroke:none;stroke-width:0.1;stroke-linecap:square;stroke-linejoin:miter;stroke-miterlimit:4;stroke-dasharray:none;stroke-dashoffset:0;stroke-opacity:1"
         id="rect4185-5"
         width="22"
         height="22"
         x="236.53572"
         y="426.50504" />
      <g
         id="g4168"
         transform="translate(-10.000001,-20.999995)">
        <g
           id="g4160">
          <path
             id="rect4059"
             style="fill:#ffffff;fill-rule:evenodd;stroke:#3d6590;stroke-width:2;stroke-linecap:butt;stroke-linejoin:miter;stroke-miterlimit:4;stroke-dasharray:none;stroke-opacity:1"
             d="m 248.53572,451.50504 v 2 h -1 v 6 h 2 v 8 h 2 v -8 h 2 v -6 h -1 v -2 h -1 v 2 h -2 v -2 z"
             sodipodi:nodetypes="ccccccccccccccccc" />
          <rect
             style="fill:#fbfbfb;fill-opacity:1;fill-rule:evenodd;stroke-linecap:round;stroke-linejoin:round"
             id="rect3266"
             width="6"
             height="6"
             x="247.53572"
             y="453.50504"
             ry="0" />
        </g>
        <rect
           style="fill:#fbfbfb;fill-opacity:1;fill-rule:evenodd;stroke-linecap:round;stroke-linejoin:round"
           id="rect3469"
           width="1"
           height="3"
           x="248.53572"
           y="451.50504" />
        <rect
           style="fill:#fbfbfb;fill-opacity:1;fill-rule:evenodd;stroke-linecap:round;stroke-linejoin:round"
           id="rect3551"
           width="1"
           height="3"
           x="251.53572"
           y="451.50504" />
        <rect
           style="fill:#fbfbfb;fill-rule:evenodd;stroke-linecap:round;stroke-linejoin:round;fill-opacity:1"
           id="rect3878"
           width="2"
           height="9"
           x="249.53572"
           y="458.50504"
           ry="0" />
      </g>
    </g>
    <g
       id="g4749"
       transform="translate(22,22)">
      <rect
         y="404.50504"
         x="236.53572"
         height="22"
         width="22"
         id="rect4743"
         style="opacity:1;fill:none;fill-opacity:1;stroke:none;stroke-width:0.1;stroke-linecap:square;stroke-linejoin:miter;stroke-miterlimit:4;stroke-dasharray:none;stroke-dashoffset:0;stroke-opacity:1" />
      <path
         sodipodi:nodetypes="ccccccccccsssc"
         class="ColorScheme-Text"
         inkscape:connector-curvature="0"
         id="path4745"
         d="m 239.53572,412.50504 v 12 h 15 v -4 h 2 v -4 h -2 v -4 z m 1,1 h 13 v 10 h -13 z"
         style="opacity:1;fill:#fefefe;fill-opacity:1;stroke:none;stroke-width:0.1;stroke-linecap:square;stroke-linejoin:miter;stroke-miterlimit:4;stroke-dasharray:none;stroke-dashoffset:0;stroke-opacity:1" />
      <path
         sodipodi:nodetypes="ccccc"
         class="ColorScheme-Text"
         style="fill:#fefefe;fill-opacity:1;fill-rule:evenodd;stroke:none;stroke-width:1.26491px;stroke-linecap:butt;stroke-linejoin:miter;stroke-opacity:1"
         d="m 241.53572,422.50504 v -8 h 11 v 8 z"
         id="path4747"
         inkscape:connector-curvature="0" />
    </g>
    <g
       id="22-22-Unavailable"
       transform="translate(-24)">
      <rect
         y="426.50497"
         x="282.53561"
         height="22"
         width="22"
         id="rect4614"
         style="fill:none;fill-opacity:1;stroke:none;stroke-width:0.1;stroke-linecap:square;stroke-linejoin:miter;stroke-miterlimit:4;stroke-dasharray:none;stroke-dashoffset:0;stroke-opacity:1" />
      <g
         id="g4631"
         transform="translate(23,-5.6435547e-5)">
        <rect
           style="opacity:1;fill:#da4453;fill-opacity:1;stroke:none"
           id="rect4577-9-1"
           width="8"
           height="8"
           x="273.5358"
           y="440.5051"
           ry="0.80000371" />
        <path
           class="ColorScheme-Background"
           id="rect4622"
           d="m 275.24275,441.50504 -0.70703,0.70703 2.29297,2.29297 -2.29297,2.29297 0.70703,0.70703 2.29297,-2.29297 2.29297,2.29297 0.70703,-0.70703 -2.29297,-2.29297 2.29297,-2.29297 -0.70703,-0.70703 -2.29297,2.29297 z"
           style="opacity:1;fill:currentColor;fill-opacity:1;stroke:none;stroke-width:0.111692;stroke-linecap:square;stroke-linejoin:miter;stroke-miterlimit:4;stroke-dasharray:none;stroke-dashoffset:0;stroke-opacity:1"
           inkscape:connector-curvature="0" />
      </g>
    </g>
  </g>
</svg>
