<?xml version="1.0" encoding="UTF-8" standalone="no"?>
<svg
   xmlns:dc="http://purl.org/dc/elements/1.1/"
   xmlns:cc="http://creativecommons.org/ns#"
   xmlns:rdf="http://www.w3.org/1999/02/22-rdf-syntax-ns#"
   xmlns:svg="http://www.w3.org/2000/svg"
   xmlns="http://www.w3.org/2000/svg"
   xmlns:xlink="http://www.w3.org/1999/xlink"
   xmlns:sodipodi="http://sodipodi.sourceforge.net/DTD/sodipodi-0.dtd"
   xmlns:inkscape="http://www.inkscape.org/namespaces/inkscape"
   id="svg4306"
   width="22"
   height="22"
   version="1.1"
   style="enable-background:new"
   sodipodi:docname="maximize.svg"
   inkscape:version="1.0.1 (3bc2e813f5, 2020-09-07)">
  <metadata
     id="metadata24">
    <rdf:RDF>
      <cc:Work
         rdf:about="">
        <dc:format>image/svg+xml</dc:format>
        <dc:type
           rdf:resource="http://purl.org/dc/dcmitype/StillImage" />
        <dc:title />
      </cc:Work>
    </rdf:RDF>
  </metadata>
  <defs
     id="defs22">
    <filter
       color-interpolation-filters="sRGB"
       height="1.048"
       width="1.048"
       y="-.024"
       x="-.024"
       id="filter11290">
      <feGaussianBlur
         id="feGaussianBlur879"
         stdDeviation="0.15875313" />
    </filter>
    <linearGradient
       gradientUnits="userSpaceOnUse"
       gradientTransform="translate(-0.0078552,-5.0139e-5)"
       y2=".64687"
       y1="16.296"
       x2="16.388"
       x1=".73911"
       id="linearGradient1005">
      <stop
         id="stop882"
         offset="0"
         stop-color="#00dc96" />
      <stop
         id="stop884"
         offset="1"
         stop-color="#14d29b" />
    </linearGradient>
  </defs>
  <sodipodi:namedview
     pagecolor="#c8c8c8"
     bordercolor="#666666"
     borderopacity="1"
     objecttolerance="10"
     gridtolerance="10"
     guidetolerance="10"
     inkscape:pageopacity="0"
     inkscape:pageshadow="2"
     inkscape:window-width="1920"
     inkscape:window-height="933"
     id="namedview20"
     showgrid="true"
     inkscape:zoom="11.313708"
     inkscape:cx="-14.372705"
     inkscape:cy="53.017739"
     inkscape:window-x="0"
     inkscape:window-y="52"
     inkscape:window-maximized="1"
     inkscape:current-layer="svg4306"
     inkscape:snap-bbox="true"
     inkscape:bbox-nodes="true"
     inkscape:snap-bbox-edge-midpoints="true"
     inkscape:document-rotation="0">
    <inkscape:grid
       type="xygrid"
       id="grid949" />
  </sodipodi:namedview>
  <use
     x="0"
     y="0"
     xlink:href="#g1000"
     id="use1002"
     transform="translate(28.476029)"
     width="100%"
     height="100%" />
  <g
     id="active-center">
    <rect
       ry="0"
       rx="0"
       y="9.5367432e-07"
       x="9.5367432e-07"
       height="21.999998"
       width="21.999998"
       id="rect962"
       style="opacity:0;fill:#000000;fill-opacity:1;fill-rule:evenodd;stroke:none;stroke-width:2.99999976;stroke-linecap:round;stroke-linejoin:round;stroke-miterlimit:4;stroke-dasharray:none;stroke-opacity:1;paint-order:fill markers stroke" />
    <path
       inkscape:connector-curvature="0"
       id="rect838"
       d="M 6,6 V 16 H 16 V 6 Z m 1,1 h 8 v 8 H 7 Z"
       style="opacity:1;fill:#ffffff;fill-opacity:1;stroke:none;stroke-width:1;stroke-linecap:round;stroke-miterlimit:4;stroke-dasharray:none;stroke-opacity:1"
       sodipodi:nodetypes="cccccccccc" />
  </g>
  <g
     id="inactive-center">
    <rect
       style="opacity:0;fill:#000000;fill-opacity:1;fill-rule:evenodd;stroke:none;stroke-width:2.99999976;stroke-linecap:round;stroke-linejoin:round;stroke-miterlimit:4;stroke-dasharray:none;stroke-opacity:1;paint-order:fill markers stroke"
       id="rect964"
       width="21.999998"
       height="21.999998"
       x="30.000002"
       y="7.3711777e-07"
       rx="0"
       ry="0" />
    <path
       inkscape:connector-curvature="0"
       style="opacity:0.5;fill:#ffffff;fill-opacity:1;stroke:none;stroke-width:1;stroke-linecap:round;stroke-miterlimit:4;stroke-dasharray:none;stroke-opacity:1"
       d="M 36,6 V 16 H 46 V 6 Z m 1,1 h 8 v 8 h -8 z"
       id="path843"
       sodipodi:nodetypes="cccccccccc" />
  </g>
  <g
     id="deactivated-center"
     transform="translate(-7.269774,-0.7910008)">
    <rect
       ry="0"
       rx="0"
       y="0.79100174"
       x="62.269775"
       height="21.999998"
       width="21.999998"
       id="rect1017"
       style="opacity:0;fill:#000000;fill-opacity:1;fill-rule:evenodd;stroke:none;stroke-width:2.99999976;stroke-linecap:round;stroke-linejoin:round;stroke-miterlimit:4;stroke-dasharray:none;stroke-opacity:1;paint-order:fill markers stroke" />
    <path
       id="path853"
       d="M 68.269774,6.7910008 V 16.791001 h 10 V 6.7910008 Z m 1,1 h 8 v 8.0000002 h -8 z"
       style="opacity:0.5;fill:#ffffff;fill-opacity:1;stroke:none;stroke-width:1;stroke-linecap:round;stroke-miterlimit:4;stroke-dasharray:none;stroke-opacity:1"
       inkscape:connector-curvature="0"
       sodipodi:nodetypes="cccccccccc" />
  </g>
  <g
     id="hover-center">
    <rect
       style="display:inline;opacity:1;fill:none;fill-opacity:1;stroke:none;stroke-width:1.375;stroke-linecap:butt;stroke-linejoin:miter;stroke-miterlimit:4;stroke-dasharray:none;stroke-dashoffset:0;stroke-opacity:0"
       id="rect6284"
       width="22"
       height="22"
       x="4.8794135e-07"
       y="27" />
    <g
       transform="translate(25)"
       id="g875">
      <rect
         style="opacity:0.15;fill:#ffffff;fill-opacity:1;stroke:none;stroke-width:1.29412;stroke-linecap:round;stroke-miterlimit:4;stroke-dasharray:none;stroke-opacity:1"
         id="rect867"
         width="22"
         height="22"
         x="-25"
         y="27"
         ry="3" />
      <path
         id="path845"
         d="M -19,33 V 43 H -9 V 33 Z m 1,1 h 8 v 8 h -8 z"
         style="opacity:1;fill:#ffffff;fill-opacity:1;stroke:none;stroke-width:1;stroke-linecap:round;stroke-miterlimit:4;stroke-dasharray:none;stroke-opacity:1"
         inkscape:connector-curvature="0"
         sodipodi:nodetypes="cccccccccc" />
      <path
         id="rect855"
         style="opacity:0.6;fill:#ffffff;fill-opacity:1;stroke:none;stroke-width:1.29412;stroke-linecap:round;stroke-miterlimit:4;stroke-dasharray:none;stroke-opacity:1"
         d="M 3 27 C 1.338 27 0 28.338 0 30 L 0 46 C 0 47.662 1.338 49 3 49 L 19 49 C 20.662 49 22 47.662 22 46 L 22 30 C 22 28.338 20.662 27 19 27 L 3 27 z M 3 28 L 19 28 C 20.108 28 21 28.892 21 30 L 21 46 C 21 47.108 20.108 48 19 48 L 3 48 C 1.892 48 1 47.108 1 46 L 1 30 C 1 28.892 1.892 28 3 28 z "
         transform="translate(-25)" />
    </g>
  </g>
  <g
     id="pressed-center">
    <rect
       y="57"
       x="4.8313905e-07"
       height="22"
       width="22"
       id="rect6380"
       style="display:inline;opacity:1;fill:none;fill-opacity:1;stroke:none;stroke-width:1.375;stroke-linecap:butt;stroke-linejoin:miter;stroke-miterlimit:4;stroke-dasharray:none;stroke-dashoffset:0;stroke-opacity:0" />
    <g
       transform="translate(25)"
       id="g899">
      <rect
         ry="3"
         y="57"
         x="-25"
         height="22"
         width="22"
         id="rect869"
         style="opacity:0.25;fill:#ffffff;fill-opacity:1;stroke:none;stroke-width:1.29412;stroke-linecap:round;stroke-miterlimit:4;stroke-dasharray:none;stroke-opacity:1" />
      <path
         inkscape:connector-curvature="0"
         style="opacity:1;fill:#ffffff;fill-opacity:1;stroke:none;stroke-width:1;stroke-linecap:round;stroke-miterlimit:4;stroke-dasharray:none;stroke-opacity:1"
         d="M -19,63 V 73 H -9 V 63 Z m 1,1 h 8 v 8 h -8 z"
         id="path871"
         sodipodi:nodetypes="cccccccccc" />
      <path
         id="rect862"
         style="opacity:0.6;fill:#ffffff;fill-opacity:1;stroke:none;stroke-width:1.29412;stroke-linecap:round;stroke-miterlimit:4;stroke-dasharray:none;stroke-opacity:1"
         d="M 3 57 C 1.338 57 0 58.338 0 60 L 0 76 C 0 77.662 1.338 79 3 79 L 19 79 C 20.662 79 22 77.662 22 76 L 22 60 C 22 58.338 20.662 57 19 57 L 3 57 z M 3 58 L 19 58 C 20.108 58 21 58.892 21 60 L 21 76 C 21 77.108 20.108 78 19 78 L 3 78 C 1.892 78 1 77.108 1 76 L 1 60 C 1 58.892 1.892 58 3 58 z "
         transform="translate(-25)" />
    </g>
  </g>
</svg>
