<?xml version="1.0" encoding="UTF-8" standalone="no"?>
<svg
   xmlns:dc="http://purl.org/dc/elements/1.1/"
   xmlns:cc="http://creativecommons.org/ns#"
   xmlns:rdf="http://www.w3.org/1999/02/22-rdf-syntax-ns#"
   xmlns:svg="http://www.w3.org/2000/svg"
   xmlns="http://www.w3.org/2000/svg"
   xmlns:sodipodi="http://sodipodi.sourceforge.net/DTD/sodipodi-0.dtd"
   xmlns:inkscape="http://www.inkscape.org/namespaces/inkscape"
   width="32"
   height="32"
   version="1.1"
   id="svg19"
   sodipodi:docname="bookmarks.svg"
   inkscape:version="0.92.4 5da689c313, 2019-01-14">
  <metadata
     id="metadata23">
    <rdf:RDF>
      <cc:Work
         rdf:about="">
        <dc:format>image/svg+xml</dc:format>
        <dc:type
           rdf:resource="http://purl.org/dc/dcmitype/StillImage" />
        <dc:title></dc:title>
      </cc:Work>
    </rdf:RDF>
  </metadata>
  <sodipodi:namedview
     pagecolor="#c8c8c8"
     bordercolor="#666666"
     borderopacity="1"
     objecttolerance="10"
     gridtolerance="10"
     guidetolerance="10"
     inkscape:pageopacity="0"
     inkscape:pageshadow="2"
     inkscape:window-width="1920"
     inkscape:window-height="1007"
     id="namedview21"
     showgrid="true"
     inkscape:zoom="11.313709"
     inkscape:cx="3.0214236"
     inkscape:cy="25.741073"
     inkscape:window-x="0"
     inkscape:window-y="0"
     inkscape:window-maximized="1"
     inkscape:current-layer="svg19"
     inkscape:snap-bbox="true"
     inkscape:snap-bbox-edge-midpoints="false"
     inkscape:bbox-nodes="true"
     inkscape:snap-nodes="false">
    <inkscape:grid
       type="xygrid"
       id="grid819" />
  </sodipodi:namedview>
  <defs
     id="defs6">
    <style
       id="current-color-scheme"
       type="text/css">.ColorScheme-Text { color:#dedede; } .ColorScheme-Highlight { color:#5294e2; } .ColorScheme-ButtonBackground { color:#dedede; }</style>
    <filter
       id="a"
       x="-.036"
       y="-.036"
       width="1.072"
       height="1.072"
       color-interpolation-filters="sRGB">
      <feGaussianBlur
         stdDeviation="0.43506"
         id="feGaussianBlur3" />
    </filter>
    <style
       id="style835"
       type="text/css" />
    <style
       id="style822"
       type="text/css" />
  </defs>
  <g
     id="bookmarks">
    <rect
       x="0"
       y="0"
       width="32"
       height="32"
       rx="0"
       ry="0"
       style="opacity:0;stroke-width:2;paint-order:fill markers stroke"
       id="rect8" />
    <path
       style="fill:none;stroke:#eaeaea;stroke-width:1;stroke-miterlimit:4;stroke-dasharray:none;stroke-opacity:1"
       inkscape:connector-curvature="0"
       d="M 28.450051,13.184553 C 28.318447,12.77754 27.943956,12.503945 27.522488,12.503945 H 19.045156 L 16.425393,4.1825667 C 16.298115,3.7769028 15.92496,3.5033084 15.500828,3.5033084 c -0.421473,0 -0.795958,0.2735944 -0.924565,0.6762177 L 11.953501,12.503945 H 3.477838 c -0.4228024,0 -0.7962973,0.273595 -0.9262343,0.680608 -0.1316065,0.402962 0.012697,0.848481 0.3535001,1.096402 l 6.8584344,4.810162 -3.2099231,8.121366 c -0.1329362,0.404319 0.011297,0.845784 0.3535,1.096411 0.337844,0.249268 0.8042853,0.249268 1.1437889,0 l 7.449924,-5.017591 7.45086,5.017591 c 0.168254,0.123621 0.369159,0.187798 0.571398,0.187798 0.200572,0 0.402809,-0.06416 0.572396,-0.187798 0.340838,-0.250627 0.485104,-0.692092 0.352167,-1.096411 l -3.206863,-8.121366 6.854432,-4.810162 c 0.340507,-0.247921 0.483439,-0.69344 0.354833,-1.096402 z"
       p-id="2080"
       id="path826"
       sodipodi:nodetypes="csccsccsccccccccsccccc" />
  </g>
</svg>
